<?xml version="1.0" standalone="no"?>
<!DOCTYPE svg PUBLIC "-//W3C//DTD SVG 20010904//EN"
 "http://www.w3.org/TR/2001/REC-SVG-20010904/DTD/svg10.dtd">
<svg version="1.0" xmlns="http://www.w3.org/2000/svg"
 width="333.000000pt" height="499.000000pt" viewBox="0 0 333.000000 499.000000"
 preserveAspectRatio="xMidYMid meet">

<g transform="translate(0.000000,499.000000) scale(0.100000,-0.100000)"
fill="#000000" stroke="none">
<path d="M10 2495 l0 -2485 1655 0 1655 0 0 2485 0 2485 -1655 0 -1655 0 0
-2485z m1661 1497 c64 -169 120 -315 124 -325 7 -16 3 -18 -31 -15 l-39 3 -30
85 -30 85 -120 3 -121 3 -33 -91 c-34 -90 -34 -90 -69 -90 -28 0 -33 3 -29 18
20 64 251 641 256 637 2 -3 57 -144 122 -313z m-515 282 c59 -24 74 -42 74
-86 0 -41 -10 -48 -31 -22 -25 30 -93 57 -144 57 -87 0 -156 -53 -202 -153
-21 -46 -24 -66 -21 -120 12 -168 149 -281 285 -236 28 9 61 28 73 41 32 34
40 31 40 -13 0 -63 -67 -102 -174 -102 -110 0 -210 69 -259 179 -25 57 -34
173 -18 238 24 95 106 189 189 219 51 18 142 17 188 -2z m909 -20 c52 -27 77
-77 77 -155 0 -52 -5 -68 -29 -103 -17 -24 -42 -45 -60 -51 -18 -6 -35 -13
-38 -17 -6 -5 122 -216 151 -249 21 -24 17 -29 -25 -29 l-38 0 -84 140 c-46
76 -87 139 -91 140 -5 0 -8 -63 -8 -140 l0 -140 -30 0 -30 0 0 316 0 317 83
-5 c57 -3 96 -11 122 -24z m262 -259 l2 -280 76 -3 75 -3 0 -29 0 -30 -110 0
-110 0 0 316 0 315 33 -3 32 -3 2 -280z m-1346 -461 c10 -9 19 -23 19 -30 0
-24 -21 -26 -41 -5 -32 34 -75 27 -98 -16 -17 -33 0 -58 57 -87 70 -36 97 -69
97 -120 0 -82 -70 -139 -142 -115 -33 11 -73 58 -73 87 0 22 37 13 48 -13 25
-55 99 -51 123 8 18 42 -2 72 -74 115 -72 42 -97 84 -77 132 20 48 58 73 103
67 21 -3 47 -13 58 -23z m229 16 c0 -6 18 -59 41 -118 22 -59 47 -125 56 -147
8 -22 23 -59 34 -82 l19 -43 -24 0 c-18 0 -27 9 -40 43 -9 23 -16 48 -16 55 0
8 -24 12 -79 12 l-80 0 -19 -52 c-14 -38 -26 -54 -41 -56 -26 -4 -26 -4 2 66
13 31 48 119 77 195 47 120 70 162 70 127z m447 -26 c42 -34 46 -43 34 -63 -8
-12 -17 -8 -50 22 -32 29 -49 37 -80 37 -83 0 -158 -92 -147 -180 9 -64 46
-114 100 -135 43 -16 46 -16 83 1 37 19 83 74 83 100 0 10 -15 14 -55 14 -48
0 -55 2 -55 20 0 18 7 20 75 20 71 0 75 -1 75 -22 0 -78 -58 -157 -130 -179
-111 -33 -235 101 -214 232 9 53 60 127 104 151 52 29 129 20 177 -18z m287
-67 c21 -56 56 -146 76 -199 37 -95 37 -98 16 -98 -16 0 -26 12 -42 53 l-22
52 -74 3 -75 3 -19 -53 c-15 -40 -25 -54 -42 -56 l-22 -3 18 48 c76 198 138
353 142 353 3 0 23 -46 44 -103z m291 -47 c66 -82 123 -149 128 -149 4 -1 7
67 7 149 0 128 2 150 15 150 9 0 18 -6 21 -13 2 -7 3 -100 2 -207 l-3 -194
-130 156 -130 157 -3 -150 c-2 -141 -4 -149 -22 -149 -19 0 -20 8 -20 200 0
110 3 200 8 199 4 0 61 -67 127 -149z m-233 -451 c-26 -23 -22 -33 18 -54 44
-23 55 -50 30 -75 -11 -11 -28 -20 -37 -19 -13 0 -11 3 7 10 27 11 41 29 33
41 -2 5 -22 20 -44 34 -44 28 -49 46 -17 68 31 22 36 20 10 -5z m191 14 c-7
-2 -13 -14 -14 -26 0 -12 -3 -16 -6 -9 -7 18 4 42 19 41 10 0 10 -2 1 -6z
m-1296 -53 c-11 -27 -22 -48 -24 -46 -5 5 31 96 38 96 4 0 -2 -22 -14 -50z
m206 30 c-3 -11 -7 -20 -9 -20 -2 0 -4 9 -4 20 0 11 4 20 9 20 5 0 7 -9 4 -20z
m67 -18 c0 -25 -39 -60 -61 -55 -28 8 -23 19 7 18 36 0 53 28 35 57 -13 21
-13 22 2 9 10 -7 17 -20 17 -29z m47 -84 c-2 -24 -4 -5 -4 42 0 47 2 66 4 43
2 -24 2 -62 0 -85z m67 107 c-4 -8 -8 -15 -10 -15 -2 0 -4 7 -4 15 0 8 4 15
10 15 5 0 7 -7 4 -15z m116 6 c0 -6 -4 -13 -10 -16 -5 -3 -10 1 -10 9 0 9 5
16 10 16 6 0 10 -4 10 -9z m80 -13 c28 -31 26 -83 -5 -113 -13 -14 -32 -25
-42 -25 -11 1 -6 6 13 14 49 22 59 82 19 121 -13 14 -20 25 -15 25 5 0 18 -10
30 -22z m155 -61 c15 -37 25 -70 22 -73 -3 -4 -9 5 -13 20 -3 14 -10 26 -15
26 -5 0 -9 9 -9 21 0 28 -19 61 -31 54 -11 -7 -11 -3 -3 20 9 22 16 12 49 -68z
m77 -20 c2 -31 0 -57 -4 -57 -5 0 -7 37 -7 83 2 85 6 75 11 -26z m97 53 c15
-43 -9 -99 -41 -100 -5 0 1 9 12 20 27 27 26 77 -2 108 -23 24 -23 25 -2 14
12 -7 27 -25 33 -42z m55 23 c-10 -40 -14 -41 -14 -5 0 18 5 32 10 32 6 0 8
-11 4 -27z m186 17 c0 -5 -2 -10 -4 -10 -3 0 -8 5 -11 10 -3 6 -1 10 4 10 6 0
11 -4 11 -10z m208 -10 c12 -12 22 -26 22 -33 0 -6 -7 -2 -15 10 -9 13 -23 27
-33 32 -9 6 -12 11 -6 11 5 0 20 -9 32 -20z m-1268 -6 c0 -8 -4 -12 -10 -9 -5
3 -10 10 -10 16 0 5 5 9 10 9 6 0 10 -7 10 -16z m1400 1 c0 -8 -4 -15 -10 -15
-5 0 -10 7 -10 15 0 8 5 15 10 15 6 0 10 -7 10 -15z m-1556 -55 l7 -25 -15 25
c-17 28 -21 50 -7 35 5 -6 12 -21 15 -35z m129 15 c-3 -9 -8 -14 -10 -11 -3 3
-2 9 2 15 9 16 15 13 8 -4z m610 -12 c-6 -26 -43 -95 -43 -82 0 4 6 22 14 40
7 19 16 42 19 52 10 27 18 20 10 -10z m-292 -36 c-4 -61 -11 -59 -11 3 0 29 3
50 7 46 4 -4 6 -26 4 -49z m917 -40 c12 -3 11 -5 -5 -6 -21 -1 -23 3 -21 52
l2 52 3 -47 c3 -33 9 -48 21 -51z m-326 71 c-16 -16 -15 -50 1 -67 10 -11 9
-13 -3 -9 -8 3 -17 13 -18 22 -5 26 7 66 20 66 9 0 9 -3 0 -12z m-822 -73 c0
-5 -9 5 -20 23 -11 18 -20 38 -20 45 1 14 39 -52 40 -68z m-112 27 c-7 -18
-16 -32 -20 -32 -4 0 0 16 9 35 20 42 27 41 11 -3z m1318 -10 c-14 -15 -26
-21 -26 -14 0 6 5 12 10 12 6 0 16 12 22 26 7 15 14 21 16 14 3 -7 -7 -24 -22
-38z m75 7 c-12 -19 -21 -30 -21 -26 0 14 31 69 36 64 3 -3 -4 -20 -15 -38z
m115 -26 c-5 -5 -36 50 -36 64 0 4 9 -7 21 -26 11 -18 18 -35 15 -38z m-1576
27 c0 -5 -4 -12 -10 -15 -5 -3 -10 -4 -10 -1 0 2 -3 12 -6 20 -5 12 -2 15 10
10 9 -3 16 -10 16 -14z m227 -22 c-3 -7 -5 -2 -5 12 0 14 2 19 5 13 2 -7 2
-19 0 -25z m73 0 c0 -6 -7 -5 -15 2 -8 7 -15 17 -15 22 0 6 7 5 15 -2 8 -7 15
-17 15 -22z m235 2 c3 -5 1 -10 -4 -10 -6 0 -11 5 -11 10 0 6 2 10 4 10 3 0 8
-4 11 -10z m522 -6 c-3 -3 -12 -4 -19 -1 -8 3 -5 6 6 6 11 1 17 -2 13 -5z
m-227 -99 c11 -13 10 -14 -4 -9 -9 3 -24 0 -34 -7 -14 -11 -13 -9 2 9 23 26
20 26 36 7z m-827 -52 c-37 -4 -44 -8 -49 -31 -10 -46 -12 -48 -13 -11 -1 20
2 39 6 42 3 4 27 6 52 5 l46 -1 -42 -4z m117 -27 c0 -7 6 -20 13 -31 13 -17
16 -15 37 23 13 23 27 42 32 42 4 0 -4 -22 -19 -49 l-28 -49 25 -49 c13 -26
26 -51 28 -55 2 -5 -1 -8 -6 -8 -5 0 -17 18 -27 40 -10 22 -23 40 -29 40 -6 0
-20 -18 -30 -40 -11 -22 -23 -40 -28 -40 -10 0 5 31 35 73 l19 28 -26 49 c-30
54 -33 68 -11 50 8 -7 15 -18 15 -24z m208 18 c43 -30 15 -106 -38 -103 -13 0
-13 1 0 6 26 10 50 35 50 54 0 23 -27 49 -51 49 -17 0 -19 -8 -19 -101 0 -55
-3 -98 -7 -96 -6 4 -9 159 -4 200 2 13 46 8 69 -9z m128 9 c-22 -3 -46 -12
-53 -21 -11 -15 -12 -15 -13 -1 0 24 10 29 59 27 l46 -1 -39 -4z m162 -9 c29
-20 30 -69 2 -86 -27 -17 -25 -34 5 -70 14 -17 23 -33 20 -37 -4 -3 -16 8 -28
24 -12 17 -34 43 -49 59 -28 29 -36 73 -22 110 8 20 43 20 72 0z m92 -89 c0
-63 -4 -105 -10 -105 -6 0 -10 42 -10 105 0 63 4 105 10 105 6 0 10 -42 10
-105z m64 68 c-9 -52 -14 -54 -14 -5 0 23 5 42 10 42 7 0 8 -14 4 -37z m74 30
c-10 -2 -28 -2 -40 0 -13 2 -5 4 17 4 22 1 32 -1 23 -4z m239 -187 c-2 -4 -35
27 -75 69 -40 43 -75 75 -79 71 -3 -3 -5 -40 -4 -82 2 -47 -1 -74 -7 -70 -6 3
-9 51 -9 105 l1 100 88 -92 c48 -51 86 -96 85 -101z m0 72 c-2 -24 -4 -5 -4
42 0 47 2 66 4 43 2 -24 2 -62 0 -85z m208 100 c7 -8 5 -9 -10 -3 -52 20 -64
18 -101 -19 -33 -33 -36 -41 -31 -74 10 -63 76 -99 128 -72 12 7 19 7 19 1 0
-6 -16 -13 -36 -17 -89 -16 -151 66 -113 150 22 48 112 69 144 34z m62 -135
c-2 -32 -3 -8 -3 52 0 61 1 87 3 58 2 -29 2 -78 0 -110z m147 121 c9 -22 8
-24 -9 -18 -8 4 -15 12 -15 20 0 19 16 18 24 -2z m-39 -60 c-8 -20 -12 -40 -9
-45 3 -5 1 -9 -4 -9 -5 0 -15 -13 -22 -30 -7 -16 -17 -30 -22 -30 -5 0 -5 7 1
18 5 9 21 43 35 75 27 62 46 80 21 21z m65 3 c0 -7 11 -36 25 -64 13 -29 21
-53 16 -53 -7 0 -41 72 -56 119 -5 16 -4 21 4 17 6 -4 11 -13 11 -19z m-1106
-8 c-8 -14 -24 -10 -24 6 0 9 6 12 15 9 8 -4 12 -10 9 -15z m-471 -28 c-3 -21
0 -48 7 -61 10 -18 9 -21 -2 -18 -15 5 -23 58 -14 94 10 37 15 28 9 -15z m77
29 c0 -5 -4 -10 -9 -10 -6 0 -13 5 -16 10 -3 6 1 10 9 10 9 0 16 -4 16 -10z
m455 0 c-3 -5 -10 -10 -16 -10 -5 0 -9 5 -9 10 0 6 7 10 16 10 8 0 12 -4 9
-10z m287 -40 c-4 -45 -2 -51 19 -60 l24 -10 -25 3 c-23 2 -25 6 -28 60 -2 31
1 57 6 57 5 0 7 -22 4 -50z m78 40 c0 -5 -11 -9 -25 -8 -14 1 -25 6 -25 10 0
4 11 8 25 8 14 0 25 -4 25 -10z m-453 -42 c-3 -8 -6 -5 -6 6 -1 11 2 17 5 13
3 -3 4 -12 1 -19z m159 -33 c1 -13 -2 -27 -7 -30 -5 -4 -9 11 -9 31 0 40 12
40 16 -1z m-102 -28 c34 -4 33 -4 -9 -3 -46 1 -50 3 -52 26 -3 25 -3 25 8 3 9
-16 23 -23 53 -26z m-426 -4 c-10 -2 -26 -2 -35 0 -10 3 -2 5 17 5 19 0 27 -2
18 -5z m825 0 c-7 -2 -19 -2 -25 0 -7 3 -2 5 12 5 14 0 19 -2 13 -5z m22 -83
c-10 -11 -20 -18 -23 -15 -3 3 3 14 13 25 10 11 20 18 23 15 3 -3 -3 -14 -13
-25z m-774 -60 c35 -19 20 -30 -17 -13 -34 17 -37 17 -72 -2 -22 -12 -44 -35
-55 -57 -16 -33 -16 -40 -4 -71 8 -18 27 -43 42 -55 29 -23 89 -30 100 -12 8
13 25 13 25 0 0 -5 -17 -14 -37 -19 -29 -8 -45 -7 -78 8 -95 42 -96 176 -2
216 39 17 72 19 98 5z m224 -10 l-50 -5 0 -40 0 -40 42 -1 c62 -1 66 -14 5
-14 l-52 0 0 -42 c0 -61 9 -71 59 -63 26 4 41 2 41 -5 0 -6 -23 -10 -55 -10
l-55 0 0 114 0 115 48 3 c64 4 79 -6 17 -12z m405 4 c0 -2 -12 -4 -26 -4 -14
0 -23 4 -20 9 6 8 46 4 46 -5z m80 6 c0 -5 -11 -10 -25 -10 l-25 0 0 -110 c0
-67 -4 -110 -10 -110 -6 0 -10 45 -10 114 l0 115 33 4 c17 2 33 5 35 5 1 1 2
-2 2 -8z m180 -10 l-45 -5 0 -40 c0 -40 0 -40 38 -39 20 1 37 -2 37 -7 0 -4
-17 -9 -37 -11 l-38 -3 0 -52 c0 -28 -3 -55 -7 -59 -5 -4 -8 45 -8 109 l0 116
43 3 c58 4 73 -6 17 -12z m336 6 c29 -22 11 -29 -23 -9 -26 15 -34 15 -63 3
-39 -16 -70 -63 -70 -108 0 -48 55 -102 102 -102 19 0 39 5 46 12 6 6 15 8 19
4 23 -23 -80 -36 -120 -15 -54 30 -77 95 -53 153 26 63 114 96 162 62z m-1136
-112 c0 -63 -3 -113 -7 -111 -8 5 -5 227 3 227 2 0 4 -52 4 -116z m336 26 c49
-49 92 -90 96 -90 4 0 9 42 10 93 l2 92 5 -110 c4 -60 3 -111 -1 -113 -3 -2
-47 39 -97 90 l-90 93 -1 -99 c0 -55 -3 -96 -7 -92 -6 6 -12 226 -6 226 0 0
41 -40 89 -90z m344 -25 c0 -70 -4 -115 -10 -115 -6 0 -10 45 -10 115 0 70 4
115 10 115 6 0 10 -45 10 -115z m230 -2 c0 -64 -2 -114 -5 -111 -9 8 -11 228
-2 228 4 0 7 -52 7 -117z m415 47 c14 -36 35 -85 46 -109 11 -24 18 -46 15
-48 -3 -3 -13 11 -22 31 -17 35 -19 36 -74 36 -55 0 -56 -1 -69 -35 -7 -19
-17 -35 -22 -35 -13 0 -14 -3 34 101 24 52 47 103 51 113 8 24 9 23 41 -54z
m-825 -310 c0 -12 -8 -12 -35 0 -18 8 -17 9 8 9 15 1 27 -3 27 -9z m-290 -65
c6 -19 15 -35 19 -35 4 0 15 19 24 42 23 58 33 40 11 -19 -29 -79 -34 -80 -60
-16 -26 63 -29 77 -15 68 5 -3 15 -21 21 -40z m174 39 c9 -3 16 -11 16 -16 0
-6 -7 -7 -16 -4 -32 12 -35 -7 -4 -33 22 -18 29 -31 25 -43 -10 -26 -44 -33
-63 -14 -15 15 -14 16 16 10 40 -8 45 15 7 40 -27 18 -32 35 -13 54 14 14 12
14 32 6z m260 -15 c31 -25 34 -61 6 -89 -26 -26 -60 -25 -88 0 -34 32 -29 75
13 98 28 16 39 15 69 -9z m151 1 c15 -16 15 -22 5 -35 -7 -8 -19 -15 -26 -15
-8 0 -14 -10 -14 -24 0 -14 -4 -28 -10 -31 -6 -4 -10 18 -10 59 0 57 2 66 18
66 11 0 27 -9 37 -20z m95 10 c0 -5 -11 -10 -25 -10 -16 0 -25 -6 -25 -15 0
-8 9 -15 20 -15 11 0 20 -4 20 -10 0 -5 -9 -10 -20 -10 -13 0 -20 -7 -20 -20
0 -13 7 -20 19 -20 11 0 23 -5 26 -11 5 -7 -5 -9 -26 -7 l-34 3 2 55 c1 30 2
58 2 63 1 11 61 8 61 -3z m77 -7 c3 -7 -4 -9 -16 -6 -31 8 -26 -8 11 -39 l33
-27 -21 -22 c-24 -24 -64 -19 -64 8 0 13 3 13 15 3 18 -15 47 -6 39 13 -3 8
-16 19 -30 25 -28 13 -31 37 -6 51 20 12 34 10 39 -6z m100 0 c3 -7 -3 -10
-15 -6 -32 8 -33 -12 -2 -36 37 -27 38 -48 5 -63 -21 -10 -29 -9 -43 5 -16 16
-15 17 16 11 40 -8 45 15 7 40 -27 18 -32 35 -13 54 15 15 40 12 45 -5z m131
-3 c27 -26 28 -64 2 -90 -33 -33 -76 -26 -99 17 -16 31 -14 41 14 68 29 30 54
32 83 5z m-1416 -37 c3 -41 6 -48 25 -51 24 -4 38 26 31 65 -2 11 1 19 6 19
13 -1 7 -77 -6 -93 -30 -37 -78 3 -78 64 0 58 18 55 22 -4z m151 -29 c3 -4 14
12 23 35 9 22 20 39 24 36 4 -3 11 -25 14 -50 4 -24 11 -47 15 -50 5 -2 19 20
31 50 12 30 26 55 30 55 7 0 60 -103 60 -116 0 -13 -20 0 -25 16 -8 27 -51 27
-65 0 -16 -30 -43 -20 -56 20 l-12 35 -13 -32 c-7 -18 -18 -33 -24 -33 -6 0
-17 15 -24 33 l-13 32 -14 -40 -14 -40 6 55 c8 74 15 81 34 37 9 -20 19 -40
23 -43z m377 16 c0 -33 -4 -60 -10 -60 -6 0 -10 27 -10 60 0 33 4 60 10 60 6
0 10 -27 10 -60z m196 5 c27 -62 28 -65 15 -65 -5 0 -11 9 -14 20 -3 14 -14
20 -32 20 -18 0 -29 -6 -32 -20 -5 -17 -23 -29 -23 -15 0 11 50 115 55 115 3
0 17 -25 31 -55z m813 0 c23 -54 24 -88 1 -46 -14 27 -56 28 -65 1 -5 -16 -25
-29 -25 -16 0 11 53 116 58 116 4 0 18 -25 31 -55z m51 5 c0 -38 4 -50 15 -50
8 0 15 -4 15 -10 0 -5 -9 -10 -20 -10 -16 0 -20 7 -20 38 0 20 -3 47 -6 60 -4
13 -2 22 5 22 7 0 11 -20 11 -50z m-1535 -165 c31 -30 31 -45 4 -79 -15 -20
-29 -26 -48 -24 -24 3 -26 7 -29 52 -2 27 -1 55 2 62 8 22 45 16 71 -11z m249
19 c9 -3 16 -18 16 -33 0 -14 4 -33 9 -40 16 -24 -6 -53 -37 -49 -25 3 -27 7
-30 52 -5 71 3 85 42 70z m96 -99 c23 0 25 4 28 53 3 59 22 62 22 4 0 -64 -48
-106 -78 -69 -14 17 -24 95 -15 110 5 7 10 -13 13 -43 5 -51 7 -55 30 -55z
m127 88 c3 -7 -3 -9 -16 -6 -30 8 -27 -21 4 -35 28 -13 33 -43 10 -62 -18 -15
-55 -4 -55 17 0 13 3 13 15 3 16 -13 45 -7 45 10 0 6 -11 15 -25 20 -31 12
-41 35 -25 56 15 17 41 15 47 -3z m120 1 c2 -7 -8 -9 -26 -6 -25 3 -32 0 -43
-23 -16 -36 0 -60 41 -60 37 0 36 -19 -1 -23 -18 -2 -32 5 -47 24 -27 35 -27
49 4 80 25 25 65 30 72 8z m257 0 c22 -21 20 -31 -9 -50 -14 -9 -25 -25 -25
-35 0 -10 -4 -21 -10 -24 -11 -7 -14 107 -3 118 11 12 31 8 47 -9z m130 -5
c32 -25 34 -61 4 -89 -28 -25 -62 -26 -88 0 -41 41 -14 105 46 109 6 1 23 -8
38 -20z m94 9 c16 -16 15 -45 0 -51 -10 -3 -8 -12 5 -36 22 -38 6 -41 -22 -3
l-20 27 -1 -28 c0 -16 -3 -26 -7 -24 -5 3 -6 32 -5 66 3 50 7 61 21 61 9 0 22
-5 29 -12z m162 -8 c42 -42 13 -110 -47 -110 -21 0 -23 4 -23 58 0 32 3 62 7
65 13 13 43 7 63 -13z m105 10 c-3 -5 -15 -10 -26 -10 -10 0 -19 -7 -19 -15 0
-8 9 -15 20 -15 11 0 20 -4 20 -10 0 -5 -9 -10 -20 -10 -13 0 -20 -7 -20 -20
0 -13 7 -20 19 -20 11 0 23 -5 26 -11 5 -7 -5 -9 -26 -7 -33 3 -34 4 -36 53
-2 68 2 75 37 75 18 0 29 -4 25 -10z m196 -6 c11 -13 9 -14 -14 -9 -36 9 -34
-4 5 -37 l33 -27 -21 -22 c-15 -15 -28 -19 -43 -14 -30 9 -26 24 5 22 38 -3
40 15 4 36 -34 20 -38 41 -12 56 23 14 27 14 43 -5z m-1430 -21 c6 -16 17 -41
25 -57 17 -36 9 -48 -12 -18 -20 28 -47 28 -67 0 -12 -17 -16 -19 -16 -7 -1 8
3 19 8 25 5 5 14 26 21 47 14 44 27 47 41 10z m601 -28 c16 -33 22 -57 17 -61
-6 -3 -13 3 -16 15 -8 30 -56 29 -71 -1 -6 -13 -11 -17 -11 -10 -1 17 40 112
48 112 3 0 18 -25 33 -55z m678 10 c0 -50 18 -67 46 -44 12 10 14 23 10 51 -4
23 -2 38 4 38 16 0 12 -87 -6 -104 -18 -19 -28 -20 -55 -6 -15 8 -19 22 -19
60 0 28 5 50 10 50 6 0 10 -20 10 -45z m-560 -1171 c0 -8 -5 -12 -10 -9 -6 4
-8 11 -5 16 9 14 15 11 15 -7z m-95 -24 c3 -5 1 -10 -5 -10 -8 0 -10 -9 -6
-25 7 -27 6 -28 -18 -19 -13 5 -14 8 -1 28 8 13 12 26 8 29 -3 4 -1 7 5 7 6 0
14 -4 17 -10z m105 -19 c0 -5 3 -17 7 -27 4 -11 3 -15 -4 -11 -14 9 -24 47
-12 47 5 0 9 -4 9 -9z m-180 -11 c0 -5 -5 -10 -12 -10 -6 0 -22 -10 -35 -22
-13 -12 -23 -17 -23 -11 0 16 33 41 68 52 1 1 2 -3 2 -9z m126 -49 c-10 -11
-15 -24 -12 -29 8 -13 -21 -49 -31 -38 -4 5 -2 11 5 13 24 9 11 21 -22 21 -19
0 -39 3 -44 6 -6 3 -12 1 -14 -6 -3 -7 -12 -9 -22 -5 -18 7 -18 8 -1 27 13 15
21 17 31 9 19 -16 95 -5 106 15 5 10 12 15 16 12 3 -3 -3 -15 -12 -25z m115
-14 c10 -18 0 -36 -22 -37 -8 0 -24 21 -32 41 -8 25 41 22 54 -4z m-311 -67
c0 -6 -55 -10 -144 -10 -86 0 -147 4 -151 10 -4 6 47 10 144 10 94 0 151 -4
151 -10z m80 0 c0 -5 -6 -10 -14 -10 -8 0 -18 5 -21 10 -3 6 3 10 14 10 12 0
21 -4 21 -10z m210 0 c0 -5 -7 -10 -15 -10 -8 0 -15 5 -15 10 0 6 7 10 15 10
8 0 15 -4 15 -10z m370 0 c0 -6 -58 -10 -155 -10 -97 0 -155 4 -155 10 0 6 58
10 155 10 97 0 155 -4 155 -10z m-413 -62 c-3 -8 -6 -5 -6 6 -1 11 2 17 5 13
3 -3 4 -12 1 -19z m-422 2 c3 -5 1 -10 -4 -10 -6 0 -11 5 -11 10 0 6 2 10 4
10 3 0 8 -4 11 -10z m331 -27 c-3 -4 -6 -1 -6 6 0 7 -4 9 -10 6 -6 -4 -7 1 -3
11 6 15 7 15 15 -1 6 -9 7 -19 4 -22z m281 5 c-3 -7 -5 -2 -5 12 0 14 2 19 5
13 2 -7 2 -19 0 -25z m-426 5 c13 -16 12 -17 -3 -4 -17 13 -22 21 -14 21 2 0
10 -8 17 -17z m196 -15 c-3 -7 -5 -2 -5 12 0 14 2 19 5 13 2 -7 2 -19 0 -25z
m290 10 c-3 -8 -6 -5 -6 6 -1 11 2 17 5 13 3 -3 4 -12 1 -19z m113 12 c0 -5
-5 -10 -11 -10 -5 0 -7 5 -4 10 3 6 8 10 11 10 2 0 4 -4 4 -10z"/>
<path d="M1534 4124 c-3 -10 -23 -64 -44 -119 -21 -55 -36 -103 -33 -107 2 -5
42 -8 89 -8 61 0 84 3 84 13 0 13 -78 228 -85 236 -3 2 -7 -5 -11 -15z"/>
<path d="M1920 4106 c0 -131 -1 -129 82 -106 51 15 78 52 78 107 0 58 -41 103
-93 103 -20 0 -42 3 -51 6 -14 5 -16 -8 -16 -110z"/>
<path d="M1170 3398 c-12 -35 -25 -69 -27 -75 -4 -10 10 -13 51 -13 31 0 56 4
56 10 0 13 -41 123 -50 133 -4 4 -17 -20 -30 -55z"/>
<path d="M1870 3398 c-13 -35 -25 -69 -27 -75 -4 -10 11 -13 55 -13 l61 0 -27
75 c-15 41 -30 75 -33 75 -4 0 -17 -28 -29 -62z"/>
<path d="M1429 2653 c-5 -27 -5 -70 -1 -80 6 -20 37 -15 58 8 17 19 17 23 3
47 -14 25 -57 43 -60 25z"/>
<path d="M2330 2240 c-30 -59 -27 -70 19 -70 22 0 42 4 45 9 6 9 -31 101 -39
101 -3 0 -14 -18 -25 -40z"/>
<path d="M1632 1888 c-16 -16 -15 -53 2 -68 21 -16 56 -9 72 15 27 41 -39 88
-74 53z"/>
<path d="M1814 1889 c-10 -17 13 -36 27 -22 12 12 4 33 -11 33 -5 0 -12 -5
-16 -11z"/>
<path d="M2182 1888 c-7 -7 -12 -21 -12 -33 0 -44 52 -61 83 -27 22 24 21 35
-1 55 -22 20 -53 22 -70 5z"/>
<path d="M1120 1860 c0 -19 11 -26 23 -14 8 8 -3 34 -14 34 -5 0 -9 -9 -9 -20z"/>
<path d="M1526 1873 c-12 -12 -6 -33 9 -33 8 0 15 6 15 14 0 17 -14 28 -24 19z"/>
<path d="M2336 1873 c-12 -12 -6 -33 9 -33 8 0 15 6 15 14 0 17 -14 28 -24 19z"/>
<path d="M840 1654 c0 -41 2 -45 21 -42 12 2 27 11 32 20 15 23 -6 68 -33 68
-17 0 -20 -7 -20 -46z"/>
<path d="M1120 1680 c0 -13 5 -20 13 -17 6 2 12 10 12 17 0 7 -6 15 -12 18 -8
2 -13 -5 -13 -18z"/>
<path d="M1120 1630 c0 -15 5 -20 18 -18 9 2 17 10 17 18 0 8 -8 16 -17 18
-13 2 -18 -3 -18 -18z"/>
<path d="M1710 1680 c0 -13 5 -20 13 -17 6 2 12 10 12 17 0 7 -6 15 -12 18 -8
2 -13 -5 -13 -18z"/>
<path d="M1797 1682 c-22 -24 -21 -35 2 -56 24 -22 59 -17 77 9 30 46 -42 88
-79 47z"/>
<path d="M1930 1680 c0 -11 7 -20 15 -20 8 0 15 9 15 20 0 11 -7 20 -15 20 -8
0 -15 -9 -15 -20z"/>
<path d="M2080 1655 c0 -49 15 -58 43 -27 22 24 21 35 -1 55 -31 28 -42 21
-42 -28z"/>
<path d="M970 1656 c0 -9 7 -16 16 -16 17 0 14 22 -4 28 -7 2 -12 -3 -12 -12z"/>
<path d="M1557 1660 c-3 -13 0 -20 9 -20 8 0 14 9 14 20 0 11 -4 20 -9 20 -5
0 -11 -9 -14 -20z"/>
</g>
</svg>
