<?xml version="1.0" standalone="no"?>
<!DOCTYPE svg PUBLIC "-//W3C//DTD SVG 20010904//EN"
 "http://www.w3.org/TR/2001/REC-SVG-20010904/DTD/svg10.dtd">
<svg version="1.0" xmlns="http://www.w3.org/2000/svg"
 width="347.000000pt" height="499.000000pt" viewBox="0 0 347.000000 499.000000"
 preserveAspectRatio="xMidYMid meet">

<g transform="translate(0.000000,499.000000) scale(0.100000,-0.100000)"
fill="#000000" stroke="none">
<path d="M10 2495 l0 -2485 1725 0 1725 0 0 2485 0 2485 -1725 0 -1725 0 0
-2485z m1366 2218 c3 -10 17 -40 31 -68 14 -27 47 -109 74 -181 59 -160 93
-239 108 -248 6 -4 11 -2 11 3 0 6 7 11 15 11 9 0 15 -9 15 -21 0 -15 -4 -19
-16 -15 -19 7 -19 7 26 -114 17 -47 34 -94 38 -105 7 -26 35 -47 43 -33 4 6 4
28 2 49 l-6 39 67 0 c56 0 66 3 66 18 0 31 -12 62 -24 62 -8 0 -11 12 -8 33 2
21 -2 38 -12 46 -17 14 -11 41 10 41 17 0 18 -12 2 -28 -9 -9 -8 -12 4 -12 10
0 18 -10 21 -27 3 -19 4 -15 4 12 0 22 5 58 11 80 11 42 17 213 14 378 l-2 97
63 -5 c162 -15 236 -39 301 -95 50 -44 66 -79 66 -142 -1 -43 -6 -60 -30 -92
-29 -38 -89 -86 -108 -86 -5 0 -15 -7 -22 -15 -7 -8 -21 -15 -31 -15 -28 0
-23 -12 17 -44 31 -25 35 -26 30 -8 -6 19 -3 20 126 16 73 -2 154 -6 180 -9
27 -3 49 -1 53 5 3 5 17 10 29 10 23 0 24 2 29 138 3 75 5 151 4 167 -4 91 4
156 19 162 30 11 36 -14 35 -168 0 -85 2 -187 6 -226 l5 -73 34 0 c29 0 34 -4
34 -22 0 -19 2 -20 10 -8 5 8 10 11 10 5 0 -5 5 -3 10 5 9 13 12 12 26 -5 13
-18 13 -21 -1 -31 -15 -12 -21 -34 -7 -34 13 1 37 25 49 50 l12 25 2 -30 c2
-16 3 -73 3 -125 l1 -95 117 0 c64 0 120 -3 123 -7 4 -3 4 -15 1 -26 -6 -18
-15 -20 -109 -18 -81 1 -107 -3 -126 -16 -13 -9 -31 -14 -40 -11 -9 3 -4 -5
11 -18 26 -24 27 -26 19 -106 -5 -66 -4 -88 9 -111 14 -26 129 -181 155 -208
5 -6 30 -43 55 -82 25 -39 48 -71 51 -71 4 -1 4 114 2 254 -5 249 -5 255 14
255 17 0 21 -9 26 -67 4 -38 9 -165 12 -283 3 -118 8 -246 11 -285 4 -61 3
-68 -10 -55 -15 15 -86 114 -133 185 -59 90 -158 217 -215 276 -9 10 -21 27
-28 38 -11 21 -30 29 -30 12 0 -5 7 -16 15 -25 17 -17 20 -36 5 -36 -5 0 -10
-7 -10 -16 0 -14 2 -14 16 -3 14 11 18 10 30 -5 12 -17 11 -21 -4 -32 -16 -13
-16 -15 5 -31 19 -15 20 -21 9 -35 -7 -10 -16 -15 -19 -11 -4 3 -7 -1 -7 -11
0 -10 5 -14 11 -10 8 5 9 -16 4 -74 -5 -53 -3 -82 4 -86 6 -4 11 -44 11 -94 2
-157 4 -202 12 -202 10 0 7 -190 -4 -220 -5 -13 -11 -43 -13 -67 -4 -34 -2
-41 10 -37 8 4 15 2 15 -4 0 -6 -6 -12 -12 -14 -10 -4 -9 -11 2 -34 8 -16 16
-32 18 -36 7 -16 -26 -7 -51 12 -39 31 -48 77 -27 139 9 28 20 54 24 58 3 3 6
13 6 22 -1 11 -7 7 -21 -11 -22 -29 -49 -37 -49 -15 0 7 5 18 11 24 8 8 6 19
-7 39 -35 54 -64 61 -32 8 17 -29 20 -46 15 -101 -3 -36 -2 -60 3 -54 4 7 7
-4 7 -26 1 -84 3 -103 14 -103 7 0 8 11 3 32 -6 29 -5 31 10 19 9 -7 16 -19
16 -26 0 -7 13 -18 28 -24 l28 -12 -1 -109 c-1 -61 -4 -113 -8 -116 -13 -13
-38 6 -35 28 2 11 -2 23 -8 25 -7 2 -14 -26 -18 -82 -7 -85 -4 -105 15 -105 6
0 7 5 3 12 -4 6 -3 8 3 5 12 -8 23 14 23 45 0 24 40 98 52 98 5 0 6 4 3 10 -3
5 0 7 8 4 8 -3 21 2 30 10 9 9 22 13 30 10 24 -9 48 -81 49 -148 1 -51 -4 -69
-26 -104 -14 -23 -32 -43 -39 -43 -24 -3 -42 3 -59 18 -9 8 -21 12 -27 9 -5
-4 -13 -1 -17 5 -4 8 -3 9 4 5 15 -9 15 4 2 38 -13 34 -34 35 -26 1 4 -14 2
-25 -4 -25 -5 0 -10 7 -10 15 0 8 -4 15 -10 15 -5 0 -10 -3 -10 -7 0 -13 47
-63 59 -63 6 0 11 -7 11 -16 0 -9 -5 -12 -12 -8 -6 4 -21 8 -34 10 -17 2 -21
-2 -17 -14 7 -18 22 -32 36 -32 5 0 5 5 1 11 -4 7 -1 10 7 7 19 -6 33 -69 20
-90 -7 -12 -8 -18 -1 -18 5 0 10 -11 10 -25 0 -14 -4 -25 -10 -25 -14 0 -13
-73 2 -88 8 -8 8 -15 -1 -26 -7 -8 -10 -20 -7 -25 4 -5 -4 -17 -16 -26 l-23
-17 28 6 c29 7 34 -3 16 -33 -9 -14 -8 -25 4 -49 8 -18 12 -34 7 -37 -4 -2 -5
-37 -3 -77 3 -40 6 -175 7 -299 l2 -226 -70 -3 c-100 -5 -407 -2 -431 3 -50
10 -12 77 45 77 22 0 30 5 30 17 0 14 3 14 12 5 10 -10 10 -15 -1 -21 -9 -6
-7 -9 11 -13 48 -8 58 0 58 51 0 41 3 49 25 59 28 13 25 37 -6 45 -13 4 -19 0
-19 -12 0 -10 -8 -17 -20 -18 -11 -1 -20 1 -20 5 1 12 49 62 60 62 5 0 10 9
10 20 0 16 -7 20 -34 20 -19 0 -38 -4 -41 -10 -8 -12 -35 -13 -35 -1 0 5 10
11 23 15 18 5 19 8 7 16 -8 5 -24 7 -35 5 -11 -3 -14 -2 -8 1 18 8 16 25 -2
18 -8 -4 -22 -1 -29 5 -19 16 -69 3 -62 -15 3 -8 -1 -14 -10 -14 -11 0 -12 4
-4 19 15 28 13 31 -17 30 -16 0 -22 -3 -15 -6 10 -4 10 -8 1 -19 -6 -8 -16
-14 -21 -14 -6 0 -19 -11 -30 -25 -25 -32 -38 -32 -38 0 0 20 5 25 23 25 17 0
29 10 43 35 15 28 24 35 39 30 11 -3 49 -13 85 -22 36 -8 74 -24 86 -34 29
-27 62 -24 70 5 5 20 11 24 34 21 15 -2 37 -8 47 -13 10 -6 28 -10 38 -9 16 2
19 -3 16 -23 -2 -14 -4 -83 -4 -155 l-2 -130 25 3 c36 5 33 -1 45 117 3 28 8
62 11 76 6 28 -19 89 -37 89 -6 0 -7 5 -4 10 4 6 10 23 15 39 7 26 6 27 -16
23 -14 -2 -26 -8 -29 -12 -6 -10 -45 -1 -45 10 0 5 -9 6 -20 3 -11 -3 -20 0
-20 6 0 5 -7 8 -15 5 -11 -4 -15 1 -15 17 0 13 -4 30 -8 36 -9 15 -49 19 -74
8 -11 -4 -18 -3 -18 5 0 6 -4 9 -9 5 -18 -11 -139 36 -144 56 -3 12 0 19 10
19 12 0 11 5 -4 31 -10 18 -26 34 -35 37 -23 6 -23 19 -1 19 9 0 27 -11 39
-24 12 -13 31 -23 43 -23 12 0 19 -4 16 -10 -3 -5 -16 -10 -27 -10 -12 0 -18
-3 -15 -7 4 -3 1 -13 -5 -21 -11 -13 -7 -14 25 -10 38 4 51 -6 20 -16 -10 -3
-2 -3 19 0 23 3 38 0 40 -7 4 -13 28 -4 28 11 0 5 -7 16 -16 25 -20 20 -17 24
24 27 38 3 40 8 10 27 l-23 14 30 13 c26 11 27 13 8 14 -20 0 -23 5 -23 39 0
23 -5 41 -12 43 -9 3 -7 17 10 49 17 33 22 58 20 94 -1 28 1 60 5 71 6 17 3
23 -13 27 -19 5 -20 8 -10 27 8 15 8 20 1 16 -7 -4 -11 1 -11 13 0 10 -5 21
-12 23 -6 2 -8 10 -4 16 10 17 26 15 26 -3 0 -8 7 -15 16 -15 13 0 15 7 11 29
-4 17 -9 95 -13 175 -7 140 -8 144 -30 149 -13 2 -25 -1 -27 -6 -2 -6 -20 2
-41 18 l-38 29 -29 -32 c-16 -18 -34 -30 -39 -27 -15 9 -12 55 4 55 7 0 25 11
40 25 35 33 46 31 79 -12 15 -20 27 -31 27 -25 0 6 -4 14 -10 17 -5 3 -10 14
-10 23 0 9 -12 28 -26 41 l-25 24 -40 -41 c-24 -26 -49 -42 -63 -42 -20 0 -25
-6 -28 -37 -3 -22 0 -41 6 -46 6 -4 0 -5 -14 -2 -24 6 -25 4 -25 -45 0 -27 3
-50 7 -50 5 0 8 -9 8 -20 0 -13 -5 -18 -15 -14 -11 5 -15 -1 -15 -19 0 -59 12
-86 46 -102 33 -15 42 -29 26 -39 -16 -9 -89 34 -102 61 -15 31 -21 161 -8
169 11 7 10 44 -2 44 -39 0 -74 -115 -60 -203 6 -42 4 -49 -13 -58 -12 -7 -23
-7 -29 -1 -5 5 -10 71 -10 146 -1 75 -4 136 -7 136 -3 0 -16 -15 -29 -34 -20
-30 -23 -46 -23 -132 0 -54 -3 -102 -5 -106 -3 -5 -14 -3 -25 2 -17 9 -19 22
-19 100 0 53 -4 90 -10 90 -5 0 -10 -13 -10 -30 0 -16 -6 -51 -12 -77 -10 -37
-10 -47 0 -50 6 -3 12 -12 12 -22 0 -9 5 -22 11 -28 12 -12 -5 -51 -28 -66 -7
-4 -13 -19 -13 -32 0 -22 4 -25 40 -25 33 0 40 -3 40 -20 0 -17 -7 -20 -39
-20 -22 0 -41 5 -44 13 -2 6 -8 -1 -12 -18 -13 -58 -12 -57 -45 -40 -28 14
-32 14 -67 -5 -27 -15 -31 -20 -14 -16 13 3 34 -2 46 -10 12 -8 30 -12 39 -8
10 4 19 0 23 -12 9 -21 18 -24 71 -26 26 -1 40 5 54 21 20 26 24 71 7 88 -7 7
-2 14 19 21 17 6 33 8 36 5 3 -4 6 1 6 10 0 10 -6 17 -14 17 -11 0 -76 54 -76
63 0 1 20 1 45 -1 35 -3 45 -1 45 11 0 9 -5 17 -12 19 -7 3 -9 12 -5 22 6 14
10 16 21 7 8 -7 25 -9 40 -5 16 4 26 2 26 -5 0 -16 -37 -51 -46 -43 -3 4 -5 1
-2 -7 2 -8 12 -15 22 -17 32 -5 47 -14 41 -24 -3 -5 0 -10 7 -10 9 0 10 -2 1
-8 -17 -11 -16 -150 1 -154 11 -2 11 -9 3 -28 l-11 -25 -4 29 c-3 24 -7 27
-30 23 -33 -6 -52 1 -52 20 0 8 -5 11 -10 8 -20 -12 -9 -36 19 -41 20 -4 32
-15 41 -39 7 -19 18 -31 23 -28 6 4 8 -2 5 -15 -4 -16 -2 -19 10 -15 11 5 13
3 7 -6 -9 -16 11 -31 43 -31 23 0 31 25 10 33 -10 4 -10 8 0 15 11 8 11 10 -1
15 -16 6 -12 47 4 47 5 0 9 9 9 19 0 15 9 20 44 22 24 2 42 1 40 -3 -2 -4 0
-9 6 -13 5 -3 10 -12 10 -18 0 -7 -4 -6 -10 3 -7 11 -10 7 -10 -17 0 -18 -4
-33 -10 -33 -5 0 -10 -20 -10 -44 0 -65 -16 -74 -98 -53 -71 19 -82 28 -82 69
0 39 -39 62 -90 54 -27 -4 -50 -1 -68 8 -15 8 -45 17 -67 20 -40 7 -152 43
-170 56 -5 4 -34 13 -62 21 -29 7 -66 25 -83 41 -30 27 -58 38 -45 19 3 -5 -8
-19 -24 -30 -17 -12 -33 -30 -36 -41 -4 -11 -11 -17 -17 -14 -7 4 -8 2 -4 -4
4 -6 0 -22 -9 -35 -17 -27 -56 -159 -45 -152 4 3 10 -18 12 -45 6 -60 32 -94
65 -85 12 3 42 -2 65 -10 57 -21 61 -22 142 -40 42 -9 76 -23 86 -36 10 -11
20 -15 22 -9 5 16 114 -16 152 -45 18 -14 37 -25 41 -25 4 0 23 15 41 34 l34
35 72 -21 c40 -11 76 -26 80 -32 13 -19 9 -28 -8 -22 -12 5 -15 2 -9 -11 19
-47 18 -53 -9 -53 -22 0 -26 4 -26 31 0 17 4 28 10 24 13 -8 13 5 0 25 -7 11
-10 11 -10 2 0 -9 -5 -10 -19 -3 -15 8 -20 7 -25 -6 -4 -10 -1 -20 9 -25 8 -5
15 -16 15 -24 0 -10 -7 -13 -26 -8 -20 5 -26 2 -31 -15 -6 -23 -18 -27 -29
-10 -3 6 -1 15 7 19 10 7 10 11 0 24 -9 11 -10 16 -2 16 6 0 11 7 11 15 0 8 3
14 8 14 26 -4 34 1 22 16 -18 22 -35 18 -63 -14 -14 -17 -28 -27 -31 -24 -3 4
-6 2 -6 -3 0 -6 -16 -8 -35 -6 -19 2 -33 9 -32 16 1 6 -6 10 -17 8 -14 -3 -17
1 -12 13 5 15 1 16 -26 12 -41 -7 -108 12 -108 30 0 7 -4 13 -9 13 -5 0 -7
-10 -3 -22 3 -14 2 -19 -6 -14 -7 4 -12 14 -12 22 0 9 -8 23 -17 32 -15 16
-16 16 -11 0 5 -10 0 -18 -11 -21 -24 -6 -53 -93 -45 -134 4 -18 14 -33 25
-36 10 -3 22 -19 27 -38 9 -35 6 -51 -6 -33 -11 16 -60 44 -76 44 -8 0 -19 7
-24 17 -7 12 -11 7 -14 -25 -3 -39 5 -57 14 -31 6 19 47 -8 54 -36 7 -29 -10
-55 -37 -55 -29 0 -23 -20 6 -21 29 -2 32 -2 63 -13 17 -6 27 -2 42 16 17 21
17 25 3 47 -11 17 -12 26 -3 35 8 8 15 7 24 -6 8 -12 27 -18 50 -18 25 0 36
-4 36 -15 0 -11 -11 -15 -35 -15 -32 0 -35 -2 -26 -19 7 -13 6 -24 -4 -37 -10
-13 -14 -15 -15 -5 0 11 -3 11 -15 1 -9 -7 -13 -21 -10 -31 5 -16 1 -19 -24
-19 -17 0 -31 4 -31 10 0 5 -15 16 -34 24 -19 8 -44 24 -55 35 -25 25 -51 28
-51 6 0 -21 -41 -35 -103 -35 -29 0 -83 -5 -121 -10 -103 -15 -235 -20 -241
-9 -4 5 5 9 19 9 35 0 47 27 41 100 -3 40 0 73 9 95 13 31 13 34 -5 38 -28 8
-28 105 1 130 11 9 20 27 20 39 0 13 3 33 6 46 8 29 -22 31 -31 1 -13 -40 -18
-7 -22 138 -1 82 -4 155 -5 163 -3 33 2 49 15 44 8 -3 20 2 27 11 7 9 8 15 2
15 -6 0 -13 -6 -16 -12 -3 -9 -9 -7 -20 6 -16 20 -21 68 -16 169 2 54 -1 62
-28 90 -36 37 -62 94 -62 134 1 41 33 103 73 140 26 25 33 38 30 58 -3 15 -1
25 6 25 8 0 7 6 -1 20 -10 16 -10 24 0 40 8 13 9 27 4 38 -5 9 -8 67 -8 127 1
62 -3 116 -9 124 -8 12 -6 13 8 8 15 -6 17 -3 12 16 -9 27 -23 43 -31 34 -10
-10 -20 -226 -11 -249 12 -32 -2 -36 -26 -6 l-22 26 -18 -24 c-22 -30 -38 -30
-56 -3 -17 28 -6 262 13 256 6 -2 10 -13 8 -23 -1 -10 -5 -66 -9 -122 l-6
-104 24 4 c34 4 49 44 56 145 4 61 10 92 21 100 12 10 13 26 8 83 -6 60 -5 70
9 70 12 0 14 6 9 28 -4 15 -11 32 -15 38 -5 6 -6 14 -2 17 3 4 0 13 -6 21 -7
8 -14 45 -16 82 -3 58 -1 67 16 71 21 6 27 57 7 69 -6 4 -8 3 -5 -2 3 -5 -3
-21 -13 -34 l-19 -25 3 40 c2 30 6 40 19 39 9 -1 17 2 17 7 0 5 -8 9 -19 9
-11 0 -21 9 -24 21 -11 42 -31 11 -67 -102 -20 -63 -39 -124 -44 -136 -5 -16
-15 -23 -32 -23 -13 0 -24 2 -24 5 0 3 33 105 73 228 111 338 111 335 97 352
-8 10 -9 19 -1 32 9 16 10 14 11 -10 0 -34 15 -28 23 10 3 16 9 37 13 48 7 17
6 18 -8 7 -11 -9 -18 -10 -23 -2 -3 5 -1 10 6 10 8 0 8 4 -1 15 -7 8 -15 13
-19 11 -4 -3 -6 27 -6 65 0 38 3 69 7 69 7 0 20 -33 17 -46 -5 -28 3 -45 18
-42 14 3 18 14 19 59 1 35 7 65 19 83 19 28 19 29 -2 22 -15 -5 -25 0 -37 18
-18 28 -22 76 -6 76 6 0 10 -14 10 -31 0 -19 4 -28 11 -24 6 4 8 13 5 20 -3 8
2 19 10 26 9 7 12 19 8 28 -8 19 -11 90 -4 92 19 5 57 7 68 4 9 -3 10 -10 3
-22 -17 -30 -51 -133 -51 -151 1 -9 9 6 19 33 21 57 46 115 101 230 103 214
180 384 180 394 0 18 20 13 26 -6z m-491 -33 c22 -10 51 -27 64 -38 20 -16 22
-22 12 -40 -15 -29 -24 -28 -62 8 -104 95 -229 74 -335 -57 -80 -98 -134 -286
-111 -385 14 -60 78 -138 138 -168 86 -44 196 -16 268 68 43 50 62 52 37 5
-22 -43 -86 -98 -139 -118 -63 -24 -161 -14 -214 22 -100 66 -141 131 -150
231 -16 187 90 382 251 462 74 37 176 42 241 10z m1598 -374 c4 -10 0 -12 -14
-9 -22 6 -26 23 -5 23 8 0 16 -6 19 -14z m207 4 c0 -5 -2 -10 -4 -10 -3 0 -8
5 -11 10 -3 6 -1 10 4 10 6 0 11 -4 11 -10z m-983 -46 c-3 -3 -12 -4 -19 -1
-8 3 -5 6 6 6 11 1 17 -2 13 -5z m1103 -4 c0 -5 -9 -10 -21 -10 -11 0 -17 5
-14 10 3 6 13 10 21 10 8 0 14 -4 14 -10z m-1826 -41 c-8 -14 -34 -10 -34 5 0
9 7 12 20 9 11 -3 17 -9 14 -14z m794 -7 c2 -7 -2 -12 -10 -12 -10 0 -9 -3 2
-10 10 -6 11 -10 3 -10 -9 0 -13 -19 -13 -59 0 -58 -1 -60 -30 -66 -38 -8 -50
0 -51 33 0 15 -3 21 -6 14 -7 -17 -23 -5 -23 19 0 10 -4 19 -10 19 -5 0 -10 7
-10 15 0 8 4 15 9 15 5 0 11 10 15 23 9 39 112 54 124 19z m-1204 -412 c52
-20 106 -60 100 -75 -8 -21 -18 -19 -92 17 -105 52 -170 38 -192 -40 -16 -58
14 -110 91 -160 122 -79 140 -94 167 -136 22 -34 27 -53 27 -107 0 -57 -4 -71
-28 -102 -57 -75 -160 -99 -239 -55 -23 13 -58 48 -83 85 -42 59 -43 63 -25
73 16 9 22 6 34 -18 8 -15 35 -47 59 -69 74 -68 139 -68 191 0 26 36 33 115
12 156 -17 32 -82 85 -120 97 -33 11 -104 73 -121 108 -9 17 -19 52 -22 78 -9
73 38 133 117 149 52 10 96 10 124 -1z m2575 -979 c-1 -145 2 -184 15 -209 13
-26 14 -30 2 -26 -8 3 -21 21 -28 40 l-14 35 -25 -37 c-32 -51 -46 -53 -64
-10 -29 70 -11 143 51 207 33 33 36 42 41 112 10 135 22 72 22 -112z m-2698
65 c25 -90 -16 -233 -86 -303 -23 -24 -49 -43 -57 -43 -29 0 -65 39 -78 85
-26 91 4 213 70 288 39 45 63 50 26 6 -38 -45 -52 -75 -69 -154 -24 -104 -8
-184 39 -202 35 -13 87 63 123 181 26 85 26 121 1 171 -25 49 -25 53 0 30 11
-10 25 -37 31 -59z m2529 -155 c0 -69 4 -122 10 -126 6 -3 10 -12 10 -18 -1
-7 -12 1 -25 17 l-24 30 -19 -24 c-24 -29 -42 -23 -67 23 -18 35 -18 38 -2 89
18 56 61 117 73 105 4 -4 -2 -17 -13 -30 -47 -52 -59 -177 -17 -177 27 0 43
45 48 135 3 50 6 91 6 93 0 1 5 2 10 2 6 0 10 -46 10 -119z m337 65 c30 -57
-3 -206 -45 -206 -10 0 -31 14 -48 31 -24 26 -29 38 -29 82 0 37 7 63 24 90
30 49 39 41 12 -12 -26 -51 -26 -84 0 -138 37 -77 58 -55 66 73 5 73 3 84 -15
102 -11 11 -18 23 -15 26 9 9 32 -14 50 -48z m-2673 6 l-7 -27 36 34 c35 33
37 34 62 17 21 -14 23 -20 15 -36 -5 -10 -10 -35 -10 -55 0 -20 -5 -67 -11
-106 -14 -81 -35 -96 -25 -16 4 28 9 87 13 130 7 90 -6 101 -47 40 -20 -30
-26 -53 -30 -125 -4 -54 -11 -93 -19 -100 -11 -11 -12 6 -6 102 7 103 12 169
14 178 1 2 6 0 11 -3 6 -3 7 -18 4 -33z m171 22 c14 -14 15 -30 8 -108 -4 -50
-7 -106 -6 -123 1 -18 -3 -33 -8 -33 -17 0 -21 52 -10 140 12 93 8 120 -16
120 -8 0 -11 5 -8 10 9 14 21 12 40 -6z m81 -361 c-4 -8 -11 -92 -16 -186 -11
-168 -10 -170 11 -193 19 -20 20 -24 6 -24 -9 0 -25 12 -34 27 -21 32 -22 111
-3 263 16 128 19 142 31 134 6 -3 8 -13 5 -21z m1483 -117 c32 -33 33 -37 29
-100 -3 -53 -10 -74 -34 -108 -16 -23 -42 -49 -57 -58 -27 -15 -29 -14 -63 22
-18 21 -34 47 -34 57 0 11 -5 23 -10 26 -7 4 -7 12 0 25 5 10 10 30 10 44 0
13 7 31 15 40 8 8 15 18 15 23 1 11 70 63 85 63 6 0 26 -15 44 -34z m755 18
c18 -7 22 -34 6 -34 -6 0 -19 5 -29 12 -24 15 -48 5 -63 -26 -13 -30 -1 -50
46 -71 17 -8 38 -20 47 -27 62 -51 36 -148 -40 -148 -30 0 -91 45 -91 67 0 13
6 11 28 -10 37 -36 88 -37 104 -3 14 33 5 53 -33 74 -92 50 -111 93 -62 144
26 27 55 34 87 22z m-2649 -41 c-6 -27 -6 -27 14 -9 23 21 40 16 19 -5 -26
-27 -37 -65 -43 -146 -8 -94 1 -104 47 -55 57 61 85 170 54 217 -9 14 -12 25
-6 25 15 0 37 -41 44 -81 12 -66 -33 -149 -103 -193 -35 -23 -37 -26 -49 -108
-7 -46 -12 -100 -12 -120 0 -35 -13 -57 -23 -41 -5 9 12 261 30 433 3 36 5 75
4 88 -2 15 3 22 14 22 14 0 16 -6 10 -27z m298 6 c14 -22 2 -60 -28 -93 -36
-39 -42 -26 -10 22 29 44 30 75 2 80 -29 6 -58 -76 -53 -153 2 -35 7 -69 11
-75 14 -22 49 -29 73 -14 12 8 22 10 22 4 0 -5 -11 -17 -25 -26 -94 -61 -154
158 -69 248 30 31 60 34 77 7z m1477 17 c0 -2 -7 -9 -15 -16 -12 -10 -15 -10
-15 4 0 9 7 16 15 16 8 0 15 -2 15 -4z m-58 -58 c-7 -7 -12 -8 -12 -2 0 6 3
14 7 17 3 4 9 5 12 2 2 -3 -1 -11 -7 -17z m578 0 c0 -19 -18 -43 -25 -36 -4 3
-2 16 5 27 12 24 20 27 20 9z m-573 -170 c-3 -8 -6 -5 -6 6 -1 11 2 17 5 13 3
-3 4 -12 1 -19z m200 0 c-3 -8 -6 -5 -6 6 -1 11 2 17 5 13 3 -3 4 -12 1 -19z
m-307 2 c0 -5 -4 -10 -10 -10 -5 0 -10 5 -10 10 0 6 5 10 10 10 6 0 10 -4 10
-10z m300 -32 c-1 -20 -45 -48 -60 -38 -11 7 -8 11 12 19 14 5 29 15 33 20 8
15 15 14 15 -1z m-262 -35 c2 -8 -5 -13 -17 -13 -12 0 -21 6 -21 16 0 18 31
15 38 -3z m142 -1 c0 -4 -6 -14 -12 -21 -11 -11 -9 -11 9 -2 26 13 36 14 29 2
-3 -5 -2 -44 2 -88 8 -79 8 -79 -15 -75 -21 4 -23 10 -23 63 0 42 -4 59 -13
59 -19 0 -36 20 -30 36 3 8 9 11 14 8 5 -3 12 2 15 10 6 17 24 22 24 8z m-95
-32 c9 -17 11 -30 5 -30 -5 0 -13 -1 -17 -2 -8 -4 -23 49 -15 56 9 9 11 8 27
-24z m215 -50 c0 -11 -7 -20 -16 -20 -8 0 -13 -4 -9 -9 8 -13 -10 -22 -29 -15
-20 8 -21 24 -2 24 8 0 17 7 20 16 3 8 10 12 16 9 5 -3 10 -1 10 4 0 6 2 11 5
11 3 0 5 -9 5 -20z m15 -90 c3 -5 1 -10 -4 -10 -6 0 -11 5 -11 10 0 6 2 10 4
10 3 0 8 -4 11 -10z m-495 -40 c0 -17 -7 -20 -40 -20 -33 0 -40 3 -40 20 0 17
7 20 40 20 33 0 40 -3 40 -20z m456 0 c19 0 24 -5 24 -25 0 -20 -5 -25 -26
-25 -14 0 -23 4 -19 9 3 5 -4 12 -15 16 -11 3 -20 13 -20 22 0 10 6 13 16 9 9
-3 27 -6 40 -6z m-931 -156 c-32 -98 -52 -122 -41 -48 3 26 12 52 20 56 8 5
12 17 9 28 -3 11 3 37 13 57 17 34 19 36 22 15 2 -13 -9 -61 -23 -108z m875
-28 c0 -30 -17 -43 -33 -26 -9 9 -8 14 5 24 10 7 15 16 11 19 -3 4 -1 7 5 7 7
0 12 -11 12 -24z m-620 -86 c0 -5 -5 -10 -11 -10 -5 0 -7 5 -4 10 3 6 8 10 11
10 2 0 4 -4 4 -10z m647 -26 c-3 -3 -12 -4 -19 -1 -8 3 -5 6 6 6 11 1 17 -2
13 -5z m-357 -71 c-11 -17 -11 -17 -6 0 3 10 6 24 7 30 0 9 2 9 5 0 3 -7 0
-20 -6 -30z m-27 -48 c-3 -9 -8 -14 -10 -11 -3 3 -2 9 2 15 9 16 15 13 8 -4z
m-333 -74 c0 -5 -7 -14 -15 -21 -13 -10 -15 -9 -15 9 0 12 6 21 15 21 8 0 15
-4 15 -9z m345 -21 c3 -5 1 -10 -4 -10 -6 0 -11 5 -11 10 0 6 2 10 4 10 3 0 8
-4 11 -10z m-188 -6 c-3 -3 -12 -4 -19 -1 -8 3 -5 6 6 6 11 1 17 -2 13 -5z
m546 -1 c-7 -2 -13 -13 -13 -24 0 -10 -7 -19 -15 -19 -8 0 -15 3 -15 7 0 11
33 43 44 42 6 0 6 -3 -1 -6z m-691 -42 c-3 -20 3 -40 17 -60 27 -38 27 -45 -3
-26 -30 20 -50 66 -41 94 10 33 32 26 27 -8z m38 -13 c0 -16 -3 -19 -11 -11
-6 6 -8 16 -5 22 11 17 16 13 16 -11z m270 18 c0 -2 -7 -6 -15 -10 -8 -3 -15
-1 -15 4 0 6 7 10 15 10 8 0 15 -2 15 -4z m320 -41 c0 -8 -7 -15 -15 -15 -8 0
-15 7 -15 15 0 8 7 15 15 15 8 0 15 -7 15 -15z m150 -8 c8 -3 -2 -6 -24 -6
-33 -1 -37 1 -26 14 8 9 17 12 24 6 6 -4 18 -11 26 -14z m-487 -42 c-3 -31 -1
-45 8 -45 8 0 7 -6 -4 -17 -17 -20 -29 -101 -16 -109 5 -3 9 -13 8 -22 0 -11
-3 -12 -6 -4 -2 6 -18 12 -34 12 -26 0 -28 3 -25 30 2 20 -1 30 -10 30 -8 0
-14 11 -14 27 0 25 1 25 19 9 18 -17 20 -16 40 1 22 18 28 43 11 43 -7 0 -7 7
0 20 9 16 8 22 -5 26 -31 12 -17 35 27 43 3 0 4 -19 1 -44z m167 25 c0 -5 -4
-10 -10 -10 -5 0 -10 5 -10 10 0 6 5 10 10 10 6 0 10 -4 10 -10z m60 -15 c0
-16 -6 -25 -16 -25 -9 0 -14 -7 -12 -17 3 -14 12 -17 43 -15 38 2 39 2 21 -13
-11 -8 -23 -15 -28 -15 -4 0 -8 -3 -8 -7 0 -11 58 -43 76 -43 12 0 12 -4 -2
-25 -9 -14 -21 -22 -27 -18 -6 3 -7 1 -3 -6 12 -19 -59 -44 -85 -30 -16 8 -27
8 -44 -1 -18 -9 -27 -9 -45 0 -18 10 -24 9 -31 -1 -20 -32 -54 58 -37 96 17
37 38 14 31 -33 -2 -20 -1 -32 4 -27 22 28 66 45 113 45 27 0 50 4 50 9 0 6
-12 9 -26 8 -21 -2 -28 4 -39 36 -11 33 -11 39 5 50 9 6 22 22 29 35 16 29 31
28 31 -3z m-292 -28 c2 -19 -1 -27 -12 -27 -11 0 -16 10 -16 31 0 38 24 35 28
-4z m552 1 c0 -16 -3 -19 -11 -11 -6 6 -8 16 -5 22 11 17 16 13 16 -11z m-100
-33 c0 -14 -7 -28 -15 -31 -8 -4 -15 -15 -15 -25 0 -10 -7 -19 -15 -19 -8 0
-15 6 -15 14 0 7 7 19 15 26 23 19 18 40 -11 40 -14 0 -23 4 -19 10 3 6 22 10
41 10 30 0 34 -3 34 -25z m-340 -5 c0 -5 -4 -10 -10 -10 -5 0 -10 5 -10 10 0
6 5 10 10 10 6 0 10 -4 10 -10z m440 1 c0 -6 -4 -13 -10 -16 -5 -3 -10 1 -10
9 0 9 5 16 10 16 6 0 10 -4 10 -9z m-600 -86 c0 -8 -5 -15 -11 -15 -8 0 -8 -5
1 -15 7 -8 10 -21 7 -29 -3 -7 0 -19 6 -25 8 -8 8 -11 0 -11 -13 0 -45 88 -37
101 9 15 34 10 34 -6z m-65 -62 c6 -30 5 -32 -14 -25 -11 4 -20 10 -20 15 -1
4 -1 21 -1 39 0 28 2 30 14 18 8 -8 17 -30 21 -47z m-800 -8 c-39 -18 -50 -18
-65 0 -11 13 -5 15 41 14 54 -1 54 -1 24 -14z m623 -14 c22 -19 29 -41 13 -41
-5 0 -14 7 -21 15 -7 8 -21 15 -31 15 -21 0 -26 16 -6 23 19 8 20 8 45 -12z
m637 9 c3 -6 -1 -7 -9 -4 -18 7 -21 14 -7 14 6 0 13 -4 16 -10z m55 -5 c-14
-17 -30 -20 -30 -6 0 5 8 12 18 14 9 3 19 5 21 6 2 0 -2 -6 -9 -14z m-150 -25
c0 -5 -5 -10 -11 -10 -5 0 -7 5 -4 10 3 6 8 10 11 10 2 0 4 -4 4 -10z m-664
-569 c5 -6 25 -6 53 0 33 7 534 7 559 0 2 -1 1 -5 -3 -10 -3 -6 -30 -8 -60 -6
-52 4 -73 -6 -40 -19 19 -7 19 -21 -1 -41 -9 -9 -13 -19 -10 -23 4 -3 11 0 16
8 5 8 13 11 17 6 9 -9 -24 -36 -43 -36 -10 0 -11 13 -7 50 3 28 2 50 -3 51
-55 5 -124 5 -124 0 0 -3 9 -12 20 -19 25 -15 26 -54 2 -75 -25 -23 -32 -13
-32 50 l0 53 -275 -7 c-253 -5 -275 -5 -269 11 5 13 22 16 98 16 51 0 96 -4
102 -9z m759 -1 c3 -5 1 -11 -4 -14 -11 -7 -131 5 -131 13 0 10 129 11 135 1z
m-735 -43 c0 -7 -7 -22 -15 -33 -12 -16 -14 -17 -15 -2 0 23 11 48 21 48 5 0
9 -6 9 -13z m60 -22 c0 -6 -9 -11 -20 -11 -23 0 -23 1 -9 28 9 17 13 18 20 7
5 -8 9 -19 9 -24z m124 24 c14 12 16 10 16 -15 0 -21 -3 -25 -12 -16 -8 8 -15
9 -25 1 -10 -9 -13 -5 -13 17 0 21 3 25 9 15 8 -12 12 -12 25 -2z m231 -19 c0
-37 -19 -34 -23 3 -2 17 1 27 10 27 8 0 13 -12 13 -30z m145 14 c11 -12 10
-18 -3 -32 -21 -21 -42 -3 -32 27 8 25 18 27 35 5z m56 -24 c8 0 14 -4 14 -10
0 -10 -33 -14 -42 -5 -3 3 -3 18 1 33 5 25 6 25 9 5 2 -13 10 -23 18 -23z m56
31 c-10 -6 -10 -10 2 -21 9 -7 13 -16 10 -21 -8 -14 -24 -11 -24 5 0 8 -5 16
-12 18 -16 6 0 28 20 28 13 0 14 -2 4 -9z m68 -36 c-7 -8 -16 -15 -20 -15 -14
0 -21 32 -9 46 9 11 13 11 26 -2 12 -12 13 -18 3 -29z m-931 17 c-27 -23 -20
-52 13 -52 17 0 19 -3 10 -12 -14 -14 -62 8 -62 29 0 27 21 53 41 53 21 0 21
0 -2 -18z m71 -1 c0 -23 -16 -36 -25 -21 -9 14 1 40 15 40 5 0 10 -9 10 -19z
m224 13 c9 -3 16 -13 16 -20 0 -12 -4 -12 -20 -4 -11 6 -20 15 -20 20 0 12 3
12 24 4z m132 -31 c-11 -11 -19 6 -11 24 8 17 8 17 12 0 3 -10 2 -21 -1 -24z
m62 16 c2 -9 -5 -15 -18 -15 -11 0 -20 1 -20 2 0 31 32 41 38 13z m-345 -2 c4
-10 -5 -14 -28 -15 -26 -1 -33 2 -28 13 7 19 49 20 56 2z"/>
<path d="M1929 4679 c-2 -42 1 -392 4 -395 2 -2 28 3 58 12 30 8 73 20 96 25
24 6 61 27 86 49 110 97 69 231 -90 290 -76 28 -153 38 -154 19z"/>
<path d="M1283 4471 c-35 -82 -63 -158 -63 -169 0 -21 4 -21 130 -20 72 0 130
1 130 2 -10 39 -120 331 -126 333 -5 1 -37 -64 -71 -146z"/>
<path d="M1934 4258 c-6 -9 10 -49 20 -50 5 0 13 6 17 14 7 11 11 10 19 -2 6
-10 10 -11 10 -2 0 6 7 12 15 12 16 0 19 9 7 27 -8 12 -80 13 -88 1z"/>
<path d="M1182 4193 c-11 -21 -22 -51 -26 -68 -4 -16 -16 -49 -28 -73 -20 -42
-19 -72 3 -72 7 0 9 10 7 25 -3 14 1 30 8 36 8 6 14 20 14 31 0 15 5 19 20 15
13 -3 20 0 20 9 0 8 5 14 10 14 6 0 10 -18 10 -40 0 -35 -3 -40 -22 -40 -16 0
-19 -3 -10 -9 8 -5 11 -17 7 -32 -6 -23 -4 -24 40 -21 25 2 45 8 45 13 0 4 6
6 13 3 7 -2 23 7 36 20 l23 25 -27 25 c-15 14 -32 26 -36 26 -5 0 -9 7 -9 15
0 18 12 19 28 3 16 -16 32 5 32 40 0 12 5 22 10 22 6 0 10 7 10 15 0 9 9 15
24 15 13 0 31 3 40 6 38 15 8 22 -96 23 -61 1 -115 4 -119 7 -5 3 -17 -12 -27
-33z m81 0 c-7 -2 -21 -2 -30 0 -10 3 -4 5 12 5 17 0 24 -2 18 -5z m67 -7 c0
-11 -19 -15 -25 -6 -3 5 1 10 9 10 9 0 16 -2 16 -4z m-120 -25 c0 -5 -9 -19
-21 -32 l-20 -24 17 33 c19 33 24 38 24 23z m65 -11 c4 -6 1 -18 -6 -26 -11
-14 -13 -14 -21 0 -15 26 12 51 27 26z"/>
<path d="M1455 4210 c3 -5 15 -10 26 -10 10 0 19 5 19 10 0 6 -12 10 -26 10
-14 0 -23 -4 -19 -10z"/>
<path d="M2315 4209 c-9 -14 -2 -20 14 -10 8 6 9 11 3 15 -6 3 -14 1 -17 -5z"/>
<path d="M2645 4210 c-7 -12 -4 -100 4 -100 7 0 31 74 31 95 0 17 -25 21 -35
5z"/>
<path d="M2467 4204 c-4 -4 5 -17 20 -30 26 -23 27 -23 8 -44 -17 -18 -17 -20
-1 -20 9 0 14 4 11 10 -3 6 1 7 9 4 9 -3 13 -11 10 -16 -7 -12 16 -29 28 -22
11 7 10 114 -1 114 -6 0 -13 -5 -16 -10 -7 -12 -46 -3 -56 11 -3 5 -8 6 -12 3z"/>
<path d="M2172 4183 c72 -86 107 -131 117 -150 6 -13 16 -23 21 -23 20 0 9 26
-30 69 -22 24 -40 45 -40 48 0 12 -57 73 -69 73 -12 0 -12 -3 1 -17z"/>
<path d="M1050 4180 c0 -5 5 -10 11 -10 5 0 7 5 4 10 -3 6 -8 10 -11 10 -2 0
-4 -4 -4 -10z"/>
<path d="M2360 4150 c0 -22 5 -40 10 -40 6 0 10 -18 10 -40 0 -22 -4 -40 -10
-40 -5 0 -7 -7 -4 -15 4 -8 12 -15 20 -15 17 0 19 67 3 140 -13 60 -29 66 -29
10z"/>
<path d="M1942 4150 c0 -19 2 -27 5 -17 2 9 2 25 0 35 -3 9 -5 1 -5 -18z"/>
<path d="M1520 4114 c0 -17 7 -39 15 -50 8 -10 15 -29 15 -41 0 -12 5 -25 10
-28 15 -9 12 9 -11 78 -25 74 -29 80 -29 41z"/>
<path d="M2080 4130 c0 -5 6 -13 14 -17 7 -4 24 -24 37 -44 55 -82 85 -118 98
-119 9 0 10 4 4 13 -5 6 -38 49 -72 95 -57 75 -81 97 -81 72z"/>
<path d="M1360 4083 c1 -27 1 -27 15 -9 19 25 19 36 0 36 -10 0 -15 -10 -15
-27z"/>
<path d="M1942 4063 c-2 -50 8 -67 24 -41 4 6 3 8 -4 4 -7 -4 -12 10 -15 41
l-3 48 -2 -52z"/>
<path d="M2080 4050 c0 -13 28 -25 38 -16 3 4 0 11 -8 16 -20 13 -30 12 -30 0z"/>
<path d="M2525 4044 c-10 -8 -14 -14 -8 -14 7 0 15 -9 18 -20 10 -30 25 -24
25 9 0 37 -9 43 -35 25z"/>
<path d="M2640 4018 c1 -40 2 -42 15 -24 8 11 15 14 15 8 0 -7 7 -12 15 -12
17 0 10 24 -14 52 -24 28 -31 22 -31 -24z"/>
<path d="M2452 4021 c2 -7 7 -12 11 -12 12 1 9 15 -3 20 -7 2 -11 -2 -8 -8z"/>
<path d="M1841 4004 c0 -11 3 -14 6 -6 3 7 2 16 -1 19 -3 4 -6 -2 -5 -13z"/>
<path d="M2140 4000 c0 -5 5 -10 10 -10 6 0 10 5 10 10 0 6 -4 10 -10 10 -5 0
-10 -4 -10 -10z"/>
<path d="M2725 4000 c-4 -6 7 -10 25 -10 18 0 29 4 25 10 -3 6 -15 10 -25 10
-10 0 -22 -4 -25 -10z"/>
<path d="M2320 3991 c0 -13 29 -35 37 -28 7 8 -15 37 -28 37 -5 0 -9 -4 -9 -9z"/>
<path d="M2379 3974 c-1 -5 -1 -12 0 -16 0 -5 -3 -8 -9 -8 -5 0 -10 -5 -10
-12 0 -7 7 -5 18 5 17 16 18 15 19 -24 0 -23 6 -44 12 -48 6 -4 10 -22 10 -41
0 -19 0 -46 1 -59 0 -13 -12 -34 -26 -48 -14 -13 -23 -27 -20 -31 4 -3 11 0
16 7 9 15 40 8 40 -9 0 -9 -14 -14 -32 -11 -5 0 -8 -3 -8 -9 0 -19 -20 -10
-35 18 l-15 27 7 -30 c3 -16 14 -48 24 -70 10 -22 19 -48 19 -57 0 -10 9 -25
20 -36 11 -10 22 -36 26 -57 3 -22 10 -47 14 -55 8 -15 10 -23 10 -39 0 -5 6
-16 13 -23 8 -7 23 -45 35 -84 21 -70 44 -105 56 -86 3 5 -3 20 -13 33 -10 13
-21 42 -25 64 l-7 40 21 -25 21 -25 -3 68 c-2 48 0 66 9 63 7 -3 12 12 15 41
2 30 -1 47 -9 50 -7 3 -13 12 -13 21 0 13 -3 12 -20 -3 -11 -10 -17 -22 -14
-26 3 -5 0 -9 -7 -9 -11 0 -9 -27 6 -62 10 -25 -16 -23 -43 2 -28 27 -29 60
-1 60 11 0 17 5 14 10 -4 6 -11 7 -17 4 -6 -4 -8 1 -3 16 6 20 4 22 -18 18
-17 -3 -27 0 -31 11 -3 9 -11 24 -18 33 -15 20 -3 37 14 20 7 -7 22 -12 34
-12 12 0 24 -5 26 -11 3 -8 16 -10 41 -5 50 9 49 31 -1 23 -31 -5 -40 -3 -50
14 -12 19 -11 20 7 14 25 -8 91 4 91 16 0 5 -6 9 -14 9 -8 0 -16 13 -18 30 -3
23 -1 30 9 26 9 -4 13 3 13 19 0 14 -4 25 -10 25 -5 0 -10 9 -10 19 0 11 -4
23 -10 26 -10 6 -14 -13 -11 -47 1 -10 -3 -18 -8 -18 -6 0 -11 5 -11 10 0 6
-9 10 -19 10 -19 0 -31 18 -31 46 0 8 7 14 15 14 20 0 19 27 -1 47 -8 9 -13
22 -9 31 3 8 -6 25 -20 40 -14 13 -25 30 -25 37 0 15 -29 42 -31 29z m126
-346 c6 -5 5 -8 -3 -8 -7 0 -23 9 -35 20 -18 18 -20 22 -7 30 11 7 18 4 25
-13 5 -12 14 -25 20 -29z m-70 2 c13 -6 15 -9 5 -9 -8 0 -22 4 -30 9 -18 12
-2 12 25 0z m121 -197 c-11 -11 -17 4 -9 23 7 18 8 18 11 1 2 -10 1 -21 -2
-24z"/>
<path d="M1580 3960 c0 -5 5 -10 10 -10 6 0 10 5 10 10 0 6 -4 10 -10 10 -5 0
-10 -4 -10 -10z"/>
<path d="M1780 3955 c0 -8 -4 -15 -10 -15 -5 0 -10 -7 -10 -15 0 -17 18 -19
39 -6 8 5 11 16 6 30 -7 24 -25 28 -25 6z"/>
<path d="M1940 3961 c0 -6 4 -13 10 -16 6 -3 7 1 4 9 -7 18 -14 21 -14 7z"/>
<path d="M1100 3949 c0 -5 11 -7 24 -3 18 4 25 1 31 -18 6 -20 8 -21 12 -5 3
10 2 21 -1 25 -11 10 -66 11 -66 1z"/>
<path d="M1328 3953 c7 -3 16 -2 19 1 4 3 -2 6 -13 5 -11 0 -14 -3 -6 -6z"/>
<path d="M1200 3934 c0 -9 5 -14 12 -12 18 6 21 28 4 28 -9 0 -16 -7 -16 -16z"/>
<path d="M2240 3925 c0 -8 7 -15 15 -15 8 0 15 4 15 9 0 5 -7 11 -15 15 -9 3
-15 0 -15 -9z"/>
<path d="M1040 3922 c0 -5 9 -19 20 -32 11 -13 20 -27 20 -32 0 -11 -17 -10
-25 2 -13 21 -32 10 -27 -15 2 -14 11 -25 19 -25 8 0 25 -26 39 -57 14 -32 32
-70 40 -85 8 -14 14 -33 14 -42 0 -9 7 -19 15 -22 10 -4 13 -13 9 -26 -6 -20
33 -138 46 -138 4 0 8 -10 8 -22 0 -13 11 -51 25 -85 14 -34 28 -75 32 -91 5
-23 11 -29 25 -25 20 5 17 30 -7 48 -8 6 -15 33 -17 63 l-2 52 33 0 34 0 -2
55 c-2 59 -8 69 -33 59 -13 -5 -14 -9 -5 -20 15 -18 -6 -19 -25 -2 -25 23 0
55 42 54 20 -1 40 -5 43 -9 3 -5 5 -37 3 -73 -2 -52 0 -64 12 -64 11 0 13 6 9
20 -11 33 13 162 40 219 14 29 25 54 23 55 -2 0 -13 7 -25 14 -36 20 -56 16
-50 -10 2 -13 8 -31 12 -40 5 -14 2 -18 -14 -18 -12 0 -21 -5 -21 -11 0 -5 4
-8 8 -5 15 9 35 -12 29 -29 -4 -9 -11 -13 -17 -10 -5 3 -10 0 -10 -7 0 -9 -2
-10 -8 -1 -4 6 -21 15 -37 19 -16 4 -38 16 -49 26 -11 10 -30 18 -43 18 -16 0
-23 6 -23 19 0 11 -6 21 -12 24 -10 3 -10 7 1 20 16 20 6 23 -13 5 -10 -10
-11 -19 -3 -35 6 -13 8 -26 4 -29 -11 -11 -27 7 -27 31 0 13 -7 30 -15 39 -8
8 -15 28 -15 44 0 17 -6 32 -15 36 -8 3 -15 15 -15 26 0 11 7 20 15 20 8 0 15
-9 15 -20 0 -11 3 -20 8 -20 4 0 6 18 4 40 -2 22 -9 40 -14 40 -6 0 -8 6 -5
14 4 10 0 12 -15 8 -17 -4 -19 -1 -13 17 5 18 2 21 -19 21 -14 0 -26 -4 -26
-8z m182 -367 c0 -5 -5 -11 -11 -13 -6 -2 -11 4 -11 13 0 9 5 15 11 13 6 -2
11 -8 11 -13z m45 -11 c-3 -3 -12 -4 -19 -1 -8 3 -5 6 6 6 11 1 17 -2 13 -5z
m-27 -45 c0 -5 -7 -9 -15 -9 -8 0 -15 -6 -16 -12 0 -10 -2 -10 -6 -1 -2 7 2
19 9 27 13 14 28 12 28 -5z m26 -45 c-3 -9 -6 -28 -7 -42 l-1 -27 -8 28 c-9
31 -4 57 12 57 6 0 7 -7 4 -16z m44 -25 c0 -11 -4 -17 -10 -14 -5 3 -10 13
-10 21 0 8 5 14 10 14 6 0 10 -9 10 -21z"/>
<path d="M1723 3913 c-18 -7 -16 -33 2 -33 8 0 15 9 15 20 0 11 -1 20 -2 19
-2 0 -9 -3 -15 -6z"/>
<path d="M2360 3910 c0 -5 5 -10 11 -10 5 0 7 5 4 10 -3 6 -8 10 -11 10 -2 0
-4 -4 -4 -10z"/>
<path d="M1630 3906 c0 -10 28 -13 41 -5 10 6 7 9 -13 9 -16 0 -28 -2 -28 -4z"/>
<path d="M1880 3901 c0 -4 11 -6 25 -3 14 2 25 6 25 8 0 2 -11 4 -25 4 -14 0
-25 -4 -25 -9z"/>
<path d="M2305 3900 c3 -5 13 -10 21 -10 8 0 12 5 9 10 -3 6 -13 10 -21 10 -8
0 -12 -4 -9 -10z"/>
<path d="M1168 3883 c-5 -21 11 -73 21 -73 12 0 42 -59 39 -76 -2 -11 6 -20
22 -24 40 -11 34 26 -13 84 -27 33 -40 57 -39 77 1 32 -24 41 -30 12z"/>
<path d="M1230 3885 c0 -8 5 -15 10 -15 6 0 10 7 10 15 0 8 -4 15 -10 15 -5 0
-10 -7 -10 -15z"/>
<path d="M1670 3880 c-12 -8 -10 -10 8 -10 13 0 20 4 17 10 -7 12 -6 12 -25 0z"/>
<path d="M1788 3873 c7 -3 16 -2 19 1 4 3 -2 6 -13 5 -11 0 -14 -3 -6 -6z"/>
<path d="M1635 3860 c-12 -19 4 -27 66 -34 33 -4 72 -12 86 -17 38 -14 40 -3
4 30 -22 21 -30 24 -26 12 5 -16 0 -17 -44 -11 -27 3 -56 12 -64 19 -10 8 -17
9 -22 1z"/>
<path d="M1560 3825 c0 -13 7 -15 31 -11 37 6 51 16 21 16 -11 0 -27 3 -36 6
-11 4 -16 1 -16 -11z"/>
<path d="M1495 3770 c-18 -19 -17 -20 1 -20 11 0 25 9 32 20 10 16 10 20 -1
20 -8 0 -22 -9 -32 -20z"/>
<path d="M2175 3780 c3 -5 8 -10 11 -10 2 0 4 5 4 10 0 6 -5 10 -11 10 -5 0
-7 -4 -4 -10z"/>
<path d="M2772 3781 c-21 -6 -22 -7 -7 -28 19 -27 45 -30 45 -5 0 27 -13 39
-38 33z"/>
<path d="M1619 3737 c-24 -12 -45 -28 -47 -36 -3 -9 4 -6 17 6 12 12 35 23 50
26 36 7 115 -2 119 -14 4 -11 52 -12 69 -1 8 5 9 13 3 22 -8 13 -10 12 -10 -2
0 -22 -32 -24 -63 -4 -41 25 -92 26 -138 3z"/>
<path d="M2658 3735 c-3 -14 -1 -25 3 -25 5 0 9 11 9 25 0 14 -2 25 -4 25 -2
0 -6 -11 -8 -25z"/>
<path d="M2170 3669 c0 -5 5 -7 10 -4 6 3 10 8 10 11 0 2 -4 4 -10 4 -5 0 -10
-5 -10 -11z"/>
<path d="M2660 3663 c-4 -33 -4 -36 -18 -61 -16 -28 -8 -42 18 -35 21 6 24 32
10 88 -7 26 -8 27 -10 8z"/>
<path d="M1015 3618 c-8 -28 -15 -56 -15 -62 0 -6 -11 -34 -24 -63 l-24 -51
36 -4 c21 -3 58 -3 83 0 l46 4 -17 37 c-10 20 -26 71 -36 114 -10 42 -21 77
-25 77 -5 0 -15 -23 -24 -52z m25 -88 c-5 -22 -8 -27 -9 -13 -1 21 9 56 14 51
2 -2 0 -19 -5 -38z m-16 -56 c4 -10 1 -14 -6 -12 -15 5 -23 28 -10 28 5 0 13
-7 16 -16z m56 2 c0 -3 -4 -8 -10 -11 -5 -3 -10 -1 -10 4 0 6 5 11 10 11 6 0
10 -2 10 -4z"/>
<path d="M1280 3660 c0 -5 5 -10 10 -10 6 0 10 5 10 10 0 6 -4 10 -10 10 -5 0
-10 -4 -10 -10z"/>
<path d="M1335 3660 c-3 -5 1 -10 9 -10 9 0 16 5 16 10 0 6 -4 10 -9 10 -6 0
-13 -4 -16 -10z"/>
<path d="M1600 3636 c0 -21 6 -36 15 -40 9 -3 15 -18 15 -36 0 -29 12 -58 37
-90 15 -19 13 -31 -8 -54 -20 -20 -36 -15 -49 18 -8 18 -9 17 -9 -12 -1 -20 9
-48 24 -70 18 -26 21 -38 13 -41 -7 -2 -18 -11 -25 -20 -10 -13 -12 -13 -13
-2 0 11 -5 10 -20 -4 -19 -18 -21 -17 -40 5 -13 15 -20 38 -21 64 0 31 -2 36
-8 21 -10 -25 -26 125 -16 155 4 11 2 20 -4 20 -6 0 -12 -10 -12 -22 -1 -13
-3 -45 -5 -73 -8 -120 56 -224 154 -249 43 -11 50 -11 41 0 -15 19 -16 84 0
93 10 7 7 18 -14 50 l-26 43 23 -2 c45 -4 52 -1 38 15 -7 9 -8 15 -2 15 18 0
22 31 8 63 -23 53 -25 66 -13 70 7 2 1 14 -16 29 -15 14 -27 34 -27 45 0 19
-17 43 -32 43 -4 0 -8 -15 -8 -34z"/>
<path d="M1785 3657 c-4 -10 -5 -20 -2 -24 9 -8 37 5 37 17 0 6 -4 9 -9 6 -5
-4 -11 0 -14 6 -3 9 -7 7 -12 -5z"/>
<path d="M2156 3633 c-6 -14 -5 -15 5 -6 7 7 10 15 7 18 -3 3 -9 -2 -12 -12z"/>
<path d="M2252 3628 c4 -20 1 -28 -8 -28 -8 0 -14 -5 -14 -11 0 -5 4 -8 9 -5
14 9 41 -4 41 -20 0 -8 5 -14 10 -14 6 0 4 13 -5 30 -9 17 -13 34 -11 39 3 5
-2 15 -11 22 -14 13 -16 11 -11 -13z"/>
<path d="M1750 3621 c5 -11 10 -36 10 -56 0 -29 3 -36 17 -33 27 5 27 32 1 72
-24 37 -46 50 -28 17z"/>
<path d="M2210 3544 c0 -8 5 -12 10 -9 6 4 8 11 5 16 -9 14 -15 11 -15 -7z"/>
<path d="M2623 3553 c-17 -6 -16 -23 1 -42 11 -12 13 -29 8 -66 -4 -28 -4 -81
1 -119 7 -63 6 -72 -18 -112 -14 -24 -30 -44 -35 -44 -4 0 -11 -14 -15 -31 -6
-27 -10 -30 -36 -24 -22 5 -29 3 -29 -9 0 -11 9 -16 30 -16 17 0 30 5 30 11 0
6 8 9 17 7 19 -4 26 -48 7 -48 -7 0 -14 -3 -17 -7 -2 -5 -2 -2 -1 5 5 17 -24
28 -38 14 -13 -13 -11 -153 2 -166 17 -17 31 8 35 58 3 35 11 54 34 77 24 23
30 36 25 55 -4 14 -2 24 5 24 6 0 11 8 11 18 0 14 -2 14 -9 3 -5 -8 -16 -11
-26 -7 -15 5 -13 11 15 42 17 20 29 42 27 48 -3 7 -1 19 4 27 6 9 9 -4 9 -38
0 -43 13 -75 24 -62 6 7 -19 258 -26 265 -12 11 -10 54 2 54 6 0 10 11 10 25
0 18 -4 23 -15 19 -10 -4 -15 0 -15 11 0 11 5 15 15 11 8 -3 15 -2 15 3 0 11
-31 19 -47 14z m35 -203 c1 -22 -3 -40 -8 -40 -6 0 -10 18 -10 40 0 22 4 40 8
40 5 0 9 -18 10 -40z"/>
<path d="M2191 3502 c-17 -31 -13 -40 5 -14 9 13 14 26 11 29 -3 2 -10 -4 -16
-15z"/>
<path d="M1510 3490 c0 -11 4 -20 9 -20 5 0 7 9 4 20 -3 11 -7 20 -9 20 -2 0
-4 -9 -4 -20z"/>
<path d="M2306 3481 c-6 -10 22 -37 29 -29 8 7 -5 38 -15 38 -5 0 -11 -4 -14
-9z"/>
<path d="M2760 3481 c0 -5 5 -13 10 -16 6 -3 10 -2 10 4 0 5 -4 13 -10 16 -5
3 -10 2 -10 -4z"/>
<path d="M1580 3476 c0 -2 7 -7 16 -10 8 -3 12 -2 9 4 -6 10 -25 14 -25 6z"/>
<path d="M1827 3411 c-10 -93 -9 -181 3 -181 6 0 9 19 7 48 -2 26 0 58 4 72 5
14 5 48 1 75 l-8 50 -7 -64z"/>
<path d="M2200 3460 c0 -5 7 -10 15 -10 8 0 15 5 15 10 0 6 -7 10 -15 10 -8 0
-15 -4 -15 -10z"/>
<path d="M2480 3440 c0 -5 5 -10 11 -10 5 0 7 5 4 10 -3 6 -8 10 -11 10 -2 0
-4 -4 -4 -10z"/>
<path d="M2060 3426 c0 -8 -14 -28 -31 -45 -18 -19 -30 -40 -29 -53 4 -39 1
-45 -22 -44 -19 1 -23 -4 -20 -24 2 -26 -13 -59 -23 -49 -3 3 -7 32 -10 64 -3
32 -8 61 -11 64 -3 3 -3 -23 0 -59 4 -36 6 -83 6 -105 l0 -39 30 34 c16 19 29
40 30 45 0 6 11 32 25 59 14 27 25 55 25 61 0 7 11 24 25 39 25 27 34 66 15
66 -5 0 -10 -6 -10 -14z"/>
<path d="M1732 3410 c0 -14 2 -19 5 -12 2 6 2 18 0 25 -3 6 -5 1 -5 -13z"/>
<path d="M2356 3393 c-12 -12 -6 -43 9 -43 8 0 15 9 15 19 0 21 -13 34 -24 24z"/>
<path d="M1550 3381 c0 -5 7 -14 15 -21 13 -10 15 -9 15 9 0 12 -6 21 -15 21
-8 0 -15 -4 -15 -9z"/>
<path d="M2116 3354 c-12 -25 -14 -40 -7 -46 6 -4 9 -5 6 -1 -3 3 1 13 9 22
18 20 30 61 19 61 -5 0 -17 -16 -27 -36z"/>
<path d="M2762 3370 c0 -14 2 -19 5 -12 2 6 2 18 0 25 -3 6 -5 1 -5 -13z"/>
<path d="M1057 3374 c-4 -4 3 -15 15 -25 18 -16 18 -19 4 -19 -13 0 -15 -4 -6
-20 6 -11 8 -40 4 -67 -3 -26 -5 -76 -4 -110 1 -41 -3 -63 -10 -63 -8 0 -9
-11 -5 -32 11 -55 16 -68 25 -68 16 0 24 52 11 72 -9 15 -9 22 4 35 11 11 14
25 9 47 -8 38 7 27 22 -17 6 -18 19 -34 28 -35 15 -3 17 3 14 49 -4 67 17 77
47 22 20 -37 64 -59 95 -47 13 4 12 7 -3 15 -9 6 -22 7 -27 4 -16 -10 -50 5
-50 21 0 18 -21 57 -37 67 -7 4 -13 20 -13 35 0 25 -29 115 -40 125 -10 9 -77
17 -83 11z m103 -131 c0 -7 -7 -13 -15 -13 -15 0 -21 31 -8 43 8 8 23 -12 23
-30z m-10 -49 c0 -9 -5 -14 -12 -12 -18 6 -21 28 -4 28 9 0 16 -7 16 -16z"/>
<path d="M998 3363 c7 -3 16 -2 19 1 4 3 -2 6 -13 5 -11 0 -14 -3 -6 -6z"/>
<path d="M1372 3341 c3 -18 0 -28 -6 -24 -5 4 -7 -1 -3 -11 4 -10 7 -27 7 -38
0 -16 3 -18 14 -9 10 8 16 9 21 1 3 -5 1 -10 -5 -10 -7 0 -9 -7 -6 -17 5 -11
-2 -25 -21 -41 -15 -13 -23 -21 -16 -18 6 4 18 -1 26 -9 9 -8 21 -15 27 -15 6
0 10 -6 7 -12 -2 -7 -16 -13 -30 -12 -18 1 -27 -4 -27 -14 0 -10 7 -13 25 -10
19 4 25 1 25 -12 0 -10 7 -20 15 -24 9 -3 15 1 15 11 0 13 2 13 16 2 14 -11
19 -9 35 11 10 14 21 33 25 43 3 9 12 17 20 17 8 0 12 5 9 11 -4 6 -14 8 -22
5 -8 -3 -11 -2 -8 4 3 5 -8 19 -25 31 -38 29 -78 87 -91 133 -12 43 -33 49
-27 7z m108 -203 c0 -12 -28 -9 -36 3 -3 6 0 15 7 20 13 7 28 -5 29 -23z"/>
<path d="M1721 3354 c0 -11 3 -14 6 -6 3 7 2 16 -1 19 -3 4 -6 -2 -5 -13z"/>
<path d="M2392 3335 c0 -11 3 -29 8 -40 11 -25 11 1 0 35 -6 20 -8 21 -8 5z"/>
<path d="M1580 3326 c0 -9 -7 -16 -16 -16 -8 0 -13 -4 -10 -9 8 -12 57 11 53
23 -6 17 -27 18 -27 2z"/>
<path d="M1032 3290 c0 -14 2 -19 5 -12 2 6 2 18 0 25 -3 6 -5 1 -5 -13z"/>
<path d="M2585 3300 c3 -5 8 -10 11 -10 2 0 4 5 4 10 0 6 -5 10 -11 10 -5 0
-7 -4 -4 -10z"/>
<path d="M2304 3275 c4 -38 16 -43 16 -7 0 18 -4 32 -9 32 -5 0 -8 -11 -7 -25z"/>
<path d="M2072 3263 c-10 -20 -24 -83 -18 -83 5 0 46 84 46 93 0 14 -20 7 -28
-10z"/>
<path d="M2772 3255 c0 -16 2 -22 5 -12 2 9 2 23 0 30 -3 6 -5 -1 -5 -18z"/>
<path d="M2407 3257 c-3 -8 3 -23 14 -33 22 -20 24 -10 5 25 -10 18 -14 20
-19 8z"/>
<path d="M2580 3235 c-8 -9 -8 -15 -2 -15 12 0 26 19 19 26 -2 2 -10 -2 -17
-11z"/>
<path d="M1700 3215 c0 -8 7 -15 15 -15 8 0 15 7 15 15 0 8 -7 15 -15 15 -8 0
-15 -7 -15 -15z"/>
<path d="M1300 3196 c0 -7 7 -19 15 -26 8 -7 15 -21 15 -31 0 -11 5 -19 10
-19 14 0 12 14 -7 55 -17 36 -33 46 -33 21z"/>
<path d="M1820 3203 c0 -5 5 -15 10 -23 8 -12 10 -11 10 8 0 12 -4 22 -10 22
-5 0 -10 -3 -10 -7z"/>
<path d="M2320 3190 c0 -13 5 -20 13 -17 6 2 12 10 12 17 0 7 -6 15 -12 18 -8
2 -13 -5 -13 -18z"/>
<path d="M2432 3184 c1 -9 9 -19 16 -22 9 -3 13 2 10 14 -1 9 -9 19 -16 22 -9
3 -13 -2 -10 -14z"/>
<path d="M2773 3165 c0 -22 2 -30 4 -17 2 12 2 30 0 40 -3 9 -5 -1 -4 -23z"/>
<path d="M2030 3150 c0 -5 5 -10 10 -10 6 0 10 5 10 10 0 6 -4 10 -10 10 -5 0
-10 -4 -10 -10z"/>
<path d="M1597 3143 c-3 -5 -2 -15 2 -22 7 -10 10 -10 16 -1 4 6 3 16 -3 22
-5 5 -12 6 -15 1z"/>
<path d="M2301 3143 c0 -5 4 -17 9 -28 8 -18 9 -17 9 8 1 15 -3 27 -9 27 -5 0
-10 -3 -9 -7z"/>
<path d="M2680 3130 c0 -8 -3 -26 -6 -40 -6 -24 -6 -24 9 -5 15 19 16 19 23 2
4 -10 10 -15 13 -9 3 5 15 14 26 20 18 10 17 11 -12 12 -20 0 -36 7 -42 18 -8
13 -10 14 -11 2z"/>
<path d="M1520 3118 c0 -10 -4 -18 -10 -18 -5 0 -10 -7 -10 -15 0 -8 5 -15 10
-15 6 0 10 -6 10 -14 0 -19 23 -26 57 -17 l28 7 -33 7 c-18 4 -31 10 -29 14 2
5 -2 22 -9 38 -8 19 -13 23 -14 13z"/>
<path d="M1638 3100 c-5 -34 16 -43 25 -10 3 11 13 20 24 20 15 0 16 2 3 10
-29 18 -48 11 -52 -20z"/>
<path d="M1720 3122 c0 -5 11 -14 24 -20 20 -9 24 -8 22 6 -3 17 -46 31 -46
14z"/>
<path d="M1920 3107 c0 -17 75 -16 91 1 10 10 3 12 -39 12 -36 0 -52 -4 -52
-13z"/>
<path d="M2340 3110 c0 -5 5 -10 10 -10 6 0 10 5 10 10 0 6 -4 10 -10 10 -5 0
-10 -4 -10 -10z"/>
<path d="M1110 3062 c0 -18 12 -42 21 -42 14 0 11 20 -6 36 -8 9 -15 11 -15 6z"/>
<path d="M1649 3043 c-9 -9 -8 -17 1 -28 15 -18 26 -12 32 18 5 26 -15 33 -33
10z"/>
<path d="M1760 3030 c0 -11 7 -20 15 -20 8 0 15 9 15 20 0 11 -7 20 -15 20 -8
0 -15 -9 -15 -20z"/>
<path d="M1300 2963 c0 -55 8 -53 16 5 4 27 2 42 -5 42 -6 0 -11 -20 -11 -47z"/>
<path d="M1880 2981 c0 -6 5 -13 10 -16 6 -3 10 1 10 9 0 9 -4 16 -10 16 -5 0
-10 -4 -10 -9z"/>
<path d="M2620 2975 c0 -8 4 -15 10 -15 5 0 7 7 4 15 -4 8 -8 15 -10 15 -2 0
-4 -7 -4 -15z"/>
<path d="M2720 2974 c0 -8 5 -12 10 -9 6 3 10 10 10 16 0 5 -4 9 -10 9 -5 0
-10 -7 -10 -16z"/>
<path d="M1025 2947 c-4 -10 -5 -21 -1 -24 10 -10 18 4 13 24 -4 17 -4 17 -12
0z"/>
<path d="M1580 2950 c0 -5 5 -10 10 -10 6 0 10 5 10 10 0 6 -4 10 -10 10 -5 0
-10 -4 -10 -10z"/>
<path d="M1886 2931 c-4 -7 -5 -15 -2 -18 9 -9 19 4 14 18 -4 11 -6 11 -12 0z"/>
<path d="M2706 2925 c-3 -8 -1 -15 4 -15 6 0 10 7 10 15 0 8 -2 15 -4 15 -2 0
-6 -7 -10 -15z"/>
<path d="M1747 2904 c-10 -10 -9 -54 1 -54 13 0 32 23 32 38 0 7 -4 11 -9 8
-5 -4 -11 -1 -13 5 -2 5 -7 7 -11 3z"/>
<path d="M2137 2904 c-9 -10 2 -24 19 -24 8 0 14 7 14 15 0 15 -21 21 -33 9z"/>
<path d="M2335 2900 c3 -5 8 -10 11 -10 2 0 4 5 4 10 0 6 -5 10 -11 10 -5 0
-7 -4 -4 -10z"/>
<path d="M1890 2875 c-25 -18 -36 -21 -42 -12 -4 7 -6 3 -5 -11 2 -27 11 -28
36 -4 10 9 29 25 42 35 35 26 9 19 -31 -8z"/>
<path d="M1990 2890 c0 -5 5 -10 10 -10 6 0 10 5 10 10 0 6 -4 10 -10 10 -5 0
-10 -4 -10 -10z"/>
<path d="M2645 2890 c3 -5 13 -10 21 -10 8 0 14 5 14 10 0 6 -9 10 -21 10 -11
0 -17 -4 -14 -10z"/>
<path d="M1296 2874 c-3 -9 -2 -23 4 -32 7 -14 9 -10 10 16 0 35 -5 41 -14 16z"/>
<path d="M1360 2869 c0 -11 5 -17 10 -14 6 3 10 13 10 21 0 8 -4 14 -10 14 -5
0 -10 -9 -10 -21z"/>
<path d="M2203 2873 c-13 -8 -23 -21 -23 -28 0 -8 -5 -15 -12 -17 -9 -3 -9 -6
1 -12 8 -5 14 -1 18 14 3 12 16 26 29 31 13 4 24 13 24 19 0 14 -11 12 -37 -7z"/>
<path d="M2394 2878 c-4 -6 -3 -8 4 -4 6 3 20 -3 31 -16 12 -12 24 -18 28 -14
4 4 -3 16 -17 26 -29 23 -36 24 -46 8z"/>
<path d="M2730 2880 c8 -5 20 -10 25 -10 6 0 3 5 -5 10 -8 5 -19 10 -25 10 -5
0 -3 -5 5 -10z"/>
<path d="M2533 2866 c9 -22 -5 -28 -19 -8 -19 26 -26 9 -9 -24 8 -16 15 -35
15 -42 0 -7 5 -10 11 -6 8 5 10 -1 7 -20 -3 -15 -2 -24 2 -19 4 4 10 36 12 71
3 49 1 62 -10 62 -8 0 -12 -6 -9 -14z"/>
<path d="M1040 2859 c0 -5 5 -7 10 -4 6 3 10 8 10 11 0 2 -4 4 -10 4 -5 0 -10
-5 -10 -11z"/>
<path d="M1815 2749 c6 -98 11 -128 25 -144 22 -25 13 -60 -10 -42 -9 7 -25
25 -38 41 -12 16 -22 23 -22 16 0 -7 -7 -18 -16 -25 -16 -11 -16 -12 0 -18 10
-4 15 -3 11 3 -12 20 12 10 34 -14 31 -33 58 -39 64 -14 9 33 25 11 22 -29 -5
-50 5 -93 21 -93 8 0 11 -6 7 -16 -4 -10 1 -17 16 -21 11 -3 21 -12 21 -21 0
-12 8 -9 29 12 l28 27 17 -25 c9 -14 16 -35 16 -47 0 -21 1 -21 28 6 15 15 27
37 27 48 0 14 9 23 25 28 20 6 21 7 5 8 -11 0 -27 -3 -35 -9 -9 -5 -19 -5 -27
2 -8 6 -16 8 -20 4 -3 -3 -1 -6 5 -6 7 0 12 -6 12 -14 0 -8 6 -16 13 -19 7 -2
8 -8 3 -13 -5 -5 -11 -4 -13 4 -3 6 -11 12 -19 12 -8 0 -14 3 -14 8 0 4 -9 13
-21 20 -18 11 -23 11 -35 -5 -9 -12 -13 -13 -14 -5 0 8 -7 11 -18 8 -16 -6
-19 0 -21 47 -2 62 27 112 60 104 13 -4 19 0 19 12 0 28 -10 31 -31 10 -29
-29 -69 -36 -82 -13 -6 10 -20 28 -31 39 -19 18 -21 32 -19 113 1 62 -2 90 -9
86 -7 -5 -9 2 -4 19 3 15 1 29 -5 33 -8 5 -9 -27 -4 -117z m95 -224 c0 -8 -4
-15 -10 -15 -5 0 -10 7 -10 15 0 8 5 15 10 15 6 0 10 -7 10 -15z"/>
<path d="M1955 2860 c3 -5 8 -10 11 -10 2 0 4 5 4 10 0 6 -5 10 -11 10 -5 0
-7 -4 -4 -10z"/>
<path d="M2600 2855 c0 -8 4 -15 9 -15 5 0 11 7 15 15 3 9 0 15 -9 15 -8 0
-15 -7 -15 -15z"/>
<path d="M1519 2823 c18 -34 41 -104 41 -126 0 -5 -4 -6 -10 -2 -5 3 -14 -12
-20 -32 -17 -55 -62 -107 -86 -99 -31 10 -54 64 -65 150 -6 44 -12 83 -15 85
-2 2 -4 -36 -4 -86 0 -63 4 -92 13 -96 11 -5 37 -49 52 -92 5 -14 9 -16 12 -7
8 21 45 -47 38 -69 -4 -13 -2 -19 9 -19 20 0 20 -14 1 -34 -17 -17 -20 -46 -5
-46 6 0 10 -7 10 -16 0 -11 -5 -14 -16 -10 -10 4 -14 1 -12 -6 6 -17 38 -23
38 -8 0 6 7 18 15 26 8 9 15 27 16 42 0 15 3 21 6 15 2 -7 11 -13 18 -13 17 0
13 94 -5 115 -10 12 -9 15 9 15 19 0 21 5 20 63 -1 34 -6 68 -12 76 -9 10 -6
18 11 31 28 23 28 59 2 93 -12 15 -21 29 -20 32 1 20 -2 25 -20 25 -11 0 -20
7 -20 15 0 8 -5 15 -11 15 -5 0 -1 -17 10 -37z m28 -285 c-3 -7 -5 -2 -5 12 0
14 2 19 5 13 2 -7 2 -19 0 -25z m-33 -32 c-3 -8 -1 -17 5 -21 6 -3 11 -17 11
-31 0 -14 -4 -22 -10 -19 -5 3 -10 14 -10 25 0 10 -7 20 -15 24 -18 7 -20 47
-3 64 10 10 14 8 20 -8 4 -11 5 -26 2 -34z"/>
<path d="M1993 2843 c-7 -3 -13 -11 -13 -18 0 -8 -8 -19 -17 -24 -15 -9 -16
-10 -2 -11 18 0 53 34 48 48 -2 5 -10 7 -16 5z"/>
<path d="M2276 2830 c4 -14 8 -59 9 -101 1 -42 5 -82 9 -88 4 -6 3 -11 -3 -11
-5 0 -18 -13 -28 -30 -23 -39 -59 -40 -96 -1 -15 16 -27 34 -27 40 0 6 -4 11
-10 11 -5 0 -10 -2 -10 -5 0 -9 25 -50 34 -57 6 -4 5 -12 -3 -21 -8 -10 -9
-17 -1 -22 5 -3 10 1 10 10 0 12 5 15 16 11 9 -3 22 -6 29 -6 8 0 21 -7 29
-16 15 -14 18 -13 31 21 9 20 23 39 31 42 12 4 14 14 10 38 -4 17 -3 35 1 39
4 4 8 32 8 62 0 30 -2 48 -4 42 -2 -7 -13 5 -23 27 -10 22 -15 29 -12 15z"/>
<path d="M1177 2834 c-3 -4 0 -16 8 -28 10 -15 11 -34 5 -71 -13 -77 -12 -127
3 -122 6 2 12 21 13 43 2 78 4 95 12 90 4 -2 13 4 20 15 7 10 8 19 3 19 -6 0
-13 -5 -17 -11 -4 -7 -12 1 -20 21 -8 18 -11 36 -8 41 6 10 -9 12 -19 3z"/>
<path d="M1266 2814 c-22 -21 -20 -27 4 -14 11 6 20 15 20 20 0 14 -6 12 -24
-6z"/>
<path d="M1590 2815 c0 -8 7 -15 15 -15 8 0 18 0 22 0 4 0 8 6 9 15 1 10 -6
15 -22 15 -15 0 -24 -6 -24 -15z"/>
<path d="M1707 2809 c-11 -15 -16 -17 -21 -7 -4 10 -5 9 -5 -2 3 -38 -2 -50
-20 -50 -26 0 -33 -36 -21 -117 14 -97 13 -123 -5 -123 -11 0 -15 -12 -15 -52
0 -38 3 -49 10 -38 5 8 10 23 10 33 0 9 9 26 21 38 13 13 19 28 16 41 -7 24 2
50 14 42 13 -8 10 7 -6 36 -24 42 -18 106 15 166 30 55 33 71 7 33z"/>
<path d="M1902 2809 c-14 -21 -8 -59 9 -59 6 0 8 9 4 19 -3 11 1 25 9 34 8 8
12 17 9 21 -11 10 -18 7 -31 -15z"/>
<path d="M2051 2806 c-16 -28 -7 -47 43 -95 37 -36 43 -34 48 18 2 13 -2 26
-8 28 -7 2 -10 -6 -6 -24 l5 -28 -39 37 c-30 30 -36 40 -26 50 14 14 16 38 4
38 -5 0 -14 -11 -21 -24z"/>
<path d="M2377 2781 c-14 -34 -16 -59 -11 -115 5 -61 4 -75 -11 -90 -10 -9
-15 -20 -11 -23 3 -4 12 -1 18 5 18 18 25 15 32 -13 8 -30 32 -33 39 -5 3 10
2 19 -2 18 -3 -1 -13 2 -21 6 -12 5 -15 25 -15 89 1 45 -3 87 -8 94 -5 7 -4
21 3 33 6 12 10 26 8 32 -3 7 -12 -7 -21 -31z"/>
<path d="M1110 2790 c-9 -16 -8 -20 5 -20 13 0 15 -5 9 -22 -5 -13 -9 -36 -10
-53 -3 -41 -4 -43 -14 -20 -7 17 -9 14 -9 -13 -1 -36 23 -71 33 -49 4 6 4 -3
1 -20 -3 -25 -1 -33 11 -33 8 0 17 -7 20 -15 7 -17 44 -21 44 -5 0 6 -9 10
-19 10 -29 0 -43 56 -42 160 1 90 -9 117 -29 80z"/>
<path d="M1480 2798 c0 -7 5 -20 10 -28 8 -12 10 -11 10 7 0 12 -4 25 -10 28
-5 3 -10 0 -10 -7z"/>
<path d="M1752 2798 c-5 -7 -15 -33 -22 -57 -9 -35 -9 -46 1 -52 10 -6 9 -13
-4 -32 -9 -14 -13 -27 -10 -31 7 -7 53 57 53 73 0 6 -4 11 -9 11 -5 0 -11 11
-13 25 -6 31 0 32 11 3 7 -18 9 -12 8 25 0 52 0 52 -15 35z"/>
<path d="M2206 2781 c-9 -16 -16 -43 -15 -58 0 -25 1 -26 10 -8 9 20 9 14 -8
-66 -6 -31 11 -46 32 -29 10 8 13 34 12 95 -1 46 -5 87 -9 90 -4 4 -14 -7 -22
-24z m24 -110 c0 -5 -7 -14 -15 -21 -12 -10 -15 -10 -15 2 0 8 3 18 7 21 9 10
23 9 23 -2z"/>
<path d="M2451 2792 c-14 -27 -14 -32 3 -32 18 0 30 30 17 43 -6 6 -13 1 -20
-11z"/>
<path d="M2621 2792 c-7 -13 -11 -26 -8 -28 8 -8 29 25 25 38 -3 8 -9 4 -17
-10z"/>
<path d="M1446 2784 c-9 -24 -7 -27 9 -10 17 17 19 26 6 26 -5 0 -12 -7 -15
-16z"/>
<path d="M2651 2784 c0 -11 3 -14 6 -6 3 7 2 16 -1 19 -3 4 -6 -2 -5 -13z"/>
<path d="M1296 2759 c-3 -17 -6 -45 -6 -62 0 -17 -7 -38 -16 -48 -9 -10 -13
-23 -9 -29 14 -22 35 28 41 99 7 73 1 95 -10 40z"/>
<path d="M1990 2758 c0 -20 63 -103 68 -90 4 13 -27 62 -39 62 -5 0 -9 6 -9
14 0 8 -4 18 -10 21 -5 3 -10 0 -10 -7z"/>
<path d="M1103 2753 c-15 -5 -17 -23 -4 -23 5 0 11 7 15 15 3 8 4 15 3 14 -1
0 -8 -3 -14 -6z"/>
<path d="M1471 2734 c8 -23 7 -25 -4 -16 -8 7 -17 9 -20 5 -9 -8 -9 -108 0
-116 20 -21 60 101 43 133 -16 30 -31 25 -19 -6z"/>
<path d="M1945 2741 c-3 -5 -1 -12 5 -16 5 -3 10 1 10 9 0 18 -6 21 -15 7z"/>
<path d="M2450 2687 c0 -33 4 -57 10 -57 7 0 8 19 4 53 -9 70 -14 72 -14 4z"/>
<path d="M2646 2715 c-9 -26 -7 -32 5 -12 6 10 9 21 6 23 -2 3 -7 -2 -11 -11z"/>
<path d="M1860 2701 c0 -11 -6 -22 -12 -25 -7 -3 3 -4 22 -1 19 3 29 2 23 -1
-30 -14 -6 -64 30 -64 17 0 19 5 13 33 -6 30 -46 77 -67 77 -5 0 -9 -9 -9 -19z
m53 -46 c-3 -9 -8 -14 -10 -11 -3 3 -2 9 2 15 9 16 15 13 8 -4z"/>
<path d="M1266 2673 c-6 -14 -5 -15 5 -6 7 7 10 15 7 18 -3 3 -9 -2 -12 -12z"/>
<path d="M2612 2670 c-12 -31 -6 -39 13 -19 9 9 11 19 5 29 -7 12 -11 10 -18
-10z"/>
<path d="M1980 2660 c0 -11 4 -20 9 -20 17 0 19 15 5 28 -12 11 -14 9 -14 -8z"/>
<path d="M1600 2655 c7 -8 16 -15 21 -15 5 0 9 7 9 15 0 9 -9 15 -21 15 -18 0
-19 -2 -9 -15z"/>
<path d="M2525 2633 c10 -58 25 -64 25 -10 0 37 -4 47 -16 47 -13 0 -15 -7 -9
-37z"/>
<path d="M2070 2642 c0 -7 -9 -12 -20 -12 -11 0 -20 -4 -20 -10 0 -5 6 -10 14
-10 17 0 41 28 32 37 -3 3 -6 1 -6 -5z"/>
<path d="M2658 2625 c-16 -14 -24 -27 -18 -30 10 -6 49 31 50 48 0 10 -2 9
-32 -18z"/>
<path d="M1206 2602 c-8 -14 14 -52 31 -52 6 0 18 -3 27 -6 9 -3 16 -1 16 5 0
6 -5 11 -12 11 -7 0 -22 12 -34 27 -13 17 -23 22 -28 15z"/>
<path d="M1310 2596 c-10 -13 -10 -16 0 -14 21 5 22 -17 1 -39 -11 -11 -17
-24 -14 -27 4 -3 1 -6 -5 -6 -7 0 -12 -12 -12 -26 0 -31 15 -24 24 12 4 15 14
33 21 41 18 17 52 9 57 -14 3 -15 4 -15 16 0 11 13 8 18 -21 32 -19 9 -39 25
-44 37 -8 19 -10 19 -23 4z"/>
<path d="M2460 2596 c0 -7 7 -19 15 -26 9 -7 13 -21 10 -31 -4 -12 1 -19 15
-24 12 -4 24 -4 27 -1 4 3 -1 6 -10 6 -26 0 -20 20 6 20 21 1 21 1 -4 15 -15
8 -29 23 -32 35 -6 22 -27 28 -27 6z"/>
<path d="M2103 2585 c-5 -9 -22 -20 -39 -25 -28 -10 -28 -10 6 -5 38 6 68 29
52 39 -6 4 -15 -1 -19 -9z"/>
<path d="M2306 2592 c-4 -7 -5 -28 -2 -45 5 -27 11 -32 36 -34 18 -1 28 2 25
8 -4 5 -10 7 -14 5 -9 -6 -28 29 -33 59 -3 15 -6 17 -12 7z"/>
<path d="M1086 2575 c4 -9 -2 -18 -17 -23 -14 -6 -18 -11 -11 -16 20 -12 51
11 45 34 -3 11 -9 20 -14 20 -5 0 -6 -7 -3 -15z"/>
<path d="M2599 2573 c-13 -15 -12 -15 9 -4 23 12 28 21 13 21 -5 0 -15 -7 -22
-17z"/>
<path d="M1614 2559 c-3 -6 -1 -16 5 -22 8 -8 11 -5 11 11 0 24 -5 28 -16 11z"/>
<path d="M1710 2550 c0 -5 5 -10 10 -10 6 0 10 5 10 10 0 6 -4 10 -10 10 -5 0
-10 -4 -10 -10z"/>
<path d="M1805 2530 c-8 -13 3 -30 21 -30 18 0 18 14 0 29 -10 8 -16 9 -21 1z"/>
<path d="M2265 2530 c-3 -5 -3 -15 1 -21 3 -6 2 -14 -3 -18 -6 -3 -14 -16 -18
-29 -7 -23 -6 -23 14 -5 12 9 21 23 21 30 0 7 4 13 9 13 5 0 7 9 4 20 -6 22
-18 26 -28 10z"/>
<path d="M2750 2530 c0 -5 5 -10 10 -10 6 0 10 5 10 10 0 6 -4 10 -10 10 -5 0
-10 -4 -10 -10z"/>
<path d="M1710 2520 c0 -5 5 -10 10 -10 6 0 10 5 10 10 0 6 -4 10 -10 10 -5 0
-10 -4 -10 -10z"/>
<path d="M1992 2516 c7 -8 16 -12 21 -9 11 7 -2 23 -19 23 -12 0 -12 -2 -2
-14z"/>
<path d="M2168 2513 c6 -2 18 -2 25 0 6 3 1 5 -13 5 -14 0 -19 -2 -12 -5z"/>
<path d="M2712 2499 c-7 -11 -11 -24 -8 -27 10 -9 28 15 24 32 -2 14 -5 13
-16 -5z"/>
<path d="M1785 2469 c4 -12 8 -27 9 -33 1 -6 6 -18 11 -26 49 -75 46 -96 -20
-175 -55 -65 -55 -65 -40 -95 18 -36 31 -38 56 -8 24 27 24 31 -1 23 -13 -4
-20 -2 -20 7 0 10 -3 9 -10 -2 -14 -22 -23 -5 -10 20 9 17 14 19 26 9 10 -8
14 -8 14 0 0 6 -6 11 -12 11 -7 0 2 14 20 30 17 16 32 34 32 39 0 5 7 12 16
15 10 4 14 14 11 26 -3 11 -1 22 3 25 5 3 10 -3 13 -12 2 -10 4 -3 4 15 0 18
-3 28 -7 22 -4 -6 -14 -8 -23 -5 -17 7 -30 32 -22 45 3 4 -5 10 -18 14 -18 5
-19 8 -7 15 12 8 12 13 0 35 -16 31 -34 34 -25 5z"/>
<path d="M2670 2451 c0 -6 10 -26 22 -46 17 -31 23 -34 30 -21 5 9 16 16 23
16 8 0 15 5 15 10 0 13 -17 13 -25 0 -10 -16 -45 8 -45 30 0 11 -4 20 -10 20
-5 0 -10 -4 -10 -9z"/>
<path d="M1395 2439 c-4 -5 5 -9 19 -9 14 0 26 4 26 8 0 11 -39 12 -45 1z"/>
<path d="M2765 2440 c-3 -5 -1 -10 4 -10 6 0 11 5 11 10 0 6 -2 10 -4 10 -3 0
-8 -4 -11 -10z"/>
<path d="M2407 2420 c4 -16 9 -18 25 -9 17 9 18 13 7 20 -24 15 -37 10 -32
-11z"/>
<path d="M1184 2419 c-11 -18 11 -32 25 -16 9 12 8 16 -3 20 -9 4 -18 1 -22
-4z"/>
<path d="M1233 2410 c-1 -11 2 -20 8 -20 5 0 12 0 17 0 4 0 7 6 7 13 0 6 5 15
10 19 6 4 -1 8 -15 8 -19 0 -26 -6 -27 -20z"/>
<path d="M1320 2420 c0 -5 5 -10 10 -10 6 0 10 5 10 10 0 6 -4 10 -10 10 -5 0
-10 -4 -10 -10z"/>
<path d="M2550 2418 c0 -9 5 -20 10 -23 13 -8 13 5 0 25 -8 13 -10 13 -10 -2z"/>
<path d="M2616 2398 c16 -18 32 -34 37 -36 4 -2 5 -8 2 -12 -3 -5 4 -14 15
-20 17 -9 20 -8 20 10 0 11 -7 20 -15 20 -9 0 -21 12 -28 28 -13 31 -25 42
-46 42 -10 0 -4 -11 15 -32z"/>
<path d="M2466 2411 c-3 -5 1 -11 9 -15 15 -6 29 7 18 18 -9 9 -21 8 -27 -3z"/>
<path d="M1080 2399 c0 -5 5 -7 10 -4 6 3 10 8 10 11 0 2 -4 4 -10 4 -5 0 -10
-5 -10 -11z"/>
<path d="M1764 2396 c-10 -8 -15 -18 -11 -22 4 -4 15 0 24 9 22 21 12 31 -13
13z"/>
<path d="M2120 2400 c-12 -7 -10 -11 10 -18 30 -11 32 -10 24 12 -7 18 -13 20
-34 6z"/>
<path d="M1060 2384 c0 -7 9 -22 20 -35 25 -31 26 -12 0 21 -11 14 -20 20 -20
14z"/>
<path d="M1163 2383 c-7 -3 -13 -12 -13 -21 0 -15 2 -15 17 1 18 18 16 27 -4
20z"/>
<path d="M2500 2364 c0 -14 4 -23 10 -19 6 3 10 15 10 26 0 10 -4 19 -10 19
-5 0 -10 -12 -10 -26z"/>
<path d="M2590 2380 c0 -5 10 -18 21 -29 19 -17 21 -28 17 -85 -2 -36 0 -66 4
-66 4 0 8 8 9 18 0 14 2 14 9 -3 13 -31 12 -38 -9 -32 -17 4 -18 2 -9 -24 5
-15 17 -34 25 -41 14 -11 16 -10 9 15 -5 21 -3 27 9 27 12 0 13 4 6 18 -5 9
-7 31 -4 47 3 17 2 27 -2 23 -14 -13 -35 20 -35 56 0 19 -5 38 -10 41 -6 4 -7
11 -4 17 4 6 0 14 -7 19 -18 11 -29 11 -29 -1z"/>
<path d="M1640 2359 c0 -5 5 -7 10 -4 6 3 10 8 10 11 0 2 -4 4 -10 4 -5 0 -10
-5 -10 -11z"/>
<path d="M1310 2350 c-12 -7 -12 -12 -2 -22 9 -9 12 -9 12 4 0 9 6 19 13 21 6
3 8 6 2 6 -5 0 -17 -4 -25 -9z"/>
<path d="M1704 2328 l-17 -33 27 24 c27 25 33 41 16 41 -5 0 -17 -15 -26 -32z"/>
<path d="M2868 2328 c-20 -29 -23 -43 -21 -122 1 -93 9 -112 40 -102 35 11 58
166 33 230 -13 34 -24 33 -52 -6z"/>
<path d="M1126 2325 c2 -11 4 -28 4 -37 0 -10 5 -18 11 -18 6 0 8 7 5 16 -3 8
-1 25 6 37 10 20 9 21 -5 9 -13 -11 -16 -11 -20 0 -2 7 -3 4 -1 -7z"/>
<path d="M1213 2338 c-5 -7 -14 -20 -18 -28 -8 -13 -7 -13 8 -1 15 12 22 12
45 1 15 -7 34 -12 44 -11 9 1 19 -3 23 -9 8 -13 25 -13 25 0 0 5 -17 12 -37
16 -21 3 -47 15 -59 26 -17 15 -23 16 -31 6z"/>
<path d="M1768 2333 c-13 -16 -29 -49 -30 -63 0 -3 -4 -13 -9 -22 -12 -22 4
-24 21 -3 6 8 8 20 4 26 -4 8 -3 9 5 5 7 -5 17 5 26 28 8 19 15 38 15 41 0 11
-18 4 -32 -12z"/>
<path d="M996 2310 c-40 -48 -46 -126 -14 -196 16 -34 44 -27 40 9 -2 19 2 27
13 27 20 0 20 53 0 74 -17 16 -20 36 -6 36 14 0 22 29 15 56 -8 31 -17 30 -48
-6z"/>
<path d="M1541 2304 c-29 -34 -21 -41 9 -9 13 14 21 27 18 30 -2 3 -15 -7 -27
-21z"/>
<path d="M2537 2312 c-22 -24 -22 -43 1 -36 14 5 14 4 2 -4 -8 -6 -18 -8 -22
-6 -10 6 -11 -2 -8 -96 2 -71 8 -98 17 -74 2 6 10 19 17 29 13 18 16 16 50
-21 20 -21 36 -45 36 -52 0 -9 4 -10 19 0 15 9 23 9 35 -1 10 -8 16 -9 16 -3
0 6 -17 19 -37 29 -67 31 -93 83 -93 184 0 72 -6 81 -33 51z m23 -92 c0 -5 -7
-10 -15 -10 -8 0 -15 5 -15 10 0 6 7 10 15 10 8 0 15 -4 15 -10z m0 -40 c0 -5
-2 -10 -4 -10 -3 0 -8 5 -11 10 -3 6 -1 10 4 10 6 0 11 -4 11 -10z"/>
<path d="M1200 2280 c0 -13 11 -13 30 0 12 8 11 10 -7 10 -13 0 -23 -4 -23
-10z"/>
<path d="M1453 2274 c-20 -21 -16 -42 3 -22 9 9 15 21 13 26 -2 6 -9 4 -16 -4z"/>
<path d="M2660 2280 c0 -5 7 -10 15 -10 8 0 15 5 15 10 0 6 -7 10 -15 10 -8 0
-15 -4 -15 -10z"/>
<path d="M1245 2241 c17 -16 32 -27 33 -25 8 6 -34 53 -48 54 -10 0 -4 -10 15
-29z"/>
<path d="M1512 2240 c0 -14 2 -19 5 -12 2 6 2 18 0 25 -3 6 -5 1 -5 -13z"/>
<path d="M1162 2235 c2 -11 13 -24 26 -30 12 -5 22 -14 22 -19 0 -5 7 -17 16
-27 16 -18 11 -44 -7 -34 -5 4 -9 0 -9 -7 0 -7 -12 10 -25 37 -14 28 -25 43
-25 34 0 -25 30 -78 49 -89 12 -6 22 -5 29 2 24 24 12 59 -34 106 -33 34 -45
41 -42 27z"/>
<path d="M1634 2178 c3 -34 12 -68 20 -77 9 -10 16 -25 16 -34 0 -29 -27 -19
-50 18 -12 19 -24 35 -27 35 -4 0 -3 -3 0 -7 4 -3 -5 -16 -18 -29 -30 -28 -31
-34 -5 -34 13 0 18 5 14 15 -4 9 0 15 9 15 18 0 57 -46 58 -69 0 -12 2 -11 8
4 5 11 13 21 20 21 6 1 18 2 26 3 8 0 12 7 9 16 -7 18 7 20 24 3 17 -17 15
-28 -6 -28 -15 0 -18 -6 -14 -28 3 -22 0 -28 -17 -29 -12 -1 -21 2 -21 8 0 5
-6 9 -14 9 -9 0 -12 -8 -9 -24 5 -24 -12 -44 -25 -31 -4 4 -1 10 6 12 16 6 15
33 -2 33 -26 0 -37 -104 -12 -113 10 -4 13 -1 10 7 -3 8 0 17 6 21 7 4 14 -2
17 -14 8 -29 23 -16 19 17 -2 15 -1 21 1 15 2 -7 13 -13 24 -13 11 0 35 -7 54
-14 33 -14 35 -14 35 5 0 11 7 30 15 43 14 21 14 24 -1 30 -9 4 -21 0 -28 -9
-8 -10 -16 -12 -26 -5 -12 8 -11 12 8 30 14 13 30 19 41 15 23 -7 39 14 20 26
-11 7 -10 9 4 9 9 0 17 7 17 15 0 8 -5 15 -12 15 -6 0 -3 9 7 20 25 28 10 38
-18 12 -33 -31 -72 -29 -94 6 -10 15 -20 29 -23 32 -8 7 -28 60 -32 84 -2 11
-11 20 -21 22 -17 2 -18 -4 -13 -58z m26 -28 c0 -11 7 -20 15 -20 8 0 15 -9
15 -20 0 -31 -14 -24 -33 15 -20 42 -20 45 -7 45 6 0 10 -9 10 -20z"/>
<path d="M1416 2221 c-3 -5 1 -17 10 -25 22 -22 27 -20 13 7 -16 29 -16 30
-23 18z"/>
<path d="M1810 2210 c0 -5 5 -10 11 -10 5 0 7 -5 3 -12 -4 -7 -3 -8 4 -4 6 4
9 13 5 21 -6 17 -23 20 -23 5z"/>
<path d="M1117 2194 c-3 -3 -3 -12 0 -20 3 -8 1 -14 -3 -14 -5 0 -15 -13 -22
-29 -7 -16 -25 -41 -39 -55 -28 -28 -21 -52 11 -40 13 5 14 9 6 14 -9 6 -6 17
11 41 13 19 27 37 32 40 7 5 19 69 13 69 -1 0 -5 -3 -9 -6z"/>
<path d="M1552 2153 c-23 -26 -28 -43 -12 -43 10 0 44 59 38 65 -2 2 -13 -8
-26 -22z"/>
<path d="M1300 2133 c0 -30 -7 -43 -32 -65 -23 -20 -40 -27 -56 -23 l-23 6 22
-22 c11 -11 18 -27 15 -35 -4 -11 -1 -12 12 -6 9 5 36 9 60 9 34 0 42 -4 42
-19 0 -19 -15 -24 -25 -8 -4 6 -11 5 -19 -2 -11 -10 -11 -15 1 -26 18 -19 18
-92 -1 -92 -8 0 -16 5 -18 12 -6 17 -28 0 -28 -21 0 -11 9 -29 19 -42 l19 -24
-5 27 c-5 25 -3 27 38 30 25 2 44 9 47 17 3 9 0 11 -9 6 -8 -5 -11 -5 -8 -1 4
4 3 24 -2 44 -4 20 -4 53 1 72 4 19 8 28 9 19 1 -20 28 -33 33 -17 2 6 11 12
20 14 12 1 14 -4 9 -25 -5 -19 -15 -27 -34 -29 -32 -4 -34 -15 -7 -49 l20 -25
9 24 c5 13 16 30 25 37 9 7 13 17 10 22 -3 5 4 9 14 9 18 0 19 3 9 25 -7 14
-18 25 -26 25 -9 0 -12 8 -7 28 4 15 8 36 9 47 3 29 31 25 36 -5 1 -14 8 -29
15 -33 6 -4 -1 -5 -15 -1 -15 3 -29 1 -33 -4 -3 -6 11 -10 34 -10 28 -1 38 3
34 13 -3 7 -1 16 5 20 7 4 -4 21 -27 43 -21 21 -42 44 -45 52 -4 8 -4 0 -1
-18 4 -24 2 -32 -8 -30 -8 2 -12 -5 -11 -17 1 -11 -3 -23 -10 -27 -6 -3 -12
-14 -13 -24 -4 -24 -17 -34 -33 -25 -10 6 -10 13 -2 29 8 16 7 21 -5 26 -17 7
-54 -10 -54 -24 0 -6 -4 -10 -10 -10 -18 0 -11 28 15 59 19 22 24 36 19 55
-10 41 -34 33 -34 -11z"/>
<path d="M2687 2123 c-4 -3 -7 -10 -7 -14 0 -11 29 -19 35 -10 6 11 -20 33
-28 24z"/>
<path d="M1130 2094 c0 -9 32 -33 44 -34 5 0 1 9 -9 20 -18 20 -35 26 -35 14z"/>
<path d="M1365 2090 c3 -5 10 -10 16 -10 5 0 9 5 9 10 0 6 -7 10 -16 10 -8 0
-12 -4 -9 -10z"/>
<path d="M2550 2092 c0 -12 19 -26 26 -19 2 2 -2 10 -11 17 -9 8 -15 8 -15 2z"/>
<path d="M2523 2005 c-2 -42 1 -55 12 -55 10 0 12 9 8 34 -3 20 -1 36 6 41 9
5 9 10 0 21 -19 23 -24 16 -26 -41z"/>
<path d="M1037 1967 c-3 -8 -1 -20 4 -28 8 -12 10 -12 18 0 10 15 4 41 -9 41
-4 0 -10 -6 -13 -13z"/>
<path d="M1220 1910 c0 -22 5 -40 10 -40 6 0 10 18 10 40 0 22 -4 40 -10 40
-5 0 -10 -18 -10 -40z"/>
<path d="M2750 1932 c0 -10 -6 -27 -14 -37 -10 -14 -11 -25 -5 -37 12 -22 29
-24 29 -4 0 8 4 16 8 18 12 4 2 78 -9 78 -5 0 -9 -8 -9 -18z"/>
<path d="M2024 1919 c-10 -17 13 -36 27 -22 12 12 4 33 -11 33 -5 0 -12 -5
-16 -11z"/>
<path d="M1044 1889 c-10 -17 13 -36 27 -22 12 12 4 33 -11 33 -5 0 -12 -5
-16 -11z"/>
<path d="M1130 1860 c-9 -6 -10 -10 -3 -10 6 0 15 5 18 10 8 12 4 12 -15 0z"/>
<path d="M1201 1856 c-1 -12 -6 -16 -16 -12 -8 3 -15 2 -15 -3 0 -11 39 -22
44 -13 2 4 0 16 -5 27 -7 18 -8 18 -8 1z"/>
<path d="M1150 1815 c7 -8 22 -15 34 -15 18 0 17 2 -8 15 -36 19 -42 19 -26 0z"/>
<path d="M1094 1795 c3 -9 6 -19 6 -21 0 -2 9 -4 21 -4 11 0 18 -4 14 -9 -3
-5 -1 -12 4 -15 5 -4 7 -31 4 -61 -7 -66 9 -74 34 -16 15 36 18 38 49 31 46
-11 60 -20 43 -31 -15 -9 -3 -39 19 -47 15 -5 16 60 1 75 -8 8 -7 13 1 18 7 4
16 2 20 -5 5 -8 9 -4 13 12 10 34 8 58 -3 58 -5 0 -7 -7 -4 -15 5 -13 2 -14
-22 -4 -29 10 -70 19 -109 22 -14 1 -19 -3 -17 -15 2 -10 -2 -18 -8 -18 -5 0
-11 6 -11 13 -1 6 -2 19 -3 27 0 9 -13 16 -30 18 -23 3 -28 0 -22 -13z m172
-54 c11 9 14 8 14 -4 0 -18 -55 -28 -89 -15 l-24 8 22 20 c22 18 23 18 42 -1
16 -16 23 -18 35 -8z"/>
<path d="M1068 1763 c7 -3 16 -2 19 1 4 3 -2 6 -13 5 -11 0 -14 -3 -6 -6z"/>
<path d="M1905 1760 c3 -5 11 -10 16 -10 6 0 7 5 4 10 -3 6 -11 10 -16 10 -6
0 -7 -4 -4 -10z"/>
<path d="M2755 1648 c-4 -16 -13 -28 -21 -28 -8 0 -14 -5 -14 -11 0 -6 8 -8
19 -4 21 6 38 -10 20 -20 -5 -4 -8 -13 -5 -21 3 -8 -3 -20 -14 -26 -26 -16
-25 -28 0 -28 26 0 72 87 52 99 -7 4 -17 21 -21 37 l-8 29 -8 -27z"/>
<path d="M1120 1540 c0 -5 4 -10 9 -10 6 0 13 5 16 10 3 6 -1 10 -9 10 -9 0
-16 -4 -16 -10z"/>
<path d="M1260 1541 c0 -17 18 -21 24 -6 3 9 0 15 -9 15 -8 0 -15 -4 -15 -9z"/>
<path d="M2515 1501 c-7 -12 12 -24 25 -16 11 7 4 25 -10 25 -5 0 -11 -4 -15
-9z"/>
<path d="M2720 1480 c0 -5 5 -10 10 -10 6 0 10 5 10 10 0 6 -4 10 -10 10 -5 0
-10 -4 -10 -10z"/>
<path d="M2743 1431 c-30 -25 -29 -41 1 -41 40 0 56 11 56 36 0 29 -25 31 -57
5z"/>
<path d="M1570 1421 c-23 -9 -23 -31 1 -31 11 0 18 4 15 9 -4 5 -1 11 6 13 7
3 8 7 3 10 -6 3 -17 3 -25 -1z"/>
<path d="M1460 1409 c0 -5 5 -7 10 -4 6 3 10 8 10 11 0 2 -4 4 -10 4 -5 0 -10
-5 -10 -11z"/>
<path d="M1500 1357 c0 -48 5 -58 26 -50 17 6 19 59 3 69 -8 4 -7 9 2 15 10 6
8 9 -8 9 -20 0 -23 -5 -23 -43z"/>
<path d="M2706 1325 c-4 -11 2 -15 21 -15 21 0 24 2 13 15 -7 8 -16 15 -20 15
-4 0 -10 -7 -14 -15z"/>
<path d="M2780 1320 c0 -5 5 -10 10 -10 6 0 10 5 10 10 0 6 -4 10 -10 10 -5 0
-10 -4 -10 -10z"/>
<path d="M1520 1275 c0 -10 7 -15 18 -13 21 4 19 22 -2 26 -10 2 -16 -3 -16
-13z"/>
<path d="M1265 1230 c3 -5 8 -10 11 -10 2 0 4 5 4 10 0 6 -5 10 -11 10 -5 0
-7 -4 -4 -10z"/>
<path d="M2570 1236 c0 -2 7 -7 16 -10 8 -3 12 -2 9 4 -6 10 -25 14 -25 6z"/>
<path d="M2513 1110 c0 -25 2 -35 4 -22 2 12 2 32 0 45 -2 12 -4 2 -4 -23z"/>
<path d="M2767 1123 c-4 -3 -7 -11 -7 -17 0 -6 5 -5 12 2 6 6 9 14 7 17 -3 3
-9 2 -12 -2z"/>
<path d="M2801 1094 c0 -11 3 -14 6 -6 3 7 2 16 -1 19 -3 4 -6 -2 -5 -13z"/>
<path d="M1345 1091 c3 -5 1 -12 -5 -16 -12 -7 -4 -25 11 -25 5 0 9 11 9 25 0
14 -5 25 -11 25 -5 0 -8 -4 -4 -9z"/>
<path d="M1408 1049 c-17 -18 -17 -19 7 -19 18 0 25 5 25 20 0 25 -10 24 -32
-1z"/>
<path d="M2377 1046 c-8 -20 13 -36 45 -36 36 0 36 11 -1 33 -35 21 -37 21
-44 3z"/>
<path d="M2481 1024 c0 -11 3 -14 6 -6 3 7 2 16 -1 19 -3 4 -6 -2 -5 -13z"/>
<path d="M3088 2799 c-36 -46 -56 -129 -40 -164 17 -36 30 -31 53 20 15 34 19
62 17 112 l-3 68 -27 -36z"/>
<path d="M2295 2312 c-15 -20 -21 -46 -23 -102 -1 -41 1 -81 7 -89 26 -39 81
48 81 129 0 87 -28 113 -65 62z m42 -68 c2 -13 -3 -24 -13 -28 -14 -5 -16 -1
-11 23 4 18 2 31 -5 33 -7 3 -8 10 -3 17 6 11 10 9 19 -5 5 -11 12 -29 13 -40z
m-42 -74 c3 -5 1 -10 -4 -10 -6 0 -11 5 -11 10 0 6 2 10 4 10 3 0 8 -4 11 -10z"/>
<path d="M1820 305 c0 -15 4 -24 10 -20 6 3 10 12 10 20 0 8 -4 17 -10 20 -6
4 -10 -5 -10 -20z"/>
<path d="M2016 331 c-4 -7 -5 -15 -2 -18 9 -9 19 4 14 18 -4 11 -6 11 -12 0z"/>
<path d="M2190 320 c0 -5 5 -10 10 -10 6 0 10 5 10 10 0 6 -4 10 -10 10 -5 0
-10 -4 -10 -10z"/>
</g>
</svg>
