<?xml version="1.0" standalone="no"?>
<!DOCTYPE svg PUBLIC "-//W3C//DTD SVG 20010904//EN"
 "http://www.w3.org/TR/2001/REC-SVG-20010904/DTD/svg10.dtd">
<svg version="1.0" xmlns="http://www.w3.org/2000/svg"
 width="321.000000pt" height="500.000000pt" viewBox="0 0 321.000000 500.000000"
 preserveAspectRatio="xMidYMid meet">

<g transform="translate(0.000000,500.000000) scale(0.100000,-0.100000)"
fill="#000000" stroke="none">
<path d="M0 2500 l0 -2500 840 0 c462 1 840 3 840 6 0 3 -5 14 -10 24 -6 11
-6 21 -1 24 12 8 41 -21 41 -39 0 -12 113 -14 750 -15 l750 0 0 480 c0 367 -3
480 -12 480 -9 0 -9 3 0 12 18 18 17 522 0 512 -10 -6 -10 -4 0 7 9 10 12 376
12 1761 l0 1748 -1605 0 -1605 0 0 -2500z m2045 2410 c3 -5 2 -10 -4 -10 -5 0
-13 5 -16 10 -3 6 -2 10 4 10 5 0 13 -4 16 -10z m-1673 -253 c4 -6 8 -36 8
-64 0 -50 -1 -53 -25 -53 -22 0 -25 4 -25 39 0 40 -16 56 -45 45 -10 -4 -15
-21 -15 -53 0 -46 1 -47 55 -79 36 -22 57 -42 61 -58 9 -37 -1 -163 -15 -177
-15 -15 -116 -14 -135 3 -12 9 -16 32 -16 87 0 64 2 74 16 69 9 -3 20 -6 25
-6 5 0 9 -24 9 -54 0 -41 4 -55 16 -60 29 -11 44 13 44 68 0 60 -5 68 -47 89
-48 25 -73 63 -73 112 0 59 17 103 43 109 35 7 110 -3 119 -17z m1591 4 c8 -8
13 -77 15 -211 l3 -200 -30 0 c-30 0 -31 1 -31 45 0 43 -1 45 -30 45 -29 0
-30 -2 -30 -45 0 -41 -2 -45 -25 -45 l-25 0 2 202 3 202 25 14 c29 15 106 10
123 -7z m1032 -1 c10 -8 15 -30 15 -62 0 -48 -1 -49 -27 -46 -24 2 -28 7 -25
29 3 30 -18 52 -42 43 -14 -5 -16 -27 -16 -164 0 -150 1 -159 20 -165 34 -11
40 3 40 101 0 94 0 94 25 94 l25 0 0 -119 0 -119 -25 -5 c-39 -7 -116 0 -129
13 -12 12 -22 335 -11 377 3 13 16 28 28 33 28 12 103 6 122 -10z m-2445 -14
c0 -19 -4 -23 -20 -19 -19 5 -20 0 -20 -185 0 -172 -2 -190 -17 -194 -41 -11
-43 -4 -43 188 l0 184 -25 6 c-16 4 -25 13 -25 25 0 17 8 19 75 19 73 0 75 -1
75 -24z m150 4 c0 -16 -7 -20 -30 -20 -28 0 -30 -3 -30 -35 0 -32 3 -35 29
-35 23 0 28 -4 27 -22 0 -13 -8 -24 -16 -24 -8 -1 -21 -2 -27 -3 -10 -1 -13
-29 -13 -106 l0 -105 31 0 c26 0 30 -3 27 -22 -3 -20 -10 -23 -60 -26 l-58 -3
0 211 0 210 60 0 c53 0 60 -2 60 -20z m182 3 c15 -13 18 -32 18 -110 0 -111
-13 -133 -81 -133 l-40 0 2 -77 c2 -78 2 -78 -24 -81 l-27 -3 0 210 0 211 67
0 c48 0 72 -5 85 -17z m108 -54 l0 -70 28 3 c26 3 27 4 27 71 0 66 0 67 28 67
l27 0 0 -210 0 -210 -29 0 -30 0 2 113 2 112 -27 3 -28 3 0 -115 0 -116 -30 0
-30 0 0 210 0 210 30 0 30 0 0 -71z m270 51 c0 -11 -7 -21 -15 -21 -8 -1 -21
-2 -27 -3 -7 0 -14 -16 -16 -33 -3 -31 -1 -33 27 -33 27 0 31 -4 31 -26 0 -22
-4 -25 -27 -22 l-28 3 -3 -107 -3 -108 31 0 c26 0 30 -4 30 -25 0 -25 -2 -26
-57 -23 l-58 3 -3 208 -2 207 60 0 c53 0 60 -2 60 -20z m114 -62 c9 -46 23
-105 30 -133 14 -49 14 -49 15 83 l1 132 25 0 25 0 0 -210 0 -210 -30 0 c-33
0 -31 -4 -72 169 l-23 96 -3 -132 -3 -133 -24 0 -25 0 0 210 0 210 34 0 33 0
17 -82z m276 12 l0 -70 30 0 30 0 0 70 0 70 30 0 30 0 0 -210 0 -210 -30 0
-30 0 0 115 0 115 -30 0 -30 0 0 -115 0 -115 -25 0 c-14 0 -25 5 -25 10 -1 6
-1 98 -1 205 0 107 0 197 1 200 0 3 11 5 25 5 24 0 25 -2 25 -70z m411 -37 c1
-60 4 -133 8 -163 l7 -55 7 60 c3 33 10 106 13 163 l7 102 37 0 c37 0 37 0 43
-47 4 -27 9 -96 13 -155 4 -59 10 -105 14 -103 4 3 11 72 15 155 l7 150 29 0
c35 0 35 14 5 -230 l-22 -185 -36 -3 -36 -3 -6 53 c-6 60 -15 196 -16 247 0
63 -9 27 -19 -84 -22 -233 -18 -215 -57 -215 -19 0 -36 6 -39 13 -4 12 -35
357 -35 390 0 12 8 17 30 17 l30 0 1 -107z m310 70 c0 -21 0 -58 0 -83 -2 -56
10 -40 40 54 19 62 22 66 49 66 17 0 30 -2 30 -5 0 -2 -13 -41 -30 -86 l-30
-83 35 -118 c19 -64 35 -120 35 -123 0 -3 -13 -5 -30 -5 -32 0 -38 13 -71 155
-21 88 -30 75 -27 -40 l3 -110 -30 -3 -30 -3 2 208 c2 114 3 209 3 211 0 1 11
2 25 2 22 0 25 -4 26 -37z m209 -173 l0 -210 -30 0 -30 0 0 210 0 210 30 0 30
0 0 -210z m113 188 c3 -13 16 -68 27 -123 30 -140 42 -143 39 -10 -2 158 -2
157 22 153 20 -3 21 -8 20 -198 0 -107 0 -201 0 -207 -1 -8 -14 -13 -30 -13
-29 0 -30 0 -56 118 -15 64 -30 124 -33 132 -4 8 -8 -45 -10 -117 l-3 -133
-24 0 -25 0 0 210 0 210 34 0 c27 0 35 -5 39 -22z m-1273 -749 c0 -5 -4 -9
-10 -9 -5 0 -10 7 -10 16 0 8 5 12 10 9 6 -3 10 -10 10 -16z m-961 -225 c-13
-14 -25 -20 -27 -14 -5 15 17 40 36 40 12 0 10 -6 -9 -26z m2628 -56 c-3 -8
-6 -5 -6 6 -1 11 2 17 5 13 3 -3 4 -12 1 -19z m-1749 -250 c18 -18 15 -85 -5
-96 -16 -9 -16 -11 0 -27 20 -20 24 -124 5 -143 -7 -7 -31 -12 -55 -12 l-43 0
0 145 0 145 43 0 c24 0 48 -5 55 -12z m150 0 c15 -15 16 -90 1 -105 -8 -8 -8
-17 0 -31 6 -11 11 -48 11 -81 0 -48 -3 -61 -15 -61 -12 0 -15 14 -15 70 0 68
-1 70 -25 70 -24 0 -25 -2 -25 -70 0 -56 -3 -70 -15 -70 -13 0 -15 23 -15 145
l0 145 43 0 c24 0 48 -5 55 -12z m122 -3 c0 -8 -7 -15 -15 -15 -9 0 -15 -9
-15 -25 0 -16 6 -25 15 -25 8 0 15 -7 15 -15 0 -8 -7 -15 -15 -15 -12 0 -15
-15 -15 -75 0 -60 3 -75 15 -75 8 0 15 -7 15 -16 0 -11 -8 -14 -32 -12 l-31 3
-2 135 c0 74 1 138 3 143 7 14 62 8 62 -8z m53 2 c3 -8 8 -59 12 -115 4 -56
11 -100 15 -97 4 2 10 37 14 77 11 118 17 148 32 148 10 0 13 -8 10 -22 -3
-13 -7 -48 -11 -78 -3 -30 -10 -86 -17 -123 -10 -60 -14 -68 -32 -65 -19 3
-22 14 -33 123 -6 66 -12 130 -12 143 -1 24 14 30 22 9z m187 -1 c0 -7 -9 -16
-20 -19 -11 -3 -20 -13 -20 -22 0 -9 9 -19 20 -22 11 -3 20 -12 20 -19 0 -8
-9 -14 -20 -14 -18 0 -20 -7 -20 -71 0 -62 2 -71 20 -76 35 -9 24 -33 -15 -33
l-35 0 0 145 0 145 35 0 c23 0 35 -5 35 -14z m133 7 c3 -5 7 -24 9 -43 4 -42
-23 -50 -32 -10 -3 14 -14 26 -23 28 -13 3 -17 -4 -17 -30 0 -40 7 -50 41 -65
30 -13 36 -36 29 -108 l-5 -50 -40 -3 c-46 -4 -65 14 -65 65 0 26 4 33 20 33
16 0 20 -7 20 -36 0 -28 3 -35 18 -32 12 2 18 15 20 42 3 33 -1 42 -37 75 -33
31 -41 45 -41 74 0 19 7 43 16 51 16 16 79 22 87 9z m-875 -395 c17 -17 15
-78 -4 -99 -15 -17 -15 -19 0 -34 11 -12 16 -35 16 -81 0 -57 -2 -64 -20 -64
-17 0 -19 8 -22 72 -2 60 -6 73 -20 76 -16 3 -18 -6 -18 -72 0 -61 -3 -76 -15
-76 -8 0 -15 6 -15 13 0 6 -1 72 -3 145 l-2 132 46 0 c25 0 50 -5 57 -12z
m122 -3 c0 -8 -9 -15 -20 -15 -13 0 -20 -7 -20 -20 0 -14 7 -20 21 -20 14 0
19 -5 17 -17 -2 -10 -11 -17 -21 -17 -15 2 -17 -8 -17 -72 0 -68 2 -74 21 -74
36 0 19 -34 -19 -38 l-32 -3 0 145 0 146 35 0 c24 0 35 -5 35 -15z m138 -27
c2 -28 -1 -38 -12 -38 -8 0 -16 10 -18 23 -2 14 -10 22 -23 22 -16 0 -20 -7
-20 -30 0 -23 8 -35 38 -54 36 -24 37 -26 37 -86 0 -69 -10 -85 -55 -85 -42 0
-55 16 -55 67 0 32 4 43 15 43 10 0 15 -10 15 -34 0 -19 5 -38 10 -41 19 -12
40 16 40 51 0 28 -6 38 -40 59 -38 24 -40 27 -40 78 0 30 3 57 7 61 4 4 28 6
53 4 44 -3 45 -4 48 -40z m141 28 c7 -9 11 -40 9 -78 l-3 -63 -37 -9 -38 -10
0 -58 c0 -45 -3 -58 -15 -58 -13 0 -15 23 -15 145 l0 145 44 0 c25 0 48 -6 55
-14z m147 2 c8 -13 6 -257 -2 -270 -3 -4 -20 -8 -39 -8 -54 0 -65 26 -65 148
0 125 7 142 60 142 21 0 42 -5 46 -12z m152 -30 c2 -29 0 -38 -12 -38 -10 0
-16 9 -16 25 0 18 -5 25 -20 25 -11 0 -20 -3 -21 -7 0 -5 -2 -16 -4 -27 -3
-17 49 -76 67 -76 13 0 9 -125 -4 -138 -7 -7 -27 -12 -45 -12 -38 0 -53 21
-53 74 0 30 4 36 21 36 17 0 20 -5 17 -25 -6 -29 14 -61 30 -51 7 4 12 27 12
51 0 35 -4 45 -20 50 -48 15 -75 89 -49 136 8 16 19 19 52 17 41 -3 42 -4 45
-40z m132 27 c0 -8 -7 -15 -15 -15 -13 0 -15 -21 -15 -130 0 -122 -1 -130 -20
-130 -18 0 -19 8 -19 128 1 108 -2 127 -15 130 -9 2 -16 10 -16 18 0 10 13 14
50 14 38 0 50 -4 50 -15z m130 -4 c5 -11 10 -76 10 -145 0 -105 -2 -126 -15
-126 -10 0 -15 11 -15 35 0 31 -3 35 -25 35 -22 0 -25 -4 -25 -35 0 -24 -5
-35 -15 -35 -13 0 -15 21 -15 133 0 90 4 137 12 145 20 20 76 15 88 -7z m154
3 c3 -9 6 -27 6 -41 0 -18 -5 -24 -17 -21 -10 2 -19 9 -19 16 -1 6 -2 17 -3
22 0 6 -10 10 -21 10 -16 0 -20 -7 -20 -33 0 -28 7 -38 38 -58 34 -22 37 -28
40 -76 4 -75 -9 -95 -61 -91 l-42 3 -3 53 c-2 42 0 52 12 52 12 0 16 -10 16
-34 0 -19 5 -38 10 -41 19 -12 40 16 40 51 0 28 -7 38 -40 60 -38 25 -40 29
-40 79 0 28 3 55 7 58 3 4 25 7 49 7 29 0 44 -5 48 -16z m-1316 -433 c5 -82
-2 -99 -41 -103 -32 -3 -32 -4 -35 -60 -2 -43 -7 -58 -17 -58 -12 0 -15 25
-15 143 l0 143 53 -6 52 -5 3 -54z m126 56 c15 -11 18 -33 21 -145 3 -121 2
-132 -14 -132 -13 0 -18 7 -17 28 1 21 -4 28 -21 30 -20 3 -23 -1 -23 -27 0
-25 -4 -31 -21 -31 -20 0 -20 4 -17 131 3 116 5 132 22 145 25 17 47 18 70 1z
m167 -9 c14 -22 10 -85 -6 -98 -14 -12 -14 -15 0 -30 21 -23 21 -140 0 -140
-11 0 -15 16 -17 68 -3 61 -5 67 -25 70 -22 3 -23 0 -23 -67 0 -56 -3 -71 -15
-71 -13 0 -15 23 -15 143 l0 142 47 -2 c25 -1 50 -8 54 -15z m143 6 c23 -22
24 -274 1 -274 -10 0 -15 10 -15 30 0 25 -4 30 -25 30 -21 0 -25 -5 -25 -30 0
-20 -5 -30 -15 -30 -13 0 -15 21 -15 129 0 140 7 161 55 161 13 0 31 -7 39
-16z m212 -9 c16 -25 13 -55 -6 -55 -6 0 -15 11 -20 25 -10 26 -24 32 -35 15
-9 -14 -10 -195 -1 -208 4 -7 16 -12 26 -12 17 0 19 7 17 62 -2 51 1 63 14 66
14 3 17 -8 16 -77 l0 -81 -42 0 c-22 0 -46 5 -53 12 -17 17 -17 249 0 266 21
21 66 14 84 -13z m298 9 c22 -22 24 -274 2 -274 -9 0 -16 12 -18 28 -2 19 -9
28 -25 30 -20 3 -23 -1 -23 -27 0 -21 -5 -31 -15 -31 -13 0 -15 22 -15 135 0
117 2 135 18 144 25 15 58 13 76 -5z m90 4 c2 -7 12 -51 22 -98 9 -47 21 -89
26 -94 4 -6 8 38 8 97 0 65 4 107 10 107 6 0 10 -55 10 -145 0 -134 -1 -145
-18 -145 -15 0 -21 13 -32 63 -7 34 -13 74 -14 89 0 14 -4 24 -8 22 -3 -2 -9
2 -11 8 -3 7 -6 -31 -6 -84 -1 -58 -5 -98 -11 -98 -11 0 -14 272 -3 283 10 11
23 8 27 -5z m336 -10 c0 -11 -5 -15 -15 -12 -11 5 -15 -1 -15 -20 0 -16 6 -26
15 -26 8 0 15 -7 15 -15 0 -8 -7 -15 -15 -15 -12 0 -15 -15 -15 -75 0 -60 3
-75 15 -75 8 0 15 -7 15 -15 0 -10 -10 -15 -30 -15 l-30 0 0 144 0 143 30 -1
c21 -1 30 -6 30 -18z m134 6 c21 -20 21 -74 1 -74 -13 0 -19 18 -18 57 0 7 -7
9 -21 4 -41 -16 -24 -101 21 -101 18 0 33 -42 33 -93 0 -59 -9 -69 -61 -65
l-44 3 -3 48 c-2 36 0 47 12 47 9 0 16 -12 18 -32 2 -25 8 -33 23 -33 16 0 21
8 23 36 3 32 -2 40 -37 69 -38 29 -41 36 -41 79 0 26 5 52 12 59 17 17 64 15
82 -4z m-700 -10 c12 -31 6 -83 -10 -92 -16 -9 -16 -11 0 -33 10 -15 16 -44
16 -81 0 -49 -3 -58 -18 -58 -14 0 -17 7 -14 45 5 63 -4 95 -28 95 -18 0 -20
-7 -20 -70 0 -56 -3 -70 -15 -70 -13 0 -15 22 -15 140 l0 140 49 0 c35 0 51
-4 55 -16z m454 -121 l-3 -138 -52 -3 -53 -3 0 140 0 141 55 0 56 0 -3 -137z
m-327 -211 c-7 -2 -18 1 -23 6 -8 8 -4 9 13 5 13 -4 18 -8 10 -11z m-640 -59
c6 -17 8 -61 4 -108 -3 -44 -7 -104 -8 -132 -2 -52 -12 -68 -23 -38 -4 8 -16
15 -28 15 -45 0 -48 10 -47 145 1 70 4 131 7 136 3 5 23 9 45 9 34 0 41 -4 50
-27z m79 -97 c0 -126 7 -150 35 -126 11 9 14 38 12 131 -2 108 0 119 16 119
15 0 17 -13 17 -128 0 -151 -6 -165 -65 -160 l-40 3 -3 143 c-2 122 0 142 13
142 13 0 15 -19 15 -124z m190 109 c0 -8 -9 -15 -20 -15 -14 0 -20 -7 -20 -24
0 -17 5 -23 18 -22 9 0 17 -6 17 -14 0 -8 -8 -14 -17 -14 -16 2 -18 -8 -18
-76 0 -67 2 -78 17 -76 10 0 19 -7 21 -16 3 -15 -4 -18 -32 -18 l-36 0 0 145
0 145 35 0 c24 0 35 -5 35 -15z m138 -27 c2 -29 0 -38 -12 -38 -10 0 -16 9
-16 26 0 21 -4 25 -22 22 -16 -2 -24 -11 -26 -30 -2 -20 6 -33 37 -59 39 -30
41 -35 41 -85 0 -74 -6 -84 -49 -84 -48 0 -61 14 -61 67 0 56 27 61 32 6 2
-30 7 -38 23 -38 16 0 21 8 23 41 3 38 0 44 -31 63 -40 24 -47 38 -47 90 0 48
16 63 65 59 38 -3 40 -5 43 -40z m132 28 c0 -7 -9 -16 -20 -19 -19 -5 -20 -14
-20 -131 0 -105 -2 -126 -15 -126 -13 0 -15 21 -15 130 0 109 -2 130 -15 130
-8 0 -15 7 -15 15 0 11 12 15 50 15 36 0 50 -4 50 -14z m120 4 c12 -7 16 -36
18 -128 4 -132 -4 -152 -56 -152 -54 0 -57 9 -57 145 0 101 3 128 15 135 19
12 61 12 80 0z m130 -4 c0 -7 -9 -16 -19 -19 -22 -5 -22 -42 0 -42 7 0 15 -8
17 -17 2 -13 -3 -18 -18 -18 -20 0 -21 -4 -18 -72 2 -57 6 -73 18 -73 8 0 16
-8 18 -17 3 -15 -4 -18 -32 -18 l-36 0 0 145 0 145 35 0 c23 0 35 -5 35 -14z
m140 -5 c17 -33 12 -61 -10 -61 -15 0 -20 7 -20 25 0 18 -5 25 -20 25 -16 0
-20 -7 -20 -34 0 -28 7 -39 33 -57 17 -13 35 -27 39 -33 7 -11 1 -112 -7 -127
-4 -5 -24 -9 -45 -9 -46 0 -60 18 -60 75 0 29 3 36 18 33 11 -2 19 -15 22 -38
8 -54 34 -46 38 12 3 39 0 47 -17 53 -30 9 -61 54 -61 87 0 50 16 68 60 68 29
0 42 -5 50 -19z m-1943 -213 c-3 -8 -6 -5 -6 6 -1 11 2 17 5 13 3 -3 4 -12 1
-19z m221 -125 c-2 -9 -8 -18 -15 -20 -7 -3 -9 3 -6 16 6 25 26 28 21 4z
m2692 -393 c0 -5 -5 -10 -11 -10 -5 0 -7 5 -4 10 3 6 8 10 11 10 2 0 4 -4 4
-10z m-2555 -28 c-3 -3 -11 0 -18 7 -9 10 -8 11 6 5 10 -3 15 -9 12 -12z
m2216 -32 c17 -14 20 -19 9 -20 -9 0 -23 9 -33 20 -22 26 -6 26 24 0z m5 -57
c19 -25 17 -44 -3 -41 -13 2 -17 -3 -15 -16 4 -22 -17 -17 -32 7 -8 13 -8 20
2 26 7 4 12 12 11 17 -5 29 17 33 37 7z m-2076 -138 c0 -8 -2 -15 -4 -15 -2 0
-6 7 -10 15 -3 8 -1 15 4 15 6 0 10 -7 10 -15z m1157 -2 c15 -10 24 -12 20 -5
-5 7 -3 12 5 12 17 0 40 -15 39 -26 0 -5 9 -8 19 -6 12 2 20 -2 20 -11 0 -10
-7 -14 -22 -10 -18 4 -20 2 -9 -5 12 -8 12 -14 3 -25 -7 -7 -9 -17 -5 -20 3
-4 -1 -7 -10 -7 -9 0 -17 6 -17 14 0 15 -27 29 -40 21 -4 -2 -6 -18 -4 -35 2
-16 -1 -30 -6 -30 -6 0 -10 15 -10 33 -1 17 -7 43 -15 57 -17 30 -19 60 -5 60
6 0 23 -8 37 -17z m684 -16 c-1 -12 -15 -9 -19 4 -3 6 1 10 8 8 6 -3 11 -8 11
-12z m126 -21 c-9 -7 -17 -23 -17 -36 0 -13 -7 -28 -16 -34 -20 -15 -9 -62 16
-69 24 -6 29 -1 23 24 -3 11 -14 19 -27 19 -20 1 -20 1 -2 12 28 16 116 21
133 7 7 -7 16 -9 20 -5 3 3 1 6 -5 6 -7 0 -12 5 -12 12 0 6 9 3 20 -7 23 -21
26 -41 8 -48 -7 -3 -3 -6 10 -6 12 -1 22 -7 22 -15 0 -22 -21 -31 -31 -13 -5
9 -22 22 -37 29 l-27 14 3 -47 c4 -45 3 -47 -20 -43 -12 2 -17 2 -10 -2 20 -9
14 -24 -11 -24 -13 0 -28 -5 -35 -12 -7 -7 -12 -8 -12 -3 0 6 -4 4 -9 -4 -5
-8 -6 -24 -1 -37 9 -24 4 -34 -16 -34 -8 0 -11 6 -8 15 7 17 -11 21 -21 5 -3
-6 8 -22 24 -36 17 -14 29 -30 25 -35 -3 -5 2 -12 10 -15 9 -3 14 -10 11 -14
-8 -12 -42 0 -61 21 -9 10 -23 19 -31 19 -7 0 -13 5 -13 10 0 6 -11 10 -24 10
-13 0 -29 7 -37 16 -7 8 -20 13 -30 11 -9 -3 -24 4 -33 14 -9 11 -23 16 -33
13 -16 -5 -16 -4 1 10 20 16 24 15 -53 16 -16 0 -21 4 -17 15 3 8 1 17 -4 20
-6 4 -10 17 -10 31 0 21 4 24 38 24 27 0 33 3 22 10 -12 8 -11 10 5 10 12 0
26 -5 33 -12 15 -15 108 -16 122 -2 8 8 7 15 -4 27 -21 21 -20 27 4 27 10 0
24 9 30 19 5 11 20 21 32 23 17 2 23 10 23 28 0 24 34 64 45 53 3 -2 -3 -10
-13 -17z m48 -6 c-3 -5 -13 -10 -21 -10 -8 0 -12 5 -9 10 3 6 13 10 21 10 8 0
12 -4 9 -10z m181 1 c-6 -9 -46 -22 -46 -15 0 3 10 9 23 14 29 11 29 11 23 1z
m-66 -6 c0 -5 -55 -35 -65 -35 -14 0 -3 18 18 28 24 11 47 15 47 7z m-2389
-38 c-1 -12 -15 -9 -19 4 -3 6 1 10 8 8 6 -3 11 -8 11 -12z m2296 7 c-3 -3
-12 -4 -19 -1 -8 3 -5 6 6 6 11 1 17 -2 13 -5z m-437 -8 c0 -3 -4 -8 -10 -11
-5 -3 -10 -1 -10 4 0 6 5 11 10 11 6 0 10 -2 10 -4z m80 -10 c0 -2 -3 -12 -6
-20 -5 -13 -9 -14 -20 -5 -16 13 -9 29 12 29 8 0 14 -2 14 -4z m-1422 -31 c6
-13 22 -27 36 -31 24 -6 24 -6 5 -25 -24 -24 -27 -24 -31 3 -3 26 -38 38 -38
14 0 -20 -11 -20 -36 -1 -11 8 -14 15 -6 15 6 0 12 5 12 10 0 6 -3 9 -7 9 -18
-3 -33 2 -33 10 0 4 11 6 25 3 15 -2 25 0 25 7 0 21 37 11 48 -14z m1557 15
c3 -5 -1 -10 -9 -10 -9 0 -16 5 -16 10 0 6 4 10 9 10 6 0 13 -4 16 -10z m385
0 c0 -5 -5 -10 -11 -10 -5 0 -7 5 -4 10 3 6 8 10 11 10 2 0 4 -4 4 -10z
m-1842 -29 c3 -8 -1 -12 -9 -9 -7 2 -15 10 -17 17 -3 8 1 12 9 9 7 -2 15 -10
17 -17z m929 -7 c-3 -3 -12 -4 -19 -1 -8 3 -5 6 6 6 11 1 17 -2 13 -5z m-827
-14 c0 -5 -2 -10 -4 -10 -3 0 -8 5 -11 10 -3 6 -1 10 4 10 6 0 11 -4 11 -10z
m220 0 c0 -5 -4 -10 -9 -10 -6 0 -13 5 -16 10 -3 6 1 10 9 10 9 0 16 -4 16
-10z m1545 -20 c-3 -5 -13 -10 -21 -10 -8 0 -12 5 -9 10 3 6 13 10 21 10 8 0
12 -4 9 -10z m-2205 -15 c10 -12 10 -19 1 -28 -9 -9 -14 -9 -21 3 -22 34 -4
54 20 25z m215 -25 c3 -5 1 -10 -4 -10 -6 0 -11 5 -11 10 0 6 2 10 4 10 3 0 8
-4 11 -10z m650 0 c3 -5 1 -10 -4 -10 -6 0 -11 5 -11 10 0 6 2 10 4 10 3 0 8
-4 11 -10z m1550 0 c-3 -5 -12 -10 -18 -10 -7 0 -6 4 3 10 19 12 23 12 15 0z
m-1115 -10 c8 -5 11 -10 5 -10 -5 0 -17 5 -25 10 -8 5 -10 10 -5 10 6 0 17 -5
25 -10z m-915 -10 c3 -5 1 -10 -4 -10 -6 0 -11 5 -11 10 0 6 2 10 4 10 3 0 8
-4 11 -10z m1895 0 c0 -5 -4 -10 -10 -10 -5 0 -10 5 -10 10 0 6 5 10 10 10 6
0 10 -4 10 -10z m-740 -9 c0 -5 -19 -12 -41 -16 -27 -5 -37 -10 -29 -15 7 -5
19 -6 27 -3 7 3 13 1 13 -5 0 -19 -39 -20 -56 -1 -9 10 -15 19 -13 20 7 1 94
26 97 28 1 0 2 -3 2 -8z m-220 -11 c13 -8 13 -10 -2 -10 -9 0 -20 5 -23 10 -8
13 5 13 25 0z m1125 0 c3 -5 15 -10 26 -10 21 0 26 -15 8 -26 -6 -3 -22 5 -35
20 -14 14 -20 26 -15 26 5 0 13 -4 16 -10z m-420 -20 c-3 -5 -10 -10 -16 -10
-5 0 -9 5 -9 10 0 6 7 10 16 10 8 0 12 -4 9 -10z m205 -9 c0 -5 -10 -9 -22
-10 -56 -2 -77 -7 -95 -23 -25 -23 -36 -23 -58 2 -16 18 -16 20 -2 20 10 0 17
-4 17 -9 0 -13 28 -22 35 -11 3 4 -1 15 -9 22 -11 12 -2 14 60 16 41 0 74 -3
74 -7z m-1902 -20 c3 -8 -1 -12 -9 -9 -7 2 -15 10 -17 17 -3 8 1 12 9 9 7 -2
15 -10 17 -17z m-578 -1 c0 -5 -2 -10 -4 -10 -3 0 -8 5 -11 10 -3 6 -1 10 4
10 6 0 11 -4 11 -10z m445 0 c3 -5 2 -10 -4 -10 -5 0 -13 5 -16 10 -3 6 -2 10
4 10 5 0 13 -4 16 -10z m2059 -5 c-4 -8 -10 -15 -15 -15 -5 0 -9 -4 -9 -10 0
-5 8 -10 18 -10 10 0 25 -9 35 -20 21 -25 21 -30 2 -30 -8 0 -15 5 -15 11 0 5
-12 9 -27 7 -16 -2 -29 0 -30 5 -2 4 -12 16 -23 27 -29 29 -25 44 8 37 15 -3
34 -2 42 4 20 12 20 11 14 -6z m-2129 -5 c3 -5 1 -10 -4 -10 -6 0 -11 5 -11
10 0 6 2 10 4 10 3 0 8 -4 11 -10z m204 -16 c3 -3 0 -9 -5 -14 -7 -7 -17 -3
-30 11 -19 22 -19 22 6 14 14 -4 27 -9 29 -11z m1341 6 c0 -5 -2 -10 -4 -10
-3 0 -8 5 -11 10 -3 6 -1 10 4 10 6 0 11 -4 11 -10z m-1620 -16 c0 -8 -4 -12
-10 -9 -5 3 -10 10 -10 16 0 5 5 9 10 9 6 0 10 -7 10 -16z m65 -12 c-3 -3 -11
0 -18 7 -9 10 -8 11 6 5 10 -3 15 -9 12 -12z m1120 8 c3 -5 1 -10 -4 -10 -6 0
-11 5 -11 10 0 6 2 10 4 10 3 0 8 -4 11 -10z m-1384 -17 c13 -16 12 -17 -3 -4
-10 7 -18 15 -18 17 0 8 8 3 21 -13z m437 -5 c20 0 23 -4 18 -24 -4 -14 -2
-24 4 -24 5 0 10 -5 10 -11 0 -6 -7 -8 -16 -5 -12 4 -14 1 -9 -14 7 -23 -13
-28 -21 -5 -4 8 -13 15 -22 15 -13 0 -12 -3 4 -14 19 -15 19 -15 -1 -31 -11
-9 -15 -14 -8 -11 7 4 11 -1 10 -14 -1 -22 -27 -28 -27 -7 0 7 -9 13 -20 13
-22 0 -27 -12 -7 -19 9 -4 9 -6 0 -6 -6 -1 -14 3 -17 7 -9 15 17 82 31 82 7 0
13 7 13 16 0 11 6 15 20 11 27 -7 25 3 -7 31 l-28 23 25 -6 c14 -4 35 -7 48
-7z m402 8 c0 -11 -19 -15 -25 -6 -3 5 1 10 9 10 9 0 16 -2 16 -4z m-605 -16
c3 -5 2 -10 -4 -10 -5 0 -13 5 -16 10 -3 6 -2 10 4 10 5 0 13 -4 16 -10z m90
-3 c13 -10 15 -16 6 -21 -6 -4 -9 -12 -6 -17 4 -5 1 -9 -5 -9 -7 0 -10 6 -7
13 2 6 -2 20 -11 30 -18 20 -4 23 23 4z m773 -13 c16 -11 22 -24 22 -49 0 -37
-19 -62 -56 -71 -35 -9 -52 1 -71 41 -16 34 -16 36 5 64 15 21 18 31 9 34 -6
3 6 3 28 0 22 -3 50 -12 63 -19z m609 20 c-3 -3 -12 -4 -19 -1 -8 3 -5 6 6 6
11 1 17 -2 13 -5z m-1619 -35 c2 -23 2 -23 -13 -5 -18 24 -20 39 -2 34 6 -3
13 -15 15 -29z m2217 21 c3 -5 1 -10 -4 -10 -6 0 -11 5 -11 10 0 6 2 10 4 10
3 0 8 -4 11 -10z m-366 -4 c-11 -9 -69 -15 -64 -6 3 6 20 10 37 10 17 0 29 -2
27 -4z m-1949 -26 c0 -5 -2 -10 -4 -10 -3 0 -8 5 -11 10 -3 6 -1 10 4 10 6 0
11 -4 11 -10z m590 0 c0 -5 -2 -10 -4 -10 -3 0 -8 5 -11 10 -3 6 -1 10 4 10 6
0 11 -4 11 -10z m1080 0 c0 -5 -4 -10 -10 -10 -5 0 -10 5 -10 10 0 6 5 10 10
10 6 0 10 -4 10 -10z m308 -7 c6 -19 -25 -16 -32 3 -4 11 -1 14 11 12 9 -2 18
-9 21 -15z m-188 -19 c0 -2 -7 -4 -15 -4 -8 0 -15 4 -15 10 0 5 7 7 15 4 8 -4
15 -8 15 -10z m510 1 c0 -8 -7 -15 -15 -15 -26 0 -18 20 13 29 1 1 2 -6 2 -14z
m-2160 -15 c0 -5 -2 -10 -4 -10 -3 0 -8 5 -11 10 -3 6 -1 10 4 10 6 0 11 -4
11 -10z m1205 -8 c-3 -3 -11 0 -18 7 -9 10 -8 11 6 5 10 -3 15 -9 12 -12z
m-730 -2 c3 -5 1 -10 -6 -10 -7 0 -4 -7 7 -15 18 -14 18 -15 -4 -7 -13 4 -23
11 -23 15 1 4 1 12 1 17 0 6 4 10 9 10 6 0 13 -4 16 -10z m1122 -6 c-3 -3 -12
-4 -19 -1 -8 3 -5 6 6 6 11 1 17 -2 13 -5z m-1242 -15 c11 -17 -1 -21 -15 -4
-8 9 -8 15 -2 15 6 0 14 -5 17 -11z m208 4 c-7 -2 -19 -2 -25 0 -7 3 -2 5 12
5 14 0 19 -2 13 -5z m574 1 c-3 -3 -12 -4 -19 -1 -8 3 -5 6 6 6 11 1 17 -2 13
-5z m183 -4 c0 -5 -2 -10 -4 -10 -3 0 -8 5 -11 10 -3 6 -1 10 4 10 6 0 11 -4
11 -10z m327 4 c-3 -3 -12 -4 -19 -1 -8 3 -5 6 6 6 11 1 17 -2 13 -5z m-1122
-24 c3 -5 1 -10 -4 -10 -6 0 -11 5 -11 10 0 6 2 10 4 10 3 0 8 -4 11 -10z
m1163 -14 c1 -18 -5 -25 -24 -30 -15 -4 -29 -5 -32 -1 -3 3 2 5 11 5 11 0 17
8 17 25 0 32 25 33 28 1z m-1330 -6 c12 -11 26 -20 32 -20 5 0 10 -5 10 -11 0
-5 -5 -7 -10 -4 -6 3 -17 -1 -26 -9 -14 -15 -14 -16 5 -16 12 0 21 -6 21 -15
0 -16 -12 -20 -24 -8 -3 4 -14 8 -22 9 -27 4 -44 13 -44 23 0 6 8 8 18 4 13
-4 14 -3 6 6 -11 12 -7 61 5 61 4 0 17 -9 29 -20z m382 10 c0 -5 -4 -10 -10
-10 -5 0 -10 5 -10 10 0 6 5 10 10 10 6 0 10 -4 10 -10z m1017 -27 c4 -10 11
-21 17 -25 6 -4 7 -10 3 -15 -8 -7 -46 34 -47 50 0 14 21 7 27 -10z m-1489
-11 c3 -9 -2 -13 -14 -10 -9 1 -19 9 -22 16 -3 9 2 13 14 10 9 -1 19 -9 22
-16z m247 8 c3 -5 1 -10 -4 -10 -6 0 -11 5 -11 10 0 6 2 10 4 10 3 0 8 -4 11
-10z m462 -11 c20 -17 16 -29 -12 -29 -14 0 -25 -4 -25 -9 0 -4 11 -6 25 -3
21 3 25 0 25 -18 0 -18 -4 -21 -25 -18 -13 3 -22 1 -19 -3 3 -5 17 -9 31 -9
19 0 24 -4 19 -16 -4 -10 1 -26 11 -38 10 -12 11 -15 3 -8 -19 16 -35 15 -21
-2 19 -23 9 -60 -19 -67 l-25 -7 28 -1 c15 0 27 -6 27 -12 0 -7 -10 -9 -25 -7
-14 3 -25 1 -25 -3 0 -5 10 -9 23 -9 19 0 23 -5 23 -27 -1 -16 -5 -31 -11 -35
-6 -5 -6 -8 2 -8 17 0 3 -39 -20 -55 -31 -22 -65 -18 -92 10 -24 24 -25 27
-25 185 0 159 0 161 26 187 20 20 31 24 56 19 17 -3 37 -11 45 -17z m-887 -9
c0 -5 -4 -10 -10 -10 -5 0 -10 5 -10 10 0 6 5 10 10 10 6 0 10 -4 10 -10z
m355 -8 c-3 -3 -11 0 -18 7 -9 10 -8 11 6 5 10 -3 15 -9 12 -12z m1399 -3 c-3
-5 -10 -7 -15 -3 -5 3 -7 10 -3 15 3 5 10 7 15 3 5 -3 7 -10 3 -15z m-1289 1
c3 -5 2 -10 -4 -10 -5 0 -13 5 -16 10 -3 6 -2 10 4 10 5 0 13 -4 16 -10z
m-487 -12 c19 -19 14 -30 -8 -18 -11 6 -20 15 -20 20 0 14 14 12 28 -2z m117
2 c8 -13 -15 -13 -35 0 -12 8 -11 10 7 10 12 0 25 -4 28 -10z m55 -4 c0 -8 -5
-18 -11 -22 -14 -8 -33 11 -25 25 10 16 36 13 36 -3z m1285 5 c3 -6 -3 -15
-14 -20 -28 -16 -33 -14 -21 9 12 22 25 26 35 11z m-1217 -31 c13 -16 20 -30
17 -30 -15 0 -46 22 -55 40 -18 33 13 25 38 -10z m125 -25 c-7 -22 -11 -25
-20 -14 -15 19 3 67 18 52 8 -8 8 -21 2 -38z m-829 19 c3 -8 2 -12 -4 -9 -6 3
-10 10 -10 16 0 14 7 11 14 -7z m901 -3 c-3 -11 -1 -22 5 -26 8 -5 8 -11 0
-20 -7 -8 -9 -18 -6 -24 3 -5 -3 -7 -14 -4 -25 7 -26 20 -2 26 15 4 14 6 -4
12 l-22 7 22 23 c26 29 29 29 21 6z m1378 12 c-7 -2 -21 -2 -30 0 -10 3 -4 5
12 5 17 0 24 -2 18 -5z m-1819 -18 c10 -7 15 -18 12 -24 -4 -6 -14 -3 -26 9
-32 32 -22 42 14 15z m310 -11 c3 -8 2 -12 -4 -9 -6 3 -10 10 -10 16 0 14 7
11 14 -7z m434 -19 c1 -14 -3 -25 -8 -25 -6 0 -10 7 -10 15 0 8 -6 15 -12 16
-7 0 -4 4 7 9 11 5 20 9 20 9 0 1 2 -10 3 -24z m-513 -14 c-6 -5 -25 10 -25
20 0 5 6 4 14 -3 8 -7 12 -15 11 -17z m2032 13 c-3 -3 -12 -4 -19 -1 -8 3 -5
6 6 6 11 1 17 -2 13 -5z m-2267 -29 c20 -24 6 -28 -15 -5 -10 11 -13 20 -8 20
6 0 16 -7 23 -15z m300 -1 c0 -8 -5 -12 -10 -9 -6 4 -8 11 -5 16 9 14 15 11
15 -7z m2067 0 c-3 -3 -12 -4 -19 -1 -8 3 -5 6 6 6 11 1 17 -2 13 -5z m-2157
-20 c0 -8 -4 -12 -10 -9 -5 3 -10 10 -10 16 0 5 5 9 10 9 6 0 10 -7 10 -16z
m180 -4 c0 -5 -2 -10 -4 -10 -3 0 -8 5 -11 10 -3 6 -1 10 4 10 6 0 11 -4 11
-10z m-60 -25 c11 -13 8 -13 -19 -4 -35 12 -40 19 -12 19 10 0 24 -7 31 -15z
m937 9 c-3 -3 -12 -4 -19 -1 -8 3 -5 6 6 6 11 1 17 -2 13 -5z m-747 -24 c0 -5
-2 -10 -4 -10 -3 0 -8 5 -11 10 -3 6 -1 10 4 10 6 0 11 -4 11 -10z m915 0 c-3
-5 -11 -10 -16 -10 -6 0 -7 5 -4 10 3 6 11 10 16 10 6 0 7 -4 4 -10z m-1110
-10 c3 -6 -1 -7 -9 -4 -18 7 -21 14 -7 14 6 0 13 -4 16 -10z m-5 -20 c8 -5 11
-12 7 -16 -4 -4 -15 0 -24 9 -18 18 -8 23 17 7z m260 -80 c8 -5 11 -10 5 -10
-5 0 -17 5 -25 10 -8 5 -10 10 -5 10 6 0 17 -5 25 -10z m-413 -22 c16 -13 5
-38 -13 -31 -8 3 -14 9 -14 15 0 5 6 6 13 2 6 -4 3 3 -8 16 -19 22 -8 21 22
-2z m368 -18 c3 -5 1 -10 -4 -10 -6 0 -11 5 -11 10 0 6 2 10 4 10 3 0 8 -4 11
-10z m1092 -6 c-3 -3 -12 -4 -19 -1 -8 3 -5 6 6 6 11 1 17 -2 13 -5z m-919
-63 c11 -7 10 -9 -3 -14 -9 -4 -14 -3 -10 2 3 5 -1 12 -7 14 -7 3 -8 6 -3 6 6
0 16 -3 23 -8z m93 -9 c-7 -2 -18 1 -23 6 -8 8 -4 9 13 5 13 -4 18 -8 10 -11z
m114 -2 c3 -5 1 -10 -4 -10 -6 0 -11 5 -11 10 0 6 2 10 4 10 3 0 8 -4 11 -10z
m590 -20 c3 -5 1 -10 -4 -10 -6 0 -11 5 -11 10 0 6 2 10 4 10 3 0 8 -4 11 -10z
m-565 -10 c0 -5 -7 -7 -15 -4 -8 4 -15 8 -15 10 0 2 7 4 15 4 8 0 15 -4 15
-10z m590 -40 c-8 -5 -19 -10 -25 -10 -5 0 -3 5 5 10 8 5 20 10 25 10 6 0 3
-5 -5 -10z m-1110 -20 c0 -5 -2 -10 -4 -10 -3 0 -8 5 -11 10 -3 6 -1 10 4 10
6 0 11 -4 11 -10z m-3 -36 c-7 -7 -37 7 -37 17 0 6 9 5 21 -1 11 -7 19 -14 16
-16z m473 22 c0 -11 -19 -15 -25 -6 -3 5 1 10 9 10 9 0 16 -2 16 -4z m177 -32
c-3 -3 -12 -4 -19 -1 -8 3 -5 6 6 6 11 1 17 -2 13 -5z m-592 -14 c3 -6 -1 -7
-9 -4 -18 7 -21 14 -7 14 6 0 13 -4 16 -10z m530 0 c8 -13 -5 -13 -25 0 -13 8
-13 10 2 10 9 0 20 -4 23 -10z m-570 -40 c3 -5 1 -10 -4 -10 -6 0 -11 5 -11
10 0 6 2 10 4 10 3 0 8 -4 11 -10z m425 0 c0 -5 -2 -10 -4 -10 -3 0 -8 5 -11
10 -3 6 -1 10 4 10 6 0 11 -4 11 -10z"/>
<path d="M1872 4618 c-8 -8 -12 -48 -12 -120 l0 -108 30 0 31 0 -3 117 c-2 96
-6 118 -18 121 -9 1 -21 -3 -28 -10z"/>
<path d="M798 4622 c-15 -3 -18 -15 -18 -83 l0 -80 28 3 c27 3 27 4 30 79 3
79 -2 90 -40 81z"/>
<path d="M1270 3315 c0 -28 4 -35 19 -35 26 0 34 15 27 46 -4 15 -14 24 -26
24 -16 0 -20 -7 -20 -35z"/>
<path d="M1270 3180 c0 -58 1 -61 23 -58 20 3 22 9 22 58 0 49 -2 55 -22 58
-22 3 -23 0 -23 -58z"/>
<path d="M1422 3308 c2 -35 7 -43 23 -43 17 0 20 7 20 40 0 34 -3 40 -23 43
-22 3 -23 0 -20 -40z"/>
<path d="M1040 2919 c0 -36 2 -40 23 -37 12 2 21 6 20 11 -2 4 -3 21 -3 37 0
23 -4 30 -20 30 -17 0 -20 -7 -20 -41z"/>
<path d="M1442 2908 c3 -59 25 -73 42 -27 13 38 0 79 -25 79 -18 0 -20 -5 -17
-52z"/>
<path d="M1597 2953 c-4 -3 -7 -53 -7 -110 0 -96 1 -103 20 -103 19 0 20 7 20
110 0 85 -3 110 -13 110 -8 0 -17 -3 -20 -7z"/>
<path d="M2007 2954 c-4 -4 -7 -40 -7 -81 0 -72 1 -73 25 -73 26 0 26 0 23 77
-2 61 -6 78 -18 81 -9 1 -19 0 -23 -4z"/>
<path d="M837 2573 c-4 -3 -7 -28 -7 -55 0 -45 2 -49 23 -46 18 2 23 10 25 41
4 47 -20 82 -41 60z"/>
<path d="M985 2568 c-6 -20 -7 -38 -6 -100 1 -55 2 -58 26 -58 24 0 25 2 25
66 0 65 -12 104 -31 104 -5 0 -12 -6 -14 -12z"/>
<path d="M1137 2574 c-4 -4 -7 -25 -7 -46 0 -31 4 -38 20 -38 35 0 39 75 4 87
-6 2 -13 0 -17 -3z"/>
<path d="M1286 2564 c-3 -9 -6 -47 -6 -85 0 -67 1 -69 25 -69 24 0 25 2 25 69
0 77 -6 101 -25 101 -7 0 -16 -7 -19 -16z"/>
<path d="M1803 2573 c-9 -3 -13 -30 -13 -84 0 -78 0 -79 25 -79 24 0 25 2 25
74 0 73 -11 99 -37 89z"/>
<path d="M1640 2535 c0 -37 3 -45 19 -45 32 0 42 48 15 74 -25 26 -34 19 -34
-29z"/>
<path d="M2098 2460 c3 -101 5 -110 23 -110 18 0 19 8 19 110 0 107 -1 110
-22 110 -23 0 -23 -2 -20 -110z"/>
<path d="M1136 2181 c-3 -5 -6 -53 -7 -106 -1 -102 8 -128 36 -105 19 16 22
189 3 208 -14 14 -25 15 -32 3z"/>
<path d="M1805 2178 c-3 -8 -4 -59 -3 -114 2 -80 6 -99 18 -99 12 0 15 19 15
109 0 79 -4 111 -12 113 -7 3 -15 -2 -18 -9z"/>
<path d="M1637 544 c-9 -10 2 -24 18 -24 9 0 12 6 9 15 -6 16 -17 19 -27 9z"/>
<path d="M1658 473 c7 -3 16 -2 19 1 4 3 -2 6 -13 5 -11 0 -14 -3 -6 -6z"/>
<path d="M1648 303 c7 -3 16 -2 19 1 4 3 -2 6 -13 5 -11 0 -14 -3 -6 -6z"/>
</g>
</svg>
