<?xml version="1.0" standalone="no"?>
<!DOCTYPE svg PUBLIC "-//W3C//DTD SVG 20010904//EN"
 "http://www.w3.org/TR/2001/REC-SVG-20010904/DTD/svg10.dtd">
<svg version="1.0" xmlns="http://www.w3.org/2000/svg"
 width="707.000000pt" height="1000.000000pt" viewBox="0 0 707.000000 1000.000000"
 preserveAspectRatio="xMidYMid meet">

<g transform="translate(0.000000,1000.000000) scale(0.100000,-0.100000)"
fill="#000000" stroke="none">
<path d="M0 5000 l0 -5000 3535 0 3535 0 0 5000 0 5000 -3535 0 -3535 0 0
-5000z m875 418 c44 -24 72 -58 84 -103 14 -50 15 -1151 1 -1209 -12 -53 -38
-87 -86 -111 -34 -17 -59 -20 -194 -20 -173 0 -215 9 -254 56 -44 52 -47 97
-44 705 3 546 4 571 23 608 42 82 85 96 290 93 116 -2 157 -6 180 -19z m5035
-4 c19 -11 46 -40 60 -65 23 -41 25 -55 28 -216 l4 -173 -101 0 -101 0 0 130
c0 156 -7 170 -90 170 -84 0 -90 -13 -90 -179 0 -167 -1 -166 130 -236 138
-75 206 -125 232 -169 22 -40 23 -47 23 -296 0 -279 -4 -307 -56 -358 -43 -42
-119 -56 -273 -50 -111 4 -129 8 -169 31 -73 43 -80 71 -85 335 l-4 222 101 0
101 0 0 -181 c0 -102 4 -188 10 -199 12 -23 66 -35 114 -26 52 10 58 35 54
244 -4 216 7 197 -168 296 -201 114 -212 130 -218 341 -4 156 8 276 33 324 16
32 56 61 100 72 16 4 98 7 180 6 131 -2 154 -5 185 -23z m764 -3 c25 -16 46
-40 60 -70 20 -45 21 -60 24 -596 4 -670 1 -699 -91 -747 -39 -21 -55 -23
-207 -23 -177 0 -210 8 -251 59 -42 51 -44 85 -44 686 l0 575 25 50 c25 49 61
78 111 88 13 3 94 5 179 4 145 -2 158 -4 194 -26z m-5054 -613 c3 -343 7 -624
8 -625 16 -12 81 -24 107 -19 68 13 65 -15 65 658 l0 608 84 0 c46 0 92 3 101
6 14 6 15 -49 13 -652 -3 -652 -3 -660 -25 -706 -33 -71 -77 -90 -228 -96
-154 -6 -227 8 -271 52 -58 58 -58 54 -61 745 -2 348 -2 639 0 645 3 7 38 10
103 9 l99 -2 5 -623z m815 504 c15 -64 42 -180 60 -257 17 -77 52 -231 76
-342 24 -112 47 -203 52 -203 4 0 7 207 7 459 l0 459 83 4 c45 2 85 2 90 0 4
-2 7 -325 7 -718 l0 -714 -113 0 -114 0 -26 113 c-39 168 -177 739 -183 760
-3 9 -8 17 -12 17 -4 0 -6 -200 -4 -445 l2 -445 -90 0 -90 0 0 714 c0 457 4
716 10 718 5 2 57 2 114 0 l105 -3 26 -117z m765 -592 l0 -720 -100 0 -100 0
0 715 0 714 93 4 c50 1 95 4 100 5 4 1 7 -322 7 -718z m344 668 c3 -24 11 -97
16 -163 5 -66 25 -308 45 -538 19 -229 35 -422 35 -428 0 -6 5 -7 10 -4 6 3
10 21 10 38 0 29 100 1130 104 1134 0 1 48 3 106 4 l105 3 -3 -24 c-1 -14 -29
-239 -62 -500 -33 -261 -73 -573 -88 -692 l-27 -218 -152 0 c-86 0 -153 4
-153 9 0 5 -25 227 -55 493 -30 266 -63 564 -74 663 -12 99 -23 199 -26 222
l-6 42 98 3 c54 2 101 2 104 1 4 -2 9 -22 13 -45z m966 -39 l0 -78 -102 -3
-103 -3 0 -105 0 -105 98 -3 97 -3 0 -79 0 -79 -97 -3 -98 -3 0 -355 0 -355
100 -1 100 -1 3 -86 3 -87 -206 0 -205 0 0 715 0 715 193 2 c105 2 198 1 205
-1 8 -2 12 -27 12 -82z m616 70 c56 -14 99 -54 113 -105 18 -59 25 -299 12
-368 -14 -73 -45 -122 -88 -138 -18 -7 -33 -14 -33 -18 1 -3 20 -14 43 -25 77
-37 86 -89 87 -487 l0 -278 -105 0 -105 0 0 319 c0 203 -4 329 -11 349 -12 36
-42 45 -124 40 l-50 -3 0 -352 0 -353 -102 0 -103 0 0 715 0 715 211 0 c123 0
229 -5 255 -11z m-2087 -1770 c84 -13 116 -33 144 -89 22 -45 22 -47 25 -657
l3 -613 -101 0 -101 0 2 148 1 147 -86 3 -86 3 0 -151 0 -150 -92 0 -93 0 5
627 c5 628 5 628 27 664 12 19 35 41 50 48 60 28 198 37 302 20z m1005 -18
c34 -15 48 -29 67 -67 22 -46 24 -62 27 -271 l4 -223 -96 0 -96 0 0 187 c0
220 -1 223 -86 223 -90 0 -84 36 -84 -516 0 -480 0 -484 21 -505 18 -18 30
-21 71 -17 27 3 55 11 61 17 8 8 13 74 15 212 l3 200 92 -3 92 -3 0 -225 c-1
-219 -1 -227 -25 -275 -39 -78 -72 -90 -250 -90 -227 0 -257 24 -271 218 -11
155 -11 853 1 959 14 141 46 181 154 199 82 13 251 2 300 -20z m635 8 c49 -15
84 -54 100 -114 7 -27 11 -237 11 -637 l0 -598 -95 0 -95 0 0 150 0 150 -85 0
-85 0 0 -150 0 -150 -95 0 -96 0 3 618 c3 594 4 618 23 656 26 52 58 74 125
85 70 13 233 7 289 -10z m654 5 c16 -4 43 -21 61 -38 42 -39 56 -111 56 -285
l0 -122 -92 3 -93 3 -5 128 c-6 146 -6 147 -89 147 -77 0 -80 -7 -81 -168 0
-159 -5 -151 145 -231 122 -65 176 -108 201 -158 17 -34 19 -63 19 -273 0
-231 0 -236 -25 -285 -39 -78 -72 -90 -245 -90 -160 0 -203 11 -240 58 -33 44
-45 129 -45 325 l0 162 94 0 95 0 3 -176 c3 -199 5 -204 83 -204 78 0 80 5 83
203 4 216 3 219 -105 278 -261 143 -269 157 -254 475 10 203 28 234 156 255
51 8 228 4 278 -7z m681 -13 c75 -37 80 -57 84 -328 l3 -233 -90 0 -91 0 0
178 c0 219 -3 226 -82 230 -94 5 -88 42 -88 -518 l0 -489 22 -15 c28 -20 97
-20 123 0 19 14 20 28 23 214 l3 200 90 0 90 0 -3 -242 c-3 -223 -5 -246 -23
-278 -39 -65 -70 -75 -240 -75 -184 0 -216 11 -255 90 l-25 50 0 550 c0 549 0
550 22 595 39 79 107 101 290 96 79 -3 112 -9 147 -25z m653 -2 c35 -17 50
-32 67 -68 21 -45 21 -58 24 -658 l3 -613 -98 0 -98 0 3 150 3 150 -85 0 -86
0 0 -150 0 -150 -95 0 -96 0 3 623 c3 584 4 624 22 658 35 69 106 90 279 84
86 -3 117 -8 154 -26z m-6051 -49 c55 -262 179 -797 185 -805 5 -5 9 183 9
428 l0 437 85 0 85 0 0 -675 0 -676 -107 3 -107 3 -17 70 c-9 39 -42 176 -73
305 -31 129 -69 286 -83 348 -15 61 -31 112 -35 112 -5 0 -7 -189 -6 -420 l3
-420 -82 0 -83 0 0 675 0 676 107 -3 107 -3 12 -55z m674 -515 l0 -576 26 -26
c22 -22 32 -25 72 -20 26 3 51 12 58 21 18 25 26 304 22 769 l-3 407 93 0 93
0 -3 -622 c-3 -600 -4 -624 -23 -662 -35 -68 -74 -81 -250 -81 -163 0 -195 9
-236 65 -35 47 -39 120 -39 716 l0 584 95 0 95 0 0 -575z m760 566 c0 -5 16
-150 35 -323 20 -172 40 -358 45 -413 13 -129 20 -168 27 -161 3 3 28 207 57
453 l51 448 138 3 137 3 0 -676 0 -675 -80 0 -80 0 0 476 c0 443 -7 566 -24
392 -4 -40 -30 -251 -59 -468 l-53 -395 -87 -3 c-48 -1 -87 -1 -87 1 0 1 -20
153 -44 337 -25 184 -53 399 -63 478 -9 78 -21 142 -25 142 -4 0 -8 -216 -8
-480 l0 -480 -77 0 -78 0 3 667 c1 368 2 671 2 676 0 4 61 7 135 7 74 0 135
-4 135 -9z m1373 -1671 c123 -12 167 -34 199 -99 l23 -46 0 -665 0 -665 -25
-45 c-18 -33 -38 -52 -75 -70 -47 -24 -59 -25 -220 -25 -161 0 -173 1 -220 25
-40 20 -55 35 -75 75 l-25 50 -3 629 c-2 433 1 646 8 683 21 97 78 141 200
153 108 10 106 10 213 0z m-1753 -107 l0 -93 -110 0 -110 0 0 -120 0 -120 110
0 111 0 -3 -87 -3 -88 -108 -3 -107 -3 2 -391 3 -390 108 -2 108 -1 2 -98 2
-97 -227 0 -228 0 0 788 c0 434 2 791 4 793 2 2 104 4 225 4 l221 0 0 -92z
m725 77 c2 -8 22 -96 44 -195 125 -563 181 -809 186 -813 3 -3 5 225 5 506 l0
512 100 0 100 0 0 -790 0 -791 -121 3 -122 3 -12 45 c-7 25 -29 113 -49 195
-19 83 -64 269 -100 415 -35 146 -67 280 -71 298 -3 17 -10 32 -14 32 -5 0 -8
-222 -7 -492 l1 -493 -97 -3 -98 -3 0 790 0 790 58 3 c134 7 192 3 197 -12z
m1913 11 c8 -1 12 -21 12 -67 0 -53 -32 -194 -156 -683 -86 -339 -156 -620
-157 -625 -1 -5 65 -8 156 -7 l157 2 0 -100 0 -101 -275 0 -275 0 0 105 c0
113 -2 104 168 735 102 377 142 529 142 545 0 13 -20 15 -140 15 l-140 0 0 93
0 92 248 -2 c136 0 253 -2 260 -2z m-3381 -16 c60 -18 96 -55 115 -118 19 -61
19 -1243 0 -1305 -17 -55 -61 -105 -109 -121 -26 -9 -118 -15 -285 -18 l-248
-5 0 791 0 791 238 0 c184 0 250 -3 289 -15z m5767 -571 c73 -54 59 -180 -24
-214 -107 -45 -215 66 -163 167 36 70 125 92 187 47z m3 -680 c-3 -3 -12 -4
-19 -1 -8 3 -5 6 6 6 11 1 17 -2 13 -5z"/>
<path d="M609 5241 l-24 -19 0 -516 c0 -583 -6 -545 82 -553 38 -4 53 -1 73
15 l25 20 0 517 0 517 -24 19 c-31 25 -101 25 -132 0z"/>
<path d="M6410 5254 c-40 -16 -40 -20 -40 -549 0 -401 3 -515 13 -529 17 -23
88 -32 126 -16 16 6 32 21 35 33 3 12 6 247 6 523 0 401 -3 504 -13 518 -14
19 -96 32 -127 20z"/>
<path d="M4865 5238 c-3 -7 -4 -95 -3 -193 l3 -180 66 -3 c53 -2 70 1 90 17
24 19 24 22 24 175 0 187 0 186 -104 194 -55 4 -72 2 -76 -10z"/>
<path d="M2859 3453 c-11 -13 -15 -86 -17 -356 -2 -187 -1 -344 1 -351 3 -7
31 -9 88 -6 82 5 84 6 83 30 0 14 -1 170 -2 347 -2 277 -4 324 -18 337 -22 22
-117 22 -135 -1z"/>
<path d="M4447 3452 c-15 -17 -17 -53 -17 -365 l0 -347 85 0 85 0 0 338 c0
251 -4 343 -13 362 -11 21 -20 25 -68 28 -44 2 -59 -1 -72 -16z"/>
<path d="M6410 3451 c-6 -13 -10 -146 -10 -365 l0 -346 85 0 86 0 -3 348 c-2
278 -6 352 -17 365 -21 26 -127 24 -141 -2z"/>
<path d="M3244 1729 c-18 -20 -19 -46 -22 -538 -3 -525 -1 -605 22 -636 27
-38 158 -27 170 14 8 29 10 130 8 639 -2 582 5 542 -100 542 -47 0 -63 -4 -78
-21z"/>
<path d="M630 1146 l0 -596 48 -1 c110 -3 129 4 142 49 8 25 10 206 8 569 -4
621 8 566 -118 571 l-80 4 0 -596z"/>
</g>
</svg>
