<?xml version="1.0" standalone="no"?>
<!DOCTYPE svg PUBLIC "-//W3C//DTD SVG 20010904//EN"
 "http://www.w3.org/TR/2001/REC-SVG-20010904/DTD/svg10.dtd">
<svg version="1.0" xmlns="http://www.w3.org/2000/svg"
 width="695.000000pt" height="1000.000000pt" viewBox="0 0 695.000000 1000.000000"
 preserveAspectRatio="xMidYMid meet">

<g transform="translate(0.000000,1000.000000) scale(0.100000,-0.100000)"
fill="#000000" stroke="none">
<path d="M0 5000 l0 -5000 3475 0 3475 0 0 5000 0 5000 -3475 0 -3475 0 0
-5000z m991 4649 c138 -30 169 -107 169 -415 l0 -185 -125 3 -125 3 -4 161
c-3 110 -8 168 -17 182 -23 37 -138 42 -185 8 -17 -13 -19 -30 -22 -188 -4
-223 -11 -212 193 -323 163 -89 233 -144 268 -209 21 -39 22 -54 25 -325 5
-395 -11 -470 -110 -519 -67 -33 -225 -48 -364 -34 -172 17 -229 60 -254 190
-5 28 -10 163 -10 299 l-1 248 125 3 125 3 3 -229 c4 -287 3 -286 114 -280 88
4 99 14 108 101 8 78 6 306 -3 379 -9 76 -28 94 -176 175 -217 119 -271 168
-296 266 -7 29 -10 129 -7 283 3 239 3 239 31 297 40 80 84 105 208 115 109
10 264 5 330 -9z m612 -9 l312 0 -2 -107 -2 -108 -95 -3 -96 -3 0 -794 0 -795
-135 0 -135 0 0 795 0 795 -100 0 -100 0 0 108 c0 111 4 127 28 117 7 -3 154
-5 325 -5z m698 0 l239 0 0 -107 0 -108 -125 3 -125 3 0 -135 0 -136 120 0
120 0 0 -105 0 -105 -120 0 -120 0 0 -447 0 -448 125 3 125 3 0 -115 0 -116
-260 0 -260 0 0 903 c0 497 3 907 7 911 4 3 13 4 21 1 7 -3 121 -5 253 -5z
m2019 -906 l0 -904 -130 0 -130 0 0 495 0 495 -115 0 -115 0 0 -495 0 -495
-135 0 -135 0 0 905 0 905 135 0 135 0 0 -300 0 -300 115 0 115 0 0 303 0 302
130 -3 130 -3 0 -905z m698 802 l-3 -108 -122 1 -123 2 0 -135 0 -136 119 0
c69 0 121 -4 123 -10 2 -5 2 -52 0 -105 l-3 -95 -120 0 -119 0 0 -445 0 -445
124 0 125 0 3 -115 3 -115 -262 0 -263 0 0 903 c0 497 2 906 4 908 2 2 120 4
260 4 l257 0 -3 -109z m432 98 c0 -5 62 -283 200 -893 27 -124 50 -233 50
-243 0 -10 5 -18 10 -18 7 0 10 200 10 580 l0 580 115 0 115 0 0 -905 0 -905
-143 0 -142 0 -72 298 c-40 163 -100 412 -133 552 -34 140 -64 262 -68 270 -4
8 -8 -240 -10 -552 l-2 -568 -115 0 -115 0 0 903 c0 497 2 906 4 908 6 6 296
-1 296 -7z m-2155 -17 c58 -26 92 -63 112 -121 16 -45 18 -92 18 -406 0 -385
-5 -435 -52 -491 -52 -62 -91 -73 -270 -77 l-163 -4 0 -344 0 -344 -135 0
-135 0 0 906 0 905 293 -3 c255 -3 297 -5 332 -21z m-1360 -2073 c74 -18 125
-66 151 -145 17 -50 19 -116 22 -861 l3 -808 -136 0 -135 0 0 200 0 200 -110
0 -110 0 0 -200 0 -200 -130 0 -131 0 3 813 c3 740 5 817 21 864 34 101 90
139 227 153 96 10 248 2 325 -16z m4447 16 c220 -21 258 -79 258 -392 l0 -148
-124 0 -124 0 -3 130 c-4 119 -6 131 -27 152 -19 19 -33 23 -87 23 -109 0 -99
58 -105 -643 -3 -334 -2 -629 1 -656 8 -74 31 -87 136 -84 l84 3 2 415 2 415
123 3 122 3 0 -530 0 -529 -87 -8 c-127 -12 -410 -9 -468 5 -107 26 -155 84
-175 217 -17 107 -8 1415 9 1469 19 58 65 110 113 130 36 14 129 27 233 33 11
1 64 -3 117 -8z m-3918 -103 c7 -85 23 -394 53 -989 9 -192 20 -348 23 -348 3
0 16 123 28 273 13 149 27 315 32 367 12 123 38 424 53 620 l12 155 173 3 172
2 0 -31 c0 -34 52 -785 70 -1004 6 -71 15 -185 19 -253 5 -68 12 -126 15 -129
3 -4 6 4 6 17 0 21 23 356 70 1023 11 154 20 301 20 328 l0 49 135 0 c103 0
135 -3 135 -13 0 -7 -4 -48 -10 -92 -5 -44 -21 -179 -35 -300 -14 -121 -37
-314 -50 -430 -13 -115 -42 -370 -65 -565 -22 -195 -43 -367 -46 -383 l-6 -27
-166 2 -167 3 -12 175 c-6 96 -18 281 -27 410 -9 129 -23 345 -32 480 -8 135
-19 274 -23 310 l-7 65 -7 -55 c-4 -30 -21 -215 -37 -410 -17 -195 -37 -427
-45 -515 -8 -88 -20 -229 -27 -312 l-12 -153 -171 0 -171 0 -18 193 c-28 307
-63 680 -106 1141 -22 235 -40 440 -40 455 l0 26 129 -3 129 -3 6 -82z m1875
23 c-12 -30 -73 -198 -135 -373 l-115 -318 61 -207 c33 -114 102 -351 153
-527 l93 -320 -140 -3 c-76 -1 -141 -1 -143 2 -5 5 -42 139 -118 431 -91 351
-134 507 -139 513 -4 3 -6 -209 -6 -471 l0 -477 -135 0 -135 0 0 905 0 905
135 0 135 0 0 -342 c0 -188 3 -338 6 -335 8 8 13 23 133 394 l92 282 132 3
c73 2 135 1 139 -2 4 -3 -2 -30 -13 -60z m-3637 -237 l3 -298 113 -3 112 -3 0
301 0 300 135 0 135 0 0 -905 0 -905 -135 0 -135 0 0 495 0 495 -115 0 -115 0
0 -495 0 -495 -130 0 -130 0 0 905 0 905 130 0 130 0 2 -297z m4058 -608 l0
-905 -130 0 -130 0 0 905 0 905 130 0 130 0 0 -905z m485 883 c3 -13 16 -75
30 -138 13 -63 58 -266 100 -450 42 -184 85 -380 97 -435 11 -55 25 -104 29
-110 5 -5 9 249 9 573 l0 582 115 0 115 0 0 -905 0 -905 -143 0 -143 0 -68
283 c-37 155 -93 383 -123 507 -30 124 -59 251 -65 283 -7 31 -15 57 -20 57
-4 0 -8 -254 -8 -565 l0 -565 -109 0 c-104 0 -109 1 -115 23 -3 12 -6 419 -6
905 l0 882 150 0 c147 0 150 0 155 -22z m-2578 -2087 c50 -25 76 -60 91 -123
9 -33 12 -243 12 -707 l0 -661 -105 0 -105 0 0 170 0 170 -95 0 -95 0 0 -170
0 -170 -105 0 -105 0 0 623 c1 342 5 654 9 694 20 172 76 205 331 199 104 -3
133 -7 167 -25z m-2037 -630 c0 -731 -7 -679 87 -688 45 -5 55 -2 77 20 l26
26 0 641 0 640 105 0 105 0 0 -631 c0 -657 -5 -746 -42 -807 -29 -47 -68 -63
-177 -72 -171 -15 -298 6 -342 56 -43 50 -44 57 -47 772 l-3 682 106 0 105 0
0 -639z m850 609 c0 -17 13 -149 30 -293 16 -144 39 -343 50 -442 25 -218 29
-245 38 -245 4 0 18 93 31 208 12 114 38 339 57 501 19 162 34 296 34 297 0 2
68 4 150 4 l150 0 0 -750 0 -750 -87 0 -88 0 3 535 c1 358 -1 535 -8 535 -5 0
-10 -6 -10 -12 0 -7 -9 -74 -20 -148 -17 -119 -90 -680 -105 -815 -12 -103 -4
-95 -108 -95 l-93 0 -12 93 c-58 440 -84 638 -104 795 -12 100 -26 182 -30
182 -5 0 -8 -241 -8 -535 l0 -535 -85 0 -85 0 0 750 0 750 150 0 150 0 0 -30z
m2280 4 c89 -42 103 -82 104 -294 1 -206 -13 -246 -102 -286 -33 -15 -35 -34
-5 -34 32 0 80 -48 93 -92 7 -26 14 -134 17 -272 7 -324 -12 -422 -89 -462
-40 -21 -178 -33 -370 -34 l-158 0 0 751 0 751 233 -4 c211 -3 236 -5 277 -24z
m758 2 c31 -13 50 -31 70 -65 27 -45 27 -49 30 -246 3 -192 2 -202 -20 -245
-17 -33 -34 -50 -65 -65 -23 -11 -42 -22 -43 -25 0 -3 19 -14 43 -25 31 -15
48 -32 65 -65 22 -43 22 -51 22 -392 l0 -348 -105 0 -105 0 0 349 c0 418 7
395 -114 395 l-76 1 -3 -370 -2 -370 -105 -3 -105 -3 0 751 0 752 235 -4 c199
-3 242 -7 278 -22z m672 -61 l0 -85 -105 0 -105 0 0 -115 0 -115 100 0 100 0
0 -84 0 -84 -100 3 -100 3 0 -379 0 -379 105 0 105 0 0 -90 0 -90 -210 0 -210
0 0 750 0 750 210 0 210 0 0 -85z m288 -188 c12 -149 36 -425 52 -612 16 -187
30 -341 30 -342 0 -2 4 -3 9 -3 4 0 11 35 14 78 4 42 16 172 27 287 31 331 80
849 80 858 0 4 50 7 110 7 l111 0 -6 -32 c-3 -18 -39 -303 -81 -633 -41 -330
-81 -649 -89 -710 -8 -60 -15 -113 -15 -117 0 -5 -70 -8 -155 -8 l-154 0 -5
33 c-3 17 -13 95 -21 172 -9 77 -45 399 -80 715 -36 316 -65 576 -65 578 0 1
48 2 108 2 l107 0 23 -273z m942 188 l0 -85 -105 0 -105 0 0 -115 0 -115 105
0 106 0 -3 -81 -3 -80 -100 -2 -100 -2 -3 -378 -2 -378 105 3 105 3 0 -92 0
-93 -210 0 -210 0 0 750 0 750 210 0 210 0 0 -85z m-3073 -1492 c-2 -5 -23
-41 -46 -80 l-42 -73 -69 0 c-39 0 -70 3 -70 7 0 3 12 39 28 79 l27 74 88 0
c49 0 86 -3 84 -7z m-1272 -219 c28 -15 47 -35 65 -69 23 -46 25 -61 29 -227
l3 -178 -101 0 -101 0 0 108 c0 116 -11 180 -32 193 -22 14 -122 10 -144 -5
-17 -13 -19 -29 -22 -158 -4 -184 -4 -183 154 -269 143 -78 205 -124 230 -175
16 -34 19 -68 22 -255 6 -320 -11 -400 -93 -443 -36 -19 -57 -21 -215 -21
-166 0 -177 1 -213 23 -73 46 -87 105 -87 375 l0 207 99 0 99 0 4 -193 c2
-144 6 -198 17 -210 18 -22 72 -31 118 -20 57 13 65 48 61 265 -4 205 -2 202
-118 265 -290 159 -295 169 -287 472 5 193 13 237 51 279 47 53 86 61 271 59
130 -2 155 -5 190 -23z m1300 4 c46 -25 73 -54 87 -95 17 -53 25 -1149 8
-1244 -24 -138 -61 -161 -266 -167 -258 -7 -313 23 -335 185 -6 49 -9 286 -7
633 3 540 4 556 24 600 44 94 94 111 309 107 114 -3 157 -7 180 -19z m1838 7
c67 -17 97 -43 123 -105 17 -42 18 -92 22 -717 l4 -673 -91 -1 c-50 -1 -97 -2
-103 -3 -10 -1 -14 40 -18 164 l-5 165 -95 0 -95 0 -3 -162 -2 -163 -73 -1
c-39 0 -85 -2 -100 -4 l-28 -4 3 692 c3 620 5 696 20 727 21 45 63 75 119 88
70 16 257 14 322 -3z m-4571 -252 l3 -247 95 0 95 -1 0 247 0 248 108 0 107 0
0 -745 0 -745 -95 -1 c-52 -1 -100 -2 -105 -3 -7 -1 -11 134 -13 409 l-2 410
-97 3 -98 3 0 -411 0 -410 -95 0 c-52 0 -98 0 -102 0 -5 0 -10 335 -13 745
l-5 745 107 0 108 0 2 -247z m778 -496 c0 -409 -2 -746 -4 -748 -2 -2 -51 -3
-108 -1 l-103 3 0 745 0 744 108 0 107 0 0 -743z m1375 658 l0 -85 -82 0 -83
0 0 -660 0 -660 -89 0 c-49 0 -96 -3 -105 -6 -15 -6 -16 57 -16 660 l0 666
-85 0 -86 0 2 85 2 85 271 0 271 0 0 -85z m1312 70 c59 -18 98 -53 114 -104
16 -53 24 -367 10 -418 -15 -54 -53 -99 -96 -113 -36 -12 -47 -30 -20 -30 33
0 76 -32 97 -73 22 -41 23 -51 26 -389 l3 -348 -90 -1 c-50 -1 -98 -2 -107 -3
-13 -1 -15 35 -15 314 0 310 -5 390 -28 413 -7 7 -48 14 -91 16 l-80 3 0 -373
0 -374 -105 0 -105 0 0 748 0 747 218 0 c165 0 231 -4 269 -15z m491 -731 l-3
-746 -103 -1 -102 -2 0 748 0 747 105 0 105 0 -2 -746z m-2995 -1024 c130 -19
161 -54 177 -201 12 -120 13 -983 0 -1112 -16 -159 -47 -191 -206 -209 -116
-13 -278 1 -325 29 -16 10 -39 38 -52 63 l-22 45 0 625 0 625 23 47 c16 31 34
51 57 62 67 32 225 44 348 26z m3985 -20 c42 -18 53 -29 73 -72 l24 -51 0
-616 0 -616 -25 -50 c-20 -40 -35 -55 -74 -74 -45 -23 -60 -24 -205 -25 -139
0 -161 2 -203 21 -106 49 -110 74 -106 788 l3 570 23 51 c39 85 104 105 314
99 101 -3 138 -9 176 -25z m-4719 -1 c82 -13 114 -30 143 -76 l23 -38 3 -589
c3 -622 0 -670 -42 -719 -46 -53 -80 -60 -333 -65 l-233 -5 0 752 0 751 188 0
c103 0 216 -5 251 -11z m1844 -76 l-1 -88 -81 0 -81 0 0 -662 0 -663 -105 0
-105 0 0 659 c0 434 3 660 10 663 6 2 -32 3 -82 3 l-93 0 -3 88 -3 87 273 0
273 0 -2 -87z m517 2 l0 -84 -102 -3 -103 -3 0 -114 0 -114 103 2 103 2 -3
-83 -3 -83 -102 -3 -103 -3 0 -374 0 -375 105 0 105 0 0 -90 0 -90 -210 0
-210 0 0 750 0 750 210 0 210 0 0 -85z m424 43 c6 -42 61 -530 93 -825 9 -84
20 -153 25 -153 4 0 8 3 8 8 0 4 18 162 40 352 22 190 48 416 57 503 l18 157
147 0 148 0 0 -750 0 -750 -85 0 -85 0 0 537 c0 295 -4 533 -8 528 -5 -6 -19
-91 -31 -190 -13 -99 -31 -241 -41 -315 -10 -74 -31 -231 -46 -347 l-28 -213
-92 0 -93 0 -5 33 c-6 31 -53 392 -101 772 -32 245 -35 265 -46 265 -6 0 -9
-211 -9 -532 l1 -533 -86 -3 -85 -3 0 751 0 750 149 0 150 0 5 -42z m1196 22
c48 -17 84 -53 100 -98 18 -51 26 -533 11 -633 -14 -88 -47 -137 -107 -157
-21 -7 -96 -16 -166 -19 l-128 -6 0 -284 0 -283 -105 0 -105 0 0 751 0 751
233 -4 c151 -4 244 -10 267 -18z m1677 -272 c79 -55 82 -185 5 -242 -40 -31
-123 -33 -167 -6 -89 55 -91 196 -2 250 45 28 121 27 164 -2z m-30 -339 c29
-11 83 -57 83 -70 0 -4 -21 -9 -47 -11 -40 -2 -49 -7 -51 -24 -2 -11 4 -27 13
-34 14 -12 16 -11 10 13 -9 35 10 36 37 2 14 -18 26 -24 39 -20 11 4 19 2 19
-4 0 -6 -4 -11 -9 -11 -5 0 -11 -9 -14 -20 -4 -15 -14 -20 -37 -20 -23 0 -33
5 -37 20 -7 25 -23 26 -23 2 0 -39 55 -56 101 -31 19 10 20 8 16 -20 -3 -16
-8 -35 -12 -40 -10 -18 -33 -12 -40 10 -5 13 -14 19 -27 17 -27 -4 -47 -33
-32 -48 13 -13 72 -17 97 -6 13 6 17 3 17 -14 0 -16 -4 -20 -16 -16 -8 3 -29
-1 -46 -10 -25 -13 -32 -13 -39 -3 -10 17 -23 4 -16 -16 8 -19 37 -19 63 0 26
20 31 19 38 -7 7 -30 5 -33 -24 -30 -44 5 -77 -13 -77 -42 0 -23 3 -25 55 -28
80 -4 83 -28 3 -28 -77 0 -80 -18 -3 -22 49 -3 57 -6 57 -23 0 -26 -47 -32
-80 -11 -32 21 -32 20 -32 -9 0 -24 2 -25 59 -25 49 0 59 -3 56 -16 -4 -21
-95 -27 -103 -6 -4 11 -8 10 -22 -3 -24 -24 -2 -35 70 -35 76 0 73 -23 -4 -30
-52 -5 -54 -6 -57 -37 l-3 -33 61 0 c38 0 59 -4 55 -10 -3 -6 -31 -10 -61 -10
-30 0 -54 -4 -54 -10 0 -5 23 -10 50 -10 55 0 59 -6 30 -42 -28 -37 -72 -51
-135 -46 -60 5 -103 35 -125 87 -7 19 -10 133 -8 363 3 320 4 338 23 364 42
55 118 78 182 53z m83 -115 c0 -9 -5 -14 -12 -12 -18 6 -21 28 -4 28 9 0 16
-7 16 -16z m-52 -155 c-2 -6 -8 -10 -13 -10 -5 0 -11 4 -13 10 -2 6 4 11 13
11 9 0 15 -5 13 -11z m65 -148 c4 -1 7 -5 7 -11 0 -5 -22 -10 -50 -10 -27 0
-50 4 -50 9 0 15 37 19 93 12z m7 -280 c0 -12 -27 -17 -67 -13 -51 6 -39 22
17 22 28 0 50 -4 50 -9z"/>
<path d="M2940 9070 l0 -340 84 0 c68 0 88 4 107 19 l24 19 3 301 c3 363 12
341 -128 341 l-90 0 0 -340z"/>
<path d="M1665 7319 c-46 -26 -45 -19 -45 -506 l0 -463 110 0 111 0 -3 470
c-3 428 -5 471 -20 486 -21 21 -124 30 -153 13z"/>
<path d="M2410 5263 c-39 -14 -40 -25 -40 -425 l0 -388 95 0 95 0 0 388 0 389
-23 21 c-23 22 -88 29 -127 15z"/>
<path d="M3460 5085 c0 -96 1 -178 3 -182 1 -5 35 -7 76 -5 111 4 111 4 111
178 0 134 -1 144 -22 164 -18 16 -35 20 -95 20 l-73 0 0 -175z"/>
<path d="M3458 4426 l3 -306 68 0 c54 0 74 4 95 21 l26 20 0 263 c0 211 -3
266 -14 282 -12 16 -29 20 -98 22 l-83 4 3 -306z"/>
<path d="M4220 5255 c0 -3 -1 -94 -1 -202 l0 -198 62 -3 c72 -4 115 11 123 41
10 38 6 293 -5 324 -8 25 -17 32 -47 37 -45 7 -132 8 -132 1z"/>
<path d="M1790 3090 c0 -5 5 -10 11 -10 5 0 7 5 4 10 -3 6 -8 10 -11 10 -2 0
-4 -4 -4 -10z"/>
<path d="M2929 3603 c-13 -16 -12 -17 4 -4 16 13 21 21 13 21 -2 0 -10 -8 -17
-17z"/>
<path d="M3094 3459 c-18 -20 -19 -46 -22 -540 -3 -585 -3 -582 62 -595 20 -3
52 -3 71 0 66 13 65 5 65 568 0 492 -4 562 -32 580 -7 4 -38 8 -69 8 -44 0
-60 -4 -75 -21z"/>
<path d="M4983 3472 c-29 -18 -33 -70 -33 -438 l0 -375 98 3 97 3 0 380 c0
450 3 435 -93 435 -31 0 -62 -4 -69 -8z"/>
<path d="M3830 3264 l0 -206 80 3 c116 6 123 21 117 241 -3 119 -4 128 -26
148 -20 16 -38 20 -98 20 l-73 0 0 -206z"/>
<path d="M1402 1677 l-22 -23 0 -535 0 -536 23 -21 c32 -30 118 -31 147 -2 20
20 20 33 20 558 0 295 -4 542 -8 548 -26 40 -126 47 -160 11z"/>
<path d="M5318 1686 c-15 -8 -29 -12 -32 -9 -3 3 -4 -243 -3 -547 l2 -552 24
-19 c33 -27 114 -26 144 2 l22 20 3 492 c2 271 0 516 -3 545 -6 44 -11 54 -35
67 -36 19 -87 19 -122 1z"/>
<path d="M640 1120 l0 -572 76 4 c124 6 114 -42 114 568 0 610 10 562 -114
568 l-76 4 0 -572z"/>
<path d="M4560 1400 l0 -292 80 4 c121 5 115 -10 115 288 0 297 6 281 -114
288 l-81 5 0 -293z"/>
<path d="M6420 750 c0 -13 28 -25 38 -16 3 4 0 11 -8 16 -20 13 -30 12 -30 0z"/>
<path d="M6420 470 c0 -5 5 -10 10 -10 6 0 10 5 10 10 0 6 -4 10 -10 10 -5 0
-10 -4 -10 -10z"/>
</g>
</svg>
