<?xml version="1.0" standalone="no"?>
<!DOCTYPE svg PUBLIC "-//W3C//DTD SVG 20010904//EN"
 "http://www.w3.org/TR/2001/REC-SVG-20010904/DTD/svg10.dtd">
<svg version="1.0" xmlns="http://www.w3.org/2000/svg"
 width="683.000000pt" height="1000.000000pt" viewBox="0 0 683.000000 1000.000000"
 preserveAspectRatio="xMidYMid meet">

<g transform="translate(0.000000,1000.000000) scale(0.100000,-0.100000)"
fill="#000000" stroke="none">
<path d="M0 5000 l0 -5000 3415 0 3415 0 0 5000 0 5000 -3415 0 -3415 0 0
-5000z m743 4228 c21 -7 56 -29 77 -50 l39 -39 6 46 7 45 140 0 139 0 -3 -247
-3 -248 -151 -3 -151 -3 -6 68 c-9 93 -24 141 -54 169 -32 30 -55 30 -88 2
-35 -31 -49 -129 -43 -318 5 -166 19 -211 69 -229 74 -26 119 30 119 148 0 86
-6 83 170 79 l125 -3 0 -95 c0 -86 -3 -101 -32 -160 -71 -149 -191 -213 -403
-213 -205 0 -353 73 -431 214 -30 53 -55 153 -64 249 -9 87 10 255 36 332 69
206 289 318 502 256z m1092 -5 c202 -50 335 -254 335 -512 0 -324 -191 -532
-490 -534 -197 -2 -334 73 -420 227 -56 103 -73 184 -67 331 5 142 28 222 91
317 109 166 316 230 551 171z m3365 0 c106 -27 216 -121 270 -231 77 -156 78
-410 3 -562 -38 -75 -133 -168 -213 -207 -158 -77 -371 -62 -514 36 -196 135
-261 477 -138 730 45 93 121 172 197 207 114 52 260 62 395 27z m-2529 2 c24
-9 60 -27 80 -40 l37 -24 6 35 7 34 109 0 110 0 0 -88 c0 -49 3 -123 6 -165
l7 -77 -99 0 -99 0 -40 42 c-73 76 -215 120 -270 84 -27 -18 -33 -47 -12 -64
18 -15 112 -39 202 -52 108 -15 230 -74 278 -132 46 -57 62 -92 77 -163 36
-177 -58 -365 -210 -420 -109 -39 -285 -20 -375 41 -20 13 -38 24 -40 24 -3 0
-5 -16 -5 -35 0 -19 -4 -35 -10 -35 -5 -1 -58 -1 -117 -1 l-108 -1 -3 186 -2
186 105 0 c58 0 105 -4 105 -9 0 -20 87 -104 134 -129 41 -21 65 -26 124 -27
75 0 92 8 92 47 0 29 -44 49 -185 83 -277 68 -365 160 -365 379 0 229 107 332
346 335 41 1 90 -6 115 -14z m3366 -1 c26 -9 62 -27 80 -40 17 -13 34 -24 37
-24 3 0 6 16 6 35 l0 35 115 0 115 0 0 -165 0 -165 -95 0 -94 0 -45 44 c-84
81 -223 121 -275 79 -32 -26 -21 -57 27 -76 20 -8 84 -22 142 -32 144 -24 219
-56 286 -121 80 -78 99 -125 99 -254 0 -97 -2 -110 -32 -172 -63 -133 -159
-191 -318 -191 -104 0 -161 13 -228 54 -54 33 -58 34 -51 16 2 -7 1 -23 -4
-36 -7 -21 -13 -22 -122 -23 l-115 -1 -3 187 -2 186 103 0 104 0 26 -39 c51
-76 153 -131 246 -131 81 0 110 53 50 89 -32 20 -61 28 -189 56 -156 35 -270
116 -310 222 -25 67 -27 205 -4 282 17 58 77 131 128 159 80 41 239 54 323 26z
m-2264 -77 c31 -155 49 -228 54 -223 3 3 22 71 42 153 l37 148 302 3 302 2 0
-130 0 -130 -40 0 -40 0 0 -265 0 -265 40 0 40 0 0 -127 0 -128 -282 2 -283 3
-3 125 -3 125 41 0 40 0 -1 208 c-1 190 -2 202 -14 152 -19 -85 -102 -468
-115 -532 -6 -32 -17 -64 -24 -70 -9 -9 -42 -12 -112 -10 l-100 3 -22 102
c-13 56 -49 208 -81 337 l-59 235 -1 -212 -1 -213 45 0 45 0 0 -125 c0 -104
-2 -125 -15 -125 -8 0 -115 -1 -237 -1 l-223 0 -3 126 -3 125 41 0 40 0 0 265
0 265 -40 0 -40 0 0 130 0 130 328 0 327 0 18 -83z m-3156 -1144 c19 -9 40
-24 46 -35 15 -23 29 -23 26 0 -4 40 -1 42 76 42 l75 0 0 -122 0 -123 -78 3
-79 3 -9 37 c-11 43 -61 82 -106 82 -71 0 -118 -64 -118 -161 0 -77 38 -134
97 -145 61 -12 133 38 133 92 0 23 2 24 81 24 l81 0 -7 -37 c-14 -74 -64 -141
-129 -175 -29 -16 -65 -23 -127 -26 -152 -8 -256 41 -311 147 -24 45 -28 65
-28 130 0 123 55 213 160 260 57 26 167 28 217 4z m2817 -12 l56 -30 0 25 c0
23 3 24 65 24 l65 0 0 -88 0 -89 -47 -1 c-38 -1 -57 5 -91 30 -60 42 -140 62
-192 48 -42 -11 -51 -29 -25 -50 8 -6 67 -21 131 -31 148 -25 208 -54 235
-112 23 -53 24 -91 0 -142 -37 -79 -107 -118 -211 -117 -50 1 -78 8 -122 30
l-58 29 0 -24 c0 -22 -3 -23 -70 -23 l-70 0 0 100 0 100 53 0 c42 0 58 -5 73
-21 53 -59 180 -101 235 -79 35 15 38 44 7 61 -13 7 -73 22 -135 35 -62 12
-127 31 -145 41 -72 42 -104 162 -61 235 46 81 199 105 307 49z m1284 15 c15
-8 36 -23 46 -35 26 -29 33 -26 28 9 l-4 30 86 0 86 0 0 -100 0 -100 -83 0
c-77 0 -85 2 -96 23 -31 58 -118 75 -169 32 -42 -35 -55 -74 -50 -150 3 -57 8
-70 34 -96 54 -54 142 -49 177 10 27 47 22 59 -25 63 -40 3 -42 4 -42 38 l0
35 172 3 172 2 0 -40 0 -40 -45 0 -45 0 0 -110 0 -110 -80 0 c-80 0 -80 0 -80
27 0 24 -1 25 -17 11 -41 -36 -86 -50 -155 -49 -89 1 -139 16 -187 58 -105 89
-123 272 -38 390 33 46 89 89 133 103 46 14 152 11 182 -4z m-3359 -166 c109
-265 96 -242 133 -238 l33 3 3 -67 3 -68 -176 0 -176 0 3 68 3 67 33 -3 c35
-4 38 3 20 43 -10 23 -16 25 -74 25 -52 0 -65 -3 -74 -19 -19 -36 -13 -54 16
-48 30 5 32 2 37 -75 l3 -58 -138 0 -138 0 0 65 c0 61 1 65 23 65 16 0 28 9
36 26 15 33 102 260 127 332 l18 53 109 -3 108 -3 68 -165z m726 151 c22 -10
51 -30 64 -44 31 -34 39 -103 17 -145 -17 -34 -80 -72 -118 -72 -18 0 -13 -5
18 -19 47 -21 70 -50 85 -103 12 -46 35 -49 44 -8 5 25 11 30 36 30 27 0 29
-3 29 -35 0 -52 -24 -102 -59 -119 -18 -10 -55 -16 -93 -16 -109 0 -160 45
-173 151 -7 60 -22 78 -65 81 l-35 3 0 -45 c0 -45 0 -45 35 -45 l35 0 3 -67 3
-68 -176 0 -176 0 3 68 3 67 43 -3 42 -4 0 141 0 141 -45 0 -45 0 0 65 0 65
243 0 c214 0 247 -3 282 -19z m585 -46 l0 -65 -50 0 -50 0 0 -140 0 -140 80 0
80 0 0 65 0 65 80 0 80 0 0 -130 0 -130 -300 0 -300 0 0 65 c0 69 -1 68 58 65
l32 -2 0 141 0 141 -45 0 -45 0 0 65 0 65 190 0 190 0 0 -65z m1480 -92 c103
-264 98 -255 140 -251 l35 3 3 -67 3 -68 -181 0 -180 0 0 65 c0 67 1 69 48 65
24 -2 27 6 12 44 -9 24 -14 26 -69 26 -49 0 -62 -4 -71 -19 -19 -36 -13 -53
18 -49 27 3 27 3 30 -64 l3 -68 -141 0 -140 0 0 64 c0 63 1 65 27 68 26 3 32
15 107 206 l79 202 108 0 107 0 62 -157z m1370 77 c15 -41 52 -131 81 -200
l54 -125 35 0 35 0 3 -67 3 -68 -181 0 -181 0 3 68 c3 65 4 67 28 64 44 -5 53
4 35 38 -15 29 -18 30 -79 30 -60 0 -64 -2 -70 -25 -9 -37 -8 -40 22 -40 26 0
27 -1 30 -67 l3 -68 -141 0 -141 0 3 68 c3 64 4 67 27 67 21 0 29 11 56 75 30
71 72 178 110 283 l18 48 110 -3 109 -3 28 -75z m577 -52 l133 -133 0 68 0 67
-45 0 -45 0 0 65 0 65 150 0 150 0 0 -65 0 -65 -40 0 -40 0 0 -205 0 -205 -50
0 -50 0 -131 131 c-72 72 -132 129 -133 127 -1 -2 0 -32 2 -67 l4 -63 39 6 39
6 0 -70 0 -70 -160 0 -160 0 0 65 c0 55 3 65 18 66 9 1 28 2 42 2 l25 2 3 138
3 137 -46 0 -45 0 0 65 0 65 102 0 103 0 132 -132z m-3092 -398 c-5 -8 -11 -8
-17 -2 -6 6 -7 16 -3 22 5 8 11 8 17 2 6 -6 7 -16 3 -22z m-204 -93 c-13 -13
-26 -3 -16 12 3 6 11 8 17 5 6 -4 6 -10 -1 -17z m-641 -137 c0 -5 -4 -10 -10
-10 -5 0 -10 5 -10 10 0 6 5 10 10 10 6 0 10 -4 10 -10z m378 -17 c5 -17 -26
-29 -40 -15 -6 6 -7 15 -3 22 9 14 37 9 43 -7z m1072 -63 c0 -5 -4 -10 -10
-10 -5 0 -10 5 -10 10 0 6 5 10 10 10 6 0 10 -4 10 -10z m-408 -132 c-7 -7
-12 -8 -12 -2 0 14 12 26 19 19 2 -3 -1 -11 -7 -17z m58 -48 c0 -5 -4 -10 -10
-10 -5 0 -10 5 -10 10 0 6 5 10 10 10 6 0 10 -4 10 -10z m27 -126 c-9 -9 -28
6 -21 18 4 6 10 6 17 -1 6 -6 8 -13 4 -17z m-117 -29 c0 -8 -7 -15 -15 -15 -8
0 -15 7 -15 15 0 8 7 15 15 15 8 0 15 -7 15 -15z m-152 -59 c1 -37 -2 -43 -27
-53 -28 -10 -29 -9 -33 23 -3 27 0 34 17 36 14 2 19 10 18 25 -2 15 2 21 11
17 8 -3 14 -22 14 -48z m736 39 c-4 -8 -10 -15 -15 -15 -5 0 -9 7 -9 15 0 8 7
15 15 15 9 0 12 -6 9 -15z m-1543 -40 c-1 -15 -24 -12 -29 3 -3 9 2 13 12 10
10 -1 17 -7 17 -13z m619 0 c0 -8 -4 -15 -9 -15 -13 0 -22 16 -14 24 11 11 23
6 23 -9z m290 -5 c0 -5 -5 -10 -11 -10 -5 0 -7 5 -4 10 3 6 8 10 11 10 2 0 4
-4 4 -10z m280 1 c0 -12 -20 -25 -27 -18 -7 7 6 27 18 27 5 0 9 -4 9 -9z
m-2241 -96 c90 -41 173 -75 186 -75 12 0 29 -8 36 -17 8 -9 45 -31 83 -48 64
-30 68 -33 48 -44 -26 -14 -29 -46 -5 -60 14 -8 11 -10 -20 -16 -24 -5 -34
-11 -30 -19 5 -8 3 -8 -8 0 -19 16 -121 46 -114 34 4 -6 -3 -10 -13 -10 -11 0
-22 9 -25 20 -5 21 -47 29 -47 9 0 -7 -12 -9 -32 -6 -18 3 -76 -2 -129 -10
-94 -15 -97 -15 -116 4 l-21 21 30 26 c31 27 48 33 48 17 0 -17 32 -21 58 -7
25 13 22 15 -97 52 -94 29 -118 40 -102 46 17 6 21 16 21 47 0 33 -5 43 -26
54 l-26 14 54 21 c29 11 60 21 69 21 9 1 89 -33 178 -74z m1231 50 c0 -16 -6
-25 -15 -25 -28 0 -18 40 13 49 1 1 2 -10 2 -24z m-100 0 c0 -8 -7 -15 -15
-15 -8 0 -15 7 -15 15 0 8 7 15 15 15 8 0 15 -7 15 -15z m795 -4 c-3 -6 -11
-11 -17 -11 -6 0 -6 6 2 15 14 17 26 13 15 -4z m1480 9 c3 -5 1 -10 -4 -10 -6
0 -11 5 -11 10 0 6 2 10 4 10 3 0 8 -4 11 -10z m-835 -10 c0 -5 -4 -10 -10
-10 -5 0 -10 5 -10 10 0 6 5 10 10 10 6 0 10 -4 10 -10z m-610 -10 c0 -5 -5
-10 -11 -10 -5 0 -7 5 -4 10 3 6 8 10 11 10 2 0 4 -4 4 -10z m-58 -43 c3 -16
-1 -28 -14 -36 -23 -14 -28 -14 -28 3 0 7 -7 19 -15 26 -22 18 -18 28 13 32
35 5 39 3 44 -25z m416 21 c-6 -18 -28 -21 -28 -4 0 9 7 16 16 16 9 0 14 -5
12 -12z m902 -19 c0 -5 -4 -9 -10 -9 -5 0 -10 7 -10 16 0 8 5 12 10 9 6 -3 10
-10 10 -16z m-1472 -17 c2 -7 -3 -12 -12 -12 -9 0 -16 7 -16 16 0 17 22 14 28
-4z m-728 -7 c0 -8 -4 -15 -10 -15 -5 0 -10 7 -10 15 0 8 5 15 10 15 6 0 10
-7 10 -15z m1570 5 c0 -5 -4 -10 -10 -10 -5 0 -10 5 -10 10 0 6 5 10 10 10 6
0 10 -4 10 -10z m850 -5 c0 -8 -7 -15 -15 -15 -8 0 -15 7 -15 15 0 8 7 15 15
15 8 0 15 -7 15 -15z m-2213 -12 c4 -11 -26 -27 -35 -19 -2 3 -2 12 2 21 6 18
27 16 33 -2z m568 -20 c-26 -18 -10 -29 25 -16 18 7 30 7 30 2 0 -6 6 -9 13
-8 25 3 42 -1 32 -9 -10 -7 -35 -48 -35 -57 0 -3 9 -5 20 -5 11 0 20 5 20 10
0 6 7 10 15 10 35 0 -11 -71 -53 -82 -32 -9 -41 -21 -22 -33 6 -3 13 1 16 9 3
9 10 13 15 10 13 -8 11 -44 -2 -44 -16 0 -2 -62 16 -73 17 -9 20 -27 5 -27
-13 0 -60 -49 -60 -62 0 -5 -13 -7 -29 -3 -24 5 -30 2 -36 -14 -3 -12 -13 -21
-22 -21 -11 0 -14 6 -8 27 5 23 4 25 -9 14 -13 -11 -19 -11 -31 -1 -8 6 -19 8
-26 4 -8 -5 -4 -12 12 -25 23 -17 23 -18 5 -25 -12 -5 -21 -3 -24 4 -6 19 -46
14 -59 -7 -7 -11 -23 -21 -37 -23 -21 -3 -23 -5 -12 -20 18 -25 68 -10 77 23
4 13 7 17 8 9 1 -8 9 -20 20 -27 16 -10 20 -8 30 13 11 25 31 33 31 12 0 -7
-9 -27 -19 -44 -19 -31 -19 -32 0 -63 10 -17 24 -31 29 -31 6 0 9 -4 6 -9 -3
-4 -18 -6 -32 -3 -17 3 -31 0 -38 -9 -6 -8 -23 -20 -38 -26 -16 -7 -28 -17
-28 -23 0 -5 -4 -10 -10 -10 -5 0 -10 7 -10 16 0 12 -6 15 -22 10 -13 -3 -28
-6 -34 -6 -7 0 -14 -9 -17 -20 -3 -12 -14 -20 -26 -20 -11 0 -28 -11 -37 -25
-18 -28 -42 -33 -50 -10 -4 8 -10 12 -15 9 -14 -8 -11 -21 8 -40 17 -17 16
-17 -20 -11 -44 7 -67 1 -67 -19 0 -10 6 -11 26 -4 14 6 27 10 28 10 2 0 1
-15 -3 -32 -8 -40 -45 -52 -54 -18 -5 21 -6 21 -33 4 l-27 -18 7 24 c3 14 3
19 0 13 -3 -7 -12 -13 -20 -13 -8 0 -14 -4 -14 -10 0 -5 -7 -10 -16 -10 -14 0
-15 -7 -10 -39 6 -41 -9 -66 -25 -40 -9 15 -11 14 -27 -16 -10 -17 -11 -17
-12 -3 0 9 4 19 8 22 5 3 7 18 4 34 -3 23 0 30 17 35 12 3 21 12 21 21 0 21
-6 20 -32 -4 -30 -27 -38 -25 -38 11 0 26 -3 30 -22 27 -14 -2 -24 -12 -28
-28 -7 -29 -50 -42 -50 -16 0 19 -50 22 -67 5 -8 -8 -12 0 -15 25 -3 30 -1 36
14 36 10 0 21 7 24 15 10 25 27 17 20 -10 -10 -38 43 -55 66 -21 14 21 9 46
-8 39 -12 -4 -15 -2 -12 8 3 8 11 13 17 12 14 -4 14 3 1 27 -8 15 -6 24 10 40
24 24 30 25 30 5 0 -8 -7 -15 -15 -15 -8 0 -15 -7 -15 -15 0 -8 6 -15 14 -15
8 0 16 7 20 15 7 18 42 20 49 3 3 -8 6 -6 6 5 1 12 9 17 29 17 33 0 45 8 61
37 16 31 14 61 -6 72 -15 8 -16 12 -5 23 11 11 15 10 23 -4 12 -22 37 -23 63
-3 15 11 23 12 33 3 17 -14 31 -2 15 14 -17 17 -15 31 4 24 9 -4 23 -1 30 5
14 11 14 11 28 -35 5 -15 64 -27 72 -14 8 13 36 9 56 -9 17 -15 18 -15 18 13
0 22 -8 33 -30 46 -33 19 -40 38 -14 38 13 0 15 7 11 34 -3 19 0 39 6 45 6 6
7 14 3 18 -4 4 -12 0 -17 -10 -8 -14 -14 -15 -31 -6 -15 8 -22 8 -28 -1 -9
-14 -40 -6 -40 10 0 5 16 16 35 25 20 8 43 21 52 30 8 9 21 14 28 11 8 -3 11
2 8 15 -3 11 1 21 10 25 9 3 18 23 22 45 8 45 34 53 59 18 19 -28 38 -16 26
16 -5 14 -7 32 -4 40 7 17 -11 21 -22 4 -3 -6 -15 -9 -25 -6 -12 3 -23 -2 -29
-14 -11 -20 -40 -15 -40 7 0 8 10 14 25 14 14 0 25 5 25 10 0 6 10 10 22 10
21 0 21 0 2 21 l-19 22 33 -5 c22 -3 32 -1 32 9 0 16 17 17 22 1 3 -7 22 6 45
29 41 41 75 57 82 39 2 -5 -4 -15 -14 -23z m155 2 c0 -8 -7 -15 -15 -15 -8 0
-15 7 -15 15 0 8 7 15 15 15 8 0 15 -7 15 -15z m-390 -19 c26 -5 7 -21 -20
-17 -33 4 -42 10 -34 22 3 6 13 7 23 4 9 -4 23 -8 31 -9z m-610 -6 c0 -5 -4
-10 -9 -10 -6 0 -13 5 -16 10 -3 6 1 10 9 10 9 0 16 -4 16 -10z m240 6 c0 -3
-4 -8 -10 -11 -5 -3 -10 -1 -10 4 0 6 5 11 10 11 6 0 10 -2 10 -4z m790 -6 c0
-5 -4 -10 -10 -10 -5 0 -10 5 -10 10 0 6 5 10 10 10 6 0 10 -4 10 -10z m125
-15 c0 -30 -39 -27 -43 3 -3 20 0 23 20 20 15 -2 23 -10 23 -23z m-749 -32
c-4 -4 -14 1 -22 11 -22 31 -17 43 8 19 12 -13 18 -26 14 -30z m-96 27 c0 -5
-4 -10 -10 -10 -5 0 -10 5 -10 10 0 6 5 10 10 10 6 0 10 -4 10 -10z m189 4
c17 -4 31 -13 31 -21 0 -14 -48 -62 -62 -63 -12 0 -9 35 4 48 9 9 8 12 -5 12
-9 0 -17 7 -17 15 0 17 4 18 49 9z m-629 -54 c0 -11 -7 -20 -15 -20 -8 0 -15
9 -15 20 0 11 7 20 15 20 8 0 15 -9 15 -20z m255 10 c-3 -5 -10 -10 -16 -10
-5 0 -9 5 -9 10 0 6 7 10 16 10 8 0 12 -4 9 -10z m955 0 c0 -5 -4 -10 -10 -10
-5 0 -10 5 -10 10 0 6 5 10 10 10 6 0 10 -4 10 -10z m-1050 -10 c0 -5 -4 -10
-10 -10 -5 0 -10 5 -10 10 0 6 5 10 10 10 6 0 10 -4 10 -10z m350 -21 c0 -6
-4 -7 -10 -4 -5 3 -10 11 -10 16 0 6 5 7 10 4 6 -3 10 -11 10 -16z m2710 1 c0
-5 -4 -10 -10 -10 -5 0 -10 5 -10 10 0 6 5 10 10 10 6 0 10 -4 10 -10z m-2090
-25 c0 -8 -7 -15 -15 -15 -16 0 -20 12 -8 23 11 12 23 8 23 -8z m-580 -41 c13
-33 13 -84 0 -84 -5 0 -10 11 -10 24 0 28 -15 36 -53 29 -20 -4 -27 -1 -27 11
0 9 6 16 14 16 7 0 19 7 26 15 19 22 39 18 50 -11z m153 12 c7 -19 -18 -42
-28 -26 -8 13 1 40 14 40 5 0 11 -6 14 -14z m-1755 -13 c-3 -17 -28 -18 -331
-21 -322 -2 -327 -2 -327 18 0 20 6 20 331 20 309 0 330 -1 327 -17z m1210
-13 l-2 -30 -151 2 -150 2 115 6 c88 5 55 6 -142 8 -251 2 -258 3 -258 22 0
20 7 20 295 20 l295 0 -2 -30z m1152 15 c0 -8 -7 -15 -15 -15 -16 0 -20 12 -8
23 11 12 23 8 23 -8z m-976 -20 c20 -30 20 -35 2 -35 -7 0 -16 8 -20 18 -3 9
-9 23 -12 30 -10 22 13 12 30 -13z m864 -3 c3 -18 -1 -22 -22 -22 -19 0 -26 5
-26 18 0 39 43 43 48 4z m-582 3 c-11 -8 -24 -15 -30 -15 -5 0 -1 7 10 15 10
8 24 14 29 14 6 0 1 -6 -9 -14z m1430 -12 c-10 -10 -19 5 -10 18 6 11 8 11 12
0 2 -7 1 -15 -2 -18z m-1775 2 c-1 -15 -24 -12 -29 3 -3 9 2 13 12 10 10 -1
17 -7 17 -13z m-1754 -11 c-3 -3 -12 -4 -19 -1 -8 3 -5 6 6 6 11 1 17 -2 13
-5z m120 0 c-3 -3 -12 -4 -19 -1 -8 3 -5 6 6 6 11 1 17 -2 13 -5z m361 -1
c-10 -2 -26 -2 -35 0 -10 3 -2 5 17 5 19 0 27 -2 18 -5z m200 0 c-32 -2 -84
-2 -115 0 -32 2 -6 3 57 3 63 0 89 -1 58 -3z m220 0 c-16 -2 -40 -2 -55 0 -16
2 -3 4 27 4 30 0 43 -2 28 -4z m99 1 c-3 -3 -12 -4 -19 -1 -8 3 -5 6 6 6 11 1
17 -2 13 -5z m46 -1 c-7 -2 -19 -2 -25 0 -7 3 -2 5 12 5 14 0 19 -2 13 -5z
m104 1 c-3 -3 -12 -4 -19 -1 -8 3 -5 6 6 6 11 1 17 -2 13 -5z m176 -1 c-7 -2
-21 -2 -30 0 -10 3 -4 5 12 5 17 0 24 -2 18 -5z m357 -2 c0 -5 12 -11 28 -13
19 -2 28 -9 30 -25 3 -19 -1 -23 -22 -23 -19 0 -26 5 -26 19 0 11 -9 21 -21
24 -12 3 -18 10 -14 16 8 13 25 14 25 2z m-1810 -26 c0 -12 -4 -13 -19 -4 -26
17 -47 6 -54 -28 -6 -30 10 -74 29 -80 7 -2 19 3 28 12 15 15 16 15 16 0 0
-20 -23 -29 -54 -21 -43 11 -56 82 -24 124 15 18 78 16 78 -3z m944 -1 c19
-18 21 -56 5 -87 -15 -29 -28 -37 -59 -37 -25 0 -26 2 -25 70 l0 70 32 0 c17
0 39 -7 47 -16z m286 -50 c0 -63 1 -65 23 -58 12 4 26 12 30 18 5 7 7 3 5 -9
-3 -16 -11 -20 -42 -20 l-38 0 -2 68 c-1 48 3 67 12 67 8 0 12 -20 12 -66z
m380 56 c0 -5 -4 -10 -10 -10 -5 0 -10 5 -10 10 0 6 5 10 10 10 6 0 10 -4 10
-10z m674 -12 c5 -9 7 -20 4 -23 -10 -10 -48 14 -48 31 0 20 29 14 44 -8z
m1384 -3 c-11 -25 -28 -25 -28 0 0 12 13 22 32 24 4 1 3 -10 -4 -24z m-1738 5
c0 -5 -4 -10 -10 -10 -5 0 -10 5 -10 10 0 6 5 10 10 10 6 0 10 -4 10 -10z m50
-10 c-10 -19 -30 -28 -30 -14 0 6 30 33 38 34 1 0 -2 -9 -8 -20z m1878 -7 c3
-19 -1 -23 -21 -23 -32 0 -51 22 -34 39 19 19 52 9 55 -16z m-2114 1 c23 -9
20 -23 -4 -17 -11 3 -20 1 -20 -4 0 -16 46 -32 71 -26 15 4 20 3 15 -5 -4 -7
-14 -12 -22 -12 -8 0 -14 -7 -14 -15 0 -16 -43 -31 -59 -20 -6 3 -11 11 -11
18 0 8 3 8 12 -1 17 -17 38 -15 38 3 0 9 -11 20 -24 25 -34 13 -41 29 -20 45
23 17 19 16 38 9z m-1644 -25 c17 -31 4 -68 -27 -75 -30 -8 -53 15 -53 51 0
45 60 63 80 24z m50 -9 c7 -16 16 -30 20 -30 4 0 13 14 20 30 18 43 28 37 32
-20 2 -37 0 -50 -11 -50 -10 0 -12 8 -7 30 7 38 -7 39 -23 3 l-13 -28 -17 33
c-9 18 -20 30 -24 26 -4 -4 -7 2 -7 14 0 31 15 27 30 -8z m175 5 c0 -12 -8
-21 -20 -23 -15 -2 -17 -1 -6 6 16 11 6 32 -14 32 -11 0 -14 -11 -10 -45 2
-25 0 -45 -5 -45 -4 0 -10 23 -12 50 l-3 51 35 -3 c27 -2 35 -7 35 -23z m69
-15 c19 -47 20 -60 6 -60 -5 0 -10 7 -10 15 0 20 -36 19 -44 -1 -4 -9 -9 -15
-11 -12 -7 6 27 98 36 98 4 0 14 -18 23 -40z m91 8 l27 -33 -4 33 c-3 19 0 32
6 32 7 0 10 -17 8 -45 -2 -25 -7 -45 -11 -45 -3 0 -16 15 -28 33 l-23 32 0
-38 c0 -20 -5 -37 -10 -37 -6 0 -9 20 -8 50 2 27 6 50 10 50 4 0 18 -15 33
-32z m95 12 c0 -13 7 -20 20 -20 13 0 20 7 20 20 0 11 5 20 10 20 6 0 10 -22
10 -50 0 -27 -4 -50 -10 -50 -5 0 -10 11 -10 25 0 20 -5 25 -24 25 -19 0 -22
-4 -18 -25 3 -17 0 -25 -9 -25 -10 0 -14 14 -14 50 0 33 4 50 13 50 6 0 12 -9
12 -20z m112 -30 c2 -35 -1 -50 -9 -50 -9 0 -13 17 -13 50 0 65 17 65 22 0z
m91 7 c20 -49 21 -57 7 -57 -5 0 -10 7 -10 15 0 21 -37 19 -49 -2 -5 -10 -12
-16 -15 -13 -6 6 34 100 43 100 3 0 14 -19 24 -43z m255 -7 c17 -41 18 -50 6
-50 -7 0 -14 7 -14 15 0 8 -9 15 -19 15 -10 0 -21 -7 -25 -15 -3 -8 -10 -15
-15 -15 -5 0 0 23 12 50 11 28 24 50 28 50 3 0 16 -22 27 -50z m97 40 c4 -7
-2 -9 -19 -4 -33 8 -34 -9 -1 -24 33 -15 33 -50 1 -58 -27 -7 -46 1 -46 19 0
8 3 8 12 -1 7 -7 18 -12 25 -12 22 0 15 23 -14 45 -15 13 -23 27 -19 33 9 15
53 16 61 2z m245 1 c0 -4 -11 -6 -25 -3 -18 3 -25 0 -25 -12 0 -9 8 -17 18
-17 16 -1 16 -2 0 -6 -21 -5 -25 -43 -5 -43 7 0 18 5 25 12 9 9 12 8 12 -5 0
-13 -9 -17 -35 -17 l-35 0 0 50 0 50 35 0 c19 0 35 -4 35 -9z m78 -1 c-12 -8
-15 -19 -11 -50 4 -30 2 -40 -8 -40 -11 0 -13 11 -11 44 4 40 2 45 -20 49 -12
2 -3 5 22 5 33 1 41 -1 28 -8z m103 -6 c10 -13 10 -17 -1 -24 -18 -11 -5 -40
20 -40 14 0 25 12 36 40 9 22 20 40 25 40 8 0 49 -81 49 -96 0 -10 -23 -3 -36
11 -9 8 -19 15 -24 15 -13 0 -22 -34 -11 -38 13 -4 15 -42 3 -42 -4 0 -13 5
-19 11 -8 8 -17 8 -31 0 -17 -9 -19 -8 -15 8 5 21 -22 81 -37 81 -13 0 -13
-27 0 -35 17 -11 11 -23 -9 -18 -17 4 -20 13 -19 54 1 46 3 49 28 49 15 0 33
-7 41 -16z m569 6 c0 -5 -4 -10 -10 -10 -5 0 -10 5 -10 10 0 6 5 10 10 10 6 0
10 -4 10 -10z m-232 -22 c-4 -27 -28 -36 -28 -10 0 20 8 32 22 32 5 0 8 -10 6
-22z m1862 -3 c0 -8 -7 -15 -15 -15 -16 0 -20 12 -8 23 11 12 23 8 23 -8z
m-1680 -20 c0 -8 9 -19 20 -25 31 -17 44 -48 28 -68 -8 -9 -19 -29 -26 -44
-13 -31 -32 -37 -32 -10 0 9 9 23 20 30 22 13 19 32 -6 32 -8 0 -14 -9 -14
-20 0 -13 -7 -20 -20 -20 -28 0 -25 25 7 48 15 11 23 24 19 31 -4 6 -12 9 -17
5 -5 -3 -18 5 -29 18 -18 23 -18 23 3 30 36 10 47 9 47 -7z m710 -1 c0 -9 -5
-14 -12 -12 -18 6 -21 28 -4 28 9 0 16 -7 16 -16z m-2660 -19 c0 -14 -4 -25
-9 -25 -4 0 -6 11 -3 25 2 14 6 25 8 25 2 0 4 -11 4 -25z m2023 3 c4 -10 8 -9
16 2 16 23 26 2 11 -25 -14 -26 -43 -36 -34 -11 3 7 -2 16 -10 19 -9 4 -16 11
-16 17 0 14 27 13 33 -2z m-153 -6 c0 -5 -6 -17 -14 -28 -11 -15 -17 -16 -27
-7 -16 16 -4 43 21 43 11 0 20 -4 20 -8z m-167 -22 c4 -16 0 -20 -19 -20 -13
0 -24 6 -24 13 0 32 35 37 43 7z m1881 4 c11 -28 6 -44 -13 -44 -28 0 -47 26
-31 45 16 20 36 19 44 -1z m250 -5 c-3 -5 -10 -7 -15 -3 -5 3 -7 10 -3 15 3 5
10 7 15 3 5 -3 7 -10 3 -15z m-174 1 c0 -5 -2 -10 -4 -10 -3 0 -8 5 -11 10 -3
6 -1 10 4 10 6 0 11 -4 11 -10z m236 1 c-3 -5 4 -20 15 -35 23 -29 19 -60 -12
-76 -21 -12 -26 -40 -6 -41 10 0 10 -2 0 -6 -15 -6 -17 -33 -3 -33 6 0 10 -12
10 -27 1 -31 21 -63 39 -63 6 0 11 -4 11 -10 0 -13 -6 -13 -29 2 -11 6 -26 8
-37 3 -16 -7 -15 -9 11 -14 17 -3 31 -12 31 -19 3 -23 4 -23 24 -9 19 13 24
12 50 -15 34 -34 38 -48 13 -49 -11 0 -13 -3 -5 -6 6 -2 12 -14 12 -25 0 -16
3 -18 14 -9 10 9 16 9 21 1 5 -8 12 -4 22 10 12 17 18 19 29 9 10 -8 12 -15 4
-23 -17 -17 -11 -28 14 -22 31 8 84 -11 97 -35 5 -10 18 -19 29 -19 10 0 22
-4 25 -10 3 -5 19 -10 35 -10 15 0 30 -4 32 -10 2 -5 21 -12 43 -16 22 -3 43
-8 48 -11 14 -9 -4 -23 -30 -23 -22 0 -24 -2 -13 -15 7 -9 9 -19 5 -23 -4 -4
-10 -1 -12 6 -8 20 -46 14 -68 -11 -11 -13 -30 -29 -42 -36 -13 -6 -23 -19
-23 -27 0 -11 6 -14 23 -8 12 4 25 12 29 18 4 6 10 7 14 3 4 -3 2 -13 -5 -21
-9 -11 -7 -15 14 -20 14 -4 25 -13 25 -21 0 -21 13 -19 30 5 8 11 22 20 32 20
20 0 24 -15 8 -25 -21 -13 1 -24 40 -20 41 4 60 -9 42 -27 -14 -14 5 -53 42
-87 16 -15 26 -35 26 -53 0 -15 4 -28 9 -28 5 0 12 -18 16 -40 4 -22 10 -40
14 -40 4 0 13 -11 19 -24 6 -14 21 -26 33 -28 28 -4 43 -51 26 -80 -9 -16 -9
-22 1 -25 16 -6 16 -38 -1 -51 -8 -7 -12 -36 -12 -79 0 -49 -4 -71 -15 -80
-13 -10 -13 -14 4 -31 10 -12 15 -25 12 -31 -4 -5 -2 -12 4 -16 16 -10 12 -21
-12 -33 -18 -8 -19 -11 -6 -11 9 -1 19 3 23 8 7 13 52 -29 64 -61 11 -30 6
-38 -26 -38 -12 0 -23 -4 -23 -9 0 -5 -3 -17 -7 -26 -5 -15 -3 -16 16 -5 26
13 37 8 25 -12 -5 -7 -8 -22 -9 -33 0 -14 -7 -20 -23 -19 -17 0 -21 -4 -17
-17 5 -14 1 -16 -17 -11 -19 5 -21 3 -11 -9 7 -8 10 -25 6 -37 -4 -16 -1 -22
7 -20 7 2 15 -3 18 -11 3 -10 -2 -12 -19 -8 -31 8 -50 -4 -48 -29 4 -44 0 -56
-21 -49 -11 4 -34 0 -51 -9 -28 -14 -30 -14 -28 2 4 40 -1 47 -17 24 -15 -21
-14 -24 15 -51 17 -16 31 -36 31 -44 0 -8 11 -22 24 -30 41 -27 56 -48 55 -75
-2 -24 -2 -24 -6 -4 -2 12 -10 22 -17 22 -8 0 -19 7 -26 15 -24 29 -40 18 -40
-30 0 -35 -3 -43 -15 -39 -19 8 -49 -59 -42 -93 5 -27 -11 -42 -24 -22 -6 9
-8 4 -6 -15 1 -21 -4 -33 -18 -40 -26 -14 -65 -53 -65 -66 0 -5 -9 -10 -21
-10 -14 0 -19 -5 -16 -14 9 -24 -20 -41 -48 -28 -13 6 -27 7 -30 2 -3 -4 0
-10 5 -12 7 -2 5 -16 -6 -37 -16 -32 -18 -33 -31 -16 -11 16 -13 16 -13 3 0
-18 17 -37 53 -63 20 -15 21 -17 5 -28 -10 -8 -14 -22 -11 -38 3 -16 -1 -32
-11 -42 -22 -21 -20 -27 7 -24 24 2 27 -13 14 -65 -6 -22 -4 -28 8 -28 8 0 15
-9 15 -20 0 -30 -23 -24 -38 10 -16 35 -32 39 -32 9 0 -31 -20 -61 -36 -55 -8
3 -17 -1 -20 -9 -9 -22 -34 -18 -34 6 0 11 4 18 9 14 6 -3 15 4 21 15 8 15 6
29 -9 60 -10 22 -17 49 -14 60 3 11 0 20 -6 20 -6 0 -11 5 -11 11 0 7 -7 17
-16 24 -14 10 -14 15 -3 33 21 33 0 40 -25 9 -23 -29 -28 -27 -51 11 -6 11 -3
12 13 3 27 -15 32 -14 32 4 0 8 -9 15 -20 15 -13 0 -20 7 -20 20 0 15 7 20 25
20 28 0 34 15 10 24 -19 7 -10 55 13 73 12 10 13 15 2 28 -7 8 -10 19 -6 23 9
9 37 -28 30 -39 -3 -5 -2 -9 3 -9 18 1 32 17 45 56 14 40 14 41 -9 36 -13 -2
-26 -8 -29 -13 -8 -14 -24 -11 -24 4 0 21 37 50 55 44 8 -4 15 -3 15 1 0 14
-24 32 -42 32 -10 0 -18 5 -18 10 0 6 -8 10 -17 10 -15 0 -14 -4 6 -19 26 -20
21 -41 -11 -41 -14 0 -18 -5 -14 -16 4 -12 1 -14 -14 -9 -22 7 -23 5 -11 -48
9 -39 -1 -59 -17 -32 -7 14 -10 14 -21 1 -10 -12 -8 -15 8 -21 24 -7 29 -45 6
-45 -9 0 -19 -8 -22 -17 -4 -10 -11 -21 -17 -25 -6 -4 -4 -9 7 -14 26 -10 21
-34 -8 -34 -16 0 -25 6 -25 15 0 8 -5 15 -11 15 -7 0 -9 -10 -5 -25 7 -28 -8
-34 -22 -9 -6 11 -11 13 -16 5 -10 -16 -46 -13 -46 4 0 8 -4 15 -10 15 -5 0
-10 12 -10 26 0 19 4 25 15 21 8 -4 17 -2 20 3 4 6 1 10 -4 10 -19 0 -12 41 9
58 33 27 7 52 -55 56 -39 2 -50 6 -49 19 1 10 -2 17 -6 17 -5 0 -18 16 -30 35
-25 40 -35 44 -43 15 -3 -12 -14 -20 -26 -20 -25 0 -27 13 -6 34 22 22 18 27
-10 14 -14 -6 -25 -17 -25 -25 0 -18 -10 -16 -26 5 -10 13 -13 14 -14 2 0 -18
111 -121 123 -113 4 3 1 13 -9 24 -16 18 -16 19 2 25 11 4 23 9 28 12 5 3 6
-7 2 -21 -4 -16 -2 -27 7 -30 9 -3 9 -7 0 -19 -7 -8 -9 -18 -5 -23 4 -4 -8 -5
-25 -2 -19 4 -33 2 -33 -3 0 -5 -7 -7 -15 -4 -9 4 -18 -2 -23 -17 -6 -15 -11
-18 -16 -11 -4 7 -18 12 -31 12 -13 0 -27 5 -30 10 -3 6 -13 10 -21 10 -8 0
-13 -4 -10 -9 9 -14 -4 -41 -19 -41 -23 0 -29 22 -10 36 26 19 11 30 -20 16
-33 -15 -34 -15 -28 6 6 25 -55 84 -78 77 -26 -9 -34 29 -12 59 10 14 25 26
34 26 20 0 29 20 29 63 0 32 24 67 47 67 7 0 13 7 13 15 0 18 -17 20 -23 3 -5
-17 -57 10 -57 29 0 8 -4 11 -10 8 -17 -10 -11 32 6 46 14 11 18 11 29 -4 7
-9 23 -17 36 -16 15 0 19 3 9 6 -8 3 -17 9 -20 12 -3 4 -18 12 -34 19 -22 10
-27 18 -24 37 5 24 -12 35 -55 35 -10 0 -27 9 -39 20 -19 17 -19 20 -5 20 11
0 17 8 17 24 0 15 7 26 20 29 11 3 20 10 20 16 0 17 -28 13 -38 -5 -8 -14 -12
-14 -30 -3 -23 15 -28 34 -12 44 6 3 7 17 4 30 -3 12 -1 26 5 29 6 4 2 19 -11
41 -11 20 -17 42 -14 50 3 8 1 15 -5 15 -6 0 -7 5 -3 11 3 6 -3 24 -15 39 -11
16 -18 36 -15 44 4 10 -1 18 -12 23 -11 3 -21 9 -24 12 -3 4 -17 12 -32 18
-14 6 -26 18 -25 25 1 35 -4 48 -21 48 -11 0 -32 11 -48 25 -16 14 -32 25 -36
25 -5 0 -8 9 -8 19 0 14 5 18 19 14 22 -6 34 9 25 31 -6 15 -8 15 -19 -1 -12
-15 -14 -16 -19 -3 -2 8 -4 26 -3 40 1 17 -4 26 -17 28 -14 3 -17 0 -13 -12 8
-20 -10 -31 -28 -16 -8 7 -22 10 -30 6 -9 -3 -25 3 -36 13 l-21 19 25 17 c17
11 24 22 20 32 -5 12 -2 15 10 10 9 -3 17 -3 18 1 0 4 2 16 4 26 2 11 -4 25
-13 32 -13 10 -14 15 -5 25 10 10 14 9 19 -4 3 -9 13 -17 21 -17 10 0 13 6 9
15 -3 8 -9 22 -12 30 -4 10 0 15 10 15 8 0 20 9 26 20 8 15 6 24 -7 40 -10 11
-24 20 -32 20 -10 0 -12 9 -8 36 5 28 1 44 -15 67 -29 40 -117 76 -93 38 3 -6
11 -9 16 -6 5 4 9 -1 9 -9 0 -22 -17 -28 -41 -15 -19 10 -26 7 -55 -25 -40
-44 -43 -59 -9 -50 21 5 25 3 25 -15 0 -21 4 -23 53 -23 34 -1 34 -9 0 -30
-26 -16 -28 -15 -84 24 -48 34 -57 46 -57 70 1 23 9 34 39 51 22 12 39 28 39
35 0 6 7 12 15 12 20 0 36 32 24 51 -7 11 -9 10 -9 -6 -1 -19 -1 -19 -15 -2
-7 11 -11 26 -8 35 4 10 2 13 -5 8 -7 -4 -19 -1 -27 8 -19 19 -19 27 0 20 8
-4 15 -1 15 5 0 6 8 19 18 29 14 14 24 17 42 10 13 -5 36 -6 52 -3 17 4 28 2
28 -4 0 -6 4 -11 9 -11 4 0 6 12 3 26 -6 32 13 46 50 38 23 -4 27 -1 33 24 7
35 43 50 61 27 6 -8 18 -15 27 -15 10 0 19 -11 23 -27 10 -50 13 -53 41 -52
15 0 22 3 16 6 -24 9 -12 73 13 73 7 0 27 8 42 18 l29 17 -22 17 c-22 17 -24
16 -38 -5 -12 -16 -16 -18 -16 -7 -1 9 6 25 14 37 13 19 13 22 -1 27 -10 4
-22 -1 -30 -11 -17 -23 -18 -1 -1 30 6 12 13 24 14 25 1 2 10 -1 20 -6 14 -9
20 -6 29 16 l12 27 7 -32 c4 -18 11 -33 16 -33 8 0 13 15 10 33 0 4 6 7 14 7
8 0 15 7 15 15 0 9 -9 15 -23 15 -19 0 -67 45 -67 64 0 2 23 4 51 3 35 -2 55
-8 64 -20 13 -18 41 -25 30 -7 -3 5 3 18 15 30 11 11 20 26 20 33 -1 7 -6 5
-14 -5 -18 -24 -46 -23 -46 1 0 18 38 51 58 51 6 0 12 -9 15 -20 6 -23 27 -27
27 -6 0 8 7 16 15 20 8 3 15 12 15 21 0 8 -7 15 -15 15 -8 0 -15 -7 -15 -15 0
-18 -26 -20 -36 -3 -4 6 2 18 12 26 13 10 15 16 7 19 -14 5 -18 33 -5 33 4 0
15 -9 25 -20 18 -22 33 -25 41 -11 3 5 -1 11 -9 15 -8 3 -15 10 -15 16 0 16
29 12 51 -9 17 -16 18 -19 4 -31 -8 -7 -15 -17 -15 -23 0 -5 -7 -15 -16 -21
-14 -11 -14 -13 0 -25 13 -11 17 -9 28 15 15 37 56 74 80 74 10 0 18 5 18 10
0 16 -30 24 -43 11 -16 -16 -27 -14 -27 7 0 23 45 45 72 36 17 -5 19 -3 13 16
-6 19 -4 21 14 15 12 -4 27 -2 34 3 7 6 26 12 42 14 26 3 30 0 30 -22 0 -18
-5 -25 -19 -25 -27 0 -31 -22 -5 -30 14 -5 25 -2 31 6 6 9 7 2 3 -21 -7 -33
-6 -34 9 -15 16 20 16 20 31 1 11 -15 18 -17 26 -9 13 13 4 33 -16 33 -14 0
-27 24 -18 34 12 11 25 6 20 -8 -3 -8 2 -16 12 -19 10 -2 18 1 18 7 -1 39 5
54 24 59 12 3 18 10 15 16 -3 5 2 12 11 14 10 3 19 5 21 6 2 0 1 -3 -2 -8z
m-1296 -16 c0 -8 -7 -15 -15 -15 -8 0 -15 7 -15 15 0 8 7 15 15 15 8 0 15 -7
15 -15z m60 -1 c0 -9 -5 -14 -12 -12 -18 6 -21 28 -4 28 9 0 16 -7 16 -16z
m-880 -11 c0 -5 3 -18 6 -30 5 -19 2 -23 -16 -23 -13 0 -24 -8 -27 -20 -3 -11
-12 -20 -19 -20 -8 0 -14 -6 -14 -14 0 -8 -3 -21 -6 -30 -9 -23 26 -34 38 -13
10 18 48 23 48 7 0 -6 -7 -13 -15 -16 -12 -5 -13 -10 -4 -20 9 -12 6 -13 -18
-8 -22 4 -32 2 -36 -10 -8 -20 -47 -21 -47 -1 0 8 -10 23 -22 35 -12 11 -19
22 -16 25 3 3 13 -1 22 -10 21 -22 43 -9 23 13 -24 29 -28 52 -9 58 48 16 63
28 58 50 -3 11 -3 24 1 28 9 9 53 8 53 -1z m718 -18 c28 0 33 -15 8 -29 -14
-8 -20 -8 -23 2 -3 6 -16 12 -29 12 -22 0 -24 2 -13 22 10 18 13 19 23 7 6 -8
21 -14 34 -14z m334 10 c0 -5 -5 -11 -11 -13 -6 -2 -11 4 -11 13 0 9 5 15 11
13 6 -2 11 -8 11 -13z m-719 -32 c-16 -24 -32 -22 -50 6 -11 17 -8 18 26 17
37 -1 38 -1 24 -23z m-715 -1 c2 -7 -3 -12 -12 -12 -9 0 -16 7 -16 16 0 17 22
14 28 -4z m461 2 c2 -2 2 -7 -2 -10 -3 -3 -16 2 -29 11 l-23 17 25 -7 c14 -4
27 -9 29 -11z m1251 -4 c0 -5 -4 -10 -10 -10 -5 0 -10 5 -10 10 0 6 5 10 10
10 6 0 10 -4 10 -10z m-1640 -10 c0 -5 -4 -10 -10 -10 -5 0 -10 5 -10 10 0 6
5 10 10 10 6 0 10 -4 10 -10z m960 -20 c0 -11 -7 -20 -15 -20 -8 0 -15 9 -15
20 0 11 7 20 15 20 8 0 15 -9 15 -20z m206 -7 c-10 -10 -19 5 -10 18 6 11 8
11 12 0 2 -7 1 -15 -2 -18z m-1071 -14 c9 -26 2 -33 -24 -24 -12 3 -21 15 -21
26 0 26 37 25 45 -2z m1145 0 c0 -5 -7 -9 -15 -9 -9 0 -12 6 -9 15 6 15 24 11
24 -6z m-312 -21 c-6 -18 -28 -21 -28 -4 0 9 7 16 16 16 9 0 14 -5 12 -12z
m-888 -13 c0 -8 -7 -15 -15 -15 -16 0 -20 12 -8 23 11 12 23 8 23 -8z m330 0
c0 -8 -6 -15 -14 -15 -17 0 -28 14 -19 24 12 12 33 6 33 -9z m2230 0 c0 -8 -7
-15 -15 -15 -8 0 -15 7 -15 15 0 8 7 15 15 15 8 0 15 -7 15 -15z m-2470 -4 c0
-6 -4 -13 -10 -16 -5 -3 -10 1 -10 9 0 9 5 16 10 16 6 0 10 -4 10 -9z m1723
-30 c-21 -26 -33 -27 -33 -3 0 17 42 44 48 30 2 -3 -5 -16 -15 -27z m-1973 -1
c0 -5 -7 -10 -15 -10 -8 0 -15 5 -15 10 0 6 7 10 15 10 8 0 15 -4 15 -10z
m518 -8 c2 -7 -3 -12 -12 -12 -9 0 -16 7 -16 16 0 17 22 14 28 -4z m950 -20
c3 -9 -2 -13 -14 -10 -9 1 -19 9 -22 16 -3 9 2 13 14 10 9 -1 19 -9 22 -16z
m222 3 c0 -8 -6 -15 -14 -15 -17 0 -28 14 -19 24 12 12 33 6 33 -9z m920 6 c0
-11 -29 -35 -35 -29 -10 9 7 38 21 38 8 0 14 -4 14 -9z m387 -17 c-9 -9 -28 6
-21 18 4 6 10 6 17 -1 6 -6 8 -13 4 -17z m-2827 -10 c0 -16 -16 -19 -25 -4 -8
13 4 32 16 25 5 -4 9 -13 9 -21z m-160 -4 c0 -5 -2 -10 -4 -10 -3 0 -8 5 -11
10 -3 6 -1 10 4 10 6 0 11 -4 11 -10z m440 1 c0 -6 -4 -13 -10 -16 -5 -3 -10
1 -10 9 0 9 5 16 10 16 6 0 10 -4 10 -9z m1157 -17 c8 -21 -13 -42 -28 -27
-13 13 -5 43 11 43 6 0 13 -7 17 -16z m-1347 -9 c0 -8 -7 -15 -15 -15 -8 0
-15 7 -15 15 0 8 7 15 15 15 8 0 15 -7 15 -15z m1463 -36 c4 -15 1 -19 -11
-17 -21 4 -29 38 -9 38 8 0 17 -9 20 -21z m1147 11 c0 -5 -4 -10 -10 -10 -5 0
-10 5 -10 10 0 6 5 10 10 10 6 0 10 -4 10 -10z m-1647 -22 c-13 -12 -26 -19
-29 -15 -4 4 1 14 12 22 29 22 41 18 17 -7z m155 -6 c2 -7 -3 -12 -12 -12 -9
0 -16 7 -16 16 0 17 22 14 28 -4z m2627 -7 c0 -22 -31 -33 -47 -17 -17 17 -1
44 24 40 15 -2 23 -10 23 -23z m-3745 5 c0 -5 -4 -10 -10 -10 -5 0 -10 5 -10
10 0 6 5 10 10 10 6 0 10 -4 10 -10z m-100 -15 c0 -8 -6 -15 -14 -15 -17 0
-28 14 -19 24 12 12 33 6 33 -9z m1496 -40 c-22 -34 -21 -76 3 -82 24 -6 35
-32 18 -39 -19 -7 -70 14 -62 25 3 5 1 28 -3 49 -8 33 -6 42 9 56 11 9 24 16
29 16 6 0 10 6 11 13 0 9 2 9 6 -1 3 -7 -2 -24 -11 -37z m142 26 c3 -8 -1 -12
-9 -9 -7 2 -15 10 -17 17 -3 8 1 12 9 9 7 -2 15 -10 17 -17z m60 -9 c2 -14 -2
-22 -12 -22 -19 0 -28 14 -20 35 9 21 28 14 32 -13z m-683 8 c3 -5 1 -10 -4
-10 -6 0 -11 5 -11 10 0 6 2 10 4 10 3 0 8 -4 11 -10z m519 -67 l-17 -27 -9
24 c-7 20 -5 28 14 42 20 15 23 15 26 2 2 -8 -4 -27 -14 -41z m86 42 c0 -8 -9
-15 -20 -15 -11 0 -20 7 -20 15 0 8 9 15 20 15 11 0 20 -7 20 -15z m-188 -28
c12 -19 10 -22 -22 -23 -18 -1 -30 4 -30 12 0 7 -6 14 -12 17 -7 2 3 4 22 5
19 0 38 -5 42 -11z m-85 -14 c4 -10 11 -21 17 -25 8 -6 6 -11 -4 -17 -19 -13
-40 5 -40 35 0 28 18 32 27 7z m-1517 -8 c0 -8 -7 -15 -15 -15 -8 0 -15 7 -15
15 0 8 7 15 15 15 8 0 15 -7 15 -15z m150 0 c0 -8 -4 -15 -10 -15 -5 0 -10 7
-10 15 0 8 5 15 10 15 6 0 10 -7 10 -15z m1640 -11 c0 -8 -4 -12 -10 -9 -5 3
-10 10 -10 16 0 5 5 9 10 9 6 0 10 -7 10 -16z m-340 -8 c0 -8 -4 -17 -9 -21
-12 -7 -24 12 -16 25 9 15 25 12 25 -4z m-1599 -9 c-1 -12 -15 -9 -19 4 -3 6
1 10 8 8 6 -3 11 -8 11 -12z m1745 -12 c-2 -7 9 -26 25 -43 25 -26 27 -31 14
-42 -12 -10 -15 -9 -15 8 0 13 -11 25 -30 34 -31 13 -38 36 -18 56 14 14 31 5
24 -13z m-287 -12 c-4 -24 4 -35 34 -48 29 -12 30 -14 12 -21 -11 -4 -26 -14
-33 -21 -7 -7 -24 -13 -38 -13 -21 0 -24 5 -24 36 0 25 7 43 22 55 23 21 29
23 27 12z m501 -24 c0 -5 -7 -9 -15 -9 -15 0 -20 12 -9 23 8 8 24 -1 24 -14z
m-1520 7 c0 -11 -19 -15 -25 -6 -3 5 1 10 9 10 9 0 16 -2 16 -4z m2900 -17 c0
-5 -7 -9 -15 -9 -15 0 -20 12 -9 23 8 8 24 -1 24 -14z m-2170 -10 c0 -5 -7 -9
-15 -9 -15 0 -20 12 -9 23 8 8 24 -1 24 -14z m-80 -51 c0 -24 -6 -23 -26 7
-19 30 -8 58 13 30 7 -11 13 -27 13 -37z m600 32 c0 -5 -2 -10 -4 -10 -3 0 -8
5 -11 10 -3 6 -1 10 4 10 6 0 11 -4 11 -10z m270 -9 c0 -11 -4 -23 -10 -26 -6
-4 -10 5 -10 19 0 14 5 26 10 26 6 0 10 -9 10 -19z m-760 -20 c0 -6 -4 -13
-10 -16 -5 -3 -10 1 -10 9 0 9 5 16 10 16 6 0 10 -4 10 -9z m210 -32 c0 -5 -7
-9 -15 -9 -15 0 -20 12 -9 23 8 8 24 -1 24 -14z m-940 1 c0 -5 -2 -10 -4 -10
-3 0 -8 5 -11 10 -3 6 -1 10 4 10 6 0 11 -4 11 -10z m630 -16 c0 -8 -5 -12
-10 -9 -6 4 -8 11 -5 16 9 14 15 11 15 -7z m-460 -4 c0 -5 -7 -10 -15 -10 -8
0 -15 5 -15 10 0 6 7 10 15 10 8 0 15 -4 15 -10z m810 -28 c0 -13 -12 -22 -22
-16 -10 6 -1 24 13 24 5 0 9 -4 9 -8z m1720 -1 c0 -6 -4 -13 -10 -16 -5 -3
-10 1 -10 9 0 9 5 16 10 16 6 0 10 -4 10 -9z m-2340 -31 c0 -5 -4 -10 -10 -10
-5 0 -10 5 -10 10 0 6 5 10 10 10 6 0 10 -4 10 -10z m400 -10 c0 -5 -4 -10
-10 -10 -5 0 -10 5 -10 10 0 6 5 10 10 10 6 0 10 -4 10 -10z m310 -10 c0 -22
-12 -25 -41 -10 -28 16 -23 30 11 30 23 0 30 -4 30 -20z m-1344 -17 c-10 -10
-19 5 -10 18 6 11 8 11 12 0 2 -7 1 -15 -2 -18z m1212 -6 c2 -10 -3 -17 -11
-17 -16 0 -30 24 -19 34 10 10 27 1 30 -17z m-908 9 c0 -2 -7 -7 -16 -10 -8
-3 -12 -2 -9 4 6 10 25 14 25 6z m2690 0 c0 -3 -4 -8 -10 -11 -5 -3 -10 -1
-10 4 0 6 5 11 10 11 6 0 10 -2 10 -4z m-2074 -53 c-10 -10 -19 5 -10 18 6 11
8 11 12 0 2 -7 1 -15 -2 -18z m-1011 7 c3 -5 2 -10 -4 -10 -5 0 -13 5 -16 10
-3 6 -2 10 4 10 5 0 13 -4 16 -10z m495 -5 c0 -8 -7 -15 -15 -15 -8 0 -15 7
-15 15 0 8 7 15 15 15 8 0 15 -7 15 -15z m790 -5 c0 -5 -4 -10 -10 -10 -5 0
-10 5 -10 10 0 6 5 10 10 10 6 0 10 -4 10 -10z m-1146 -36 c9 -3 16 -12 16
-20 0 -8 11 -14 26 -14 33 0 57 -29 42 -48 -17 -20 6 -39 27 -22 22 18 19 4
-7 -30 -17 -24 -19 -32 -8 -45 14 -17 3 -20 -20 -5 -10 6 -15 26 -15 57 0 36
-4 48 -15 48 -8 0 -19 6 -23 13 -4 6 -14 12 -22 12 -17 0 -34 30 -28 48 5 14
6 14 27 6z m1186 -9 c7 -9 11 -18 8 -20 -9 -10 -38 7 -38 21 0 18 14 18 30 -1z
m-1476 -1 c20 -8 21 -43 1 -51 -19 -7 -22 -5 -30 30 -7 28 -1 32 29 21z m736
-9 c0 -8 -7 -15 -15 -15 -8 0 -15 7 -15 15 0 8 7 15 15 15 8 0 15 -7 15 -15z
m58 -14 c3 -16 -1 -22 -10 -19 -7 3 -15 15 -16 27 -3 16 1 22 10 19 7 -3 15
-15 16 -27z m522 11 c0 -11 -37 -32 -44 -25 -15 15 -4 33 19 33 14 0 25 -3 25
-8z m-1230 -11 c0 -6 -4 -13 -10 -16 -5 -3 -10 1 -10 9 0 9 5 16 10 16 6 0 10
-4 10 -9z m3358 -12 c7 -12 11 -23 9 -26 -6 -6 -47 28 -47 39 0 16 26 7 38
-13z m-2295 -23 c7 -16 -1 -26 -20 -26 -7 0 -13 9 -13 20 0 23 25 27 33 6z
m116 -13 l20 -28 16 23 c17 23 47 30 43 10 -2 -8 10 -14 30 -16 22 -2 32 -8
32 -20 0 -13 15 -21 58 -30 31 -7 71 -14 87 -16 17 -2 34 -4 39 -4 19 -4 -36
-50 -66 -56 -25 -5 -36 -1 -61 24 -17 17 -36 30 -42 30 -6 0 -18 9 -28 20 -20
24 -43 26 -63 5 -21 -21 -34 -19 -34 5 0 13 -5 18 -15 14 -8 -4 -15 -11 -15
-18 0 -6 -9 -17 -20 -24 -17 -11 -20 -10 -20 7 0 10 7 24 15 31 13 11 13 15 3
21 -19 13 -28 11 -28 -6 0 -8 -7 -15 -15 -15 -8 0 -15 5 -15 10 0 6 7 13 15
16 8 4 15 15 15 25 0 28 25 23 49 -8z m-705 -7 c-6 -15 -34 -23 -34 -10 0 8
34 34 38 30 1 -2 0 -11 -4 -20z m124 12 c15 -15 56 -22 47 -8 -3 5 1 10 10 10
9 0 13 -5 10 -10 -3 -6 1 -13 9 -16 16 -6 22 -39 8 -47 -4 -3 -19 -3 -35 0
-18 4 -27 12 -27 24 0 11 -4 19 -10 19 -5 0 -10 -9 -10 -20 0 -29 -34 -25 -48
5 -19 41 -17 44 29 54 3 0 10 -4 17 -11z m-538 -19 c0 -5 -7 -9 -15 -9 -15 0
-20 12 -9 23 8 8 24 -1 24 -14z m1317 15 c-3 -3 -12 -4 -19 -1 -8 3 -5 6 6 6
11 1 17 -2 13 -5z m-1152 -24 c4 -6 1 -18 -6 -26 -10 -12 -7 -20 19 -47 18
-18 32 -36 32 -39 0 -11 -77 -14 -86 -3 -5 5 -15 26 -21 45 -11 29 -11 36 2
43 8 4 15 15 15 22 0 17 36 20 45 5z m-405 -26 c0 -8 -4 -14 -10 -14 -5 0 -10
2 -10 4 0 2 -3 12 -6 20 -5 12 -2 15 10 10 9 -3 16 -12 16 -20z m958 14 c-6
-18 -28 -21 -28 -4 0 9 7 16 16 16 9 0 14 -5 12 -12z m102 4 c0 -5 -6 -16 -13
-26 -13 -18 -14 -18 -20 -2 -4 10 -5 22 -1 27 7 11 34 12 34 1z m-500 -12 c0
-5 -5 -10 -11 -10 -5 0 -7 5 -4 10 3 6 8 10 11 10 2 0 4 -4 4 -10z m650 0 c0
-5 -4 -10 -10 -10 -5 0 -10 5 -10 10 0 6 5 10 10 10 6 0 10 -4 10 -10z m-498
-28 c9 -32 -9 -62 -37 -62 -22 0 -25 4 -25 36 0 28 3 35 15 31 8 -4 17 -2 20
3 10 16 22 12 27 -8z m-602 -8 c0 -9 -5 -14 -12 -12 -18 6 -21 28 -4 28 9 0
16 -7 16 -16z m220 -14 c0 -5 -5 -10 -11 -10 -5 0 -7 5 -4 10 3 6 8 10 11 10
2 0 4 -4 4 -10z m692 -5 c0 -5 -5 -11 -11 -13 -6 -2 -11 4 -11 13 0 9 5 15 11
13 6 -2 11 -8 11 -13z m418 0 c0 -8 -7 -15 -15 -15 -8 0 -15 7 -15 15 0 8 7
15 15 15 8 0 15 -7 15 -15z m-1270 -4 c0 -6 -4 -13 -10 -16 -5 -3 -10 1 -10 9
0 9 5 16 10 16 6 0 10 -4 10 -9z m80 -16 c0 -8 -4 -15 -9 -15 -13 0 -22 16
-14 24 11 11 23 6 23 -9z m1122 -17 c-15 -15 -26 -4 -18 18 5 13 9 15 18 6 9
-9 9 -15 0 -24z m-359 10 c45 -21 30 -70 -19 -60 -25 4 -42 41 -29 61 8 14 15
14 48 -1z m57 2 c0 -5 -4 -10 -10 -10 -5 0 -10 5 -10 10 0 6 5 10 10 10 6 0
10 -4 10 -10z m446 -22 c-1 -16 7 -24 31 -30 38 -10 35 -38 -3 -38 -13 0 -24
-4 -24 -10 0 -5 -11 -10 -25 -10 -14 0 -30 -9 -37 -20 -30 -47 -47 -4 -20 47
15 28 15 33 -2 33 -15 0 -28 24 -19 34 13 13 34 5 41 -15 8 -21 9 -21 25 5 21
32 34 33 33 4z m-1546 -13 c0 -8 -4 -15 -9 -15 -13 0 -22 16 -14 24 11 11 23
6 23 -9z m1430 -26 c0 -5 -7 -9 -15 -9 -15 0 -20 12 -9 23 8 8 24 -1 24 -14z
m-1150 -9 c0 -5 -4 -10 -9 -10 -6 0 -13 5 -16 10 -3 6 1 10 9 10 9 0 16 -4 16
-10z m370 6 c0 -2 -3 -11 -6 -20 -9 -23 -34 -20 -34 4 0 13 7 20 20 20 11 0
20 -2 20 -4z m358 -28 c2 -9 -4 -18 -13 -21 -11 -5 -15 0 -15 19 0 28 23 29
28 2z m292 6 c0 -8 -4 -12 -10 -9 -5 3 -10 10 -10 16 0 5 5 9 10 9 6 0 10 -7
10 -16z m-1200 -18 c0 -15 -28 -42 -36 -34 -2 3 0 17 6 32 10 27 30 28 30 2z
m-171 0 c9 -11 9 -16 0 -21 -10 -7 -28 10 -29 28 0 12 17 8 29 -7z m121 -6 c0
-5 -4 -10 -10 -10 -5 0 -10 5 -10 10 0 6 5 10 10 10 6 0 10 -4 10 -10z m230
-25 c0 -8 -5 -15 -11 -15 -6 0 -8 -9 -5 -20 3 -11 8 -28 11 -38 4 -12 -7 -32
-30 -56 -51 -55 -46 -80 6 -30 l27 26 7 -32 c4 -17 13 -34 21 -37 19 -7 18
-23 -1 -23 -8 0 -15 6 -15 14 0 7 -7 19 -15 26 -12 10 -17 7 -26 -14 -7 -14
-15 -26 -18 -26 -3 0 -12 -4 -19 -9 -12 -7 -12 -12 0 -31 10 -18 11 -23 0 -27
-9 -4 -10 -9 -2 -18 8 -10 4 -14 -17 -20 -15 -3 -31 -12 -35 -18 -5 -8 -14 -7
-32 3 -27 14 -35 30 -15 30 6 0 17 7 25 15 8 8 23 19 32 24 15 8 14 11 -7 29
-29 22 -20 46 14 39 21 -3 23 0 23 27 -1 17 -8 36 -17 43 -14 10 -14 13 3 32
19 21 19 22 1 35 -27 20 -8 69 31 77 16 4 25 7 21 8 -5 0 -5 6 -2 11 9 14 45
-7 45 -25z m120 15 c0 -5 -4 -10 -10 -10 -5 0 -10 5 -10 10 0 6 5 10 10 10 6
0 10 -4 10 -10z m-1260 -21 c0 -5 -7 -9 -15 -9 -15 0 -20 12 -9 23 8 8 24 -1
24 -14z m2664 -14 c6 -16 -2 -45 -13 -45 -3 0 -6 14 -6 30 0 32 9 40 19 15z
m-454 -10 c0 -8 -4 -15 -10 -15 -5 0 -10 7 -10 15 0 8 5 15 10 15 6 0 10 -7
10 -15z m70 5 c0 -5 -5 -10 -11 -10 -5 0 -7 5 -4 10 3 6 8 10 11 10 2 0 4 -4
4 -10z m2326 -4 c3 -8 2 -21 -3 -30 -7 -12 -11 -12 -27 -1 -11 8 -16 21 -13
30 8 19 36 20 43 1z m-3446 -17 c0 -6 -4 -7 -10 -4 -5 3 -10 11 -10 16 0 6 5
7 10 4 6 -3 10 -11 10 -16z m110 5 c0 -8 -5 -12 -10 -9 -6 4 -8 11 -5 16 9 14
15 11 15 -7z m-572 -31 c-4 -22 -22 -20 -26 1 -2 10 3 16 13 16 10 0 15 -7 13
-17z m319 11 c-3 -3 -12 -4 -19 -1 -8 3 -5 6 6 6 11 1 17 -2 13 -5z m343 -9
c0 -8 -7 -15 -15 -15 -16 0 -20 12 -8 23 11 12 23 8 23 -8z m750 -5 c0 -11 -7
-20 -15 -20 -8 0 -15 9 -15 20 0 11 7 20 15 20 8 0 15 -9 15 -20z m-859 -3
c-1 -12 -15 -9 -19 4 -3 6 1 10 8 8 6 -3 11 -8 11 -12z m233 -29 c6 -34 5 -38
-14 -38 -19 0 -21 4 -15 33 13 59 19 60 29 5z m-275 18 c9 -11 7 -15 -11 -19
-29 -8 -42 1 -27 19 14 18 23 18 38 0z m1489 -3 c2 -8 -5 -13 -17 -13 -12 0
-21 6 -21 16 0 18 31 15 38 -3z m-1744 -2 c23 -9 12 -16 -23 -16 -13 0 -26 6
-28 13 -5 13 21 15 51 3z m449 -6 c7 -16 -8 -29 -23 -20 -15 9 -12 35 4 35 8
0 16 -7 19 -15z m417 11 c0 -3 -4 -8 -10 -11 -5 -3 -10 -1 -10 4 0 6 5 11 10
11 6 0 10 -2 10 -4z m2935 -26 c0 -22 -29 -18 -33 3 -3 14 1 18 15 15 10 -2
18 -10 18 -18z m-3989 -17 c-10 -10 -19 5 -10 18 6 11 8 11 12 0 2 -7 1 -15
-2 -18z m844 17 c0 -5 -4 -10 -10 -10 -5 0 -10 5 -10 10 0 6 5 10 10 10 6 0
10 -4 10 -10z m-729 -43 c-11 -28 -25 -34 -36 -16 -4 5 4 20 17 32 27 26 33
21 19 -16z m309 18 c0 -9 -6 -12 -15 -9 -8 4 -12 10 -9 15 8 14 24 10 24 -6z
m190 -16 c0 -5 -4 -9 -10 -9 -5 0 -10 7 -10 16 0 8 5 12 10 9 6 -3 10 -10 10
-16z m1200 12 c0 -16 -30 -33 -46 -27 -13 5 -14 9 -4 21 13 16 50 21 50 6z
m-1587 -34 c13 -39 2 -45 -28 -17 -31 29 -33 53 -3 48 13 -2 25 -14 31 -31z
m-193 13 c0 -5 -4 -10 -10 -10 -5 0 -10 5 -10 10 0 6 5 10 10 10 6 0 10 -4 10
-10z m460 -5 c7 -8 19 -15 26 -15 8 0 14 -7 14 -15 0 -8 -8 -15 -18 -15 -22 0
-65 38 -57 51 9 13 21 11 35 -6z m260 6 c0 -6 -4 -13 -10 -16 -5 -3 -10 1 -10
9 0 9 5 16 10 16 6 0 10 -4 10 -9z m-795 -11 c3 -5 1 -10 -4 -10 -6 0 -11 5
-11 10 0 6 2 10 4 10 3 0 8 -4 11 -10z m726 -23 c-13 -13 -26 -3 -16 12 3 6
11 8 17 5 6 -4 6 -10 -1 -17z m129 3 c0 -23 -25 -27 -33 -6 -7 16 1 26 20 26
7 0 13 -9 13 -20z m-1250 -16 c0 -8 -4 -12 -10 -9 -5 3 -10 10 -10 16 0 5 5 9
10 9 6 0 10 -7 10 -16z m320 -15 c0 -5 -4 -9 -10 -9 -5 0 -10 7 -10 16 0 8 5
12 10 9 6 -3 10 -10 10 -16z m50 11 c0 -5 -4 -10 -10 -10 -5 0 -10 5 -10 10 0
6 5 10 10 10 6 0 10 -4 10 -10z m920 0 c0 -5 -4 -10 -10 -10 -5 0 -10 5 -10
10 0 6 5 10 10 10 6 0 10 -4 10 -10z m-655 -10 c-3 -5 -10 -10 -16 -10 -5 0
-9 5 -9 10 0 6 7 10 16 10 8 0 12 -4 9 -10z m-155 -15 c13 -16 3 -20 -24 -9
-9 3 -13 10 -10 15 8 13 20 11 34 -6z m615 -12 c-10 -41 -45 -60 -45 -24 0 10
10 26 23 34 30 21 30 21 22 -10z m135 7 c0 -5 -4 -10 -10 -10 -5 0 -10 5 -10
10 0 6 5 10 10 10 6 0 10 -4 10 -10z m-790 -22 c36 -26 40 -51 8 -46 -13 2
-22 9 -21 15 1 6 -4 17 -12 23 -15 12 -20 30 -10 30 3 0 19 -10 35 -22z m460
12 c0 -5 -4 -10 -10 -10 -5 0 -10 5 -10 10 0 6 5 10 10 10 6 0 10 -4 10 -10z
m114 -6 c7 -19 -1 -34 -18 -34 -14 0 -28 35 -18 44 11 11 30 6 36 -10z m3327
-6 c7 -13 12 -38 10 -55 -1 -18 3 -33 9 -33 5 0 10 -6 10 -14 0 -8 7 -16 15
-20 8 -3 15 -17 15 -31 0 -16 -6 -25 -15 -25 -8 0 -15 6 -15 13 0 7 -6 19 -12
25 -10 10 -16 8 -30 -10 l-18 -23 0 23 c0 17 -6 22 -28 22 -16 0 -39 10 -52
23 l-25 22 27 3 c21 2 32 13 45 40 31 68 44 77 64 40z m-4311 2 c0 -5 -4 -10
-10 -10 -5 0 -10 5 -10 10 0 6 5 10 10 10 6 0 10 -4 10 -10z m88 -13 c2 -12
-3 -17 -17 -17 -12 0 -21 6 -21 13 0 31 32 34 38 4z m146 2 c-3 -5 -10 -7 -15
-3 -5 3 -7 10 -3 15 3 5 10 7 15 3 5 -3 7 -10 3 -15z m396 6 c0 -8 -4 -15 -10
-15 -5 0 -10 7 -10 15 0 8 5 15 10 15 6 0 10 -7 10 -15z m-59 -5 c19 -11 27
-40 10 -40 -23 0 -41 14 -41 31 0 22 4 23 31 9z m199 -5 c0 -8 -4 -15 -10 -15
-5 0 -10 7 -10 15 0 8 5 15 10 15 6 0 10 -7 10 -15z m381 -8 c-13 -13 -26 -3
-16 12 3 6 11 8 17 5 6 -4 6 -10 -1 -17z m106 -32 c26 -41 31 -44 61 -39 20 4
32 2 32 -5 0 -6 -4 -11 -10 -11 -5 0 -10 -4 -10 -10 0 -5 11 -10 25 -10 18 0
25 -5 25 -20 0 -30 -33 -25 -62 10 l-25 31 -8 -23 c-4 -13 -9 -27 -9 -33 -4
-23 -28 -55 -41 -55 -15 0 -31 -37 -20 -48 4 -4 13 1 20 12 10 14 21 17 40 12
23 -6 26 -4 20 12 -3 13 0 22 10 26 19 7 20 -16 3 -44 -11 -17 -10 -22 2 -30
12 -7 12 -12 2 -22 -10 -10 -14 -8 -18 10 -4 12 -13 22 -20 22 -16 0 -19 -26
-4 -35 15 -9 12 -25 -5 -25 -8 0 -19 -9 -25 -20 -10 -19 -13 -19 -40 -5 -49
25 -77 17 -47 -14 10 -11 10 -14 0 -18 -7 -3 -13 -16 -13 -29 0 -14 -6 -24
-14 -24 -15 0 -11 46 5 56 15 9 10 24 -9 24 -30 0 -54 37 -47 72 4 18 3 28 -2
25 -5 -3 -14 3 -21 13 -9 14 -8 19 3 24 8 3 17 1 20 -4 4 -6 17 -10 30 -10 29
0 43 -19 24 -31 -9 -6 -10 -9 -2 -9 6 0 22 14 34 31 18 26 19 33 8 40 -9 5
-16 4 -19 -4 -7 -18 -60 -19 -60 -1 0 8 -6 14 -12 14 -9 0 -8 3 2 9 8 6 27 7
42 4 17 -3 28 -1 28 6 0 6 -14 11 -31 11 -26 0 -29 3 -24 21 5 14 1 25 -11 33
-9 7 -14 18 -10 24 9 14 46 16 46 3 0 -5 9 -12 19 -16 11 -3 23 -16 26 -28 13
-45 28 -77 36 -77 14 0 10 27 -6 43 -8 8 -11 17 -8 21 4 3 -4 24 -16 46 -12
22 -19 40 -16 40 18 0 45 -23 45 -38 0 -16 44 -45 53 -35 6 5 -23 64 -39 81
-7 6 -17 12 -23 12 -12 0 -15 13 -4 23 17 18 44 3 70 -38z m-983 20 c-4 -8
-10 -12 -15 -9 -11 6 -2 24 11 24 5 0 7 -7 4 -15z m66 5 c0 -5 -5 -10 -11 -10
-5 0 -7 5 -4 10 3 6 8 10 11 10 2 0 4 -4 4 -10z m1010 -5 c0 -8 -4 -15 -9 -15
-13 0 -22 16 -14 24 11 11 23 6 23 -9z m-430 -5 c0 -5 -4 -10 -9 -10 -6 0 -13
5 -16 10 -3 6 1 10 9 10 9 0 16 -4 16 -10z m195 0 c-3 -5 -10 -10 -16 -10 -5
0 -9 5 -9 10 0 6 7 10 16 10 8 0 12 -4 9 -10z m-794 -30 c20 0 37 -25 25 -38
-4 -3 -16 -1 -27 6 -17 11 -26 11 -50 0 -24 -11 -29 -19 -29 -47 0 -29 2 -32
15 -21 13 10 15 9 15 -9 0 -11 -5 -21 -12 -21 -9 0 -9 -3 0 -12 7 -7 12 -22
12 -34 0 -12 6 -25 13 -28 6 -3 1 -3 -11 0 -22 5 -23 4 -12 -16 11 -21 10 -22
-14 -18 -31 6 -32 1 -5 -32 11 -14 17 -19 13 -11 -5 9 -3 12 4 7 16 -10 15
-22 -4 -40 -14 -15 -14 -16 5 -16 11 0 31 14 44 32 22 27 28 30 42 18 20 -16
14 -35 -11 -35 -10 0 -20 -8 -22 -18 -2 -11 3 -17 16 -17 15 0 18 -6 14 -30
-3 -24 -1 -30 14 -30 10 0 28 12 39 26 15 19 32 27 58 29 20 1 37 -2 37 -7 0
-4 -7 -8 -15 -8 -25 0 -74 -41 -68 -56 3 -8 11 -14 18 -14 17 0 13 -62 -4 -68
-8 -3 -20 4 -28 14 -13 17 -14 17 -36 -5 -19 -21 -20 -23 -3 -17 12 4 26 0 37
-10 11 -10 19 -12 19 -6 0 7 4 12 9 12 13 0 9 -73 -4 -82 -16 -12 14 -9 36 3
14 7 18 16 14 30 -4 13 -2 19 9 19 10 0 16 9 16 25 0 16 -6 25 -15 25 -18 0
-20 16 -4 26 6 3 15 0 20 -7 4 -8 16 -14 26 -14 22 0 30 -35 12 -49 -8 -6 -14
-20 -14 -31 0 -11 -7 -21 -15 -21 -8 -1 -21 -2 -27 -3 -23 -2 -14 -21 10 -21
19 0 57 -30 57 -46 0 -6 -28 -34 -52 -53 -15 -11 -22 -9 -48 17 -16 17 -30 35
-30 41 0 6 -4 11 -10 11 -5 0 -10 -13 -10 -30 0 -22 5 -30 18 -30 18 0 32 -20
46 -64 4 -12 0 -24 -11 -32 -27 -20 -36 -17 -29 11 9 35 -9 65 -40 65 -13 0
-27 6 -30 14 -3 8 -13 12 -24 9 -25 -7 -35 14 -16 33 9 8 16 20 16 25 0 15
-17 10 -24 -6 -3 -8 -10 -15 -16 -15 -5 0 -10 7 -10 15 0 8 5 15 10 15 6 0 10
9 10 19 0 11 8 21 18 23 11 2 13 6 6 10 -11 8 -29 -7 -62 -51 -21 -27 -42 -22
-42 10 0 12 7 19 20 19 13 0 22 9 26 26 9 33 -19 54 -63 47 -21 -4 -33 -1 -33
6 0 6 -5 11 -11 11 -6 0 -8 -9 -4 -20 4 -11 2 -20 -4 -20 -6 0 -11 7 -11 15 0
8 0 17 0 20 0 9 -40 45 -49 45 -5 0 -13 -9 -16 -21 -10 -29 -31 -17 -27 16 3
28 -11 45 -38 45 -11 0 -11 -3 -2 -12 22 -22 13 -34 -25 -33 -34 0 -38 3 -38
26 0 29 30 69 52 69 7 0 13 11 13 25 0 16 -6 25 -15 25 -8 0 -15 6 -15 14 0 8
7 16 15 20 8 3 15 12 15 20 0 12 -7 14 -30 10 -24 -5 -30 -3 -30 11 0 10 -7
23 -17 30 -22 17 -7 36 23 29 18 -5 24 -2 24 10 0 27 14 18 34 -23 13 -29 29
-43 58 -55 48 -18 73 -10 33 11 l-27 15 27 14 c35 18 35 18 35 -6 0 -11 6 -20
14 -20 20 0 27 27 10 40 -23 20 -16 31 17 25 34 -6 58 14 59 48 0 17 -6 20
-50 18 -14 0 -19 2 -12 5 20 9 14 52 -8 59 -22 7 -26 20 -8 31 6 4 17 -1 23
-10 11 -15 14 -15 28 -2 8 8 17 12 20 9 4 -3 21 10 39 30 23 24 34 31 36 21 2
-8 12 -14 23 -14z m559 15 c0 -8 -7 -15 -15 -15 -8 0 -15 7 -15 15 0 8 7 15
15 15 8 0 15 -7 15 -15z m-500 -5 c0 -5 -2 -10 -4 -10 -3 0 -8 5 -11 10 -3 6
-1 10 4 10 6 0 11 -4 11 -10z m694 -4 c-8 -21 -63 -29 -80 -12 -12 13 -11 15
8 19 51 10 77 7 72 -7z m-1056 -15 c3 -8 -1 -12 -9 -9 -7 2 -15 10 -17 17 -3
8 1 12 9 9 7 -2 15 -10 17 -17z m512 9 c0 -5 -4 -10 -10 -10 -5 0 -10 5 -10
10 0 6 5 10 10 10 6 0 10 -4 10 -10z m-580 -26 c0 -16 -16 -19 -25 -4 -8 13 4
32 16 25 5 -4 9 -13 9 -21z m480 16 c0 -5 -4 -10 -10 -10 -5 0 -10 5 -10 10 0
6 5 10 10 10 6 0 10 -4 10 -10z m340 -5 c7 -8 18 -15 26 -15 17 0 24 -13 16
-27 -5 -8 -19 0 -41 23 -19 19 -29 34 -24 34 6 0 16 -7 23 -15z m-706 -16 c-3
-5 -10 -7 -15 -3 -5 3 -7 10 -3 15 3 5 10 7 15 3 5 -3 7 -10 3 -15z m500 6
c-4 -8 -10 -15 -15 -15 -4 0 -6 7 -3 15 4 8 10 15 15 15 4 0 6 -7 3 -15z m134
-20 c18 -38 15 -55 -9 -55 -17 0 -20 4 -15 24 4 15 1 26 -6 28 -12 4 -3 28 11
28 4 0 13 -11 19 -25z m-61 -2 c2 -6 -5 -14 -16 -18 -12 -3 -21 -15 -21 -25 0
-10 -7 -20 -15 -24 -11 -4 -15 2 -15 20 0 13 7 27 15 30 8 4 15 13 15 21 0 17
31 14 37 -4z m2043 7 c0 -5 -2 -10 -4 -10 -3 0 -8 5 -11 10 -3 6 -1 10 4 10 6
0 11 -4 11 -10z m-2210 -20 c0 -5 -4 -10 -10 -10 -5 0 -10 5 -10 10 0 6 5 10
10 10 6 0 10 -4 10 -10z m45 0 c3 -5 15 -10 26 -10 25 0 25 -27 -1 -35 -11 -4
-18 -11 -15 -16 4 -5 2 -9 -4 -9 -6 0 -8 12 -4 30 4 23 2 30 -11 30 -9 0 -16
5 -16 10 0 6 4 10 9 10 6 0 13 -4 16 -10z m-115 -14 c0 -15 -37 -32 -47 -22
-9 8 17 36 33 36 8 0 14 -6 14 -14z m1160 -1 c0 -8 -4 -15 -10 -15 -5 0 -10 7
-10 15 0 8 5 15 10 15 6 0 10 -7 10 -15z m-1250 -11 c0 -17 -22 -14 -28 4 -2
7 3 12 12 12 9 0 16 -7 16 -16z m590 -6 c27 16 30 15 30 -8 0 -13 -7 -20 -19
-20 -11 0 -23 -9 -26 -20 -3 -11 -15 -20 -26 -20 -10 0 -19 -4 -19 -10 0 -5
10 -10 23 -10 38 0 67 12 67 26 0 18 10 17 34 -1 17 -13 15 -14 -18 -20 -46
-9 -52 -19 -31 -51 9 -14 14 -32 11 -41 -8 -21 11 -53 32 -53 10 0 23 -5 30
-12 7 -7 12 -8 12 -3 0 4 -14 21 -32 37 -17 15 -26 28 -20 28 7 0 12 11 12 25
0 28 12 32 34 10 8 -8 22 -15 31 -15 12 0 16 -6 12 -20 -4 -17 -1 -19 19 -14
23 6 24 4 18 -20 -4 -16 -2 -26 5 -26 6 0 11 -9 11 -20 0 -17 -5 -19 -25 -14
-21 5 -25 3 -25 -17 0 -31 -10 -45 -37 -53 -20 -6 -23 -3 -29 33 -5 32 -11 41
-26 41 -11 0 -31 9 -45 20 -14 11 -32 20 -39 20 -8 0 -14 7 -14 16 0 9 -6 14
-12 11 -7 -2 -12 -13 -10 -25 2 -15 -3 -21 -20 -24 -18 -2 -24 -10 -26 -38 -2
-26 -11 -41 -32 -55 -17 -11 -30 -25 -30 -31 0 -6 -7 -17 -16 -25 -13 -10 -17
-10 -24 2 -7 9 -5 15 4 17 8 2 17 14 20 28 4 13 11 24 17 24 6 0 8 8 4 19 -4
13 5 29 30 52 42 40 43 46 11 61 -32 14 -40 36 -23 62 25 39 29 59 11 52 -11
-4 -15 -2 -11 8 3 8 -1 20 -8 26 -8 7 -12 17 -9 22 4 6 10 6 17 -1 15 -15 27
-14 27 4 0 19 26 20 34 0 3 -8 -2 -19 -12 -24 -32 -18 -5 -22 32 -5 41 20 46
39 15 49 -17 6 -19 9 -8 16 8 5 20 2 32 -9 15 -13 22 -14 37 -4z m115 -5 c6
-17 7 -17 16 0 6 9 14 17 19 17 17 0 11 -30 -10 -52 -22 -24 -34 -18 -44 25
-7 30 8 38 19 10z m-877 -10 c-1 -10 1 -23 5 -30 12 -19 -7 -23 -44 -10 -37
13 -43 20 -36 40 3 9 7 9 19 -1 13 -10 18 -9 28 3 17 20 32 19 28 -2z m330
-13 c7 -11 18 -20 26 -20 18 0 29 -29 17 -44 -6 -7 -6 -17 -1 -26 16 -24 11
-37 -13 -44 -13 -3 -45 -24 -71 -47 -26 -23 -49 -39 -52 -36 -7 7 5 47 14 46
25 -4 22 4 -5 16 -25 10 -33 20 -33 39 0 19 -4 24 -16 19 -14 -5 -15 -3 -5 15
10 19 9 22 -9 22 -11 0 -20 6 -20 14 0 23 22 31 32 12 5 -9 16 -16 23 -16 8 0
15 -7 15 -15 0 -8 7 -15 15 -15 19 0 19 14 0 30 -11 9 -12 17 -4 31 12 24 29
24 36 1 5 -20 43 -48 43 -32 0 5 -5 10 -11 10 -6 0 -9 9 -6 20 3 11 1 20 -4
20 -5 0 -9 5 -9 10 0 17 25 11 38 -10z m-118 0 c0 -5 -4 -10 -10 -10 -5 0 -10
5 -10 10 0 6 5 10 10 10 6 0 10 -4 10 -10z m280 -5 c0 -8 -4 -15 -9 -15 -13 0
-22 16 -14 24 11 11 23 6 23 -9z m754 -10 c4 -10 -1 -15 -14 -15 -13 0 -18 5
-14 15 4 8 10 15 14 15 4 0 10 -7 14 -15z m170 -1 c3 -9 4 -20 0 -25 -9 -15
-44 -10 -44 6 0 7 -8 19 -17 24 -15 8 -11 10 18 11 25 0 39 -5 43 -16z m2854
-12 c2 -7 -3 -12 -12 -12 -9 0 -16 7 -16 16 0 17 22 14 28 -4z m-3774 -17 c11
-8 16 -18 12 -22 -4 -4 -11 -1 -15 6 -15 23 -33 2 -26 -30 6 -25 3 -29 -14
-29 -11 0 -27 -10 -35 -22 -9 -12 -19 -19 -22 -15 -4 4 -1 14 6 22 10 12 10
21 1 41 -15 33 -15 34 13 34 13 0 29 7 36 15 15 18 20 18 44 0z m2083 -17 c13
-12 23 -27 23 -34 0 -15 -42 -26 -54 -14 -4 4 -15 6 -22 3 -8 -3 -14 1 -14 10
0 8 7 17 15 21 8 3 15 12 15 21 0 21 10 19 37 -7z m-2640 -12 c23 6 24 5 15
-12 -14 -25 -69 -28 -75 -4 -6 25 14 45 26 25 5 -10 16 -13 34 -9z m-177 2 c0
-19 -31 -48 -52 -48 -21 0 -21 1 -8 34 7 19 17 26 35 26 14 0 25 -5 25 -12z
m4424 6 c22 -9 20 -31 -4 -37 -11 -3 -22 -13 -25 -24 -4 -10 -13 -31 -21 -47
-8 -16 -17 -55 -21 -87 -3 -33 -10 -59 -16 -59 -6 0 -8 -3 -4 -6 3 -3 19 2 36
12 17 10 33 16 36 13 9 -10 -7 -69 -18 -62 -5 3 -22 6 -38 5 -15 0 -35 8 -45
19 -9 10 -13 19 -7 19 5 0 10 33 12 73 3 99 13 142 33 142 9 0 26 10 38 23 23
25 22 24 44 16z m-3284 -14 c13 -8 13 -10 -2 -10 -9 0 -20 5 -23 10 -8 13 5
13 25 0z m360 1 c2 -1 -1 -6 -7 -12 -7 -7 -20 -6 -44 4 l-34 14 40 -3 c22 -1
42 -2 45 -3z m-730 -30 c0 -21 -13 -41 -26 -41 -20 0 -30 30 -13 41 18 11 39
11 39 0z m-360 -21 c0 -5 -7 -10 -15 -10 -8 0 -15 5 -15 10 0 6 7 10 15 10 8
0 15 -4 15 -10z m-410 -20 c0 -5 -7 -10 -16 -10 -8 0 -12 5 -9 10 3 6 10 10
16 10 5 0 9 -4 9 -10z m706 -17 c-10 -10 -19 5 -10 18 6 11 8 11 12 0 2 -7 1
-15 -2 -18z m1694 17 c0 -5 -2 -10 -4 -10 -3 0 -8 5 -11 10 -3 6 -1 10 4 10 6
0 11 -4 11 -10z m-1802 -33 c2 -11 -3 -17 -15 -17 -11 0 -24 -5 -31 -12 -9 -9
-15 -9 -23 -1 -8 8 -6 13 9 17 11 4 23 14 26 22 7 19 30 13 34 -9z m212 13 c0
-5 -2 -10 -4 -10 -3 0 -8 5 -11 10 -3 6 -1 10 4 10 6 0 11 -4 11 -10z m795 -9
c7 -12 -12 -24 -25 -16 -11 7 -4 25 10 25 5 0 11 -4 15 -9z m-825 -24 c0 -7
-8 -17 -18 -24 -14 -8 -18 -20 -14 -42 5 -37 -15 -42 -24 -6 -3 14 -14 29 -23
35 -13 7 -14 11 -3 21 10 11 12 10 12 -4 0 -25 15 -21 28 8 12 26 42 35 42 12z
m70 9 c0 -11 -19 -15 -25 -6 -3 5 1 10 9 10 9 0 16 -2 16 -4z m-885 -36 c-5
-8 -11 -8 -17 -2 -6 6 -7 16 -3 22 5 8 11 8 17 2 6 -6 7 -16 3 -22z m2850 10
c0 -7 -6 -15 -12 -17 -8 -3 -13 4 -13 17 0 13 5 20 13 18 6 -3 12 -11 12 -18z
m-1455 -2 c0 -16 -41 -58 -57 -58 -20 0 -16 19 10 46 24 25 47 31 47 12z
m-542 -18 c-7 -11 -16 -16 -21 -11 -12 12 0 31 19 31 12 0 12 -3 2 -20z m-188
1 c0 -5 3 -16 6 -24 3 -10 -2 -18 -15 -22 -26 -8 -28 -25 -3 -18 22 5 44 -18
33 -35 -6 -11 -17 -10 -49 5 -41 17 -57 43 -26 43 8 0 20 14 25 30 10 28 29
42 29 21z m350 -11 c6 12 14 19 17 16 3 -3 -4 -17 -16 -32 -11 -15 -21 -22
-21 -15 0 19 -24 12 -38 -10 -15 -24 -8 -39 10 -21 16 16 28 15 28 -3 0 -17
-36 -39 -50 -30 -6 3 -10 0 -10 -7 -1 -16 -35 -58 -47 -58 -4 0 -14 4 -22 9
-12 8 -10 14 10 35 13 14 30 26 37 26 6 0 12 11 12 25 0 14 10 39 22 56 l23
30 17 -21 17 -21 11 21z m415 -18 c0 -18 -20 -15 -23 4 -3 10 1 15 10 12 7 -3
13 -10 13 -16z m1412 -7 c7 -20 -2 -29 -21 -22 -9 4 -13 13 -10 22 8 19 23 19
31 0z m-1997 -10 c0 -8 -7 -15 -15 -15 -16 0 -20 12 -8 23 11 12 23 8 23 -8z
m3440 5 c0 -5 -7 -10 -15 -10 -8 0 -15 5 -15 10 0 6 7 10 15 10 8 0 15 -4 15
-10z m-2690 -10 c0 -5 -7 -10 -15 -10 -8 0 -15 5 -15 10 0 6 7 10 15 10 8 0
15 -4 15 -10z m-560 -20 c-12 -23 -30 -27 -30 -6 0 8 8 17 18 19 9 3 18 5 20
6 1 0 -2 -8 -8 -19z m200 9 c0 -12 -70 -83 -76 -76 -2 2 5 12 16 22 11 10 20
26 20 36 0 16 12 26 33 28 4 1 7 -4 7 -10z m-482 -16 c-4 -22 -22 -20 -26 1
-2 10 3 16 13 16 10 0 15 -7 13 -17z m602 -3 c0 -5 -4 -10 -10 -10 -5 0 -10 5
-10 10 0 6 5 10 10 10 6 0 10 -4 10 -10z m-305 -34 c15 -8 22 -17 16 -20 -6
-4 -21 2 -33 13 -26 24 -21 26 17 7z m475 -6 c0 -13 -7 -20 -20 -20 -13 0 -20
7 -20 20 0 13 7 20 20 20 13 0 20 -7 20 -20z m-739 -25 c0 -5 -4 -11 -10 -13
-6 -2 -11 1 -11 7 0 6 -7 11 -15 11 -8 0 -15 4 -15 9 0 12 49 -1 51 -14z m879
15 c0 -5 -7 -10 -15 -10 -8 0 -15 5 -15 10 0 6 7 10 15 10 8 0 15 -4 15 -10z
m-440 -20 c0 -5 -7 -10 -16 -10 -8 0 -12 5 -9 10 3 6 10 10 16 10 5 0 9 -4 9
-10z m3204 -32 c20 -38 20 -38 1 -38 -8 0 -15 7 -15 15 0 8 -6 15 -14 15 -18
0 -29 16 -21 30 12 19 34 10 49 -22z m-4270 7 c-4 -8 -10 -15 -15 -15 -4 0 -6
7 -3 15 4 8 10 15 15 15 4 0 6 -7 3 -15z m841 -21 c0 -14 -7 -19 -25 -19 -20
0 -26 6 -28 27 -3 25 -1 26 25 19 18 -5 28 -14 28 -27z m250 26 c3 -5 1 -10
-4 -10 -6 0 -11 5 -11 10 0 6 2 10 4 10 3 0 8 -4 11 -10z m-1007 -12 c15 -15
16 -45 2 -53 -17 -10 -70 5 -70 20 0 13 36 45 50 45 3 0 11 -5 18 -12z m1332
-4 c0 -8 -4 -12 -10 -9 -5 3 -10 10 -10 16 0 5 5 9 10 9 6 0 10 -7 10 -16z
m-770 -4 c0 -5 -7 -10 -16 -10 -8 0 -12 5 -9 10 3 6 10 10 16 10 5 0 9 -4 9
-10z m80 0 c0 -5 -2 -10 -4 -10 -3 0 -8 5 -11 10 -3 6 -1 10 4 10 6 0 11 -4
11 -10z m2080 6 c0 -3 -4 -8 -10 -11 -5 -3 -10 -1 -10 4 0 6 5 11 10 11 6 0
10 -2 10 -4z m-2640 -27 c0 -5 -7 -9 -15 -9 -15 0 -20 12 -9 23 8 8 24 -1 24
-14z m509 -23 c-32 -33 -44 -22 -17 15 14 18 25 26 31 20 7 -7 1 -19 -14 -35z
m225 29 c-4 -8 -10 -15 -15 -15 -5 0 -9 -7 -9 -15 0 -8 -4 -15 -10 -15 -19 0
-10 37 13 48 12 6 23 11 24 11 1 1 0 -6 -3 -14z m626 0 c0 -8 -4 -15 -9 -15
-13 0 -22 16 -14 24 11 11 23 6 23 -9z m-760 -26 c0 -5 -7 -9 -15 -9 -15 0
-20 12 -9 23 8 8 24 -1 24 -14z m-140 1 c0 -5 -4 -10 -9 -10 -5 0 -11 -9 -14
-20 -3 -11 -12 -20 -21 -20 -24 0 -19 34 7 46 29 15 37 16 37 4z m940 0 c0 -5
-7 -10 -16 -10 -8 0 -12 5 -9 10 3 6 10 10 16 10 5 0 9 -4 9 -10z m525 0 c3
-5 1 -10 -4 -10 -6 0 -11 5 -11 10 0 6 2 10 4 10 3 0 8 -4 11 -10z m-1965 -20
c0 -5 -4 -10 -10 -10 -5 0 -10 5 -10 10 0 6 5 10 10 10 6 0 10 -4 10 -10z
m613 -19 c17 -29 12 -47 -9 -33 -16 10 -34 48 -27 56 11 11 18 6 36 -23z m77
4 c0 -9 -7 -18 -16 -22 -18 -7 -39 11 -30 26 11 17 46 13 46 -4z m-724 -10 c4
-10 14 -13 29 -9 17 4 24 0 27 -14 4 -15 0 -22 -17 -26 -13 -3 -29 -4 -37 -1
-18 7 -40 44 -33 55 9 15 25 12 31 -5z m862 3 c-6 -18 -28 -21 -28 -4 0 9 7
16 16 16 9 0 14 -5 12 -12z m562 -8 c0 -11 -4 -20 -10 -20 -5 0 -10 9 -10 20
0 11 5 20 10 20 6 0 10 -9 10 -20z m-882 -28 c2 -7 -3 -12 -12 -12 -9 0 -16 7
-16 16 0 17 22 14 28 -4z m501 -26 c-11 -12 -14 -8 -24 24 l-7 25 20 -20 c11
-12 16 -24 11 -29z m-147 19 c0 -5 -5 -11 -11 -13 -6 -2 -11 4 -11 13 0 9 5
15 11 13 6 -2 11 -8 11 -13z m88 -19 c0 -5 -7 -3 -15 4 -8 7 -12 17 -9 22 7
10 24 -9 24 -26z m1665 24 c3 -5 -1 -10 -10 -10 -9 0 -13 5 -10 10 3 6 8 10
10 10 2 0 7 -4 10 -10z m-2168 -26 c-9 -9 -28 6 -21 18 4 6 10 6 17 -1 6 -6 8
-13 4 -17z m122 -8 c-28 -15 -36 -12 -21 7 7 8 8 17 4 22 -4 4 4 2 17 -5 l23
-12 -23 -12z m191 8 c0 -17 -22 -14 -28 4 -2 7 3 12 12 12 9 0 16 -7 16 -16z
m1511 0 c10 -13 10 -17 -1 -24 -18 -11 -41 7 -33 26 7 18 17 18 34 -2z m-2216
-4 c-3 -5 -10 -10 -16 -10 -5 0 -9 5 -9 10 0 6 7 10 16 10 8 0 12 -4 9 -10z
m855 -5 c0 -8 -4 -15 -10 -15 -5 0 -10 7 -10 15 0 8 5 15 10 15 6 0 10 -7 10
-15z m-1022 -7 c-6 -18 -28 -21 -28 -4 0 9 7 16 16 16 9 0 14 -5 12 -12z m221
-20 c-8 -15 -8 -27 0 -45 6 -13 11 -25 11 -26 0 -1 -15 -2 -34 -3 -23 0 -36 5
-40 15 -3 9 -11 24 -18 33 -15 21 -4 35 16 19 12 -10 19 -8 37 13 25 29 45 25
28 -6z m541 28 c0 -3 -4 -8 -10 -11 -5 -3 -10 -1 -10 4 0 6 5 11 10 11 6 0 10
-2 10 -4z m-130 -28 c0 -16 -3 -19 -11 -11 -6 6 -8 16 -5 22 11 17 16 13 16
-11z m-514 0 c4 -6 0 -16 -9 -23 -10 -7 -17 -18 -17 -26 0 -9 -3 -10 -10 -3
-7 7 -8 19 -1 37 11 29 25 34 37 15z m154 3 c0 -5 -6 -14 -14 -20 -12 -10 -13
-8 -9 8 5 21 23 30 23 12z m270 -43 c0 -10 -6 -18 -14 -18 -18 0 -33 23 -19
27 6 2 9 14 6 26 -5 22 -5 22 10 2 9 -11 17 -28 17 -37z m290 42 c0 -5 -4 -10
-10 -10 -5 0 -10 5 -10 10 0 6 5 10 10 10 6 0 10 -4 10 -10z m770 0 c0 -5 -4
-10 -10 -10 -5 0 -10 5 -10 10 0 6 5 10 10 10 6 0 10 -4 10 -10z m-1560 -14
c0 -7 -9 -16 -19 -19 -17 -4 -18 -2 -8 14 14 22 27 25 27 5z m275 -6 c5 -8 11
-7 21 1 11 9 14 8 14 -5 0 -23 -18 -56 -30 -56 -6 0 -10 10 -11 23 l0 22 -10
-23 c-6 -17 -15 -22 -31 -20 -28 4 -28 20 1 33 11 5 21 15 21 22 0 16 16 17
25 3z m455 -10 c0 -11 -6 -20 -13 -20 -19 0 -27 10 -20 26 8 21 33 17 33 -6z
m274 4 c8 -22 8 -24 -8 -24 -15 0 -28 24 -19 34 11 10 21 7 27 -10z m476 -14
c0 -5 -4 -10 -10 -10 -5 0 -10 5 -10 10 0 6 5 10 10 10 6 0 10 -4 10 -10z
m-1450 -50 c0 -23 -22 -27 -39 -7 -13 16 -5 27 21 27 11 0 18 -7 18 -20z m517
0 c19 0 23 -5 23 -29 0 -22 -5 -30 -23 -33 -12 -2 -28 -3 -35 0 -14 4 -16 42
-2 42 6 0 10 5 10 11 0 5 -4 7 -10 4 -5 -3 -10 2 -10 11 0 14 3 15 12 6 7 -7
22 -12 35 -12z m243 10 c0 -5 -2 -10 -4 -10 -3 0 -8 5 -11 10 -3 6 -1 10 4 10
6 0 11 -4 11 -10z m90 -5 c0 -8 -4 -15 -9 -15 -13 0 -22 16 -14 24 11 11 23 6
23 -9z m-475 -15 c3 -5 1 -10 -4 -10 -6 0 -11 5 -11 10 0 6 2 10 4 10 3 0 8
-4 11 -10z m3680 0 c-3 -5 -10 -10 -16 -10 -5 0 -9 5 -9 10 0 6 7 10 16 10 8
0 12 -4 9 -10z m-2545 -10 c0 -5 -4 -10 -10 -10 -5 0 -10 5 -10 10 0 6 5 10
10 10 6 0 10 -4 10 -10z m-850 -9 c0 -5 -7 -12 -16 -15 -22 -9 -24 -8 -24 9 0
8 9 15 20 15 11 0 20 -4 20 -9z m1160 -1 c0 -5 -4 -10 -10 -10 -5 0 -10 5 -10
10 0 6 5 10 10 10 6 0 10 -4 10 -10z m-1470 -20 c0 -5 -4 -10 -9 -10 -6 0 -13
5 -16 10 -3 6 1 10 9 10 9 0 16 -4 16 -10z m2310 0 c0 -5 -4 -10 -10 -10 -5 0
-10 5 -10 10 0 6 5 10 10 10 6 0 10 -4 10 -10z m-2250 -20 c0 -5 -7 -10 -15
-10 -8 0 -15 5 -15 10 0 6 7 10 15 10 8 0 15 -4 15 -10z m365 0 c-3 -5 -10
-10 -16 -10 -5 0 -9 5 -9 10 0 6 7 10 16 10 8 0 12 -4 9 -10z m-465 -19 c0
-12 -20 -25 -27 -18 -7 7 6 27 18 27 5 0 9 -4 9 -9z m375 -21 c-5 -8 -11 -8
-17 -2 -6 6 -7 16 -3 22 5 8 11 8 17 2 6 -6 7 -16 3 -22z m265 5 c0 -8 -7 -15
-15 -15 -8 0 -15 7 -15 15 0 8 7 15 15 15 8 0 15 -7 15 -15z m-1470 -10 c0 -8
-7 -15 -15 -15 -16 0 -20 12 -8 23 11 12 23 8 23 -8z m1010 -15 c0 -24 -26
-38 -42 -22 -16 16 -2 42 22 42 13 0 20 -7 20 -20z m1390 5 c0 -8 -7 -15 -15
-15 -16 0 -20 12 -8 23 11 12 23 8 23 -8z m-1600 -5 c0 -5 -4 -10 -10 -10 -5
0 -10 5 -10 10 0 6 5 10 10 10 6 0 10 -4 10 -10z m130 0 c0 -5 -2 -10 -4 -10
-3 0 -8 5 -11 10 -3 6 -1 10 4 10 6 0 11 -4 11 -10z m2699 -35 c3 -20 -23 -45
-48 -45 -10 0 -12 3 -5 8 6 4 14 20 18 35 7 31 29 32 35 2z m-3171 -13 c2 -7
-3 -12 -12 -12 -9 0 -16 7 -16 16 0 17 22 14 28 -4z m3212 -22 c0 -11 -7 -20
-15 -20 -15 0 -21 21 -8 33 12 13 23 7 23 -13z m615 11 c3 -5 1 -12 -5 -16 -5
-3 -10 1 -10 9 0 18 6 21 15 7z m-2050 -10 c3 -5 1 -12 -5 -16 -5 -3 -10 1
-10 9 0 18 6 21 15 7z m-1575 -11 c0 -5 -4 -10 -10 -10 -5 0 -10 5 -10 10 0 6
5 10 10 10 6 0 10 -4 10 -10z m1678 -12 c-6 -18 -28 -21 -28 -4 0 9 7 16 16
16 9 0 14 -5 12 -12z m410 1 c-2 -6 -8 -10 -13 -10 -5 0 -11 4 -13 10 -2 6 4
11 13 11 9 0 15 -5 13 -11z m170 -8 c3 -9 -2 -11 -17 -6 -12 4 -21 2 -21 -4 0
-6 -7 -11 -15 -11 -20 0 -19 10 3 26 20 16 44 14 50 -5z m82 0 c0 -14 -18 -23
-30 -16 -6 4 -8 11 -5 16 8 12 35 12 35 0z m481 -4 c-1 -12 -15 -9 -19 4 -3 6
1 10 8 8 6 -3 11 -8 11 -12z m739 -7 c0 -5 -7 -10 -15 -10 -8 0 -15 5 -15 10
0 6 7 10 15 10 8 0 15 -4 15 -10z m-2747 -22 c4 -12 4 -24 2 -27 -3 -2 -5 1
-5 7 0 7 -9 12 -20 12 -11 0 -20 7 -20 15 0 24 37 18 43 -7z m2247 12 c0 -12
-28 -25 -36 -17 -9 9 6 27 22 27 8 0 14 -5 14 -10z m-2630 -41 c0 -22 -20 -16
-33 10 l-15 30 24 -16 c13 -8 24 -19 24 -24z m-60 26 c0 -3 -9 -14 -20 -25
-11 -11 -22 -20 -25 -20 -10 0 -5 26 7 38 12 12 38 17 38 7z m-528 -27 c-7 -7
-12 -8 -12 -2 0 14 12 26 19 19 2 -3 -1 -11 -7 -17z m3168 2 c0 -11 -6 -20
-14 -20 -18 0 -29 16 -21 30 11 18 35 11 35 -10z m-1548 -5 c0 -5 -5 -11 -11
-13 -6 -2 -11 4 -11 13 0 9 5 15 11 13 6 -2 11 -8 11 -13z m1608 5 c0 -5 -5
-10 -11 -10 -5 0 -7 5 -4 10 3 6 8 10 11 10 2 0 4 -4 4 -10z m-2950 -20 c0 -5
-4 -10 -10 -10 -5 0 -10 5 -10 10 0 6 5 10 10 10 6 0 10 -4 10 -10z m2100 -16
c0 -8 -4 -14 -10 -14 -5 0 -10 9 -10 21 0 11 5 17 10 14 6 -3 10 -13 10 -21z
m950 11 c0 -8 -7 -15 -15 -15 -8 0 -15 7 -15 15 0 8 7 15 15 15 8 0 15 -7 15
-15z m-231 -24 c-15 -5 -22 6 -14 19 6 9 10 9 16 -1 5 -8 4 -15 -2 -18z m861
4 c0 -8 -7 -15 -15 -15 -8 0 -15 7 -15 15 0 8 7 15 15 15 8 0 15 -7 15 -15z
m-3940 -9 c0 -16 -18 -31 -27 -22 -8 8 5 36 17 36 5 0 10 -6 10 -14z m3246
-33 c-11 -12 -27 13 -20 32 7 17 8 17 17 -3 6 -12 7 -25 3 -29z m-2732 21 c7
-19 -10 -44 -31 -44 -19 0 -28 27 -13 45 16 20 36 19 44 -1z m2896 6 c0 -5 -4
-10 -10 -10 -5 0 -10 5 -10 10 0 6 5 10 10 10 6 0 10 -4 10 -10z m517 -36 c-9
-9 -28 6 -21 18 4 6 10 6 17 -1 6 -6 8 -13 4 -17z m-1296 -13 c6 -14 5 -20 -1
-16 -6 3 -10 2 -10 -3 0 -5 9 -12 20 -15 22 -6 29 -57 8 -57 -21 1 -53 62 -50
93 4 32 21 31 33 -2z m-531 -6 c0 -8 -7 -15 -15 -15 -8 0 -15 7 -15 15 0 8 7
15 15 15 8 0 15 -7 15 -15z m1590 -16 c0 -5 -4 -9 -10 -9 -5 0 -10 7 -10 16 0
8 5 12 10 9 6 -3 10 -10 10 -16z m-900 -19 c0 -5 -4 -10 -10 -10 -5 0 -10 5
-10 10 0 6 5 10 10 10 6 0 10 -4 10 -10z m-503 -26 c-9 -9 -28 6 -21 18 4 6
10 6 17 -1 6 -6 8 -13 4 -17z m-2387 -19 c0 -8 -4 -15 -10 -15 -5 0 -10 7 -10
15 0 8 5 15 10 15 6 0 10 -7 10 -15z m1650 5 c0 -5 -4 -10 -10 -10 -5 0 -10 5
-10 10 0 6 5 10 10 10 6 0 10 -4 10 -10z m1177 -8 c17 -10 0 -35 -27 -39 -12
-2 -19 0 -17 4 2 5 7 16 10 26 7 18 15 21 34 9z m-289 -44 c8 -10 10 -18 5
-18 -6 0 -14 7 -17 16 -4 10 -13 13 -26 9 -25 -8 -27 10 -2 24 12 7 18 6 21
-2 2 -7 10 -20 19 -29z m1372 27 c0 -8 -4 -15 -10 -15 -5 0 -10 7 -10 15 0 8
5 15 10 15 6 0 10 -7 10 -15z m258 -19 c3 -12 -1 -17 -10 -14 -7 3 -15 13 -16
22 -3 12 1 17 10 14 7 -3 15 -13 16 -22z m-633 -7 c5 -15 2 -25 -8 -30 -8 -5
-18 -28 -21 -52 -5 -33 -13 -47 -31 -55 -27 -12 -39 -3 -29 23 4 10 1 21 -6
25 -11 7 -10 16 5 47 25 53 34 63 61 63 14 0 25 -8 29 -21z m-1800 1 c3 -5 -1
-10 -10 -10 -9 0 -13 5 -10 10 3 6 8 10 10 10 2 0 7 -4 10 -10z m1655 0 c0 -5
-4 -10 -10 -10 -5 0 -10 5 -10 10 0 6 5 10 10 10 6 0 10 -4 10 -10z m445 0 c3
-5 -1 -10 -9 -10 -9 0 -16 5 -16 10 0 6 4 10 9 10 6 0 13 -4 16 -10z m-460
-40 c3 -5 -1 -10 -10 -10 -9 0 -13 5 -10 10 3 6 8 10 10 10 2 0 7 -4 10 -10z
m-894 -63 c-13 -13 -31 0 -24 19 4 11 8 12 20 3 9 -8 10 -16 4 -22z m355 -8
c10 -17 -13 -36 -27 -22 -12 12 -4 33 11 33 5 0 12 -5 16 -11z m584 -32 c0
-19 -5 -19 -82 -13 -93 8 -113 18 -74 38 20 10 40 11 91 4 54 -8 65 -13 65
-29z m308 21 c-6 -18 -28 -21 -28 -4 0 9 7 16 16 16 9 0 14 -5 12 -12z m52
-28 c0 -5 -9 -10 -21 -10 -11 0 -17 5 -14 10 3 6 13 10 21 10 8 0 14 -4 14
-10z m-606 -26 c8 -22 8 -24 -8 -24 -15 0 -28 24 -19 34 11 10 21 7 27 -10z
m206 -30 c0 -8 -4 -12 -10 -9 -5 3 -10 13 -10 21 0 8 5 12 10 9 6 -3 10 -13
10 -21z m-962 -5 c-2 -6 -8 -10 -13 -10 -5 0 -11 4 -13 10 -2 6 4 11 13 11 9
0 15 -5 13 -11z m372 -22 c31 -21 8 -31 -38 -16 -20 6 -44 14 -52 16 -12 3
-12 5 0 13 19 12 65 5 90 -13z m510 -37 c0 -24 -29 -38 -40 -20 -12 19 -1 40
21 40 12 0 19 -7 19 -20z m-2440 -20 c0 -5 -4 -10 -10 -10 -5 0 -10 5 -10 10
0 6 5 10 10 10 6 0 10 -4 10 -10z m2520 -10 c0 -5 -4 -10 -10 -10 -5 0 -10 5
-10 10 0 6 5 10 10 10 6 0 10 -4 10 -10z m-1570 -10 c0 -5 -7 -10 -15 -10 -8
0 -15 5 -15 10 0 6 7 10 15 10 8 0 15 -4 15 -10z m-2340 -71 c0 -11 -4 -17
-10 -14 -5 3 -10 13 -10 21 0 8 5 14 10 14 6 0 10 -9 10 -21z m2574 -110 c-3
-5 -10 -7 -15 -3 -5 3 -7 10 -3 15 3 5 10 7 15 3 5 -3 7 -10 3 -15z m-1524 1
c0 -5 -4 -10 -10 -10 -5 0 -10 5 -10 10 0 6 5 10 10 10 6 0 10 -4 10 -10z
m3170 -74 c0 -3 -4 -8 -10 -11 -5 -3 -10 -1 -10 4 0 6 5 11 10 11 6 0 10 -2
10 -4z m-2295 -176 c0 -22 -29 -18 -33 3 -3 14 1 18 15 15 10 -2 18 -10 18
-18z m-732 -145 c8 -18 -11 -31 -25 -17 -11 11 -3 32 12 32 4 0 10 -7 13 -15z
m395 -1633 c2 -6 -7 -16 -20 -21 -21 -9 -21 -10 -2 -10 30 -1 44 -21 45 -65 0
-23 3 -35 6 -28 8 21 32 14 26 -8 -6 -24 -48 -37 -67 -20 -11 8 -20 9 -36 0
-30 -16 -60 -4 -60 25 0 20 7 26 40 35 22 6 40 15 40 20 0 13 -27 13 -35 0 -9
-15 -35 -12 -35 4 0 7 7 19 15 26 8 7 15 21 15 30 0 28 59 38 68 12z m-1130
-31 c-4 -43 -32 -54 -54 -22 -20 28 -52 27 -65 -3 -23 -50 35 -92 63 -46 16
25 48 26 48 2 0 -46 -77 -75 -128 -48 -56 29 -69 90 -28 131 21 21 33 24 96
23 l71 0 -3 -37z m1022 23 c0 -11 -6 -14 -20 -9 -11 4 -20 2 -20 -4 0 -6 7
-11 15 -11 8 0 15 -7 15 -15 0 -8 -4 -15 -10 -15 -5 0 -10 -13 -10 -30 0 -16
5 -30 10 -30 6 0 10 -7 10 -15 0 -11 -12 -15 -45 -15 -33 0 -45 4 -45 15 0 8
5 15 10 15 14 0 12 36 -2 60 -9 15 -10 23 -2 28 6 4 13 15 17 25 9 23 77 25
77 1z m380 -49 c0 -37 4 -65 10 -65 6 0 10 -7 10 -15 0 -11 -11 -15 -40 -15
-29 0 -40 4 -40 15 0 8 5 15 10 15 6 0 10 11 10 24 0 14 -4 28 -10 31 -21 13
-10 35 18 36 16 1 20 3 10 6 -25 6 -23 33 2 33 18 0 20 -7 20 -65z m380 0 c0
-37 4 -65 10 -65 6 0 10 -7 10 -15 0 -12 -14 -14 -72 -12 -68 2 -72 3 -80 29
-7 19 -5 36 4 55 11 23 20 28 46 27 18 -1 32 2 32 7 0 5 -4 9 -10 9 -5 0 -10
7 -10 15 0 10 11 15 35 15 l35 0 0 -65z m342 23 c33 -37 38 -39 38 -20 0 12
-4 22 -10 22 -5 0 -10 9 -10 20 0 17 7 20 40 20 33 0 40 -3 40 -20 0 -11 -4
-20 -10 -20 -6 0 -10 -27 -10 -60 0 -53 -2 -60 -20 -60 -10 0 -32 16 -47 35
-30 38 -43 44 -43 20 0 -8 7 -15 15 -15 8 0 15 -9 15 -20 0 -17 -7 -20 -50
-20 -43 0 -50 3 -50 20 0 11 7 20 15 20 11 0 15 11 15 40 0 29 -4 40 -15 40
-8 0 -15 9 -15 20 0 16 7 20 32 20 25 0 40 -9 70 -42z m327 -10 c0 -29 3 -65
7 -80 5 -26 3 -28 -28 -28 l-33 0 0 60 c0 33 3 60 7 60 5 0 8 9 8 20 0 13 7
20 19 20 15 0 19 -8 20 -52z m91 -13 c0 -37 4 -65 10 -65 6 0 10 -7 10 -15 0
-11 -11 -15 -40 -15 -28 0 -40 4 -40 14 0 8 5 18 10 21 6 3 10 24 10 45 0 21
-4 42 -10 45 -22 14 -10 35 20 35 l30 0 0 -65z m230 1 c0 -36 5 -68 10 -71 25
-16 4 -24 -61 -24 -65 0 -71 2 -80 25 -14 37 -11 52 12 75 14 14 28 19 45 15
14 -4 24 -2 24 4 0 5 -4 10 -10 10 -5 0 -10 7 -10 15 0 10 11 15 35 15 l35 0
0 -64z m298 52 c9 -9 12 -9 12 0 0 7 11 12 25 12 21 0 25 -5 25 -30 0 -23 -4
-30 -20 -30 -11 0 -29 5 -39 12 -38 24 -73 -14 -53 -58 13 -27 47 -32 56 -9 3
8 1 15 -4 15 -6 0 -10 7 -10 15 0 11 12 15 50 15 38 0 50 -4 50 -15 0 -8 -7
-15 -15 -15 -10 0 -15 -10 -15 -31 0 -27 -3 -30 -27 -28 -16 1 -38 -1 -51 -5
-56 -19 -111 40 -97 103 11 51 81 81 113 49z m1122 -8 c0 -18 7 -20 80 -20 62
0 80 -3 80 -14 0 -8 -4 -16 -9 -18 -5 -1 -23 -31 -40 -65 -25 -51 -36 -63 -55
-63 -13 0 -30 8 -37 17 -13 15 -11 16 18 10 31 -6 32 -5 23 18 -27 72 -39 85
-70 78 -26 -5 -30 -3 -30 16 0 12 -6 21 -15 21 -21 0 -21 -76 0 -84 8 -3 12
-12 9 -21 -5 -11 -21 -15 -60 -15 -47 0 -54 2 -54 20 0 11 7 20 15 20 11 0 15
11 15 40 0 29 -4 40 -15 40 -8 0 -15 -9 -15 -20 0 -13 -7 -20 -20 -20 -17 0
-20 7 -20 40 l0 40 100 0 c93 0 100 -1 100 -20z m-4065 -40 c34 -38 18 -92
-31 -104 -41 -11 -84 19 -84 59 0 58 76 88 115 45z m243 -27 c2 -24 7 -43 13
-43 5 0 9 -7 9 -15 0 -10 -11 -15 -35 -15 l-35 0 7 46 c5 38 3 46 -8 42 -9 -4
-13 -19 -12 -47 l2 -41 -75 0 c-59 0 -74 3 -74 15 0 8 5 15 10 15 6 0 10 11
10 24 0 14 -4 28 -10 31 -5 3 -10 12 -10 20 0 10 22 13 103 12 l102 -2 3 -42z
m220 34 c17 -13 15 -82 -3 -97 -8 -7 -26 -10 -40 -8 -14 3 -25 1 -25 -3 0 -5
5 -9 10 -9 6 0 10 -7 10 -15 0 -11 -12 -15 -45 -15 -33 0 -45 4 -45 15 0 8 5
15 10 15 14 0 13 97 -2 102 -6 2 -8 9 -4 16 8 14 115 13 134 -1z m170 -14 c3
-19 -1 -23 -22 -23 -14 0 -26 5 -26 10 0 19 -19 10 -26 -12 -4 -14 -1 -25 10
-33 29 -22 18 -35 -29 -35 -33 0 -45 4 -45 15 0 8 5 15 10 15 6 0 10 11 10 24
0 14 -4 28 -10 31 -5 3 -10 13 -10 20 0 11 15 14 68 12 61 -2 67 -4 70 -24z
m119 19 c6 -4 16 -20 22 -35 10 -27 10 -27 -35 -27 -41 0 -45 -2 -34 -15 9
-11 16 -13 24 -5 5 5 20 10 33 10 30 0 20 -25 -17 -40 -71 -30 -133 47 -80
100 20 20 65 26 87 12z m435 -9 c25 -22 23 -33 -7 -33 -14 0 -25 5 -25 10 0
15 -17 12 -24 -5 -3 -8 -3 -22 0 -30 7 -17 34 -21 34 -5 0 6 9 10 20 10 24 0
25 -9 6 -35 -9 -13 -26 -19 -51 -19 -43 0 -65 22 -65 65 0 51 72 78 112 42z
m240 5 c40 -33 24 -99 -27 -112 -25 -6 -64 7 -77 28 -13 19 -9 64 8 80 19 19
74 21 96 4z m383 -18 c8 -16 15 -31 15 -35 0 -3 -21 -5 -46 -5 -41 0 -45 -2
-34 -15 9 -11 16 -13 24 -5 13 13 46 13 46 0 0 -18 -49 -42 -74 -36 -84 21
-66 126 21 126 26 0 36 -6 48 -30z m417 13 c10 -9 18 -24 18 -35 0 -14 -8 -18
-40 -18 -39 0 -52 -12 -29 -26 6 -3 16 -1 22 5 13 13 47 15 47 2 0 -14 -25
-31 -58 -37 -25 -5 -36 -1 -56 19 -31 32 -32 46 -5 81 24 31 72 35 101 9z
m560 0 c10 -9 18 -24 18 -35 0 -14 -8 -18 -41 -18 -28 0 -39 -4 -36 -12 2 -7
11 -11 18 -9 62 17 79 6 37 -23 -32 -23 -65 -20 -93 9 -30 29 -31 45 -4 79 24
31 72 35 101 9z m386 4 c6 -5 12 -16 12 -23 0 -17 -47 -19 -52 -2 -2 6 -10 8
-16 4 -14 -9 -16 -56 -2 -56 6 0 10 -7 10 -15 0 -11 -11 -15 -40 -15 -29 0
-40 4 -40 15 0 8 5 15 10 15 6 0 10 14 10 30 0 17 -4 30 -10 30 -5 0 -10 7
-10 15 0 11 13 14 58 13 31 0 63 -5 70 -11z m140 1 c7 -7 12 -30 12 -52 0 -26
3 -36 9 -28 4 8 14 13 22 12 8 -1 23 -2 34 -1 18 1 19 2 3 12 -21 12 -24 42
-5 57 6 6 33 10 60 10 39 -1 47 -4 47 -20 0 -12 -7 -18 -24 -18 -14 0 -28 5
-31 10 -8 12 -25 13 -25 2 0 -5 18 -14 40 -21 32 -9 40 -16 40 -36 0 -31 -15
-39 -72 -41 -34 0 -48 3 -48 13 0 7 -4 13 -10 13 -5 0 -10 -4 -10 -9 0 -15
-38 -23 -58 -12 -14 7 -29 7 -51 -2 -26 -9 -34 -9 -47 5 -24 24 -11 45 35 58
40 10 56 30 26 30 -8 0 -15 -4 -15 -10 0 -5 -9 -10 -20 -10 -20 0 -28 28 -13
43 11 12 88 8 101 -5z m322 -9 c0 -20 -34 -27 -45 -9 -8 13 -25 13 -25 1 0 -5
16 -15 35 -21 34 -11 40 -19 35 -50 -3 -23 -7 -24 -66 -26 -51 -2 -54 0 -54
22 0 17 6 24 19 24 11 0 23 -4 26 -10 3 -5 16 -10 28 -9 16 0 11 5 -19 19 -50
22 -58 33 -44 60 8 16 20 19 60 19 42 -1 50 -5 50 -20z m138 9 c5 -7 13 -23
16 -35 7 -22 4 -23 -38 -23 -25 0 -46 -4 -46 -9 0 -14 26 -21 38 -9 5 5 19 8
31 6 20 -3 21 -5 8 -23 -21 -27 -93 -27 -113 0 -21 29 -17 71 8 89 27 19 82
21 96 4z m582 -9 c0 -11 -7 -19 -17 -19 -14 0 -13 -3 5 -16 24 -17 29 -48 10
-61 -7 -4 -37 -8 -65 -9 -50 -2 -53 0 -53 22 0 26 27 33 47 13 6 -6 19 -9 29
-6 18 4 18 4 -1 11 -59 22 -65 26 -65 50 0 29 11 34 68 34 34 0 42 -4 42 -19z
m142 4 c53 -48 -11 -135 -75 -102 -28 15 -37 28 -37 58 0 54 71 82 112 44z
m177 -2 c4 -9 11 -35 15 -58 l6 -43 -34 0 c-35 0 -35 0 -33 43 2 31 -2 42 -13
42 -11 0 -15 -11 -13 -42 2 -42 1 -43 -30 -43 l-32 0 0 59 0 59 63 0 c48 0 64
-4 71 -17z m-2860 -217 c3 -3 0 -9 -6 -15 -8 -8 -5 -17 9 -31 14 -14 18 -27
13 -49 -4 -18 -3 -29 4 -29 6 0 11 5 11 10 0 6 5 10 11 10 6 0 9 -10 7 -22 -3
-21 -8 -23 -80 -25 -61 -1 -78 2 -82 14 -9 22 10 40 49 47 34 7 44 19 26 31
-5 3 -12 1 -16 -5 -3 -5 -18 -10 -31 -10 -35 0 -26 21 17 42 28 15 30 18 12
18 -25 0 -39 16 -21 23 13 6 69 -2 77 -9z m-1219 -9 c0 -9 -9 -15 -25 -15 -16
0 -25 6 -25 15 0 9 9 15 25 15 16 0 25 -6 25 -15z m260 -1 c0 -9 9 -18 20 -21
11 -3 20 -12 20 -19 0 -8 -9 -14 -20 -14 -16 0 -20 -7 -20 -31 0 -26 3 -29 21
-24 17 6 20 3 17 -12 -4 -21 -54 -31 -71 -14 -5 5 -10 24 -9 41 0 18 -5 33
-14 37 -21 8 -17 30 6 36 11 3 20 12 20 21 0 9 7 16 15 16 8 0 15 -7 15 -16z
m500 -48 c0 -40 4 -66 12 -68 6 -2 8 -9 4 -16 -4 -7 -30 -11 -69 -9 -55 2 -63
5 -77 30 -13 24 -13 30 1 55 11 21 23 27 47 27 18 0 32 3 32 7 0 5 -4 8 -10 8
-5 0 -10 7 -10 15 0 10 11 15 35 15 l35 0 0 -64z m870 0 c0 -40 4 -66 12 -68
6 -2 8 -9 4 -16 -10 -17 -135 -10 -147 8 -28 46 4 105 53 98 15 -3 28 -1 28 4
0 4 -4 8 -10 8 -5 0 -10 7 -10 15 0 10 11 15 35 15 l35 0 0 -64z m381 4 c13
-33 30 -60 37 -60 7 0 12 -8 10 -17 -5 -26 -87 -31 -105 -7 -12 16 -13 16 -13
1 0 -13 -9 -17 -40 -17 -33 0 -40 3 -40 20 0 11 4 20 9 20 5 0 19 27 31 60 21
56 24 60 55 60 30 0 34 -4 56 -60z m647 38 c34 -38 37 -71 9 -104 -23 -27 -31
-29 -106 -32 -77 -4 -81 -3 -81 17 0 12 6 21 15 21 11 0 15 11 15 40 0 29 -4
40 -15 40 -8 0 -15 9 -15 20 0 18 7 20 78 20 69 0 81 -3 100 -22z m-2818 -28
c22 -22 27 -79 8 -98 -20 -20 -85 -15 -108 8 -11 11 -20 27 -20 36 0 60 79 95
120 54z m733 9 c28 -15 37 -28 37 -56 0 -32 -34 -63 -70 -63 -64 0 -92 71 -44
109 30 24 46 26 77 10z m505 -16 c6 -9 12 -20 12 -25 0 -13 -48 -9 -53 5 -8
22 -30 -9 -22 -32 7 -25 23 -27 31 -6 8 19 44 20 44 1 0 -8 -12 -24 -27 -35
-23 -16 -24 -20 -10 -21 13 0 17 -6 15 -22 -2 -19 -10 -24 -40 -26 -22 -2 -38
1 -38 7 0 6 9 11 20 11 28 0 25 6 -15 46 -33 32 -44 66 -27 90 24 35 85 39
110 7z m316 6 c33 -26 35 -71 4 -93 -74 -52 -162 38 -92 93 15 12 34 21 44 21
10 0 29 -9 44 -21z m376 3 c25 -21 30 -73 9 -98 -16 -19 -78 -18 -101 3 -34
31 -17 88 32 106 26 10 37 7 60 -11z m624 -23 c3 -16 9 -42 12 -59 5 -29 4
-30 -31 -30 l-36 0 7 46 c6 42 5 46 -12 42 -15 -3 -19 -12 -17 -46 2 -41 1
-42 -30 -42 l-32 0 0 60 0 60 42 -2 c24 -1 46 1 49 4 13 14 43 -6 48 -33z
m897 31 c14 -8 19 -21 19 -52 0 -34 2 -38 14 -29 19 16 32 -4 16 -23 -7 -10
-33 -14 -83 -12 -70 1 -72 2 -72 26 0 21 6 26 43 34 53 11 56 28 2 20 -22 -4
-40 -3 -40 2 1 36 60 55 101 34z m-3291 -37 c0 -21 3 -48 6 -60 6 -21 3 -23
-35 -23 -30 0 -41 4 -41 15 0 8 5 15 10 15 6 0 10 14 10 30 0 17 -4 30 -10 30
-5 0 -10 7 -10 15 0 10 11 15 35 15 34 0 35 -1 35 -37z m168 -3 c2 -19 8 -39
13 -44 20 -21 9 -36 -25 -36 -41 0 -51 12 -35 38 14 22 5 56 -14 49 -7 -2 -11
-20 -10 -46 2 -41 1 -41 -33 -41 -34 0 -34 0 -28 39 3 22 1 47 -5 60 -11 20
-10 21 61 18 l73 -2 3 -35z m282 30 c0 -5 3 -15 6 -24 5 -12 0 -16 -19 -16
-14 0 -27 5 -29 12 -6 17 -28 0 -28 -22 0 -10 5 -22 10 -25 6 -3 10 -13 10
-21 0 -10 -12 -14 -40 -14 -28 0 -40 4 -40 14 0 8 5 18 10 21 6 3 10 17 10 31
0 13 -4 24 -10 24 -5 0 -10 7 -10 15 0 11 14 14 65 14 36 -1 65 -4 65 -9z
m402 -32 c2 -24 8 -43 13 -43 14 0 19 45 6 58 -19 19 -12 27 24 27 35 0 35 0
35 -44 0 -25 5 -48 10 -51 22 -14 -3 -23 -60 -22 -33 0 -64 5 -69 11 -4 6 -11
32 -14 59 -7 47 -6 47 23 47 27 0 29 -3 32 -42z m1362 20 c3 -13 8 -40 11 -60
6 -38 6 -38 -29 -38 l-36 0 7 45 c5 37 3 45 -10 45 -20 0 -32 -37 -17 -55 17
-21 3 -35 -36 -35 -33 0 -48 20 -24 35 6 3 10 17 10 31 0 13 -4 24 -10 24 -5
0 -10 7 -10 15 0 12 14 15 70 15 64 0 70 -2 74 -22z m620 6 c10 -27 7 -34 -19
-34 -14 0 -25 5 -25 10 0 6 -5 10 -11 10 -8 0 -10 -14 -6 -45 l7 -45 -40 0
c-28 0 -40 4 -40 14 0 8 5 18 10 21 6 3 10 17 10 31 0 13 -4 24 -10 24 -5 0
-10 7 -10 15 0 22 125 22 134 -1z m76 -23 c0 -46 14 -61 30 -31 8 15 7 26 -6
45 l-16 25 36 0 c35 0 36 -1 36 -39 0 -22 5 -43 10 -46 6 -3 10 -12 10 -20 0
-10 -16 -13 -66 -13 -73 2 -77 5 -88 76 -6 42 -6 42 24 42 28 0 30 -2 30 -39z
m260 24 c0 -8 -4 -15 -8 -15 -5 0 -19 -22 -32 -50 -13 -27 -31 -57 -41 -66
-20 -18 -50 -16 -57 5 -3 10 1 12 17 8 27 -7 26 6 -4 68 -14 28 -25 53 -25 58
0 4 34 7 75 7 60 0 75 -3 75 -15z m332 2 c4 -7 8 -26 8 -44 0 -17 5 -33 12
-35 23 -8 -4 -28 -37 -28 l-35 0 7 45 c5 37 3 45 -10 45 -20 0 -33 -38 -18
-53 23 -23 12 -37 -29 -37 -28 0 -40 4 -40 14 0 8 5 18 10 21 6 3 10 17 10 31
0 13 -4 24 -10 24 -5 0 -10 7 -10 15 0 11 15 14 67 14 40 -1 71 -6 75 -12z
m278 -277 c0 -5 -5 -10 -11 -10 -5 0 -7 5 -4 10 3 6 8 10 11 10 2 0 4 -4 4
-10z"/>
<path d="M1651 8981 c-26 -26 -34 -112 -29 -328 4 -197 11 -223 57 -223 54 0
56 10 56 282 l0 250 -24 19 c-29 24 -36 24 -60 0z"/>
<path d="M5017 8988 c-31 -24 -37 -68 -37 -279 0 -243 8 -279 59 -279 50 0 55
22 59 244 4 224 -1 279 -29 307 -22 22 -30 23 -52 7z"/>
<path d="M1137 7791 c-9 -27 -17 -51 -17 -55 0 -3 18 -6 40 -6 22 0 40 4 40 8
0 17 -32 102 -39 102 -3 0 -14 -22 -24 -49z"/>
<path d="M1832 7833 l3 -48 58 -3 c67 -3 87 8 87 49 0 37 -24 49 -95 49 l-56
0 3 -47z"/>
<path d="M3935 7798 c-8 -28 -15 -55 -15 -60 0 -4 18 -8 41 -8 35 0 40 3 34
18 -4 9 -14 36 -22 60 -8 23 -17 42 -19 42 -2 0 -10 -23 -19 -52z"/>
<path d="M5336 7793 c-9 -26 -16 -50 -16 -55 0 -4 18 -8 41 -8 31 0 40 3 36
14 -3 8 -11 32 -18 55 -7 23 -16 41 -20 41 -4 0 -14 -21 -23 -47z"/>
<path d="M980 6701 c0 -30 -4 -41 -16 -41 -8 0 -13 4 -9 9 3 6 -3 9 -14 8 -18
-1 -19 -6 -14 -43 5 -35 2 -43 -13 -48 -11 -3 -1 -3 21 0 22 3 47 10 55 16 12
7 11 8 -6 5 -16 -3 -26 4 -39 26 -12 21 -14 27 -4 21 8 -5 22 -7 31 -6 13 2
16 -1 11 -14 -5 -14 -3 -16 11 -11 10 4 20 7 22 7 2 0 4 5 4 10 0 6 -7 10 -16
10 -16 0 -17 22 -3 69 2 7 -2 16 -8 18 -9 3 -13 -8 -13 -36z"/>
<path d="M1095 6664 c-20 -16 -20 -16 2 -9 19 5 22 3 16 -12 -3 -10 -12 -22
-20 -26 -15 -9 -18 -27 -4 -27 5 0 16 16 25 35 9 19 22 35 29 35 7 0 6 4 -3
10 -19 13 -21 12 -45 -6z"/>
<path d="M1030 6662 c0 -4 7 -17 15 -29 14 -20 13 -21 -7 -15 -14 3 -19 1 -14
-6 9 -16 31 -15 43 1 6 8 2 19 -14 34 -13 12 -23 19 -23 15z"/>
<path d="M1195 6630 c3 -5 8 -10 11 -10 2 0 4 5 4 10 0 6 -5 10 -11 10 -5 0
-7 -4 -4 -10z"/>
<path d="M1240 6610 c0 -5 5 -10 11 -10 5 0 7 5 4 10 -3 6 -8 10 -11 10 -2 0
-4 -4 -4 -10z"/>
<path d="M1112 6590 c-3 -8 -7 -18 -9 -22 -2 -4 3 -5 11 -2 9 3 16 1 16 -5 0
-15 17 -14 17 2 0 6 4 20 8 29 5 13 2 17 -15 15 -12 -1 -25 -8 -28 -17z"/>
<path d="M1020 6590 c8 -5 22 -9 30 -9 10 0 8 3 -5 9 -27 12 -43 12 -25 0z"/>
<path d="M1165 6569 c-9 -28 25 -53 40 -29 9 15 25 12 19 -4 -7 -19 45 -30 80
-16 15 5 38 10 50 10 18 0 24 6 24 25 0 26 -13 34 -21 13 -3 -8 -6 -6 -6 5 -1
9 -6 17 -12 17 -5 0 -8 -4 -5 -8 2 -4 1 -14 -5 -22 -7 -12 -9 -10 -9 8 0 19
-4 22 -22 17 -13 -4 -31 -15 -40 -26 -16 -19 -17 -19 -23 1 -8 26 -35 26 -35
0 0 -20 -11 -26 -23 -13 -4 3 -2 12 4 19 6 8 6 14 0 18 -5 4 -13 -3 -16 -15z
m126 -8 c7 11 9 11 9 -2 0 -16 -28 -34 -38 -25 -2 3 -1 13 3 23 5 14 9 15 12
4 5 -11 7 -11 14 0z"/>
<path d="M1367 6503 c-10 -9 -9 -23 2 -23 5 0 11 7 15 15 5 15 -5 20 -17 8z"/>
<path d="M1085 6479 c-22 -10 -44 -20 -50 -22 -5 -3 -7 -7 -4 -11 4 -4 40 3
80 15 57 17 69 24 54 30 -28 11 -35 10 -80 -12z"/>
<path d="M1400 6485 c0 -8 -6 -15 -12 -16 -7 0 9 -9 36 -20 27 -11 51 -17 54
-14 3 3 0 5 -7 5 -7 0 -9 9 -5 25 5 19 2 25 -11 25 -12 0 -16 -6 -12 -20 6
-22 0 -25 -23 -10 -10 6 -11 10 -2 10 6 0 12 7 12 15 0 8 -7 15 -15 15 -8 0
-15 -7 -15 -15z"/>
<path d="M1000 6479 c0 -5 5 -7 10 -4 6 3 10 8 10 11 0 2 -4 4 -10 4 -5 0 -10
-5 -10 -11z"/>
<path d="M1200 6470 c0 -5 9 -10 20 -10 11 0 20 5 20 10 0 6 -9 10 -20 10 -11
0 -20 -4 -20 -10z"/>
<path d="M2924 6365 c-9 -14 -23 -25 -30 -25 -8 0 -14 -5 -14 -11 0 -11 9 -7
51 23 23 15 28 16 39 3 7 -8 16 -12 21 -9 9 5 -31 44 -45 44 -3 0 -13 -11 -22
-25z"/>
<path d="M2990 6326 c0 -2 7 -7 16 -10 8 -3 12 -2 9 4 -6 10 -25 14 -25 6z"/>
<path d="M2920 6271 c0 -5 5 -13 10 -16 6 -3 10 -2 10 4 0 5 -4 13 -10 16 -5
3 -10 2 -10 -4z"/>
<path d="M2740 6235 c0 -9 5 -15 11 -13 6 2 11 8 11 13 0 5 -5 11 -11 13 -6 2
-11 -4 -11 -13z"/>
<path d="M2535 6070 c-3 -5 1 -10 9 -10 8 0 18 5 21 10 3 6 -1 10 -9 10 -8 0
-18 -4 -21 -10z"/>
<path d="M2470 6049 c0 -5 5 -7 10 -4 6 3 10 8 10 11 0 2 -4 4 -10 4 -5 0 -10
-5 -10 -11z"/>
<path d="M2520 5955 c0 -8 5 -15 10 -15 6 0 10 7 10 15 0 8 -4 15 -10 15 -5 0
-10 -7 -10 -15z"/>
<path d="M1250 6323 c0 -27 5 -55 10 -63 9 -13 13 -12 30 9 32 38 20 101 -20
101 -17 0 -20 -7 -20 -47z"/>
<path d="M417 6324 c-14 -14 -7 -65 9 -71 20 -8 35 14 32 47 -3 24 -27 38 -41
24z"/>
<path d="M730 6295 c0 -8 5 -15 10 -15 6 0 10 7 10 15 0 8 -4 15 -10 15 -5 0
-10 -7 -10 -15z"/>
<path d="M1116 6305 c-9 -23 -8 -25 9 -25 17 0 19 9 6 28 -7 11 -10 10 -15 -3z"/>
<path d="M1370 6295 c0 -8 5 -15 10 -15 6 0 10 7 10 15 0 8 -4 15 -10 15 -5 0
-10 -7 -10 -15z"/>
<path d="M1880 6315 c0 -10 7 -15 18 -13 21 4 19 22 -2 26 -10 2 -16 -3 -16
-13z"/>
<path d="M2000 6295 c0 -8 5 -15 10 -15 6 0 10 7 10 15 0 8 -4 15 -10 15 -5 0
-10 -7 -10 -15z"/>
<path d="M4156 6155 c-3 -8 -1 -15 3 -15 5 0 11 7 15 15 3 8 1 15 -3 15 -5 0
-11 -7 -15 -15z"/>
<path d="M4355 6161 c-10 -17 12 -21 25 -6 10 12 10 15 -3 15 -9 0 -18 -4 -22
-9z"/>
<path d="M4180 6095 c0 -8 7 -15 15 -15 7 0 19 -8 24 -17 8 -14 10 -15 10 -3
0 8 -11 23 -24 33 -22 15 -25 16 -25 2z"/>
<path d="M4325 6080 c-8 -13 3 -30 20 -30 8 0 11 7 8 20 -6 22 -18 26 -28 10z"/>
<path d="M4060 6049 c0 -5 5 -7 10 -4 6 3 10 8 10 11 0 2 -4 4 -10 4 -5 0 -10
-5 -10 -11z"/>
<path d="M4010 5990 c-9 -6 -10 -10 -3 -10 6 0 15 5 18 10 8 12 4 12 -15 0z"/>
<path d="M3895 5939 c-9 -14 -2 -20 14 -10 8 6 9 11 3 15 -6 3 -14 1 -17 -5z"/>
<path d="M3845 5870 c-3 -5 1 -10 9 -10 9 0 16 5 16 10 0 6 -4 10 -9 10 -6 0
-13 -4 -16 -10z"/>
<path d="M3906 5871 c-14 -5 -16 -10 -8 -15 7 -4 19 0 28 8 17 17 11 19 -20 7z"/>
<path d="M3810 5829 c0 -5 5 -7 10 -4 6 3 10 8 10 11 0 2 -4 4 -10 4 -5 0 -10
-5 -10 -11z"/>
<path d="M3865 5800 c3 -5 8 -10 11 -10 2 0 4 5 4 10 0 6 -5 10 -11 10 -5 0
-7 -4 -4 -10z"/>
<path d="M4550 5781 c0 -6 4 -13 10 -16 6 -3 7 1 4 9 -7 18 -14 21 -14 7z"/>
<path d="M3706 5674 c-18 -18 -13 -36 8 -28 16 6 29 44 16 44 -5 0 -16 -7 -24
-16z"/>
<path d="M3426 5564 c-8 -21 -1 -28 19 -20 9 3 15 11 13 18 -7 19 -25 20 -32
2z"/>
<path d="M3350 5540 c0 -13 5 -20 13 -17 6 2 12 10 12 17 0 7 -6 15 -12 18 -8
2 -13 -5 -13 -18z"/>
<path d="M3484 5545 c-4 -8 -13 -15 -22 -15 -24 0 15 -39 57 -56 42 -18 47
-13 27 23 -8 15 -18 36 -22 46 -8 21 -33 22 -40 2z"/>
<path d="M3578 5471 c-10 -10 -18 -24 -18 -32 0 -8 -16 -21 -35 -28 -20 -7
-35 -19 -35 -28 0 -13 2 -13 16 -2 31 26 89 48 99 38 5 -5 14 -9 20 -9 5 0 2
7 -9 15 -13 10 -17 21 -12 39 7 30 -2 32 -26 7z"/>
<path d="M3865 5470 c3 -5 8 -10 11 -10 2 0 4 5 4 10 0 6 -5 10 -11 10 -5 0
-7 -4 -4 -10z"/>
<path d="M4391 5391 c-10 -6 -10 -10 -1 -16 13 -8 24 -1 19 14 -3 6 -10 7 -18
2z"/>
<path d="M3952 5368 c5 -15 28 -23 28 -10 0 5 -7 13 -16 16 -10 4 -14 1 -12
-6z"/>
<path d="M4340 5367 c0 -7 9 -18 20 -25 16 -10 20 -10 20 1 0 14 -20 37 -32
37 -4 0 -8 -6 -8 -13z"/>
<path d="M3897 5349 c7 -7 15 -10 18 -7 3 3 -2 9 -12 12 -14 6 -15 5 -6 -5z"/>
<path d="M4340 5300 c0 -5 5 -10 10 -10 6 0 10 5 10 10 0 6 -4 10 -10 10 -5 0
-10 -4 -10 -10z"/>
<path d="M4235 5200 c-3 -5 -1 -10 4 -10 6 0 11 5 11 10 0 6 -2 10 -4 10 -3 0
-8 -4 -11 -10z"/>
<path d="M3770 4630 c0 -5 5 -10 10 -10 6 0 10 5 10 10 0 6 -4 10 -10 10 -5 0
-10 -4 -10 -10z"/>
<path d="M3795 4590 c3 -5 8 -10 11 -10 2 0 4 5 4 10 0 6 -5 10 -11 10 -5 0
-7 -4 -4 -10z"/>
<path d="M4850 4476 c0 -2 7 -9 15 -16 9 -7 15 -8 15 -2 0 5 -7 12 -15 16 -8
3 -15 4 -15 2z"/>
<path d="M3795 4461 c-3 -5 -1 -12 5 -16 5 -3 10 1 10 9 0 18 -6 21 -15 7z"/>
<path d="M3922 4349 c2 -7 10 -15 17 -17 8 -3 12 1 9 9 -2 7 -10 15 -17 17 -8
3 -12 -1 -9 -9z"/>
<path d="M3963 4259 c15 -11 27 -28 28 -37 0 -11 2 -13 6 -4 7 18 -24 62 -45
62 -13 -1 -10 -5 11 -21z"/>
<path d="M4005 4260 c20 -22 31 -20 22 5 -4 8 -14 15 -23 15 -16 0 -16 -2 1
-20z"/>
<path d="M4900 4250 c0 -5 5 -10 10 -10 6 0 10 5 10 10 0 6 -4 10 -10 10 -5 0
-10 -4 -10 -10z"/>
<path d="M4995 4250 c-3 -5 1 -10 10 -10 9 0 13 5 10 10 -3 6 -8 10 -10 10 -2
0 -7 -4 -10 -10z"/>
<path d="M4920 4222 c0 -5 7 -15 15 -22 19 -16 19 -30 -2 -45 -9 -7 -12 -14
-7 -18 5 -3 20 4 33 15 24 19 24 20 9 46 -16 27 -48 42 -48 24z"/>
<path d="M4297 4200 c6 -23 -12 -27 -21 -5 -7 19 -26 20 -26 1 0 -7 -7 -19
-15 -26 -13 -10 -19 -10 -33 4 -10 9 -25 16 -33 16 -9 -1 -5 -8 10 -21 24 -20
34 -20 75 -3 13 5 17 4 13 -3 -4 -6 3 -13 16 -17 33 -9 37 -8 37 10 0 12 6 15
25 10 14 -4 25 -2 25 4 0 5 -6 10 -13 10 -7 0 -20 9 -30 20 -9 11 -21 20 -26
20 -5 0 -7 -9 -4 -20z"/>
<path d="M3932 4180 c0 -14 2 -19 5 -12 2 6 2 18 0 25 -3 6 -5 1 -5 -13z"/>
<path d="M4413 4153 c-12 -13 -17 -23 -10 -23 11 0 43 39 35 44 -2 1 -13 -8
-25 -21z"/>
<path d="M4870 4160 c0 -5 4 -10 9 -10 6 0 13 5 16 10 3 6 -1 10 -9 10 -9 0
-16 -4 -16 -10z"/>
<path d="M4500 4104 c0 -31 -39 -34 -47 -4 -8 29 -33 25 -33 -5 0 -18 4 -23
15 -19 13 5 14 2 5 -21 -7 -17 -7 -32 0 -43 8 -15 9 -14 10 6 0 17 6 22 25 22
14 0 25 5 25 10 0 6 12 10 26 10 23 0 25 -3 20 -26 -8 -32 13 -29 25 4 6 17 4
24 -11 32 -24 13 -26 27 -4 32 8 2 -1 8 -20 14 -34 10 -36 10 -36 -12z"/>
<path d="M4640 4010 c0 -5 5 -10 11 -10 5 0 7 5 4 10 -3 6 -8 10 -11 10 -2 0
-4 -4 -4 -10z"/>
<path d="M4495 3991 c3 -11 1 -22 -5 -26 -5 -3 -10 -13 -10 -21 0 -22 16 -9
34 28 20 39 20 38 -5 38 -15 0 -19 -4 -14 -19z"/>
<path d="M4466 3795 c4 -8 10 -12 15 -9 14 8 10 24 -6 24 -9 0 -12 -6 -9 -15z"/>
<path d="M4580 3790 c0 -5 5 -10 10 -10 6 0 10 5 10 10 0 6 -4 10 -10 10 -5 0
-10 -4 -10 -10z"/>
<path d="M1720 4993 c0 -17 19 -35 29 -29 18 12 12 36 -9 36 -11 0 -20 -3 -20
-7z"/>
<path d="M2205 4530 c-4 -6 -2 -17 4 -23 15 -15 25 -2 13 19 -7 12 -11 13 -17
4z"/>
<path d="M1250 4270 c0 -5 7 -10 15 -10 8 0 15 5 15 10 0 6 -7 10 -15 10 -8 0
-15 -4 -15 -10z"/>
<path d="M1410 4195 c-8 -9 -8 -15 -2 -15 12 0 26 19 19 26 -2 2 -10 -2 -17
-11z"/>
<path d="M1886 4504 c-4 -15 -5 -29 -2 -31 9 -9 48 35 41 46 -12 20 -33 11
-39 -15z"/>
<path d="M1995 4490 c-3 -5 -1 -10 4 -10 6 0 11 5 11 10 0 6 -2 10 -4 10 -3 0
-8 -4 -11 -10z"/>
<path d="M2030 780 c0 -5 7 -10 15 -10 8 0 15 5 15 10 0 6 -7 10 -15 10 -8 0
-15 -4 -15 -10z"/>
<path d="M2654 816 c-9 -22 2 -46 21 -46 12 0 15 8 13 27 -3 30 -25 42 -34 19z"/>
<path d="M3647 815 c-9 -21 2 -45 20 -45 10 0 13 9 11 27 -3 30 -23 41 -31 18z"/>
<path d="M5227 824 c-8 -8 3 -34 14 -34 5 0 9 9 9 20 0 19 -11 26 -23 14z"/>
<path d="M1020 800 c0 -20 5 -30 15 -30 10 0 15 10 15 30 0 20 -5 30 -15 30
-10 0 -15 -10 -15 -30z"/>
<path d="M1190 810 c-9 -16 -8 -25 0 -36 16 -18 30 -9 30 21 0 32 -16 40 -30
15z"/>
<path d="M1487 823 c-13 -12 -7 -53 7 -53 20 0 29 16 21 40 -6 20 -17 25 -28
13z"/>
<path d="M1785 820 c-3 -5 3 -10 14 -10 12 0 21 5 21 10 0 6 -6 10 -14 10 -8
0 -18 -4 -21 -10z"/>
<path d="M2450 800 c0 -20 5 -30 15 -30 10 0 15 10 15 30 0 20 -5 30 -15 30
-10 0 -15 -10 -15 -30z"/>
<path d="M2825 820 c-3 -5 3 -10 14 -10 12 0 21 5 21 10 0 6 -6 10 -14 10 -8
0 -18 -4 -21 -10z"/>
<path d="M3250 820 c0 -5 7 -10 15 -10 8 0 15 5 15 10 0 6 -7 10 -15 10 -8 0
-15 -4 -15 -10z"/>
<path d="M3810 820 c0 -5 7 -10 15 -10 8 0 15 5 15 10 0 6 -7 10 -15 10 -8 0
-15 -4 -15 -10z"/>
<path d="M4330 780 c0 -5 7 -10 15 -10 8 0 15 5 15 10 0 6 -7 10 -15 10 -8 0
-15 -4 -15 -10z"/>
<path d="M4500 770 c0 -5 9 -10 21 -10 11 0 17 5 14 10 -3 6 -13 10 -21 10 -8
0 -14 -4 -14 -10z"/>
<path d="M4790 820 c0 -5 7 -10 15 -10 8 0 15 5 15 10 0 6 -7 10 -15 10 -8 0
-15 -4 -15 -10z"/>
<path d="M5370 830 c0 -5 7 -10 16 -10 8 0 12 5 9 10 -3 6 -10 10 -16 10 -5 0
-9 -4 -9 -10z"/>
<path d="M5520 800 c0 -20 5 -30 15 -30 10 0 15 10 15 30 0 20 -5 30 -15 30
-10 0 -15 -10 -15 -30z"/>
<path d="M2845 519 c-4 -6 -5 -13 -2 -16 7 -7 27 6 27 18 0 12 -17 12 -25 -2z"/>
<path d="M2354 546 c-8 -22 3 -49 19 -43 6 2 12 14 12 27 0 27 -22 39 -31 16z"/>
<path d="M3224 545 c-8 -21 3 -48 19 -43 19 7 22 58 2 58 -8 0 -18 -7 -21 -15z"/>
<path d="M3626 571 c-4 -7 -5 -15 -2 -18 9 -9 19 4 14 18 -4 11 -6 11 -12 0z"/>
<path d="M3610 520 c0 -5 9 -10 20 -10 11 0 20 5 20 10 0 6 -9 10 -20 10 -11
0 -20 -4 -20 -10z"/>
<path d="M4240 551 c0 -33 3 -41 19 -41 48 0 56 73 9 78 -27 3 -28 1 -28 -37z"/>
<path d="M1460 555 c0 -8 7 -15 15 -15 8 0 15 7 15 15 0 8 -7 15 -15 15 -8 0
-15 -7 -15 -15z"/>
<path d="M1478 523 c-24 -6 -23 -23 2 -23 11 0 20 7 20 15 0 8 -1 14 -2 14 -2
-1 -11 -3 -20 -6z"/>
<path d="M2202 533 c4 -36 33 -39 33 -3 0 16 -6 26 -18 28 -15 3 -18 -2 -15
-25z"/>
<path d="M3022 561 c-18 -11 -11 -56 8 -56 17 0 27 42 13 56 -4 4 -14 4 -21 0z"/>
<path d="M3397 564 c-8 -8 1 -24 14 -24 5 0 9 7 9 15 0 15 -12 20 -23 9z"/>
<path d="M3395 510 c3 -5 12 -10 20 -10 8 0 17 5 20 10 4 6 -5 10 -20 10 -15
0 -24 -4 -20 -10z"/>
<path d="M4920 514 c0 -17 22 -14 28 4 2 7 -3 12 -12 12 -9 0 -16 -7 -16 -16z"/>
<path d="M4772 564 c-9 -10 -10 -20 -4 -31 9 -15 11 -14 20 3 14 26 2 47 -16
28z"/>
</g>
</svg>
