<?xml version="1.0" standalone="no"?>
<!DOCTYPE svg PUBLIC "-//W3C//DTD SVG 20010904//EN"
 "http://www.w3.org/TR/2001/REC-SVG-20010904/DTD/svg10.dtd">
<svg version="1.0" xmlns="http://www.w3.org/2000/svg"
 width="338.000000pt" height="480.000000pt" viewBox="0 0 338.000000 480.000000"
 preserveAspectRatio="xMidYMid meet">

<g transform="translate(0.000000,480.000000) scale(0.100000,-0.100000)"
fill="#000000" stroke="none">
<path d="M0 2400 l0 -2400 1690 0 1690 0 0 2400 0 2400 -1690 0 -1690 0 0
-2400z m1326 2044 c-3 -8 -11 -14 -18 -13 -10 0 -10 2 0 6 6 2 13 19 13 36 1
25 3 27 6 9 3 -13 2 -30 -1 -38z m460 45 c3 -6 1 -15 -6 -19 -8 -5 -9 -13 -4
-21 6 -12 5 -12 -9 0 -13 11 -17 11 -17 1 0 -8 -3 -11 -6 -7 -3 3 -1 14 5 24
6 10 11 14 11 10 0 -5 5 -5 12 -1 8 5 6 10 -8 15 -16 6 -16 8 -2 8 9 1 20 -4
24 -10z m-426 -14 c-10 -12 -10 -18 1 -32 12 -17 12 -17 -6 -1 -15 14 -16 20
-5 32 7 9 15 16 17 16 3 0 0 -7 -7 -15z m57 8 c-4 -3 -2 -12 5 -20 8 -10 8
-17 -1 -26 -10 -9 -11 -8 -6 4 4 10 1 20 -4 24 -11 6 -6 25 6 25 4 0 3 -3 0
-7z m141 -14 c3 -11 2 -11 -7 1 -10 13 -12 13 -20 0 -5 -8 -7 -19 -4 -25 3 -5
0 -5 -7 2 -11 10 -11 15 0 28 15 18 32 15 38 -6z m52 6 c-10 -12 -10 -18 1
-32 12 -17 12 -17 -6 -1 -15 14 -16 20 -5 32 7 9 15 16 17 16 3 0 0 -7 -7 -15z
m90 0 c9 -10 9 -15 1 -15 -6 0 -11 5 -11 10 0 6 -5 10 -11 10 -7 0 -9 -10 -7
-25 3 -13 1 -22 -3 -19 -11 6 -12 38 -2 47 10 11 19 8 33 -8z m150 -20 c0 -7
-7 -16 -16 -19 -14 -5 -15 -4 -4 9 10 12 10 18 -1 33 -13 15 -12 16 4 3 9 -7
17 -19 17 -26z m-403 -7 c-3 -7 -5 -2 -5 12 0 14 2 19 5 13 2 -7 2 -19 0 -25z
m20 0 c-3 -7 -5 -2 -5 12 0 14 2 19 5 13 2 -7 2 -19 0 -25z m110 10 c-3 -8 -6
-5 -6 6 -1 11 2 17 5 13 3 -3 4 -12 1 -19z m230 -10 c-3 -7 -5 -2 -5 12 0 14
2 19 5 13 2 -7 2 -19 0 -25z m67 16 c3 -8 2 -12 -4 -9 -6 3 -10 10 -10 16 0
14 7 11 14 -7z m76 -4 c0 -11 -4 -20 -8 -20 -4 0 -8 9 -8 20 0 11 4 20 8 20 4
0 8 -9 8 -20z m-755 -107 c-11 -3 -25 -13 -33 -22 -11 -14 -12 -13 -2 7 7 14
19 22 33 21 20 -1 20 -2 2 -6z m822 0 c-14 -4 -16 -8 -6 -19 7 -8 7 -14 1 -14
-12 0 -23 26 -15 34 4 3 13 5 22 5 12 -1 12 -2 -2 -6z m-1028 -29 c6 -15 9
-29 6 -32 -3 -3 -5 0 -5 7 0 9 -9 12 -24 9 -22 -4 -23 -3 -13 19 13 30 21 29
36 -3z m398 -11 c-3 -10 -5 -4 -5 12 0 17 2 24 5 18 2 -7 2 -21 0 -30z m-364
7 c-3 -11 -7 -20 -9 -20 -2 0 -4 9 -4 20 0 11 4 20 9 20 5 0 7 -9 4 -20z m97
13 c0 -5 -11 -8 -25 -8 -14 0 -25 3 -25 8 0 4 11 7 25 7 14 0 25 -3 25 -7z
m122 -15 c-4 -18 -2 -20 16 -16 12 4 22 2 22 -3 0 -13 -37 -11 -45 1 -4 6 -4
17 -1 25 8 23 15 18 8 -7z m61 2 c-3 -12 -8 -19 -11 -16 -5 6 5 36 12 36 2 0
2 -9 -1 -20z m29 -2 c-4 -18 -2 -20 16 -16 12 4 20 2 16 -3 -15 -24 -51 -1
-40 26 8 23 15 18 8 -7z m38 12 c0 -5 -2 -10 -4 -10 -3 0 -8 5 -11 10 -3 6 -1
10 4 10 6 0 11 -4 11 -10z m37 -22 c-3 -7 -5 -2 -5 12 0 14 2 19 5 13 2 -7 2
-19 0 -25z m26 12 c-3 -11 -7 -20 -9 -20 -2 0 -4 9 -4 20 0 11 4 20 9 20 5 0
7 -9 4 -20z m67 16 c0 -3 -4 -8 -10 -11 -5 -3 -10 -1 -10 4 0 6 5 11 10 11 6
0 10 -2 10 -4z m30 -21 c0 -18 -5 -25 -19 -25 -11 0 -22 4 -25 9 -4 5 4 7 16
3 18 -4 20 -2 16 16 -4 12 -2 22 3 22 5 0 9 -11 9 -25z m66 -14 c-4 -6 -13
-11 -19 -11 -8 0 -7 4 2 9 13 8 13 12 1 28 -13 17 -13 17 4 1 10 -9 15 -21 12
-27z m37 32 c-22 -8 -15 -36 7 -30 11 3 20 1 20 -4 0 -13 -37 -11 -45 1 -9 15
2 40 17 39 10 0 10 -2 1 -6z m86 -15 c-1 -19 -2 -19 -6 -5 -3 11 -11 16 -19
13 -8 -3 -14 -1 -14 4 0 6 9 10 20 10 14 0 20 -6 19 -22z m31 2 c0 -11 -2 -20
-4 -20 -2 0 -6 9 -9 20 -3 11 -1 20 4 20 5 0 9 -9 9 -20z m60 13 c0 -5 -11 -8
-25 -8 -14 0 -25 3 -25 8 0 4 11 7 25 7 14 0 25 -3 25 -7z m70 -13 c0 -29 -28
-37 -48 -14 -16 17 -16 17 0 5 20 -15 42 -5 34 15 -3 8 -1 14 4 14 6 0 10 -9
10 -20z m77 0 c4 -12 3 -13 -5 -1 -6 8 -17 11 -26 8 -9 -4 -16 -2 -16 4 0 16
43 6 47 -11z m149 -5 c0 -14 -7 -25 -13 -25 -10 0 -10 6 -1 25 14 31 16 31 14
0z m37 -3 c-3 -12 -9 -22 -14 -22 -5 0 -3 11 3 25 13 30 20 28 11 -3z m30 9
c-3 -13 1 -21 14 -24 15 -4 15 -5 1 -6 -20 -1 -32 15 -24 34 8 22 15 18 9 -4z
m37 9 c0 -5 -2 -10 -4 -10 -3 0 -8 5 -11 10 -3 6 -1 10 4 10 6 0 11 -4 11 -10z
m23 -10 c-3 -11 -7 -20 -9 -20 -2 0 -4 9 -4 20 0 11 4 20 9 20 5 0 7 -9 4 -20z
m29 -2 c-4 -18 -2 -20 16 -16 12 4 22 2 22 -3 0 -13 -37 -11 -45 1 -4 6 -4 17
-1 25 8 23 15 18 8 -7z m-1167 -26 c-3 -3 -11 0 -18 7 -9 10 -8 11 6 5 10 -3
15 -9 12 -12z m101 0 c-10 -2 -22 0 -28 6 -6 6 0 7 19 4 21 -5 23 -7 9 -10z
m608 7 c-7 -13 -44 -17 -44 -6 0 7 11 12 24 12 13 0 22 -3 20 -6z m137 -7 c-7
-2 -18 1 -23 6 -8 8 -4 9 13 5 13 -4 18 -8 10 -11z m21 -79 c-10 -4 -10 -9 3
-23 19 -21 12 -41 -13 -39 -15 1 -15 2 1 6 21 6 22 12 0 28 -17 13 -10 36 10
34 8 0 8 -2 -1 -6z m-783 -48 c0 -5 -6 -1 -14 9 -13 17 -15 17 -21 3 -7 -20
-24 -12 -24 11 0 13 2 14 9 4 6 -11 10 -10 15 4 6 16 8 16 21 -2 8 -10 14 -23
14 -29z m128 -2 c-3 -10 -5 -2 -5 17 0 19 2 27 5 18 2 -10 2 -26 0 -35z m193
37 c0 -5 -9 -14 -20 -20 -14 -7 -20 -7 -20 0 0 5 7 10 15 10 8 0 15 5 15 10 0
6 2 10 5 10 3 0 5 -4 5 -10z m517 -37 c-3 -10 -5 -2 -5 17 0 19 2 27 5 18 2
-10 2 -26 0 -35z m-771 19 c1 -7 0 -8 -3 -2 -2 5 -9 10 -14 10 -6 0 -7 -4 -4
-10 3 -5 1 -10 -5 -10 -6 0 -8 -6 -4 -12 5 -10 4 -10 -5 -2 -6 6 -9 18 -5 28
7 19 36 18 40 -2z m29 9 c-3 -5 -1 -12 5 -16 16 -10 12 -25 -7 -25 -14 0 -15
2 -4 9 9 6 10 11 2 15 -10 7 -6 26 5 26 3 0 3 -4 -1 -9z m93 -8 c2 -7 -4 -13
-15 -13 -15 0 -16 2 -3 10 13 8 12 10 -4 10 -14 0 -17 -5 -13 -21 4 -16 3 -19
-5 -11 -6 6 -8 18 -4 27 7 18 37 17 44 -2z m187 6 c4 -6 -3 -13 -16 -16 -22
-6 -22 -7 -3 -14 16 -6 16 -8 2 -8 -21 -1 -32 15 -24 34 6 17 32 20 41 4z m28
-9 c-3 -11 -7 -20 -9 -20 -2 0 -4 9 -4 20 0 11 4 20 9 20 5 0 7 -9 4 -20z m55
2 c2 -7 -5 -12 -15 -13 -16 0 -16 -1 2 -9 19 -8 19 -9 -1 -9 -25 -1 -38 21
-21 38 13 13 29 10 35 -7z m112 9 c0 -5 -9 -7 -20 -4 -14 4 -20 0 -20 -12 0
-12 6 -16 20 -12 11 3 20 1 20 -4 0 -13 -37 -11 -45 1 -11 18 3 40 25 40 11 0
20 -4 20 -9z m90 0 c0 -5 -9 -7 -20 -4 -22 6 -29 -22 -7 -30 9 -4 9 -6 0 -6
-16 -1 -26 17 -19 34 6 16 46 21 46 6z m68 -19 c2 -12 -1 -22 -6 -22 -5 0 -9
8 -8 18 0 10 -6 16 -16 16 -10 -1 -15 2 -12 8 10 16 39 3 42 -20z m89 -9 c-3
-10 -5 -4 -5 12 0 17 2 24 5 18 2 -7 2 -21 0 -30z m63 7 c-10 -18 -14 -20 -21
-9 -5 8 -9 19 -9 24 0 6 4 3 10 -5 8 -12 10 -12 16 3 3 10 9 16 11 13 3 -2 -1
-14 -7 -26z m70 5 c0 -14 -4 -25 -9 -25 -5 0 -7 10 -3 22 4 18 2 20 -16 16
-12 -4 -20 -2 -16 3 3 5 14 9 25 9 14 0 19 -7 19 -25z m-728 -24 c-4 -11 -7
-10 -13 5 -12 29 -10 36 5 22 7 -7 11 -19 8 -27z m-982 20 c0 -6 -4 -13 -10
-16 -5 -3 -10 1 -10 9 0 9 5 16 10 16 6 0 10 -4 10 -9z m1455 -11 c3 -5 1 -10
-4 -10 -6 0 -11 5 -11 10 0 6 2 10 4 10 3 0 8 -4 11 -10z m-1554 -17 c-5 -10
-9 -22 -9 -28 0 -5 -6 -11 -12 -13 -15 -5 -3 40 14 50 16 11 18 10 7 -9z
m2710 -63 c33 -18 24 -58 -27 -108 -25 -25 -51 -60 -58 -77 -8 -16 -28 -43
-45 -60 -30 -27 -38 -30 -94 -28 -34 1 -97 2 -139 2 -91 0 -118 11 -118 49 0
29 51 89 99 118 15 9 34 28 42 43 24 41 77 62 148 59 33 -1 63 1 67 5 11 11
103 8 125 -3z m-2591 -74 c0 -3 -4 -8 -10 -11 -5 -3 -10 -1 -10 4 0 6 5 11 10
11 6 0 10 -2 10 -4z m-205 -15 c3 -5 1 -12 -5 -16 -5 -3 -10 1 -10 9 0 18 6
21 15 7z m725 -21 c0 -5 -4 -10 -10 -10 -5 0 -10 5 -10 10 0 6 5 10 10 10 6 0
10 -4 10 -10z m-400 -9 c0 -6 -4 -13 -10 -16 -5 -3 -10 1 -10 9 0 9 5 16 10
16 6 0 10 -4 10 -9z m157 -17 c-3 -3 -12 -4 -19 -1 -8 3 -5 6 6 6 11 1 17 -2
13 -5z m43 -8 c0 -3 -4 -8 -10 -11 -5 -3 -10 -1 -10 4 0 6 5 11 10 11 6 0 10
-2 10 -4z m140 -6 c0 -5 -8 -10 -17 -10 -15 0 -16 2 -3 10 19 12 20 12 20 0z
m457 -12 c-3 -8 -6 -5 -6 6 -1 11 2 17 5 13 3 -3 4 -12 1 -19z m-696 -41 c-8
-8 -11 -7 -11 4 0 20 13 34 18 19 3 -7 -1 -17 -7 -23z m-571 3 c0 -5 -2 -10
-4 -10 -3 0 -8 5 -11 10 -3 6 -1 10 4 10 6 0 11 -4 11 -10z m850 6 c0 -3 -4
-8 -10 -11 -5 -3 -10 -1 -10 4 0 6 5 11 10 11 6 0 10 -2 10 -4z m280 -6 c0 -5
-2 -10 -4 -10 -3 0 -8 5 -11 10 -3 6 -1 10 4 10 6 0 11 -4 11 -10z m110 -20
c0 -5 -2 -10 -4 -10 -3 0 -8 5 -11 10 -3 6 -1 10 4 10 6 0 11 -4 11 -10z m370
-24 c0 -3 -4 -8 -10 -11 -5 -3 -10 -1 -10 4 0 6 5 11 10 11 6 0 10 -2 10 -4z
m-590 -16 c0 -5 -2 -10 -4 -10 -3 0 -8 5 -11 10 -3 6 -1 10 4 10 6 0 11 -4 11
-10z m530 0 c0 -5 -5 -10 -11 -10 -5 0 -7 5 -4 10 3 6 8 10 11 10 2 0 4 -4 4
-10z m-236 -16 c4 -10 1 -14 -6 -12 -15 5 -23 28 -10 28 5 0 13 -7 16 -16z
m202 -21 c-10 -10 -19 5 -10 18 6 11 8 11 12 0 2 -7 1 -15 -2 -18z m154 -37
c0 -3 -4 -8 -10 -11 -5 -3 -10 -1 -10 4 0 6 5 11 10 11 6 0 10 -2 10 -4z
m-1124 -66 c8 0 14 -2 14 -5 0 -19 -36 -85 -66 -122 -32 -39 -37 -42 -48 -27
-11 15 -16 10 -43 -38 -36 -63 -57 -83 -79 -74 -9 4 -23 1 -31 -5 -11 -9 -19
-7 -36 10 -13 11 -28 21 -35 21 -14 0 -5 67 14 97 7 11 36 36 65 54 46 31 49
34 28 39 -21 5 -20 8 23 43 25 20 63 43 84 50 37 13 40 13 67 -15 16 -15 35
-28 43 -28z m754 25 c0 -8 -2 -15 -4 -15 -2 0 -6 7 -10 15 -3 8 -1 15 4 15 6
0 10 -7 10 -15z m276 -12 c-10 -10 -19 5 -10 18 6 11 8 11 12 0 2 -7 1 -15 -2
-18z m180 -60 c-10 -10 -19 5 -10 18 6 11 8 11 12 0 2 -7 1 -15 -2 -18z m291
21 c-3 -3 -12 -4 -19 -1 -8 3 -5 6 6 6 11 1 17 -2 13 -5z m-647 -34 c0 -5 -4
-10 -9 -10 -6 0 -13 5 -16 10 -3 6 1 10 9 10 9 0 16 -4 16 -10z m720 -20 c0
-5 -7 -10 -16 -10 -8 0 -12 5 -9 10 3 6 10 10 16 10 5 0 9 -4 9 -10z m320 6
c0 -11 -19 -15 -25 -6 -3 5 1 10 9 10 9 0 16 -2 16 -4z m165 -6 c3 -5 -1 -10
-9 -10 -9 0 -16 5 -16 10 0 6 4 10 9 10 6 0 13 -4 16 -10z m-76 -21 c-16 -10
-23 -4 -14 10 3 6 11 8 17 5 6 -4 5 -9 -3 -15z m566 -39 c3 -5 1 -10 -4 -10
-6 0 -11 5 -11 10 0 6 2 10 4 10 3 0 8 -4 11 -10z m-915 -10 c0 -5 -5 -10 -11
-10 -5 0 -7 5 -4 10 3 6 8 10 11 10 2 0 4 -4 4 -10z m670 -10 c0 -5 -4 -10
-10 -10 -5 0 -10 5 -10 10 0 6 5 10 10 10 6 0 10 -4 10 -10z m110 0 c0 -5 -5
-10 -11 -10 -5 0 -7 5 -4 10 3 6 8 10 11 10 2 0 4 -4 4 -10z m-1056 -12 c-3
-4 -9 -8 -15 -8 -5 0 -9 4 -9 8 0 5 7 9 15 9 8 0 12 -4 9 -9z m972 -25 c-10
-10 -19 5 -10 18 6 11 8 11 12 0 2 -7 1 -15 -2 -18z m-726 2 c0 -8 -4 -15 -10
-15 -5 0 -7 7 -4 15 4 8 8 15 10 15 2 0 4 -7 4 -15z m-320 -16 c0 -6 -4 -7
-10 -4 -5 3 -10 11 -10 16 0 6 5 7 10 4 6 -3 10 -11 10 -16z m500 11 c0 -5 -4
-10 -10 -10 -5 0 -10 5 -10 10 0 6 5 10 10 10 6 0 10 -4 10 -10z m-340 -10 c0
-5 -7 -10 -16 -10 -8 0 -12 5 -9 10 3 6 10 10 16 10 5 0 9 -4 9 -10z m1110
-21 c0 -5 -4 -9 -10 -9 -5 0 -10 7 -10 16 0 8 5 12 10 9 6 -3 10 -10 10 -16z
m-890 -9 c0 -5 -4 -10 -10 -10 -5 0 -10 5 -10 10 0 6 5 10 10 10 6 0 10 -4 10
-10z m-1967 -87 c-9 -7 -29 -13 -43 -13 -14 0 -31 -5 -38 -12 -9 -9 -12 -9
-12 -1 0 7 5 15 10 18 6 3 10 19 10 35 0 60 9 64 51 23 35 -34 37 -39 22 -50z
m2071 72 c-4 -8 -8 -15 -10 -15 -2 0 -4 7 -4 15 0 8 4 15 10 15 5 0 7 -7 4
-15z m406 -25 c0 -5 -5 -10 -11 -10 -5 0 -7 5 -4 10 3 6 8 10 11 10 2 0 4 -4
4 -10z m-108 -62 c-7 -7 -12 -8 -12 -2 0 6 3 14 7 17 3 4 9 5 12 2 2 -3 -1
-11 -7 -17z m98 12 c0 -5 -5 -10 -11 -10 -5 0 -7 5 -4 10 3 6 8 10 11 10 2 0
4 -4 4 -10z m400 -10 c0 -5 -7 -10 -15 -10 -8 0 -15 5 -15 10 0 6 7 10 15 10
8 0 15 -4 15 -10z m-2426 -186 c35 -34 8 -162 -63 -301 -33 -65 -56 -79 -81
-48 -8 9 -19 72 -26 143 -7 70 -13 128 -13 130 -4 10 -34 -2 -51 -20 -33 -35
-44 -92 -25 -128 8 -16 21 -30 27 -30 9 0 9 -3 1 -11 -15 -15 -67 -2 -88 21
-36 40 13 141 92 187 37 22 48 24 69 14 32 -14 44 -48 45 -129 1 -37 4 -80 8
-97 l6 -29 17 39 c38 91 49 171 33 243 -6 28 -4 32 13 32 12 0 28 -7 36 -16z
m118 -49 c-15 -33 -46 -30 -50 5 -5 33 26 56 47 35 12 -12 12 -19 3 -40z m602
-1 c9 -8 16 -26 16 -39 0 -27 -42 -65 -72 -65 -16 0 -17 -3 -8 -20 12 -23 47
-26 72 -6 9 7 26 37 38 67 30 81 36 88 56 68 14 -15 19 -15 43 -3 35 19 47 18
63 -5 12 -17 16 -17 33 -5 24 18 59 18 74 0 9 -11 7 -25 -8 -63 -22 -57 -16
-82 18 -64 25 14 27 5 4 -21 -23 -26 -69 -23 -88 5 -14 21 -14 28 0 67 18 50
18 60 5 60 -13 0 -57 -79 -65 -117 -7 -37 -13 -39 -40 -19 -19 13 -19 16 -2
68 21 67 21 68 2 68 -18 0 -54 -73 -55 -108 0 -27 -26 -39 -51 -24 -10 6 -20
8 -23 3 -12 -19 -75 -22 -107 -5 -30 15 -33 15 -58 -4 -14 -11 -31 -38 -38
-62 -16 -55 -49 -90 -84 -90 -63 0 -63 66 1 102 23 13 40 31 40 41 0 16 -3 15
-30 -5 -26 -19 -34 -20 -51 -10 -16 10 -24 10 -42 -3 -25 -18 -58 -20 -74 -4
-8 8 -17 6 -34 -10 -24 -22 -64 -28 -74 -10 -5 7 -12 3 -21 -9 -7 -11 -25 -23
-39 -26 -58 -15 -82 33 -67 129 6 42 11 49 27 47 29 -5 30 -8 27 -72 -2 -35 1
-61 8 -65 19 -12 50 26 50 60 0 37 35 95 69 111 18 9 32 9 60 -1 35 -12 36
-13 33 -61 -3 -68 3 -82 28 -59 11 10 20 25 20 34 0 9 9 35 20 59 25 56 67 76
119 57 l36 -12 -3 -69 c-3 -68 -2 -69 16 -49 10 11 24 39 31 62 12 44 60 93
91 93 10 0 26 -7 34 -16z m1042 -19 c15 -23 14 -26 -10 -57 -14 -18 -48 -49
-76 -68 -75 -51 -92 -69 -88 -93 5 -35 50 -35 78 0 31 39 70 63 106 63 31 0
46 -9 78 -47 18 -22 18 -23 -18 -64 -36 -43 -38 -65 -5 -56 27 7 23 -11 -5
-24 -28 -13 -61 1 -70 29 -5 14 -14 17 -45 14 -32 -3 -41 0 -50 17 -9 16 -18
19 -40 15 -34 -7 -67 8 -76 35 -5 17 -10 18 -39 9 -42 -13 -80 -4 -108 24 -20
20 -31 22 -96 19 -46 -2 -78 2 -87 9 -13 10 -18 6 -30 -23 -8 -20 -15 -38 -15
-41 0 -3 -4 -16 -10 -31 -9 -23 -12 -24 -31 -14 -28 15 -22 42 40 174 32 68
55 105 65 105 9 0 16 -5 16 -11 0 -7 14 -8 41 -4 31 5 45 3 60 -11 25 -23 24
-65 -2 -98 -24 -31 -22 -38 9 -29 12 3 25 16 28 29 9 36 60 74 98 74 39 0 56
-15 56 -52 0 -32 -36 -61 -72 -58 -36 3 -39 1 -28 -20 7 -14 21 -20 43 -20 41
0 50 7 71 50 29 62 90 133 135 157 55 29 57 29 77 -2z m-2073 -332 c-4 -9 0
-21 9 -27 14 -10 13 -14 -8 -33 -24 -21 -34 -17 -12 5 8 8 8 15 -2 27 -18 22
-35 19 -48 -10 -10 -21 -9 -25 3 -25 8 0 15 -4 15 -10 0 -5 -14 -10 -31 -10
-30 0 -31 1 -16 23 13 20 13 27 1 49 l-14 26 39 -5 c23 -3 41 -1 45 6 11 17
26 3 19 -16z m2325 15 c34 2 40 -6 20 -26 -9 -9 -9 -18 0 -37 16 -35 16 -35
-20 -35 -28 1 -31 3 -18 13 22 17 14 50 -15 64 -14 6 -23 7 -20 3 3 -5 -4 -15
-16 -23 -20 -14 -20 -16 -2 -26 24 -14 8 -14 -19 0 l-20 11 21 19 c12 11 21
27 21 35 0 12 5 14 18 8 9 -4 32 -7 50 -6z m-1860 -142 c7 -7 16 -32 19 -55 6
-42 6 -43 -23 -39 -23 2 -30 9 -34 33 -6 33 -32 44 -55 25 -30 -25 -17 -60 48
-127 60 -63 62 -66 62 -119 0 -71 -26 -99 -90 -99 -58 0 -85 26 -92 90 -6 47
-6 47 23 43 25 -3 30 -8 34 -38 4 -31 8 -35 35 -35 27 0 30 4 33 34 3 30 -4
41 -58 96 -69 70 -82 107 -57 168 12 27 24 38 49 45 36 10 84 0 106 -22z m635
-7 c14 -18 17 -43 17 -170 0 -142 -1 -149 -24 -176 -32 -37 -103 -40 -138 -5
-21 21 -23 32 -26 166 -3 117 0 150 12 175 28 53 118 59 159 10z m-856 -149
c18 -96 35 -185 38 -197 5 -20 1 -23 -24 -23 -26 0 -31 4 -37 35 -6 34 -8 35
-49 35 -44 0 -55 -10 -55 -51 0 -15 -7 -19 -31 -19 -24 0 -29 4 -25 18 2 9 19
94 36 187 17 94 33 176 35 183 3 9 18 12 42 10 l37 -3 33 -175z m453 155 c0
-22 -4 -25 -35 -25 l-35 0 0 -175 0 -175 -30 0 -30 0 0 175 0 175 -35 0 c-31
0 -35 3 -35 25 l0 25 100 0 100 0 0 -25z m175 0 c21 -20 25 -34 25 -83 0 -34
-6 -66 -14 -77 -11 -16 -11 -23 -1 -40 7 -11 15 -55 17 -97 l3 -78 -27 0 c-30
0 -35 15 -40 110 -3 43 -5 45 -35 48 l-33 3 0 -80 0 -81 -30 0 -30 0 0 200 0
200 70 0 c62 0 74 -3 95 -25z m377 -82 l36 -108 1 108 1 107 30 0 30 0 0 -201
0 -200 -32 3 c-32 3 -33 4 -73 128 l-40 125 -3 -127 -3 -128 -24 0 -25 0 0
200 0 200 33 0 c33 0 33 0 69 -107z m289 81 c23 -25 24 -31 24 -168 0 -154 -8
-185 -52 -205 -33 -15 -58 -14 -93 4 -42 22 -52 68 -48 217 3 118 5 128 27
152 35 37 107 37 142 0z m149 -91 c13 -65 26 -124 30 -131 4 -8 17 37 29 100
31 156 27 148 67 148 l34 0 0 -200 0 -200 -25 0 -25 0 0 107 c0 58 -2 104 -5
101 -3 -2 -12 -40 -20 -84 -9 -43 -18 -89 -21 -101 -3 -17 -11 -23 -32 -23
-27 0 -29 2 -47 93 -24 125 -35 140 -34 47 1 -143 2 -140 -26 -140 l-25 0 0
200 0 200 39 0 38 0 23 -117z m250 -83 l0 -200 -30 0 -30 0 0 200 0 200 30 0
30 0 0 -200z m174 183 c3 -10 16 -79 30 -153 14 -74 29 -156 34 -182 9 -48 9
-48 -18 -48 -28 0 -40 15 -40 51 0 18 -6 20 -47 17 -44 -3 -48 -5 -53 -33 -4
-24 -11 -31 -34 -33 -25 -3 -28 -1 -23 20 3 13 20 103 38 201 l34 177 37 0
c26 0 38 -5 42 -17z m-174 -598 c0 -2 -10 -9 -22 -15 -22 -11 -22 -10 -4 4 21
17 26 19 26 11z m-95 -60 c-89 -65 -223 -203 -281 -289 l-27 -40 39 24 c21 13
35 19 29 14 -23 -22 -104 -84 -110 -84 -10 0 72 113 141 194 58 67 205 196
222 196 4 0 -2 -7 -13 -15z m-1726 -49 c-16 -15 -209 -104 -209 -97 0 18 49
68 82 84 28 14 140 25 127 13z m71 -45 c-1 -10 -289 -145 -296 -138 -9 9 5 57
17 57 14 0 223 103 227 112 4 8 52 -21 52 -31z m1838 -18 c-10 -2 -28 -2 -40
0 -13 2 -5 4 17 4 22 1 32 -1 23 -4z m-1803 -24 c4 -11 5 -22 3 -24 -1 -1 -72
-36 -156 -77 -144 -71 -153 -74 -163 -56 -6 11 -9 22 -6 24 6 6 301 153 309
153 4 1 10 -8 13 -20z m14 -121 c-19 -86 -112 -149 -198 -133 -37 7 -101 41
-101 54 0 4 66 39 147 79 162 80 169 80 152 0z m1516 64 c-14 -12 -107 -76
-125 -86 -30 -18 5 12 64 53 53 37 85 54 61 33z m602 2 c-3 -3 -12 -4 -19 -1
-8 3 -5 6 6 6 11 1 17 -2 13 -5z m116 -80 c11 -11 -3 -24 -18 -18 -8 4 -12 10
-9 15 6 11 18 12 27 3z m-223 -84 c0 -5 -5 -10 -11 -10 -5 0 -7 5 -4 10 3 6 8
10 11 10 2 0 4 -4 4 -10z m-760 -59 c0 -16 6 -31 15 -35 20 -7 19 -26 -1 -26
-8 0 -13 4 -9 9 3 5 1 12 -5 16 -5 3 -10 14 -10 25 0 14 -7 18 -32 16 -19 0
-36 -8 -40 -16 -5 -11 -7 -9 -7 7 -1 20 3 22 28 17 16 -4 32 -1 35 5 13 20 26
11 26 -18z m760 9 c0 -5 -4 -10 -10 -10 -5 0 -10 5 -10 10 0 6 5 10 10 10 6 0
10 -4 10 -10z m-2597 -35 c-7 -21 -13 -19 -13 6 0 11 4 18 10 14 5 -3 7 -12 3
-20z m1750 -25 c-5 -19 -23 -29 -23 -12 0 7 20 32 26 32 1 0 0 -9 -3 -20z
m-415 -16 c56 -37 77 -115 47 -177 -22 -45 -60 -69 -115 -75 -55 -5 -99 14
-129 57 -30 41 -26 55 8 30 53 -39 142 -5 154 59 8 40 -17 91 -53 105 -17 8
-27 17 -23 21 11 11 84 -2 111 -20z m-1408 -4 c0 -5 -4 -10 -10 -10 -5 0 -10
5 -10 10 0 6 5 10 10 10 6 0 10 -4 10 -10z m1889 -12 c-17 -32 -16 -32 -30 -6
-11 20 -10 22 3 10 13 -10 17 -10 22 3 3 8 8 15 11 15 3 0 0 -10 -6 -22z m615
-69 c-8 -14 -24 -10 -24 6 0 9 6 12 15 9 8 -4 12 -10 9 -15z m-2358 -56 c-10
-10 -19 5 -10 18 6 11 8 11 12 0 2 -7 1 -15 -2 -18z m2604 -37 c-14 -14 -22
-2 -14 18 5 14 9 15 15 4 4 -7 4 -17 -1 -22z m-2340 20 c0 -3 -4 -8 -10 -11
-5 -3 -10 -1 -10 4 0 6 5 11 10 11 6 0 10 -2 10 -4z m-333 -38 c-3 -8 -6 -5
-6 6 -1 11 2 17 5 13 3 -3 4 -12 1 -19z m2223 2 c0 -5 -4 -10 -10 -10 -5 0
-10 5 -10 10 0 6 5 10 10 10 6 0 10 -4 10 -10z m-2190 -20 c0 -5 -5 -10 -11
-10 -5 0 -7 5 -4 10 3 6 8 10 11 10 2 0 4 -4 4 -10z m230 0 c0 -5 -5 -10 -11
-10 -5 0 -7 5 -4 10 3 6 8 10 11 10 2 0 4 -4 4 -10z m50 -84 c0 -3 -4 -8 -10
-11 -5 -3 -10 -1 -10 4 0 6 5 11 10 11 6 0 10 -2 10 -4z m1690 -26 c0 -5 -5
-10 -11 -10 -5 0 -7 5 -4 10 3 6 8 10 11 10 2 0 4 -4 4 -10z m-1600 -9 c0 -12
-20 -25 -27 -18 -7 7 6 27 18 27 5 0 9 -4 9 -9z m220 -21 c0 -5 -4 -10 -10
-10 -5 0 -10 5 -10 10 0 6 5 10 10 10 6 0 10 -4 10 -10z m1330 0 c0 -5 -7 -10
-16 -10 -8 0 -12 5 -9 10 3 6 10 10 16 10 5 0 9 -4 9 -10z m-1540 -20 c0 -5
-5 -10 -11 -10 -5 0 -7 5 -4 10 3 6 8 10 11 10 2 0 4 -4 4 -10z m60 -5 c0 -8
-4 -15 -10 -15 -5 0 -10 7 -10 15 0 8 5 15 10 15 6 0 10 -7 10 -15z m1415 -5
c-3 -5 -10 -10 -16 -10 -5 0 -9 5 -9 10 0 6 7 10 16 10 8 0 12 -4 9 -10z m-60
-58 c1 -12 -1 -22 -4 -22 -10 0 -30 37 -24 44 12 12 26 0 28 -22z m-1385 -33
c0 -5 -4 -9 -10 -9 -5 0 -10 7 -10 16 0 8 5 12 10 9 6 -3 10 -10 10 -16z
m1890 11 c0 -5 -4 -10 -10 -10 -5 0 -10 5 -10 10 0 6 5 10 10 10 6 0 10 -4 10
-10z m-1780 -10 c0 -5 -4 -10 -9 -10 -6 0 -13 5 -16 10 -3 6 1 10 9 10 9 0 16
-4 16 -10z m1410 0 c0 -5 -2 -10 -4 -10 -3 0 -8 5 -11 10 -3 6 -1 10 4 10 6 0
11 -4 11 -10z m70 -20 c0 -5 -5 -10 -11 -10 -5 0 -7 5 -4 10 3 6 8 10 11 10 2
0 4 -4 4 -10z m490 -11 c0 -5 -4 -9 -10 -9 -5 0 -10 7 -10 16 0 8 5 12 10 9 6
-3 10 -10 10 -16z m-350 1 c0 -5 -5 -10 -11 -10 -5 0 -7 5 -4 10 3 6 8 10 11
10 2 0 4 -4 4 -10z m195 0 c3 -5 1 -10 -4 -10 -6 0 -11 5 -11 10 0 6 2 10 4
10 3 0 8 -4 11 -10z m-1755 -40 c0 -5 -4 -10 -10 -10 -5 0 -10 5 -10 10 0 6 5
10 10 10 6 0 10 -4 10 -10z m310 0 c0 -5 -4 -10 -10 -10 -5 0 -10 5 -10 10 0
6 5 10 10 10 6 0 10 -4 10 -10z m-280 -19 c0 -6 -4 -13 -10 -16 -5 -3 -10 1
-10 9 0 9 5 16 10 16 6 0 10 -4 10 -9z m50 -1 c0 -5 -7 -10 -15 -10 -8 0 -15
5 -15 10 0 6 7 10 15 10 8 0 15 -4 15 -10z m467 -26 c-3 -3 -12 -4 -19 -1 -8
3 -5 6 6 6 11 1 17 -2 13 -5z m1256 0 c9 -9 -4 -35 -14 -28 -5 3 -9 12 -9 20
0 14 12 19 23 8z m167 -4 c0 -5 -2 -10 -4 -10 -3 0 -8 5 -11 10 -3 6 -1 10 4
10 6 0 11 -4 11 -10z m-2309 -22 c41 -23 79 -84 79 -128 0 -45 -38 -105 -81
-129 -108 -61 -240 23 -226 145 12 110 129 168 228 112z m489 -8 c0 -5 -4 -10
-10 -10 -5 0 -10 5 -10 10 0 6 5 10 10 10 6 0 10 -4 10 -10z m447 -16 c-3 -3
-12 -4 -19 -1 -8 3 -5 6 6 6 11 1 17 -2 13 -5z m1093 -4 c0 -5 -2 -10 -4 -10
-3 0 -8 5 -11 10 -3 6 -1 10 4 10 6 0 11 -4 11 -10z m80 -10 c0 -5 -8 -10 -17
-10 -15 0 -16 2 -3 10 19 12 20 12 20 0z m240 6 c0 -3 -4 -8 -10 -11 -5 -3
-10 -1 -10 4 0 6 5 11 10 11 6 0 10 -2 10 -4z m-1320 -10 c0 -3 -4 -8 -10 -11
-5 -3 -10 -1 -10 4 0 6 5 11 10 11 6 0 10 -2 10 -4z m-230 -14 c0 -13 -12 -22
-22 -16 -10 6 -1 24 13 24 5 0 9 -4 9 -8z m120 -12 c0 -5 -4 -10 -10 -10 -5 0
-10 5 -10 10 0 6 5 10 10 10 6 0 10 -4 10 -10z m360 -10 c0 -5 -9 -10 -19 -10
-11 0 -23 5 -26 10 -4 6 5 10 19 10 14 0 26 -4 26 -10z m37 -66 c-3 -3 -12 -4
-19 -1 -8 3 -5 6 6 6 11 1 17 -2 13 -5z m103 -1 c0 -5 -4 -15 -10 -23 -11 -18
-25 -7 -17 15 6 15 27 21 27 8z m55 -63 c3 -5 1 -10 -4 -10 -6 0 -11 5 -11 10
0 6 2 10 4 10 3 0 8 -4 11 -10z m1187 -12 c-7 -7 -12 -8 -12 -2 0 14 12 26 19
19 2 -3 -1 -11 -7 -17z m-1582 -2 c0 -3 -4 -8 -10 -11 -5 -3 -10 -1 -10 4 0 6
5 11 10 11 6 0 10 -2 10 -4z m275 -15 c3 -5 1 -12 -5 -16 -5 -3 -10 1 -10 9 0
18 6 21 15 7z m285 -16 c0 -14 -4 -25 -10 -25 -11 0 -14 33 -3 43 11 11 13 8
13 -18z m-88 -7 c-7 -7 -12 -8 -12 -2 0 14 12 26 19 19 2 -3 -1 -11 -7 -17z
m-32 -14 c0 -8 -4 -12 -10 -9 -5 3 -10 10 -10 16 0 5 5 9 10 9 6 0 10 -7 10
-16z m405 -14 c-3 -5 -12 -10 -18 -10 -7 0 -6 4 3 10 19 12 23 12 15 0z m95
-9 c0 -6 -4 -13 -10 -16 -5 -3 -10 1 -10 9 0 9 5 16 10 16 6 0 10 -4 10 -9z
m97 -13 c-3 -8 -6 -5 -6 6 -1 11 2 17 5 13 3 -3 4 -12 1 -19z m-281 -35 c-10
-10 -19 5 -10 18 6 11 8 11 12 0 2 -7 1 -15 -2 -18z m599 17 c-3 -5 -10 -10
-16 -10 -5 0 -9 5 -9 10 0 6 7 10 16 10 8 0 12 -4 9 -10z m245 -14 c0 -3 -4
-8 -10 -11 -5 -3 -10 -1 -10 4 0 6 5 11 10 11 6 0 10 -2 10 -4z m-935 -16 c-3
-5 -11 -10 -16 -10 -6 0 -7 5 -4 10 3 6 11 10 16 10 6 0 7 -4 4 -10z m640 0
c-3 -5 -10 -10 -16 -10 -5 0 -9 5 -9 10 0 6 7 10 16 10 8 0 12 -4 9 -10z m385
0 c0 -5 -5 -10 -11 -10 -5 0 -7 5 -4 10 3 6 8 10 11 10 2 0 4 -4 4 -10z m-940
-10 c0 -5 -4 -10 -10 -10 -5 0 -10 5 -10 10 0 6 5 10 10 10 6 0 10 -4 10 -10z
m695 0 c3 -5 1 -10 -4 -10 -6 0 -11 5 -11 10 0 6 2 10 4 10 3 0 8 -4 11 -10z
m-455 -15 c0 -8 -4 -15 -10 -15 -5 0 -10 7 -10 15 0 8 5 15 10 15 6 0 10 -7
10 -15z m-105 -15 c-3 -5 -11 -10 -16 -10 -6 0 -7 5 -4 10 3 6 11 10 16 10 6
0 7 -4 4 -10z m75 -10 c0 -5 -5 -10 -11 -10 -5 0 -7 5 -4 10 3 6 8 10 11 10 2
0 4 -4 4 -10z m-860 -50 c0 -45 5 -48 33 -22 20 16 20 16 13 -3 -14 -36 -11
-40 27 -40 50 0 47 -13 -5 -21 -35 -6 -39 -9 -25 -19 26 -19 20 -27 -13 -20
-27 6 -30 4 -30 -17 0 -13 -5 -30 -10 -38 -7 -11 -10 -7 -10 18 0 35 -14 41
-42 15 -10 -9 -18 -11 -18 -6 0 6 7 16 15 23 24 20 18 27 -25 34 -46 7 -45 26
0 26 33 0 49 17 26 26 -9 3 -16 10 -16 15 0 6 10 5 21 -2 26 -13 39 1 39 44 0
15 5 27 10 27 6 0 10 -18 10 -40z m1170 20 c0 -5 -4 -10 -10 -10 -5 0 -10 5
-10 10 0 6 5 10 10 10 6 0 10 -4 10 -10z m-90 -4 c0 -3 -4 -8 -10 -11 -5 -3
-10 -1 -10 4 0 6 5 11 10 11 6 0 10 -2 10 -4z m-100 -46 c0 -5 -4 -10 -10 -10
-5 0 -10 5 -10 10 0 6 5 10 10 10 6 0 10 -4 10 -10z"/>
<path d="M1528 4183 c7 -3 16 -2 19 1 4 3 -2 6 -13 5 -11 0 -14 -3 -6 -6z"/>
<path d="M2900 4062 c0 -5 9 -17 20 -27 11 -10 20 -24 20 -32 0 -8 7 -13 16
-11 22 4 58 53 50 67 -8 13 -106 15 -106 3z"/>
<path d="M2616 3926 c-21 -19 -36 -41 -34 -48 4 -11 99 -26 98 -16 -1 2 -7 25
-14 52 l-12 48 -38 -36z"/>
<path d="M402 3533 c-62 -46 -69 -56 -53 -82 18 -29 55 -4 88 61 18 34 31 63
30 65 -2 1 -31 -18 -65 -44z"/>
<path d="M1435 3061 c-20 -39 -3 -49 24 -15 25 31 26 44 6 44 -8 0 -21 -13
-30 -29z"/>
<path d="M1235 3060 c-23 -25 -34 -115 -14 -108 8 2 25 25 38 51 32 64 17 102
-24 57z"/>
<path d="M1016 3027 c-23 -34 -32 -92 -16 -102 29 -18 71 88 46 113 -12 12
-16 11 -30 -11z"/>
<path d="M1222 2855 c-24 -30 -28 -45 -12 -45 14 0 43 47 38 61 -2 7 -13 0
-26 -16z"/>
<path d="M2451 3014 c-29 -31 -50 -59 -47 -61 7 -7 95 66 107 88 26 50 -2 37
-60 -27z"/>
<path d="M2025 3014 c-31 -34 -40 -61 -24 -80 10 -13 16 -11 40 12 28 27 52
78 42 88 -13 13 -35 5 -58 -20z"/>
<path d="M2235 2980 c-10 -11 -16 -23 -12 -26 10 -10 47 7 57 27 9 16 7 19 -8
19 -10 0 -27 -9 -37 -20z"/>
<path d="M2513 2867 c-25 -24 -34 -39 -30 -51 6 -15 9 -15 36 -2 34 18 73 64
65 77 -10 17 -35 9 -71 -24z"/>
<path d="M805 2615 c-19 -18 -25 -35 -25 -65 0 -36 7 -48 65 -110 68 -73 77
-98 49 -138 -29 -42 -94 -14 -94 40 0 10 -4 18 -10 18 -5 0 -10 -13 -10 -30 0
-42 31 -70 78 -70 52 0 74 25 74 85 1 44 -2 50 -60 108 -53 53 -62 68 -62 98
0 49 30 77 65 61 13 -6 27 -23 31 -37 3 -14 12 -25 19 -25 19 0 1 60 -22 78
-27 20 -72 14 -98 -13z"/>
<path d="M1437 2628 c-28 -22 -37 -65 -37 -177 0 -116 11 -166 40 -181 30 -16
76 -12 101 9 23 19 24 24 24 171 0 147 -1 152 -24 171 -27 22 -79 25 -104 7z
m91 -36 c19 -25 17 -261 -4 -290 -19 -27 -48 -28 -74 -2 -18 18 -20 33 -20
150 0 118 2 132 21 151 22 22 55 19 77 -9z"/>
<path d="M1455 2578 c-3 -13 -4 -79 -3 -148 l3 -125 30 0 30 0 0 145 0 145
-27 3 c-22 3 -29 -2 -33 -20z"/>
<path d="M600 2586 c-39 -195 -60 -319 -56 -323 9 -9 26 8 26 27 0 42 10 50
66 50 l54 0 6 -40 c4 -24 12 -40 20 -40 8 0 14 3 14 8 0 22 -69 354 -74 359
-4 4 -15 7 -26 8 -16 1 -21 -8 -30 -49z m79 -203 c1 -21 -4 -23 -49 -23 -27 0
-50 2 -50 4 0 6 41 211 47 236 5 18 12 -5 29 -85 12 -60 23 -120 23 -132z"/>
<path d="M627 2520 c-7 -30 -27 -129 -27 -135 0 -3 14 -5 30 -5 35 0 37 10 16
105 -11 49 -14 55 -19 35z"/>
<path d="M1013 2632 c-51 -4 -58 -22 -8 -22 l35 0 2 -172 c2 -126 6 -172 16
-176 9 -3 12 36 12 172 l0 176 35 0 c32 0 52 19 23 21 -7 0 -26 1 -43 2 -16 1
-49 1 -72 -1z"/>
<path d="M1218 2632 l-28 -3 0 -185 c0 -144 3 -185 13 -182 8 3 13 32 15 86
l3 82 29 0 c50 0 70 -30 70 -105 0 -51 3 -65 15 -65 12 0 15 13 15 60 0 69
-14 107 -44 116 -20 7 -20 7 2 15 39 15 55 97 29 149 -13 26 -60 39 -119 32z
m92 -41 c5 -11 10 -40 10 -65 0 -51 -24 -76 -72 -76 l-28 0 0 80 0 80 40 0
c29 0 42 -5 50 -19z"/>
<path d="M1237 2593 c-4 -3 -7 -33 -7 -65 l0 -59 33 3 c31 3 32 5 35 51 2 27
-2 55 -9 63 -12 15 -41 19 -52 7z"/>
<path d="M1631 2631 c-17 -11 -11 -363 6 -368 10 -4 13 36 15 164 l3 168 51
-165 c36 -115 57 -166 68 -168 14 -3 16 17 16 182 0 112 -4 187 -10 191 -6 4
-10 -49 -11 -152 0 -101 -4 -151 -9 -138 -5 11 -28 79 -51 152 -41 128 -53
149 -78 134z"/>
<path d="M1874 2615 c-25 -25 -25 -26 -22 -176 3 -170 8 -179 79 -179 29 0 42
6 58 26 19 24 21 40 21 166 0 134 -1 140 -25 163 -32 33 -78 33 -111 0z m84
-11 c21 -14 22 -22 22 -151 0 -113 -3 -140 -17 -155 -20 -22 -46 -23 -67 -2
-13 12 -16 41 -16 154 0 132 1 140 22 154 12 9 25 16 28 16 3 0 16 -7 28 -16z"/>
<path d="M1902 2588 c-13 -13 -18 -242 -6 -272 7 -19 45 -21 62 -4 15 15 17
241 2 269 -12 21 -40 25 -58 7z"/>
<path d="M2070 2449 c0 -119 4 -189 10 -189 6 0 10 57 10 150 0 83 4 150 8
150 5 0 22 -66 38 -147 23 -111 34 -149 46 -151 13 -2 21 24 43 145 15 81 31
152 36 158 5 5 9 -58 9 -148 0 -134 2 -157 15 -157 13 0 15 25 13 187 -3 171
-5 186 -21 189 -23 3 -28 -10 -62 -185 -18 -94 -31 -138 -35 -125 -4 10 -20
83 -36 161 -26 129 -30 142 -51 146 l-23 4 0 -188z"/>
<path d="M2360 2449 c0 -148 3 -190 13 -187 9 4 13 52 15 185 2 154 0 182 -13
187 -13 5 -15 -19 -15 -185z"/>
<path d="M2512 2627 c-12 -16 -76 -356 -68 -364 9 -10 18 3 25 39 7 32 8 33
63 36 l56 3 7 -41 c4 -24 12 -40 21 -40 8 0 14 1 14 3 -1 18 -71 361 -75 365
-11 11 -34 10 -43 -1z m46 -134 c12 -65 22 -121 22 -125 0 -5 -23 -8 -51 -8
-51 0 -51 0 -46 28 3 15 14 71 24 125 10 53 20 97 24 97 3 0 15 -53 27 -117z"/>
<path d="M2517 2488 c-4 -24 -9 -58 -13 -75 -6 -32 -5 -33 25 -33 17 0 31 5
31 11 0 29 -24 139 -30 139 -4 0 -10 -19 -13 -42z"/>
<path d="M572 1676 c-61 -31 -112 -60 -112 -66 0 -15 -1 -15 117 41 122 58
116 54 111 69 -2 6 -49 -11 -116 -44z"/>
</g>
</svg>
